<svg width="72" height="76" viewBox="0 0 72 76" fill="none" xmlns="http://www.w3.org/2000/svg">
<path d="M19.942 14.3336C23.6938 14.3336 26.7353 11.2922 26.7353 7.54033C26.7353 3.78848 23.6938 0.747009 19.942 0.747009C16.1902 0.747009 13.1487 3.78848 13.1487 7.54033C13.1487 11.2922 16.1902 14.3336 19.942 14.3336Z" fill="#5CDEFE"/>
<path d="M19.942 14.9629C15.8488 14.9629 12.5195 11.6336 12.5195 7.54036C12.5195 3.44711 15.8488 0.117859 19.942 0.117859C24.0353 0.117859 27.3645 3.44711 27.3645 7.54036C27.3645 11.6336 24.0353 14.9629 19.942 14.9629ZM19.942 1.37621C16.5427 1.37621 13.7779 4.141 13.7779 7.54036C13.7779 10.9397 16.5427 13.7045 19.942 13.7045C23.3414 13.7045 26.1062 10.9397 26.1062 7.54036C26.1062 4.141 23.3414 1.37621 19.942 1.37621Z" fill="black"/>
<path d="M51.8468 14.3336C55.5986 14.3336 58.6401 11.2922 58.6401 7.54033C58.6401 3.78848 55.5986 0.747009 51.8468 0.747009C48.0949 0.747009 45.0535 3.78848 45.0535 7.54033C45.0535 11.2922 48.0949 14.3336 51.8468 14.3336Z" fill="#5CDEFE"/>
<path d="M51.8468 14.9629C47.7536 14.9629 44.4243 11.6336 44.4243 7.54036C44.4243 3.44711 47.7536 0.117859 51.8468 0.117859C55.9401 0.117859 59.2693 3.44711 59.2693 7.54036C59.2693 11.6336 55.9401 14.9629 51.8468 14.9629ZM51.8468 1.37621C48.4475 1.37621 45.6827 4.141 45.6827 7.54036C45.6827 10.9397 48.4475 13.7045 51.8468 13.7045C55.2462 13.7045 58.011 10.9397 58.011 7.54036C58.011 4.141 55.2462 1.37621 51.8468 1.37621Z" fill="black"/>
<path d="M19.942 11.7397C22.2612 11.7397 24.1413 9.85959 24.1413 7.54038C24.1413 5.22116 22.2612 3.34106 19.942 3.34106C17.6228 3.34106 15.7427 5.22116 15.7427 7.54038C15.7427 9.85959 17.6228 11.7397 19.942 11.7397Z" fill="#E71884"/>
<path d="M19.9421 12.0093C17.4775 12.0093 15.4731 10.0049 15.4731 7.54037C15.4731 5.07579 17.4775 3.07141 19.9421 3.07141C22.4067 3.07141 24.4111 5.07579 24.4111 7.54037C24.4111 10.0049 22.4067 12.0093 19.9421 12.0093ZM19.9421 3.61071C17.7759 3.61071 16.0124 5.3742 16.0124 7.54037C16.0124 9.70654 17.7759 11.47 19.9421 11.47C22.1083 11.47 23.8718 9.70654 23.8718 7.54037C23.8718 5.3742 22.1083 3.61071 19.9421 3.61071Z" fill="black"/>
<path d="M51.8465 11.7397C54.1657 11.7397 56.0458 9.85959 56.0458 7.54038C56.0458 5.22116 54.1657 3.34106 51.8465 3.34106C49.5273 3.34106 47.6472 5.22116 47.6472 7.54038C47.6472 9.85959 49.5273 11.7397 51.8465 11.7397Z" fill="#E71884"/>
<path d="M51.8466 12.0093C49.3821 12.0093 47.3777 10.0049 47.3777 7.54037C47.3777 5.07579 49.3821 3.07141 51.8466 3.07141C54.3112 3.07141 56.3156 5.07579 56.3156 7.54037C56.3156 10.0049 54.3112 12.0093 51.8466 12.0093ZM51.8466 3.61071C49.6805 3.61071 47.917 5.3742 47.917 7.54037C47.917 9.70654 49.6805 11.47 51.8466 11.47C54.0128 11.47 55.7763 9.70654 55.7763 7.54037C55.7763 5.3742 54.0128 3.61071 51.8466 3.61071Z" fill="black"/>
<path d="M48.9631 75.1608H55.1273C57.5595 75.1608 59.0983 72.5506 57.9226 70.4222L51.5895 58.9622H37.6829V63.8805C37.6829 70.1094 42.7325 75.159 48.9613 75.159L48.9631 75.1608Z" fill="#01779B"/>
<path d="M42.5815 70.3952H47.0667C50.5056 70.3952 53.6425 69.1045 56.0244 66.9833L57.9245 70.4222C58.9168 72.218 57.9766 74.3554 56.1987 74.981H51.6615C47.9385 74.981 44.6381 73.1762 42.5833 70.3952H42.5815Z" fill="#5CDEFE"/>
<path d="M22.8254 75.1608H16.6612C14.229 75.1608 12.6902 72.5506 13.8659 70.4222L20.199 58.9622H34.1056V63.8805C34.1056 70.1094 29.056 75.159 22.8272 75.159L22.8254 75.1608Z" fill="#01779B"/>
<path d="M32.3402 3.61426H39.4481C51.0897 3.61426 60.5417 13.0663 60.5417 24.7079V53.3265C60.5417 60.7634 54.5034 66.8017 47.0666 66.8017H24.7218C17.2849 66.8017 11.2466 60.7634 11.2466 53.3265V24.7079C11.2466 13.0663 20.6986 3.61426 32.3402 3.61426Z" fill="#01779B"/>
<path d="M33.8933 3.61426H37.8931C48.8731 3.61426 57.7859 12.5288 57.7859 23.5071V50.7181C57.7859 56.4508 53.1317 61.1031 47.4008 61.1031H24.3855C18.6528 61.1031 14.0005 56.449 14.0005 50.7181V23.5071C14.0005 12.527 22.915 3.61426 33.8933 3.61426Z" fill="#5CDEFE"/>
<path d="M47.0666 67.4309H24.7218C16.9452 67.4309 10.6174 61.1031 10.6174 53.3265V24.7079C10.6174 12.7302 20.3625 2.98511 32.3402 2.98511H39.4481C51.4259 2.98511 61.1709 12.7302 61.1709 24.7079V53.3265C61.1709 61.1031 54.8432 67.4309 47.0666 67.4309ZM32.3402 4.24346C21.0564 4.24346 11.8758 13.4241 11.8758 24.7079V53.3265C11.8758 60.4092 17.6391 66.1725 24.7218 66.1725H47.0666C54.1493 66.1725 59.9126 60.4092 59.9126 53.3265V24.7079C59.9126 13.4241 50.732 4.24346 39.4481 4.24346H32.3402Z" fill="black"/>
<path d="M49.5528 28.2205C51.3774 28.2205 52.9809 29.6982 52.9809 31.6558V43.5725C52.9809 45.2982 51.8772 46.8298 50.2395 47.3763C45.5836 48.9295 40.739 49.706 35.8943 49.706C31.0496 49.706 26.205 48.9295 21.549 47.3763C19.9114 46.8298 18.8076 45.2982 18.8076 43.5725V31.6558C18.8076 29.6982 20.4111 28.2205 22.2357 28.2205C22.5953 28.2205 22.962 28.2781 23.3269 28.4003C27.4058 29.7611 31.65 30.4406 35.8943 30.4406C40.1385 30.4406 44.3828 29.7611 48.4617 28.4003C48.8266 28.2781 49.1951 28.2205 49.5528 28.2205ZM49.5528 24.805C48.8176 24.805 48.0859 24.9236 47.3813 25.1591C43.6709 26.3959 39.806 27.0233 35.8943 27.0233C31.9826 27.0233 28.1177 26.3959 24.4073 25.1591C23.7026 24.9236 22.971 24.805 22.2357 24.805C18.4625 24.805 15.3921 27.879 15.3921 31.6558V43.5725C15.3921 46.7723 17.4324 49.6036 20.4669 50.6157C25.4499 52.2767 30.6398 53.1198 35.8925 53.1198C41.1452 53.1198 46.335 52.2767 51.3181 50.6157C54.3544 49.6036 56.3929 46.7723 56.3929 43.5725V31.6558C56.3929 27.879 53.3225 24.805 49.5528 24.805Z" fill="#E71884"/>
<path d="M35.8925 53.6591C30.584 53.6591 25.3367 52.807 20.2961 51.128C17.0405 50.0422 14.8528 47.006 14.8528 43.5724V31.6558C14.8528 27.5806 18.1641 24.2657 22.2357 24.2657C23.0321 24.2657 23.8195 24.3933 24.5781 24.6468C28.2327 25.8656 32.0401 26.484 35.8943 26.484C39.7484 26.484 43.5559 25.8656 47.2105 24.6468C47.9673 24.3933 48.7547 24.2657 49.551 24.2657H49.5528C53.6227 24.2657 56.9322 27.5806 56.9322 31.6558V43.5724C56.9322 47.006 54.7444 50.0422 51.4889 51.128C46.4483 52.807 41.2009 53.6591 35.8925 53.6591ZM22.2357 25.3443C18.7591 25.3443 15.9314 28.1756 15.9314 31.6558V43.5724C15.9314 46.5404 17.8225 49.1649 20.6376 50.1033C25.5668 51.7464 30.7009 52.5805 35.8925 52.5805C41.0859 52.5805 46.2182 51.7482 51.1473 50.1033C53.9625 49.1649 55.8536 46.5404 55.8536 43.5724V31.6558C55.8536 28.1756 53.0277 25.3443 49.551 25.3443C48.8715 25.3443 48.1992 25.4539 47.552 25.6697C43.786 26.9244 39.8635 27.5608 35.8943 27.5608C31.9251 27.5608 28.0026 26.9244 24.2365 25.6697C23.5894 25.4539 22.9152 25.3443 22.2357 25.3443ZM35.8943 50.2453C30.9525 50.2453 26.0683 49.4526 21.3783 47.8886C19.5177 47.2684 18.2683 45.5337 18.2683 43.5724V31.6558C18.2683 29.4645 20.048 27.6812 22.2357 27.6812C22.6618 27.6812 23.086 27.7513 23.4977 27.8897C27.4993 29.2254 31.6716 29.9013 35.8943 29.9013C40.117 29.9013 44.2875 29.2236 48.2909 27.8879C48.7007 27.7495 49.1268 27.6812 49.5528 27.6812C51.7406 27.6812 53.5202 29.4645 53.5202 31.6558V43.5724C53.5202 45.5337 52.2709 47.2666 50.4103 47.8886C45.7202 49.4526 40.836 50.2453 35.8943 50.2453ZM22.2357 28.7598C20.643 28.7598 19.3469 30.0595 19.3469 31.6558V43.5724C19.3469 45.0681 20.2997 46.3912 21.7198 46.8639C26.2984 48.3919 31.0676 49.1667 35.8943 49.1667C40.721 49.1667 45.4901 48.3919 50.0687 46.8639C51.4871 46.3912 52.4416 45.0681 52.4416 43.5724V31.6558C52.4416 30.0595 51.1455 28.7598 49.5528 28.7598C49.2436 28.7598 48.9344 28.8101 48.6324 28.9108C44.5176 30.2842 40.232 30.9799 35.8943 30.9799C31.5565 30.9799 27.2692 30.2842 23.1561 28.9126C22.8541 28.8101 22.5449 28.7598 22.2357 28.7598Z" fill="black"/>
<path d="M50.2395 47.3763C40.9277 50.4826 30.8609 50.4826 21.549 47.3763C19.9114 46.8298 18.8076 45.2982 18.8076 43.5724V31.6558C18.8076 29.3135 21.1032 27.6578 23.3269 28.4003C31.4846 31.1201 40.3039 31.1201 48.4617 28.4003C50.6835 27.6596 52.9809 29.3135 52.9809 31.6558V43.5724C52.9809 45.2982 51.8772 46.8298 50.2395 47.3763Z" fill="#990066"/>
<mask id="mask0_2140_6665" style="mask-type:luminance" maskUnits="userSpaceOnUse" x="18" y="28" width="35" height="22">
<path d="M50.2395 47.3763C40.9277 50.4826 30.8609 50.4826 21.549 47.3763C19.9114 46.8298 18.8076 45.2982 18.8076 43.5724V31.6558C18.8076 29.3135 21.1032 27.6578 23.3269 28.4003C31.4846 31.1201 40.3039 31.1201 48.4617 28.4003C50.6835 27.6596 52.9809 29.3135 52.9809 31.6558V43.5724C52.9809 45.2982 51.8772 46.8298 50.2395 47.3763Z" fill="white"/>
</mask>
<g mask="url(#mask0_2140_6665)">
<path d="M11.9153 27.4241L20.4541 31.7852L24.3335 36.0079L28.1876 31.947L32.0418 36.0079L35.8959 31.947L39.7501 36.0079L43.6043 31.947L47.4584 36.0079L51.3126 31.7852L59.8532 27.4241H11.9153Z" fill="white"/>
<path d="M47.4621 36.4034L43.6043 32.3389L39.7502 36.3998L35.896 32.3389L32.0418 36.3998L28.1877 32.3389L24.3299 36.4034L20.2888 32.0046L10.7954 27.1563H60.975L51.4798 32.0046L47.4621 36.4034ZM35.896 31.5552L39.7502 35.6161L43.6043 31.5552L47.4549 35.6125L51.1473 31.5677L58.7333 27.6938H13.0371L20.6214 31.5677L24.3389 35.6143L28.1895 31.557L32.0436 35.6179L35.896 31.5552Z" fill="black"/>
<path d="M11.9153 49.8948L20.4541 45.5337L24.3335 41.311L28.1876 45.3719L32.0418 41.311L35.8959 45.3719L39.7501 41.311L43.6043 45.3719L47.4584 41.311L51.3126 45.5337L59.8532 49.8948H11.9153Z" fill="white"/>
<path d="M60.975 50.1644H10.7954L20.2888 45.3162L24.3299 40.9155L28.1877 44.98L32.0418 40.9191L35.896 44.98L39.7502 40.9191L43.6043 44.98L47.4621 40.9155L51.478 45.3162L60.975 50.1644ZM13.0371 49.6251H58.7333L51.1473 45.7512L47.4549 41.7065L43.6043 45.7638L39.7502 41.7029L35.896 45.7638L32.0418 41.7029L28.1877 45.7638L24.3371 41.7065L20.6196 45.753L20.5764 45.7746L13.0371 49.6251Z" fill="black"/>
</g>
<path d="M35.8943 50.2291C30.9759 50.2291 26.0593 49.4489 21.3782 47.8868C19.5177 47.2666 18.2683 45.5319 18.2683 43.5706V31.6558C18.2683 30.3633 18.8705 29.1894 19.9186 28.4326C20.9666 27.6776 22.2717 27.4781 23.4977 27.8879C31.4918 30.5538 40.2967 30.5538 48.2909 27.8879C49.5169 27.4799 50.822 27.6776 51.87 28.4344C52.918 29.1894 53.5202 30.3633 53.5202 31.6558V43.5724C53.5202 45.5337 52.2709 47.2666 50.4103 47.8886C45.7292 49.4489 40.8126 50.2291 35.8943 50.2291ZM22.2303 28.7598C21.6353 28.7598 21.0511 28.9467 20.5495 29.3081C19.7855 29.8581 19.3469 30.7138 19.3469 31.6558V43.5724C19.3469 45.0681 20.2997 46.3911 21.7198 46.8639C30.8608 49.9127 40.9277 49.9127 50.0687 46.8639C51.4871 46.3911 52.4416 45.0681 52.4416 43.5724V31.6558C52.4416 30.7156 52.003 29.8599 51.2408 29.3099C50.4768 28.7598 49.5258 28.6142 48.6324 28.9108C40.419 31.6486 31.3714 31.6486 23.1561 28.9108C22.8505 28.8101 22.5395 28.7598 22.2303 28.7598Z" fill="black"/>
<path d="M29.2069 70.3952H24.7218C21.2829 70.3952 18.146 69.1045 15.7641 66.9833L13.864 70.4222C12.8717 72.218 13.8119 74.3554 15.5897 74.981H20.127C23.8499 74.981 27.1504 73.1762 29.2069 70.3952Z" fill="#5CDEFE"/>
<path d="M22.8236 75.7917H16.6594C15.2932 75.7917 14.0618 75.0889 13.3679 73.9114C12.674 72.7339 12.6525 71.3156 13.314 70.1201L16.9363 63.5659L17.5061 63.9542C19.6399 65.4049 22.1351 66.1707 24.7219 66.1707H26.2409L26.2391 66.1725H34.5388L34.3267 66.9635C32.9389 72.1623 28.2093 75.7917 22.8236 75.7917ZM17.3767 65.3672L14.4142 70.7278C13.9701 71.5313 13.9845 72.4823 14.4501 73.2714C14.9157 74.0606 15.7408 74.5334 16.6594 74.5334H22.8236C27.3608 74.5334 31.3786 71.6517 32.867 67.4309H23.2011L23.2766 67.3554C21.1841 67.1432 19.1761 66.4673 17.3767 65.3672Z" fill="black"/>
<path d="M55.1291 75.7917H48.965C43.5792 75.7917 38.8496 72.1623 37.4618 66.9635L37.2515 66.1725L47.0684 66.1707C49.6553 66.1707 52.1522 65.4031 54.2842 63.9542L54.8541 63.5659L58.4763 70.1201C59.1379 71.3174 59.1181 72.7339 58.4224 73.9114C57.7267 75.0889 56.4953 75.7917 55.1291 75.7917ZM38.9215 67.4309C40.4081 71.6517 44.4259 74.5334 48.965 74.5334H55.1291C56.0459 74.5334 56.871 74.0624 57.3384 73.2714C57.804 72.4823 57.8184 71.5295 57.3744 70.7278L54.4118 65.3672C52.6393 66.4511 50.6637 67.1235 48.6036 67.3464L48.6971 67.4309H38.9215Z" fill="black"/>
<path d="M5.65415 25.0674C8.74431 25.0674 11.2484 27.3666 11.2484 30.2015V47.8275L1.52675 31.4437C-0.177422 28.5693 2.08762 25.0692 5.65415 25.0692V25.0674Z" fill="#5CDEFE"/>
<path d="M9.24942 37.6762L7.83287 30.482C7.3493 28.0228 5.03033 26.2916 2.40576 26.2611C3.23088 25.533 4.35441 25.0674 5.65232 25.0674C8.74248 25.0674 11.2466 27.3666 11.2466 30.2015V47.8275L9.24942 37.678V37.6762Z" fill="#01779B"/>
<path d="M11.9065 50.222L0.962369 31.7799C0.0905084 30.3076 0.0725319 28.5441 0.917427 27.0628C1.74435 25.6103 3.27055 24.6468 4.99809 24.4509V24.4131L5.65423 24.4113C9.10213 24.4113 11.9047 27.0089 11.9047 30.2015V50.222H11.9065ZM5.65423 25.7254C4.13342 25.7254 2.75642 26.4858 2.05893 27.7118C1.44234 28.794 1.45492 30.0326 2.09309 31.1076L10.5924 45.4312V30.1997C10.5924 27.7729 8.45318 25.7919 5.79445 25.7236H5.65423V25.7254Z" fill="black"/>
<path d="M66.1343 25.0674C63.0442 25.0674 60.54 27.3666 60.54 30.2015V37.5126V47.8257L70.2617 31.4419C71.9659 28.5675 69.7009 25.0674 66.1343 25.0674Z" fill="#01779B"/>
<path d="M59.8821 50.2202V30.2015C59.8821 27.0089 62.6864 24.4113 66.1343 24.4113C68.1261 24.4113 69.9417 25.427 70.8729 27.0611C71.7178 28.5423 71.6998 30.3058 70.828 31.7781L59.8821 50.2202ZM66.1343 25.7236C63.4127 25.7236 61.198 27.7316 61.198 30.2015V45.4312L69.6972 31.1076C70.3354 30.0308 70.348 28.794 69.7314 27.7118C69.0321 26.4858 67.6551 25.7236 66.1343 25.7236Z" fill="black"/>
<path d="M19.7657 18.569H32.2576V19.1712C32.2576 21.5117 30.3575 23.4118 28.0169 23.4118H24.0046C21.664 23.4118 19.7639 21.5117 19.7639 19.1712V18.569H19.7657Z" fill="white"/>
<path d="M28.0169 23.9511H24.0046C21.3692 23.9511 19.2246 21.8065 19.2246 19.1712V18.569C19.2246 18.2705 19.4655 18.0297 19.7639 18.0297H32.2576C32.556 18.0297 32.7969 18.2705 32.7969 18.569V19.1712C32.7969 21.8065 30.6523 23.9511 28.0169 23.9511ZM20.3032 19.1083V19.1712C20.3032 21.2115 21.9642 22.8725 24.0046 22.8725H28.0169C30.0572 22.8725 31.7183 21.2115 31.7183 19.1712V19.1083H20.3032Z" fill="black"/>
<path d="M23.3392 18.5689C23.1415 18.8943 23.03 19.2592 23.03 19.6475C23.03 20.9903 24.3657 22.0797 26.0123 22.0797C27.659 22.0797 28.9946 20.9903 28.9946 19.6475C28.9946 19.2592 28.8832 18.8943 28.6854 18.5689H23.3392Z" fill="black"/>
<path d="M26.0124 22.3494C24.2184 22.3494 22.7605 21.1377 22.7605 19.6475C22.7605 19.2197 22.8773 18.8098 23.1092 18.4287L23.1883 18.2993H28.8384L28.9174 18.4287C29.1493 18.8098 29.2662 19.2197 29.2662 19.6475C29.2644 21.1377 27.8047 22.3494 26.0124 22.3494ZM23.4975 18.8386C23.3663 19.0956 23.2998 19.3671 23.2998 19.6475C23.2998 20.8393 24.5168 21.8101 26.0124 21.8101C27.5081 21.8101 28.7251 20.8393 28.7251 19.6475C28.7251 19.3671 28.6586 19.0956 28.5274 18.8386H23.4975Z" fill="black"/>
<path d="M25.9729 18.5689C25.8884 18.7864 25.8398 19.0273 25.8398 19.2826C25.8398 20.2263 26.4834 20.9903 27.2762 20.9903C28.0689 20.9903 28.7125 20.2263 28.7125 19.2826C28.7125 19.0273 28.664 18.7864 28.5795 18.5689H25.9729Z" fill="white"/>
<path d="M32.9802 19.1082H19.0268C18.7284 19.1082 18.4875 18.8673 18.4875 18.5689C18.4875 15.601 20.3949 13.1868 22.739 13.1868C23.0374 13.1868 23.2783 13.4277 23.2783 13.7261C23.2783 14.0245 23.0374 14.2654 22.739 14.2654C21.1247 14.2654 19.7872 15.9102 19.5913 18.0296H32.4157C32.36 17.4436 32.2162 16.8755 31.9915 16.365C31.8711 16.0918 31.9951 15.7736 32.2665 15.6531C32.538 15.5327 32.858 15.6567 32.9784 15.9282C33.3325 16.7299 33.5213 17.6431 33.5213 18.5671C33.5195 18.8673 33.2786 19.1082 32.9802 19.1082Z" fill="black"/>
<path d="M47.7821 23.4118H43.7697C41.4292 23.4118 39.5291 21.5117 39.5291 19.1711V18.5689H52.0209V19.1711C52.0209 21.5117 50.1208 23.4118 47.7803 23.4118H47.7821Z" fill="white"/>
<path d="M47.7821 23.9511H43.7697C41.1343 23.9511 38.9897 21.8065 38.9897 19.1711V18.5689C38.9897 18.2705 39.2306 18.0296 39.529 18.0296H52.0209C52.3193 18.0296 52.5602 18.2705 52.5602 18.5689V19.1711C52.5602 21.8065 50.4174 23.9493 47.7821 23.9511ZM40.0683 19.1082V19.1711C40.0683 21.2114 41.7294 22.8725 43.7697 22.8725H47.7803C49.8206 22.8725 51.4816 21.2114 51.4816 19.1711V19.1082H40.0683Z" fill="black"/>
<path d="M48.4489 18.5689C48.6466 18.8943 48.7581 19.2592 48.7581 19.6475C48.7581 20.9903 47.4224 22.0797 45.7758 22.0797C44.1291 22.0797 42.7935 20.9903 42.7935 19.6475C42.7935 19.2592 42.9049 18.8943 43.1027 18.5689H48.4489Z" fill="black"/>
<path d="M45.7759 22.3494C43.9836 22.3494 42.5239 21.1377 42.5239 19.6475C42.5239 19.2197 42.6408 18.8098 42.8727 18.4287L42.9518 18.2993H48.6018L48.6809 18.4287C48.9128 18.8098 49.0296 19.2197 49.0296 19.6475C49.0278 21.1377 47.5681 22.3494 45.7759 22.3494ZM43.261 18.8386C43.1297 19.0956 43.0632 19.3671 43.0632 19.6475C43.0632 20.8393 44.2802 21.8101 45.7759 21.8101C47.2715 21.8101 48.4885 20.8393 48.4885 19.6475C48.4885 19.3671 48.422 19.0956 48.2908 18.8386H43.261Z" fill="black"/>
<path d="M45.8153 18.5689C45.8998 18.7864 45.9483 19.0273 45.9483 19.2826C45.9483 20.2263 45.3048 20.9903 44.512 20.9903C43.7192 20.9903 43.0757 20.2263 43.0757 19.2826C43.0757 19.0273 43.1242 18.7864 43.2087 18.5689H45.8171H45.8153Z" fill="white"/>
<path d="M52.7615 19.1082H38.8081C38.5097 19.1082 38.2688 18.8673 38.2688 18.5689C38.2688 17.6449 38.4558 16.7317 38.8117 15.93C38.9321 15.6567 39.2503 15.5345 39.5236 15.6549C39.7968 15.7754 39.919 16.0935 39.7986 16.3668C39.5721 16.8773 39.4283 17.4454 39.3744 18.0314H52.1988C52.0028 15.912 50.6654 14.2671 49.0511 14.2671C48.7527 14.2671 48.5118 14.0262 48.5118 13.7278C48.5118 13.4294 48.7527 13.1885 49.0511 13.1885C51.3952 13.1885 53.3025 15.6028 53.3025 18.5707C53.3008 18.8673 53.0599 19.1082 52.7615 19.1082Z" fill="black"/>
<path d="M46.3438 42.422C46.3438 45.6002 41.6663 56.3502 35.8941 56.3502C30.1218 56.3502 25.4443 45.6002 25.4443 42.422C25.4443 40.5057 27.1449 38.8069 29.7623 37.7625C30.7168 37.3814 31.7882 37.4119 32.723 37.8398L35.1283 38.9435C35.6136 39.1664 36.1727 39.1664 36.6581 38.9435L39.0633 37.8398C39.9981 37.4101 41.0695 37.3814 42.0241 37.7625C44.6396 38.8087 46.342 40.5057 46.342 42.422H46.3438Z" fill="#EF53C0"/>
<path d="M35.8943 39.1089C36.1549 39.1089 36.4174 39.0531 36.6601 38.9417L39.0653 37.8379C40.0001 37.4083 41.0715 37.3795 42.0261 37.7606C44.6416 38.8069 46.344 40.5039 46.344 42.4201C46.344 45.5984 41.6665 56.3483 35.8943 56.3483" fill="#CD3298"/>
<path d="M35.8942 56.6198C32.4121 56.6198 29.6258 52.922 28.2758 50.7181C26.3361 47.5524 25.1748 44.0129 25.1748 42.422C25.1748 40.4697 26.852 38.6325 29.6617 37.5126C30.6774 37.1063 31.8333 37.1369 32.8346 37.5953L35.2398 38.699C35.6551 38.8896 36.1297 38.8896 36.5449 38.699L38.9502 37.5953C39.9479 37.1369 41.1056 37.1063 42.1231 37.5126C44.8033 38.584 46.4536 40.3043 46.5992 42.1523H46.61L46.6118 42.422C46.6118 44.0147 45.4523 47.5524 43.5108 50.7181C42.1626 52.922 39.3762 56.6198 35.8942 56.6198ZM31.1484 37.7678C30.7098 37.7678 30.2729 37.8487 29.8613 38.0141C27.2637 39.0514 25.7123 40.698 25.7123 42.4237C25.7123 45.6703 30.4078 56.0823 35.8924 56.0823C41.3159 56.0823 45.9682 45.9022 46.0707 42.5352V42.4237C46.0707 40.7016 44.5193 39.0532 41.9217 38.0141C41.0391 37.6618 40.0378 37.6887 39.1731 38.086L36.7678 39.1898C36.2106 39.445 35.5706 39.445 35.0133 39.1898L32.6081 38.086C32.1479 37.8739 31.6481 37.7678 31.1484 37.7678Z" fill="black"/>
</svg>
