<svg width="72" height="78" viewBox="0 0 72 78" fill="none" xmlns="http://www.w3.org/2000/svg">
    <path d="M66.6285 26.4382C63.5383 26.4382 61.0342 28.7374 61.0342 31.5723V38.8834V49.1965L70.7559 32.8127C72.46 29.9383 70.195 26.4382 66.6285 26.4382Z" fill="#5A3F34"/>
    <path d="M49.4573 76.5316H55.6214C58.0536 76.5316 59.5924 73.9214 58.4167 71.793L52.0836 60.3329H38.177V65.2513C38.177 71.4802 43.2266 76.5298 49.4555 76.5298L49.4573 76.5316Z" fill="#5A3F34"/>
    <path d="M43.0757 71.766H47.5608C50.9997 71.766 54.1366 70.4753 56.5185 68.3541L58.4186 71.793C59.4109 73.5888 58.4708 75.7262 56.6929 76.3518H52.1556C48.4327 76.3518 45.1322 74.547 43.0775 71.766H43.0757Z" fill="#735B4D"/>
    <path d="M23.3195 76.5316H17.1554C14.7232 76.5316 13.1844 73.9214 14.36 71.793L20.6932 60.3329H34.5998V65.2513C34.5998 71.4802 29.5502 76.5298 23.3213 76.5298L23.3195 76.5316Z" fill="#5A3F34"/>
    <path d="M32.8343 4.98511H39.9423C51.5838 4.98511 61.0359 14.4372 61.0359 26.0787V54.6973C61.0359 62.1342 54.9976 68.1725 47.5607 68.1725H25.2159C17.779 68.1725 11.7407 62.1342 11.7407 54.6973V26.0787C11.7407 14.4372 21.1928 4.98511 32.8343 4.98511Z" fill="#5A3F34"/>
    <path d="M34.3874 4.98511H38.3872C49.3672 4.98511 58.28 13.8997 58.28 24.8779V52.0889C58.28 57.8216 53.6259 62.474 47.895 62.474H24.8797C19.1469 62.474 14.4946 57.8198 14.4946 52.0889V24.8779C14.4946 13.8979 23.4092 4.98511 34.3874 4.98511Z" fill="#735B4D"/>
    <path d="M47.7405 52.5419C43.0199 51.0265 40.5337 50.9726 36.9672 50.9726C33.4006 50.9726 30.6358 51.0265 26.1938 52.5419C26.7547 54.9274 29.4116 55.251 29.4116 55.251C29.4116 55.251 29.5411 54.8663 29.6669 54.4762C29.7118 54.3396 30.0336 54.336 30.0876 54.4708C30.3878 55.224 31.0745 56.3098 32.6366 57.0289C33.0753 57.2302 33.7709 57.2428 34.2186 57.0451C34.5385 56.903 34.8639 56.6945 35.0383 56.3925C35.0545 56.3655 35.121 56.3709 35.121 56.3997C35.1192 57.0001 35.3565 58.0248 36.9654 58.2333C38.5743 58.0266 38.8134 57.0019 38.8098 56.4015C38.8098 56.3727 38.8763 56.3673 38.8924 56.3943C39.0668 56.6963 39.3922 56.9066 39.7122 57.0469C40.1598 57.2446 40.8555 57.2338 41.2941 57.0307C42.8563 56.3116 43.543 55.2258 43.8432 54.4726C43.8971 54.3378 44.2207 54.3414 44.2638 54.478C44.3897 54.8681 44.5191 55.2528 44.5191 55.2528C44.5191 55.2528 47.176 54.9292 47.7369 52.5437L47.7405 52.5419Z" fill="#5A3F34"/>
    <path d="M47.5607 57.7695H25.2159C17.7736 57.7695 11.7407 51.7366 11.7407 44.2943V54.6973C11.7407 62.1396 17.7736 68.1725 25.2159 68.1725H47.5607C55.003 68.1725 61.0359 62.1396 61.0359 54.6973V44.2943C61.0359 51.7366 55.003 57.7695 47.5607 57.7695Z" fill="#3F4016"/>
    <path d="M47.5608 57.7695H25.216C20.8477 57.7695 16.9666 55.6896 14.5056 52.4664C14.7052 58.0266 19.273 62.4757 24.8817 62.4757H47.897C53.5056 62.4757 58.0753 58.0284 58.273 52.4664C55.8102 55.6878 51.9309 57.7695 47.5608 57.7695Z" fill="#9B9C63"/>
    <path d="M25.216 58.5964H47.5608C51.8842 58.5964 55.7311 56.5579 58.1957 53.3904C58.2335 53.0866 58.2604 52.7774 58.2712 52.4664C55.8084 55.6878 51.9291 57.7695 47.5608 57.7695H25.216C20.8477 57.7695 16.9666 55.6896 14.5056 52.4664C14.5164 52.7792 14.5434 53.0866 14.5811 53.3904C17.0475 56.5561 20.8927 58.5964 25.216 58.5964Z" fill="#3F4016"/>
    <path d="M36.3884 59.3172L32.403 63.3026L28.7052 59.6948L21.9407 57.7695L36.3884 57.7803V59.3172Z" fill="#3F4016"/>
    <path d="M36.3884 59.3172L40.3738 63.3026L44.0716 59.6948L50.8361 57.7695L36.3884 57.7803V59.3172Z" fill="#3F4016"/>
    <path d="M36.3885 57.7803L32.4031 61.7675L28.8275 59.1105L25.2161 57.7803H36.3885Z" fill="#9B9C63"/>
    <path d="M36.3884 57.7803L40.3738 61.7675L43.9493 59.1105L47.5608 57.7803H36.3884Z" fill="#9B9C63"/>
    <path d="M61.0357 31.5688V26.0769C61.0357 20.3982 58.7922 15.2461 55.143 11.4531L51.7041 12.458C51.7041 12.458 56.7339 15.1598 61.0357 31.5688Z" fill="#999999"/>
    <path d="M53.4946 11.9366L51.7024 12.4598C51.7024 12.4598 54.7638 14.1046 58.1524 22.6201C57.694 18.5646 56.0168 14.8776 53.4946 11.9366Z" fill="white"/>
    <path d="M11.7407 31.5688V26.0769C11.7407 20.3982 13.9842 15.2461 17.6334 11.4531L21.0723 12.458C21.0723 12.458 16.0425 15.1598 11.7407 31.5688Z" fill="#999999"/>
    <path d="M19.282 11.9366L21.0742 12.4598C21.0742 12.4598 18.0128 14.1046 14.6243 22.6201C15.0827 18.5646 16.7599 14.8776 19.282 11.9366Z" fill="white"/>
    <path d="M47.5607 68.7999H25.2159C17.4393 68.7999 11.1116 62.4722 11.1116 54.6955V26.0769C11.1116 14.0992 20.8566 4.35413 32.8344 4.35413H39.9423C51.92 4.35413 61.6651 14.0992 61.6651 26.0769V54.6955C61.6651 62.4722 55.3374 68.7999 47.5607 68.7999ZM32.8344 5.61428C21.5505 5.61428 12.3699 14.7949 12.3699 26.0787V54.6973C12.3699 61.7801 18.1332 67.5433 25.2159 67.5433H47.5607C54.6435 67.5433 60.4067 61.7801 60.4067 54.6973V26.0787C60.4067 14.7949 51.2261 5.61428 39.9423 5.61428H32.8344Z" fill="black"/>
    <path d="M22.0432 31.9031C31.355 28.7968 41.4218 28.7968 50.7337 31.9031C52.3713 32.4496 53.4751 33.9812 53.4751 35.7069V47.6236C53.4751 49.9659 51.1795 51.6215 48.9558 50.8791C40.7981 48.1593 31.9788 48.1593 23.821 50.8791C21.5992 51.6197 19.3018 49.9659 19.3018 47.6236V35.7069C19.3018 33.9812 20.4055 32.4496 22.0432 31.9031Z" fill="#4C1615"/>
    <path d="M24.7719 25.1907C27.6719 25.1907 30.0229 22.8397 30.0229 19.9397C30.0229 17.0397 27.6719 14.6888 24.7719 14.6888C21.8719 14.6888 19.521 17.0397 19.521 19.9397C19.521 22.8397 21.8719 25.1907 24.7719 25.1907Z" fill="black"/>
    <path d="M24.7719 25.2949C21.8184 25.2949 19.4167 22.8915 19.4167 19.9397C19.4167 16.988 21.8202 14.5845 24.7719 14.5845C27.7237 14.5845 30.1271 16.988 30.1271 19.9397C30.1271 22.8915 27.7237 25.2949 24.7719 25.2949ZM24.7719 14.7931C21.9353 14.7931 19.6271 17.1012 19.6271 19.9379C19.6271 22.7746 21.9353 25.0828 24.7719 25.0828C27.6086 25.0828 29.9168 22.7746 29.9168 19.9379C29.9168 17.1012 27.6086 14.7931 24.7719 14.7931Z" fill="#080808"/>
    <path d="M48.0048 25.1907C50.9049 25.1907 53.2558 22.8397 53.2558 19.9397C53.2558 17.0397 50.9049 14.6888 48.0048 14.6888C45.1048 14.6888 42.7539 17.0397 42.7539 19.9397C42.7539 22.8397 45.1048 25.1907 48.0048 25.1907Z" fill="black"/>
    <path d="M48.0049 25.2949C45.0513 25.2949 42.6497 22.8915 42.6497 19.9397C42.6497 16.988 45.0531 14.5845 48.0049 14.5845C50.9566 14.5845 53.3601 16.988 53.3601 19.9397C53.3601 22.8915 50.9566 25.2949 48.0049 25.2949ZM48.0049 14.7931C45.1682 14.7931 42.86 17.1012 42.86 19.9379C42.86 22.7746 45.1682 25.0828 48.0049 25.0828C50.8416 25.0828 53.1497 22.7746 53.1497 19.9379C53.1497 17.1012 50.8416 14.7931 48.0049 14.7931Z" fill="#080808"/>
    <path d="M49.3514 20.7127C50.3988 20.7127 51.2479 19.8636 51.2479 18.8162C51.2479 17.7688 50.3988 16.9197 49.3514 16.9197C48.3039 16.9197 47.4548 17.7688 47.4548 18.8162C47.4548 19.8636 48.3039 20.7127 49.3514 20.7127Z" fill="white"/>
    <path d="M26.1184 20.7127C27.1659 20.7127 28.015 19.8636 28.015 18.8162C28.015 17.7688 27.1659 16.9197 26.1184 16.9197C25.071 16.9197 24.2219 17.7688 24.2219 18.8162C24.2219 19.8636 25.071 20.7127 26.1184 20.7127Z" fill="white"/>
    <mask id="mask0_0_1" style="mask-type:luminance" maskUnits="userSpaceOnUse" x="19" y="29" width="35" height="23">
        <path d="M22.0432 31.9031C31.355 28.7968 41.4218 28.7968 50.7337 31.9031C52.3713 32.4496 53.4751 33.9812 53.4751 35.7069V47.6236C53.4751 49.9659 51.1795 51.6215 48.9558 50.8791C40.7981 48.1593 31.9788 48.1593 23.821 50.8791C21.5992 51.6197 19.3018 49.9659 19.3018 47.6236V35.7069C19.3018 33.9812 20.4055 32.4496 22.0432 31.9031Z" fill="white"/>
    </mask>
    <g mask="url(#mask0_0_1)">
        <path d="M46.858 44.3806C46.858 47.5588 42.1805 50.1349 36.4082 50.1349C30.6378 50.1349 25.9585 47.5588 25.9585 44.3806C25.9585 42.4643 27.6591 40.7655 30.2765 39.7211C31.231 39.34 32.3024 39.3705 33.2372 39.7984L35.6424 40.9021C36.1278 41.125 36.6869 41.125 37.1722 40.9021L39.5775 39.7984C40.5123 39.3687 41.5837 39.34 42.5382 39.7211C45.1538 40.7673 46.8562 42.4643 46.8562 44.3806H46.858Z" fill="#EB544D"/>
        <path d="M36.4082 41.0693C36.6689 41.0693 36.9313 41.0136 37.174 40.9021L39.5793 39.7984C40.514 39.3687 41.5854 39.34 42.54 39.7211C45.1556 40.7673 46.8579 42.4643 46.8579 44.3806C46.8579 47.5588 42.1805 50.1349 36.4082 50.1349" fill="#BA2020"/>
        <path d="M12.4294 29.3846L20.9701 33.7457L24.8476 37.9684L28.7018 33.9057L32.5559 37.9684L36.4101 33.9057L40.2643 37.9684L44.1184 33.9057L47.9726 37.9684L51.8285 33.7457L60.3674 29.3846H12.4294Z" fill="white"/>
        <path d="M47.9779 38.3746L44.1201 34.3084L40.266 38.3711L36.4118 34.3084L32.5577 38.3711L28.7035 34.3084L24.8457 38.3746L20.801 33.9704L11.2825 29.1096H61.516L51.9992 33.9704L47.9779 38.3764V38.3746ZM28.7017 33.5066L32.5559 37.5693L36.41 33.5066L40.2642 37.5693L44.1184 33.5066L47.9689 37.5639L51.6577 33.5228L59.2186 29.6614H13.5781L21.139 33.5228L24.8511 37.5639L28.7017 33.5048V33.5066Z" fill="black"/>
        <path d="M36.4081 50.4117C30.4939 50.4117 25.6833 47.7062 25.6833 44.3806C25.6833 42.4265 27.3624 40.5875 30.1739 39.464C31.1913 39.0577 32.3508 39.0865 33.3521 39.5467L35.7574 40.6505C36.1708 40.8392 36.6454 40.8392 37.0571 40.6505L39.4623 39.5467C40.4636 39.0865 41.6231 39.0577 42.6406 39.464C45.4521 40.5875 47.1311 42.4265 47.1311 44.3806C47.1311 47.7062 42.3206 50.4117 36.4081 50.4117ZM31.6641 39.7318C31.2273 39.7318 30.7905 39.8127 30.3788 39.9781C27.7848 41.0154 26.2352 42.662 26.2352 44.3824C26.2352 47.4024 30.7995 49.8616 36.4081 49.8616C42.0168 49.8616 46.581 47.4042 46.581 44.3824C46.581 42.662 45.0315 41.0154 42.4374 39.9781C41.5584 39.6276 40.5589 39.6528 39.6942 40.05L37.289 41.1538C36.7299 41.4109 36.0881 41.4109 35.5273 41.1538L33.122 40.05C32.6618 39.8379 32.1621 39.7318 31.6641 39.7318Z" fill="black"/>
        <path d="M12.4294 51.8552L20.9701 47.4941L24.8476 43.2714L28.7018 47.3323L32.5559 43.2714L36.4101 47.3323L40.2643 43.2697L44.1184 47.3323L47.9726 43.2697L51.8285 47.4941L60.3674 51.8552H12.4294Z" fill="white"/>
        <path d="M61.516 52.1303H11.2825L20.801 47.2694L24.8457 42.8652L28.7035 46.9315L32.5577 42.8688L36.4118 46.9315L40.266 42.8688L44.1201 46.9315L47.9779 42.8652L51.9992 47.2712L61.516 52.1321V52.1303ZM13.5799 51.5784H59.2204L51.6595 47.717L47.9707 43.6759L44.1201 47.7332L40.266 43.6705L36.4118 47.7332L32.5577 43.6705L28.7035 47.7332L24.8529 43.6741L21.1408 47.7152L13.5799 51.5784Z" fill="black"/>
    </g>
    <path d="M36.3885 29.0502C41.3069 29.0502 46.2234 29.8304 50.9045 31.3926C52.7651 32.0128 54.0145 33.7475 54.0145 35.7069V47.6236C54.0145 48.9161 53.414 50.0899 52.3642 50.8449C51.3162 51.6 50.0111 51.7995 48.7851 51.3896C40.7909 48.7237 31.9861 48.7237 23.9901 51.3896C22.7641 51.7977 21.459 51.6 20.411 50.8449C19.363 50.0899 18.7607 48.9143 18.7607 47.6236V35.7069C18.7607 33.7457 20.0101 32.0128 21.8707 31.3926C26.5518 29.8322 31.4683 29.0502 36.3867 29.0502H36.3885ZM50.0506 50.5196C50.6457 50.5196 51.2299 50.3326 51.7332 49.9713C52.4972 49.4212 52.9341 48.5655 52.9341 47.6236V35.7069C52.9341 34.2113 51.9813 32.8882 50.563 32.4154C41.4219 29.3666 31.3533 29.3666 22.214 32.4154C20.7957 32.8882 19.8411 34.2113 19.8411 35.7069V47.6236C19.8411 48.5655 20.2798 49.4212 21.042 49.9713C21.806 50.5214 22.7551 50.667 23.6486 50.3686C31.8638 47.6289 40.9114 47.6289 49.1249 50.3686C49.4305 50.4692 49.7414 50.5196 50.0488 50.5196H50.0506Z" fill="black"/>
    <path d="M29.7011 71.766H25.2159C21.777 71.766 18.6401 70.4753 16.2582 68.3541L14.3581 71.793C13.3658 73.5888 14.306 75.7262 16.0839 76.3518H20.6211C24.3441 76.3518 27.6446 74.547 29.7011 71.766Z" fill="#735B4D"/>
    <path d="M23.3194 77.1608H17.1553C15.7891 77.1608 14.5577 76.4579 13.8638 75.2804C13.1699 74.103 13.1483 72.6864 13.8098 71.4892L17.4303 64.9349L18.002 65.3232C20.134 66.7739 22.6291 67.5415 25.2177 67.5415H35.0365L34.8244 68.3325C33.4348 73.5295 28.7052 77.1608 23.3194 77.1608ZM17.8725 66.738L14.9118 72.0986C14.4678 72.9003 14.4822 73.8513 14.9478 74.6422C15.4133 75.4314 16.2385 75.9042 17.1571 75.9042H23.3212C27.8585 75.9042 31.8762 73.0226 33.3647 68.8017H25.2177C22.6075 68.8017 20.0818 68.0916 17.8725 66.738Z" fill="black"/>
    <path d="M55.6233 77.1608H49.4592C44.0752 77.1608 39.3438 73.5313 37.956 68.3325L37.7439 67.5415H47.5627C50.1513 67.5415 52.6464 66.7739 54.7784 65.3232L55.3483 64.9349L58.9688 71.4892C59.6303 72.6864 59.6105 74.103 58.9148 75.2804C58.2209 76.4579 56.9895 77.1608 55.6233 77.1608ZM39.4157 68.7999C40.9042 73.0208 44.9219 75.9024 49.4592 75.9024H55.6233C56.5401 75.9024 57.3652 75.4314 57.8326 74.6404C58.2982 73.8513 58.3126 72.9003 57.8686 72.0968L54.9061 66.7362C52.6968 68.088 50.1729 68.7981 47.5609 68.7981L39.4157 68.7999Z" fill="black"/>
    <path d="M22.1152 22.9238C22.555 22.9238 22.9116 22.5673 22.9116 22.1275C22.9116 21.6877 22.555 21.3311 22.1152 21.3311C21.6754 21.3311 21.3188 21.6877 21.3188 22.1275C21.3188 22.5673 21.6754 22.9238 22.1152 22.9238Z" fill="white"/>
    <path d="M45.3479 22.9238C45.7877 22.9238 46.1442 22.5673 46.1442 22.1275C46.1442 21.6877 45.7877 21.3311 45.3479 21.3311C44.9081 21.3311 44.5515 21.6877 44.5515 22.1275C44.5515 22.5673 44.9081 22.9238 45.3479 22.9238Z" fill="white"/>
    <path d="M6.14829 26.4383C9.23846 26.4383 11.7426 28.7375 11.7426 31.5724V49.1983L2.02089 32.8146C0.316718 29.9401 2.58176 26.4401 6.14829 26.4401V26.4383Z" fill="#735B4D"/>
    <path d="M12.3988 51.591L1.4565 33.1471C0.584643 31.6766 0.566666 29.9131 1.40976 28.4319C2.34095 26.796 4.15657 25.7803 6.14837 25.7803C9.59446 25.7803 12.3988 28.3779 12.3988 31.5706V51.591ZM6.14837 27.0944C4.62756 27.0944 3.25056 27.8566 2.55127 29.0826C1.93468 30.1648 1.94726 31.4034 2.58543 32.4784L11.0847 46.8039V31.5724C11.0847 29.1042 8.87001 27.0962 6.14837 27.0944Z" fill="black"/>
    <path d="M9.74356 39.0469L8.32701 31.8528C7.84344 29.3936 5.52447 27.6624 2.8999 27.6319C3.72502 26.9038 4.84855 26.4382 6.14646 26.4382C9.23662 26.4382 11.7407 28.7374 11.7407 31.5723V49.1983L9.74356 39.0487V39.0469Z" fill="#5A3F34"/>
    <path d="M12.3989 51.591L5.104 39.2969L12.3989 31.5706V51.591Z" fill="#9B9C63"/>
    <path d="M60.3782 51.591L67.673 39.2969L60.3782 31.5706V51.591Z" fill="#3F4016"/>
    <path d="M8.98511 35.1856L9.74372 39.047L11.7409 49.1965V38.8834V32.2662L8.98511 35.1856Z" fill="#3F4016"/>
    <path d="M12.3988 51.591L1.4565 33.1471C0.584643 31.6766 0.566666 29.9131 1.40976 28.4319C2.34095 26.796 4.15657 25.7803 6.14837 25.7803C9.59446 25.7803 12.3988 28.3779 12.3988 31.5706V51.591ZM6.14837 27.0944C4.62756 27.0944 3.25056 27.8566 2.55127 29.0826C1.93468 30.1648 1.94726 31.4034 2.58543 32.4784L11.0847 46.8039V31.5724C11.0847 29.1042 8.87001 27.0962 6.14837 27.0944Z" fill="black"/>
    <path d="M60.3782 51.591V31.5724C60.3782 30.0156 61.0361 28.5541 62.2298 27.4575C63.4072 26.3772 64.9694 25.7803 66.6286 25.7803C68.6204 25.7803 70.436 26.796 71.3672 28.4319C72.2103 29.9131 72.1941 31.6766 71.3205 33.1471L60.3782 51.5892V51.591ZM66.6286 27.0944C65.2983 27.0944 64.0526 27.5672 63.1178 28.4247C62.1992 29.2678 61.6923 30.3859 61.6923 31.5706V46.8021L70.1915 32.4766C70.8297 31.4016 70.8423 30.163 70.2257 29.0808C69.5282 27.8548 68.1494 27.0926 66.6286 27.0926V27.0944Z" fill="black"/>
    <path d="M36.3885 50.4656C36.3885 50.4656 35.9696 50.4746 35.1715 50.4908C34.3751 50.5249 33.1904 50.4602 31.702 50.7011C30.9578 50.8198 30.1398 51.0013 29.2536 51.2458C28.3692 51.4885 27.4182 51.7941 26.3971 52.1302C25.3743 52.4646 24.2831 52.8331 23.0948 53.1549C22.9456 53.1927 22.8 53.2394 22.6418 53.2718C22.4836 53.3023 22.3254 53.3455 22.1619 53.3652C21.8365 53.4102 21.5039 53.4335 21.166 53.4192C20.4901 53.394 19.7998 53.2412 19.1454 52.9482C18.4893 52.6606 17.8835 52.204 17.3981 51.6179C17.3334 51.5478 17.2812 51.4669 17.2255 51.3896C17.1716 51.3105 17.1141 51.2332 17.0637 51.1505C16.9738 50.9797 16.8642 50.8162 16.7977 50.631L16.6844 50.3578L16.5909 50.0917C16.528 49.903 16.4813 49.707 16.4471 49.5075C16.413 49.3079 16.395 49.1048 16.3932 48.9017C16.3914 48.7147 16.3896 48.5278 16.386 48.339C16.3824 47.9615 16.377 47.5822 16.3734 47.1975C16.3644 46.4299 16.3573 45.6461 16.3483 44.8498C16.3195 41.6643 16.2889 38.2614 16.2566 34.6805C16.2566 34.4557 16.253 34.2328 16.2512 34.0063V33.6684C16.2494 33.5515 16.244 33.4527 16.2512 33.316C16.262 32.8019 16.3698 32.286 16.5694 31.8078C16.9649 30.8461 17.7109 30.0461 18.6115 29.5302C18.7212 29.4601 18.8398 29.4061 18.9567 29.3486C19.0717 29.2875 19.1939 29.2408 19.3144 29.1922C19.4348 29.1401 19.5571 29.1005 19.6829 29.061L19.8735 29.0017L20.0478 28.9585C20.5098 28.8417 20.9754 28.7248 21.4428 28.6062C21.9084 28.4822 22.3848 28.3869 22.8594 28.2826C23.0966 28.2305 23.3357 28.1784 23.5748 28.128C23.8139 28.0741 24.053 28.0256 24.2957 27.9842C24.7792 27.8961 25.2646 27.8062 25.7518 27.7182C26.2389 27.6283 26.7333 27.5672 27.2276 27.4899C27.4739 27.4539 27.722 27.4162 27.9701 27.3784C28.2181 27.3424 28.468 27.3191 28.7179 27.2885C29.2176 27.231 29.721 27.1753 30.2243 27.1177C32.2449 26.9272 34.305 26.8283 36.3903 26.8157C38.4755 26.8283 40.5338 26.9272 42.5562 27.1177C43.0613 27.1753 43.5629 27.2328 44.0626 27.2885C44.3125 27.3191 44.5624 27.3424 44.8105 27.3784C45.0585 27.4162 45.3066 27.4521 45.5529 27.4899C46.0472 27.5672 46.5398 27.6283 47.0288 27.7182C47.5159 27.808 48.0013 27.8961 48.4849 27.9842C48.7275 28.0256 48.9666 28.0741 49.2057 28.128C49.4448 28.1802 49.6839 28.2323 49.9212 28.2826C50.3958 28.3887 50.8721 28.4822 51.3377 28.6062C51.8051 28.7248 52.2707 28.8417 52.7327 28.9585L52.9071 29.0017L53.0976 29.061C53.2217 29.1005 53.3457 29.1401 53.4661 29.1922C53.5866 29.2408 53.7088 29.2875 53.8239 29.3486C53.9407 29.4061 54.0576 29.4619 54.169 29.5302C55.0696 30.0461 55.8157 30.8443 56.2112 31.8078C56.4089 32.286 56.5186 32.8019 56.5293 33.316C56.5365 33.4509 56.5293 33.5515 56.5311 33.6684V34.0063C56.5275 34.231 56.5257 34.4557 56.5239 34.6805C56.4916 38.2614 56.461 41.6643 56.4323 44.8498C56.4233 45.6461 56.4143 46.4281 56.4071 47.1975C56.4035 47.5822 56.3981 47.9615 56.3945 48.339C56.3927 48.5278 56.3909 48.7147 56.3873 48.9017C56.3855 49.1066 56.3657 49.3097 56.3334 49.5075C56.2992 49.707 56.2525 49.9012 56.1896 50.0917L56.0961 50.3578L55.9829 50.631C55.9145 50.8162 55.8049 50.9797 55.7168 51.1505C55.6665 51.2332 55.6089 51.3105 55.555 51.3896C55.4993 51.4687 55.4472 51.5496 55.3824 51.6179C54.8953 52.204 54.2895 52.6606 53.6351 52.9482C52.9808 53.2412 52.2905 53.394 51.6146 53.4192C51.2766 53.4335 50.944 53.4102 50.6187 53.3652C50.4551 53.3455 50.2969 53.3023 50.1387 53.2718C49.9805 53.2376 49.8367 53.1927 49.6857 53.1549C48.4974 52.8349 47.4063 52.4646 46.3834 52.1302C45.3623 51.7941 44.4114 51.4885 43.5269 51.2458C42.6425 51.0013 41.8228 50.8198 41.0785 50.7011C39.5901 50.4602 38.4054 50.5249 37.6091 50.4908C36.8109 50.4746 36.3921 50.4656 36.3921 50.4656C36.3921 50.4656 36.8109 50.4566 37.6091 50.4405C38.0081 50.4333 38.5007 50.4243 39.0849 50.4117C39.6692 50.4117 40.3487 50.4225 41.1037 50.5213C41.8587 50.6148 42.6928 50.7694 43.5934 50.9851C44.4941 51.2009 45.4594 51.4777 46.4913 51.7815C47.5231 52.0835 48.6233 52.4197 49.8007 52.7001C49.9463 52.7325 50.0974 52.7756 50.243 52.8008C50.3886 52.8241 50.5342 52.8601 50.6816 52.8727C50.9782 52.905 51.282 52.9176 51.5876 52.896C52.1988 52.8565 52.8172 52.7019 53.3924 52.4251C53.9695 52.1536 54.489 51.7366 54.8935 51.2224C54.9492 51.1613 54.9905 51.0912 55.0355 51.0229C55.0804 50.9546 55.129 50.8863 55.1703 50.8162C55.2404 50.667 55.3339 50.5285 55.3842 50.3703L55.4741 50.1384L55.555 49.885C55.6035 49.725 55.6395 49.5614 55.6629 49.396C55.6862 49.2306 55.6988 49.0617 55.697 48.8927C55.6952 48.7057 55.6934 48.5188 55.6898 48.33C55.6862 47.9525 55.6808 47.5732 55.6772 47.1885C55.6683 46.4209 55.6611 45.6371 55.6521 44.8408C55.6233 41.6553 55.5928 38.2524 55.5604 34.6715C55.5604 34.4468 55.5568 34.2239 55.555 33.9973V33.6594C55.5514 33.5497 55.555 33.4239 55.546 33.334C55.5334 32.9421 55.4454 32.552 55.2872 32.1871C54.9744 31.4537 54.3847 30.8281 53.6567 30.4218C53.5686 30.3661 53.4715 30.3247 53.3781 30.278C53.2846 30.2295 53.1857 30.1935 53.0886 30.154C52.9916 30.1126 52.8909 30.0821 52.7884 30.0515L52.641 30.0066L52.4702 29.9652C52.0136 29.8556 51.5552 29.7441 51.0932 29.6327C50.633 29.514 50.1657 29.4259 49.6965 29.3271C49.4628 29.2785 49.2273 29.23 48.9918 29.1796C48.7563 29.1293 48.5208 29.0826 48.2817 29.043C47.8053 28.9603 47.329 28.8758 46.849 28.7914C46.369 28.7069 45.8837 28.6493 45.3983 28.5756C45.1556 28.5415 44.9111 28.5055 44.6684 28.4714C44.424 28.4372 44.1777 28.4156 43.9314 28.3869C43.4389 28.333 42.9463 28.279 42.4501 28.2251C40.4637 28.0471 38.4396 27.9536 36.3921 27.9411C34.3445 27.9536 32.3204 28.0471 30.334 28.2251C29.8378 28.279 29.3435 28.333 28.8527 28.3869C28.6064 28.4156 28.3602 28.4372 28.1157 28.4714C27.8712 28.5055 27.6285 28.5415 27.3858 28.5756C26.9005 28.6493 26.4133 28.7069 25.9351 28.7914C25.4552 28.8758 24.977 28.9585 24.5024 29.043C24.2633 29.0826 24.0278 29.1275 23.7923 29.1796C23.5568 29.2282 23.3213 29.2767 23.0877 29.3271C22.6203 29.4259 22.1511 29.514 21.6909 29.6327C21.2307 29.7441 20.7705 29.8538 20.3139 29.9652L20.1431 30.0066L19.9957 30.0515C19.8932 30.0821 19.7926 30.1126 19.6955 30.154C19.5966 30.1917 19.4977 30.2277 19.4061 30.278C19.3126 30.323 19.2155 30.3661 19.1274 30.4218C18.3994 30.8281 17.808 31.4537 17.4952 32.1871C17.3388 32.552 17.2507 32.9421 17.2363 33.334C17.2273 33.4239 17.2309 33.5515 17.2291 33.6594V33.9973C17.2255 34.2221 17.2237 34.4468 17.2219 34.6715C17.1896 38.2524 17.159 41.6553 17.1302 44.8408C17.1213 45.6371 17.1123 46.4191 17.1051 47.1885C17.1015 47.5732 17.0961 47.9525 17.0925 48.33C17.0907 48.5188 17.0889 48.7057 17.0853 48.8927C17.0835 49.0617 17.0943 49.2306 17.1195 49.396C17.1428 49.5614 17.1788 49.725 17.2273 49.885L17.3082 50.1384L17.3981 50.3703C17.4502 50.5285 17.5419 50.6688 17.612 50.8162C17.6534 50.8881 17.7019 50.9546 17.7468 51.0229C17.7918 51.0912 17.8349 51.1613 17.8889 51.2224C18.2933 51.7366 18.8128 52.1536 19.3899 52.4251C19.9651 52.7019 20.5835 52.8565 21.1929 52.896C21.4985 52.9176 21.8023 52.905 22.0989 52.8727C22.2482 52.8601 22.392 52.8241 22.5376 52.8008C22.6832 52.7738 22.8342 52.7325 22.9798 52.7001C24.1573 52.4179 25.2574 52.0835 26.2893 51.7815C27.3211 51.4777 28.2883 51.2009 29.1871 50.9851C30.0877 50.7694 30.92 50.6148 31.6768 50.5213C32.4318 50.4207 33.1114 50.4099 33.6956 50.4117C34.278 50.4225 34.7724 50.4315 35.1715 50.4405C35.9696 50.4566 36.3885 50.4656 36.3885 50.4656Z" fill="white"/>
    <path d="M47.1619 52.0853C42.4412 50.6939 39.9551 50.1043 36.3886 50.1043C32.822 50.1043 30.0572 50.6921 25.6152 52.0853C26.1761 54.2767 28.833 54.3935 28.833 54.3935C28.833 54.3935 28.9625 54.0412 29.0883 53.6816C29.1332 53.5558 29.455 53.5522 29.5089 53.6762C29.8092 54.3665 30.4959 55.3642 32.058 56.0258C32.4966 56.2109 33.1923 56.2217 33.6399 56.0401C33.9599 55.9107 34.2853 55.7184 34.4597 55.4397C34.4759 55.4146 34.5424 55.42 34.5424 55.4469C34.5406 55.9988 34.7779 56.939 36.3868 57.1295C37.9956 56.939 38.2347 55.9988 38.2311 55.4469C38.2311 55.42 38.2977 55.4146 38.3138 55.4397C38.4882 55.7166 38.8136 55.9089 39.1336 56.0384C39.5812 56.2199 40.2769 56.2091 40.7155 56.024C42.2777 55.3624 42.9644 54.3665 43.2646 53.6744C43.3185 53.5504 43.6421 53.554 43.6852 53.6798C43.811 54.0376 43.9405 54.3917 43.9405 54.3917C43.9405 54.3917 46.5974 54.2749 47.1583 52.0853H47.1619Z" fill="white"/>
    <path d="M23.787 13.5743C23.787 13.5743 23.6701 13.5976 23.4706 13.63C23.3717 13.6462 23.2513 13.6587 23.1164 13.6983C23.0481 13.7145 22.9762 13.7324 22.9025 13.7504C22.8648 13.7594 22.827 13.7684 22.7875 13.7756C22.7479 13.7882 22.7084 13.8026 22.6688 13.8151C22.5088 13.8709 22.3363 13.9158 22.1601 13.9985C22.072 14.038 21.9803 14.065 21.8904 14.1118C21.8006 14.1585 21.7107 14.2052 21.6172 14.2502C21.2523 14.4497 20.882 14.6906 20.5224 14.9836C20.1665 15.2802 19.8609 15.6002 19.5966 15.9202C19.5337 16.0029 19.4708 16.082 19.4079 16.1611C19.3486 16.242 19.3 16.3247 19.2461 16.4038C19.131 16.5584 19.0573 16.7219 18.9693 16.8676C18.8183 17.166 18.696 17.4302 18.6349 17.619C18.5666 17.8005 18.5216 17.9192 18.5216 17.9192C18.5216 17.9192 18.5109 17.8922 18.4983 17.8401C18.4839 17.788 18.4641 17.7107 18.4407 17.6064C18.385 17.4015 18.3509 17.0977 18.3634 16.7094C18.3814 16.5188 18.3886 16.3013 18.4533 16.0802C18.4821 15.9687 18.5073 15.8501 18.5468 15.7332C18.59 15.6182 18.6385 15.4995 18.6888 15.3773C18.9081 14.9009 19.2515 14.4102 19.7261 14.0165C20.2042 13.6264 20.7507 13.3819 21.2595 13.2561C21.3889 13.2291 21.5147 13.2057 21.6352 13.1842C21.7574 13.1644 21.8796 13.1644 21.9929 13.1572C22.223 13.1392 22.4369 13.168 22.6275 13.1896C22.6742 13.195 22.7209 13.2003 22.7659 13.2075C22.809 13.2183 22.854 13.2291 22.8971 13.2399C22.978 13.2615 23.0571 13.2812 23.1326 13.3028C23.2782 13.337 23.3969 13.3927 23.4939 13.4358C23.6863 13.5221 23.7852 13.5761 23.7852 13.5761L23.787 13.5743Z" fill="black"/>
    <path d="M48.9901 13.5743C48.9901 13.5743 49.089 13.5204 49.2813 13.4341C49.3784 13.3909 49.497 13.3352 49.6426 13.301C49.7181 13.2813 49.7972 13.2597 49.8781 13.2381C49.9213 13.2273 49.9644 13.2166 50.0093 13.2058C50.0561 13.2004 50.101 13.195 50.1478 13.1878C50.3383 13.1662 50.554 13.1375 50.7823 13.1554C50.8974 13.1626 51.0196 13.1608 51.1401 13.1824C51.2623 13.204 51.3881 13.2273 51.5158 13.2543C52.0245 13.3801 52.571 13.6246 53.0492 14.0147C53.5238 14.4084 53.8653 14.901 54.0864 15.3755C54.1385 15.4978 54.1853 15.6164 54.2284 15.7315C54.268 15.8483 54.2931 15.967 54.3219 16.0784C54.3848 16.2995 54.3938 16.517 54.4118 16.7076C54.4244 17.0941 54.3902 17.3997 54.3345 17.6046C54.3111 17.7071 54.2913 17.7844 54.277 17.8383C54.2626 17.8904 54.2536 17.9174 54.2536 17.9174C54.2536 17.9174 54.2087 17.7988 54.1403 17.6172C54.0792 17.4266 53.957 17.1642 53.806 16.8658C53.7179 16.7202 53.646 16.5566 53.5291 16.402C53.4752 16.3229 53.4267 16.2402 53.3674 16.1593C53.3044 16.0802 53.2415 16.0011 53.1786 15.9184C52.9143 15.5984 52.6087 15.2785 52.2528 14.9818C51.8933 14.6906 51.523 14.4497 51.158 14.2484C51.0646 14.2035 50.9747 14.1567 50.8848 14.11C50.7949 14.0632 50.7032 14.0363 50.6152 13.9967C50.4408 13.914 50.2682 13.8691 50.1064 13.8134C50.0669 13.799 50.0273 13.7864 49.9878 13.7738C49.95 13.7648 49.9105 13.7558 49.8727 13.7487C49.799 13.7307 49.7271 13.7145 49.6588 13.6965C49.5222 13.657 49.4035 13.6426 49.3047 13.6282C49.1051 13.5959 48.9883 13.5725 48.9883 13.5725L48.9901 13.5743Z" fill="black"/>
    <path d="M31.6121 25.9619H17.9302C16.057 25.9619 14.5344 24.4393 14.5344 22.5661V18.0792C14.5344 16.206 16.057 14.6834 17.9302 14.6834H31.6121C33.4853 14.6834 35.0079 16.206 35.0079 18.0792V22.5661C35.0079 24.4393 33.4853 25.9619 31.6121 25.9619ZM17.9302 15.762C16.6521 15.762 15.613 16.801 15.613 18.0792V22.5661C15.613 23.8442 16.6521 24.8833 17.9302 24.8833H31.6121C32.8902 24.8833 33.9293 23.8442 33.9293 22.5661V18.0792C33.9293 16.801 32.8902 15.762 31.6121 15.762H17.9302Z" fill="black"/>
    <path d="M54.8467 25.9619H41.1648C39.2917 25.9619 37.769 24.4393 37.769 22.5661V18.0792C37.769 16.206 39.2917 14.6834 41.1648 14.6834H54.8467C56.7199 14.6834 58.2425 16.206 58.2425 18.0792V22.5661C58.2425 24.4393 56.7199 25.9619 54.8467 25.9619ZM41.1648 15.762C39.8867 15.762 38.8476 16.801 38.8476 18.0792V22.5661C38.8476 23.8442 39.8867 24.8833 41.1648 24.8833H54.8467C56.1248 24.8833 57.1639 23.8442 57.1639 22.5661V18.0792C57.1639 16.801 56.1248 15.762 54.8467 15.762H41.1648Z" fill="black"/>
    <g opacity="0.3">
        <path d="M17.9302 15.2227H31.6121C33.1904 15.2227 34.4686 16.5008 34.4686 18.0792V22.5661C34.4686 24.1445 33.1904 25.4226 31.6121 25.4226H17.9302C16.3519 25.4226 15.0737 24.1445 15.0737 22.5661V18.0792C15.0737 16.5008 16.3519 15.2227 17.9302 15.2227Z" fill="white"/>
        <path d="M31.6121 25.9619H17.9302C16.057 25.9619 14.5344 24.4393 14.5344 22.5661V18.0792C14.5344 16.206 16.057 14.6834 17.9302 14.6834H31.6121C33.4853 14.6834 35.0079 16.206 35.0079 18.0792V22.5661C35.0079 24.4393 33.4853 25.9619 31.6121 25.9619ZM17.9302 15.762C16.6521 15.762 15.613 16.801 15.613 18.0792V22.5661C15.613 23.8442 16.6521 24.8833 17.9302 24.8833H31.6121C32.8902 24.8833 33.9293 23.8442 33.9293 22.5661V18.0792C33.9293 16.801 32.8902 15.762 31.6121 15.762H17.9302Z" fill="black"/>
        <path d="M41.1648 15.2227H54.8467C56.4251 15.2227 57.7032 16.5008 57.7032 18.0792V22.5661C57.7032 24.1445 56.4251 25.4226 54.8467 25.4226H41.1648C39.5865 25.4226 38.3083 24.1445 38.3083 22.5661V18.0792C38.3083 16.5008 39.5865 15.2227 41.1648 15.2227Z" fill="white"/>
        <path d="M54.8467 25.9619H41.1648C39.2917 25.9619 37.769 24.4393 37.769 22.5661V18.0792C37.769 16.206 39.2917 14.6834 41.1648 14.6834H54.8467C56.7199 14.6834 58.2425 16.206 58.2425 18.0792V22.5661C58.2425 24.4393 56.7199 25.9619 54.8467 25.9619ZM41.1648 15.762C39.8867 15.762 38.8476 16.801 38.8476 18.0792V22.5661C38.8476 23.8442 39.8867 24.8833 41.1648 24.8833H54.8467C56.1248 24.8833 57.1639 23.8442 57.1639 22.5661V18.0792C57.1639 16.801 56.1248 15.762 54.8467 15.762H41.1648Z" fill="black"/>
    </g>
    <path d="M41.1631 14.6834H31.614V15.762H41.1631V14.6834Z" fill="black"/>
    <path d="M56.1571 12.4597H16.6196L18.7786 5.34103C19.6379 2.50613 22.2535 0.566467 25.216 0.566467H47.5608C50.5233 0.566467 53.1371 2.50433 53.9982 5.34103L56.1571 12.4597Z" fill="#9B9C63"/>
    <path d="M53.9982 5.34103C53.1389 2.50613 50.5233 0.566467 47.5608 0.566467H42.3782C45.3407 0.566467 47.9545 2.50433 48.8156 5.34103L50.9745 12.4597H56.1572L53.9982 5.34103Z" fill="#3F4016"/>
    <path d="M56.1571 12.4597H16.6196L18.7786 9.72188C19.6379 8.6307 22.2535 7.88647 25.216 7.88647H47.5608C50.5233 7.88647 53.1371 8.6325 53.9982 9.72188L56.1571 12.4597Z" fill="#232300"/>
    <path d="M56.9015 12.821H15.8755L18.4965 9.49897C19.4258 8.31971 22.1277 7.52515 25.2179 7.52515H47.5627C50.6492 7.52515 53.3511 8.31791 54.2841 9.49717L56.9015 12.821ZM17.3639 12.0984H55.4112L53.7142 9.94478C52.9233 8.94529 50.394 8.2478 47.5609 8.2478H25.2161C22.3794 8.2478 19.8501 8.94529 19.0627 9.94478L17.3639 12.0984Z" fill="black"/>
    <path d="M55.1433 12.4597H17.6335L19.6829 10.3619C20.499 9.52597 22.978 8.95612 25.7895 8.95612H46.9874C49.7989 8.95612 52.2779 9.52777 53.094 10.3619L55.1433 12.4597Z" fill="#3F4016"/>
    <path d="M55.8749 12.7671H16.9019L19.4635 10.1462C20.339 9.24913 22.8808 8.64691 25.7912 8.64691H46.9891C49.8959 8.64691 52.4396 9.24913 53.3169 10.1462L55.8749 12.7671ZM18.3651 12.1523H54.4098L52.8728 10.5776C52.116 9.8046 49.6964 9.2653 46.9873 9.2653H25.7894C23.0786 9.2653 20.6589 9.8046 19.9039 10.5776L18.3651 12.1523Z" fill="black"/>
    <path d="M56.6444 12.821H16.1326L18.4336 5.23676C19.345 2.2275 22.072 0.205139 25.2161 0.205139H47.5609C50.705 0.205139 53.4302 2.2275 54.3434 5.23676L56.6444 12.821ZM17.1069 12.0984H55.6701L53.6531 5.44529C52.8334 2.74342 50.385 0.927795 47.5609 0.927795H25.2161C22.392 0.927795 19.9436 2.74342 19.1239 5.44529L17.1069 12.0984Z" fill="black"/>
</svg>
