<svg width="88" height="86" viewBox="0 0 88 86" fill="none" xmlns="http://www.w3.org/2000/svg">
<path d="M85.7266 30.1203C84.8529 29.4516 83.7168 29.3635 82.782 29.7931C82.9528 28.7793 82.5735 27.7043 81.6998 27.0355C80.8262 26.3668 79.6901 26.2787 78.7553 26.7084C78.9261 25.6945 78.5468 24.6195 77.6713 23.9508C76.7976 23.282 75.6615 23.194 74.7267 23.6236C74.8975 22.6097 74.5182 21.5347 73.6446 20.866C72.7709 20.1973 71.6348 20.1092 70.7 20.5388C70.8708 19.525 70.4915 18.45 69.6178 17.7812C68.3595 16.8177 66.56 17.0568 65.5965 18.3133C64.6329 19.5717 64.872 21.3711 66.1304 22.3347C67.004 23.0034 68.1402 23.0915 69.0749 22.6619C68.9042 23.6757 69.2835 24.7507 70.1589 25.4195C71.0326 26.0882 72.1687 26.1763 73.1035 25.7466C72.9327 26.7605 73.312 27.8355 74.1857 28.5042C75.0593 29.1729 76.1954 29.261 77.1302 28.8314C76.9594 29.8453 77.3387 30.9203 78.2124 31.589C79.086 32.2577 80.2222 32.3458 81.1569 31.9162C80.9862 32.93 81.3655 34.005 82.2391 34.6738C83.4975 35.6373 85.2969 35.3982 86.2605 34.1417C87.224 32.8833 86.9849 31.0838 85.7266 30.1203Z" fill="#1C1C1C"/>
<path d="M83.9792 35.7128C83.2745 35.7128 82.5663 35.4899 81.9658 35.0297C81.1785 34.4275 80.7147 33.5179 80.6697 32.5507C79.7242 32.7592 78.7265 32.5489 77.9391 31.9449C77.1517 31.3427 76.6879 30.4331 76.643 29.466C75.6992 29.6745 74.6997 29.4642 73.9124 28.8601C73.125 28.2579 72.6612 27.3483 72.6163 26.3812C71.6707 26.5897 70.673 26.3776 69.8856 25.7754C69.0983 25.1732 68.6327 24.2636 68.5877 23.2964C67.6422 23.5049 66.6445 23.2928 65.8571 22.6906C65.1524 22.1513 64.7012 21.3711 64.5844 20.4921C64.4675 19.613 64.7012 18.743 65.2387 18.0383C66.3515 16.5876 68.4385 16.3107 69.891 17.4235C70.6784 18.0257 71.1422 18.9353 71.1871 19.9025C72.1309 19.6939 73.1304 19.9042 73.9178 20.5083C74.7051 21.1105 75.1689 22.0201 75.2139 22.9872C76.1576 22.7787 77.1571 22.989 77.9445 23.593C78.7319 24.1952 79.1975 25.1049 79.2424 26.072C80.188 25.8635 81.1857 26.0738 81.973 26.6778C82.7604 27.28 83.2242 28.1896 83.2691 29.1568C84.2147 28.9482 85.2124 29.1586 85.9998 29.7626C86.7044 30.3019 87.1557 31.082 87.2725 31.9611C87.3894 32.8401 87.1557 33.7102 86.6182 34.4149C85.9656 35.2652 84.9769 35.7128 83.9792 35.7128ZM81.7411 31.1521L81.5991 31.9899C81.4499 32.8797 81.7987 33.7713 82.5123 34.316C83.5711 35.1267 85.092 34.9254 85.9045 33.8666C86.2982 33.3543 86.4672 32.7179 86.3827 32.0779C86.2982 31.438 85.9674 30.8681 85.4551 30.4762C84.7414 29.9297 83.7905 29.8255 82.9707 30.2012L82.1995 30.5553L82.3416 29.7176C82.4908 28.8278 82.142 27.9361 81.4301 27.3915C80.7165 26.845 79.7655 26.7407 78.9458 27.1164L78.1746 27.4706L78.3166 26.6329C78.4658 25.743 78.1171 24.8514 77.4034 24.3067C76.6897 23.7602 75.737 23.6541 74.9191 24.0299L74.1479 24.384L74.2899 23.5463C74.4391 22.6565 74.0903 21.7648 73.3767 21.2201C72.663 20.6736 71.712 20.5676 70.8923 20.9451L70.1211 21.2992L70.2631 20.4615C70.4123 19.5717 70.0636 18.68 69.3517 18.1354C68.2929 17.3246 66.7721 17.526 65.9596 18.5848C65.5659 19.0971 65.3969 19.7335 65.4814 20.3734C65.5659 21.0134 65.8966 21.5833 66.409 21.9751C67.1226 22.5216 68.0736 22.6277 68.8933 22.2502L69.6645 21.896L69.5225 22.7338C69.3733 23.6236 69.722 24.5152 70.4357 25.0599C71.1494 25.6064 72.1021 25.7125 72.9201 25.3367L73.6913 24.9826L73.5492 25.8203C73.4 26.7102 73.7488 27.6018 74.4607 28.1465C75.1743 28.693 76.1253 28.799 76.945 28.4215L77.7162 28.0674L77.5742 28.9051C77.425 29.7949 77.7737 30.6866 78.4874 31.2312C79.2011 31.7777 80.152 31.8838 80.9717 31.5063L81.7411 31.1521Z" fill="black"/>
<path d="M22.1331 18.6962C21.1659 17.4415 19.3647 17.2078 18.1099 18.1749C17.2381 18.8472 16.8606 19.9204 17.0349 20.9361C16.0984 20.5083 14.964 20.6 14.0904 21.2705C13.2185 21.9428 12.841 23.016 13.0154 24.0317C12.0788 23.6038 10.9445 23.6955 10.0708 24.366C9.19898 25.0384 8.82147 26.1115 8.99584 27.1272C8.05927 26.6994 6.92495 26.7911 6.05129 27.4616C5.17943 28.1339 4.80193 29.2071 4.9763 30.2228C4.03972 29.7949 2.9054 29.8866 2.03175 30.5571C0.776987 31.5243 0.543292 33.3237 1.50863 34.5803C2.47577 35.835 4.27701 36.0687 5.53177 35.1016C6.40363 34.4293 6.78114 33.3561 6.60677 32.3404C7.54334 32.7682 8.67766 32.6766 9.55132 32.006C10.4232 31.3337 10.8007 30.2605 10.6263 29.2449C11.5629 29.6727 12.6972 29.581 13.5709 28.9105C14.4427 28.2382 14.8202 27.165 14.6459 26.1493C15.5824 26.5771 16.7168 26.4855 17.5904 25.8149C18.4623 25.1426 18.8398 24.0694 18.6654 23.0537C19.602 23.4816 20.7363 23.3899 21.61 22.7194C22.8647 21.7522 23.0984 19.9528 22.1331 18.6962Z" fill="#1C1C1C"/>
<path d="M3.78795 36.1478C3.64414 36.1478 3.50033 36.1388 3.35472 36.1191C2.47567 36.0058 1.69369 35.5564 1.1526 34.8535C0.0380548 33.4028 0.3095 31.3157 1.75661 30.1994C2.54398 29.5954 3.54347 29.3797 4.48724 29.5864C4.52858 28.6193 4.99058 27.7096 5.77615 27.1038C6.56352 26.4998 7.56122 26.2841 8.50678 26.4908C8.54813 25.5237 9.01013 24.6141 9.7957 24.0083C10.5831 23.4043 11.5826 23.1886 12.5263 23.3953C12.5677 22.4282 13.0297 21.5185 13.8152 20.9127C14.6026 20.3087 15.6021 20.0948 16.5459 20.2997C16.5872 19.3326 17.0492 18.423 17.8348 17.8172C19.2837 16.7008 21.3708 16.9705 22.4889 18.4194C23.6034 19.8701 23.332 21.9572 21.8831 23.0717C21.0957 23.6757 20.0962 23.8914 19.1525 23.6847C19.1111 24.6518 18.6491 25.5615 17.8636 26.1673C17.0762 26.7713 16.0767 26.987 15.1329 26.7803C15.0916 27.7474 14.6296 28.657 13.844 29.2628C13.0566 29.8668 12.0571 30.0807 11.1134 29.8758C11.072 30.843 10.61 31.7526 9.82446 32.3584C9.03709 32.9624 8.0376 33.1763 7.09383 32.9714C7.05248 33.9385 6.59049 34.8481 5.80492 35.4539C5.22068 35.9087 4.516 36.1478 3.78795 36.1478ZM3.78076 30.4115C3.25585 30.4115 2.73633 30.5823 2.30489 30.9131C1.24967 31.7256 1.05193 33.2482 1.86447 34.3052C2.6788 35.3604 4.20141 35.5582 5.25663 34.7439C5.9685 34.1956 6.31545 33.3021 6.16265 32.4141L6.01884 31.5764L6.79183 31.9305C7.60976 32.3044 8.56251 32.1966 9.27618 31.6483C9.98625 31.1 10.335 30.2084 10.1822 29.3203L10.0384 28.4826L10.8114 28.8368C11.6293 29.2107 12.5821 29.1028 13.2957 28.5545C14.0058 28.0063 14.3545 27.1146 14.2017 26.2266L14.0579 25.3889L14.8309 25.743C15.6488 26.1169 16.6016 26.0091 17.3153 25.4608C18.0253 24.9125 18.3741 24.0209 18.2213 23.1328L18.0775 22.2951L18.8505 22.6493C19.6684 23.0232 20.6211 22.9153 21.3348 22.367C22.39 21.5545 22.5878 20.0319 21.7752 18.9749C20.9609 17.9178 19.4383 17.7219 18.3831 18.5344C17.6712 19.0827 17.3243 19.9762 17.4771 20.8642L17.6209 21.7019L16.8479 21.3478C16.0299 20.9739 15.0772 21.0817 14.3635 21.63C13.6535 22.1783 13.3047 23.0699 13.4575 23.958L13.6013 24.7957L12.8283 24.4415C12.0104 24.0676 11.0576 24.1755 10.344 24.7237C9.63391 25.272 9.28517 26.1637 9.43797 27.0517L9.58178 27.8894L8.80879 27.5353C7.99086 27.1614 7.0381 27.2692 6.32444 27.8175C5.61437 28.3658 5.26562 29.2574 5.41842 30.1455L5.56223 30.9832L4.78924 30.629C4.46567 30.4834 4.12232 30.4115 3.78076 30.4115Z" fill="black"/>
<path d="M81.6372 44.3972C81.1842 43.3941 80.226 42.7793 79.1995 42.7146C79.8305 41.9021 80.0049 40.7767 79.5519 39.7736C79.0989 38.7706 78.1407 38.1558 77.1143 38.091C77.7452 37.2785 77.9196 36.1532 77.4666 35.1501C77.0136 34.147 76.0555 33.5322 75.029 33.4675C75.66 32.655 75.8343 31.5296 75.3813 30.5265C74.9283 29.5234 73.9702 28.9086 72.9437 28.8439C73.5747 28.0314 73.7491 26.9061 73.2961 25.903C72.8431 24.8999 71.8849 24.2851 70.8584 24.2204C71.4894 23.4078 71.6638 22.2825 71.2108 21.2794C70.56 19.8359 68.8613 19.1924 67.4177 19.8431C65.9742 20.4939 65.3307 22.1926 65.9832 23.6361C66.4362 24.6392 67.3944 25.254 68.4208 25.3187C67.7899 26.1313 67.6155 27.2566 68.0685 28.2597C68.5215 29.2628 69.4797 29.8776 70.5061 29.9423C69.8751 30.7548 69.7008 31.8802 70.1538 32.8833C70.6068 33.8863 71.5649 34.5011 72.5914 34.5659C71.9604 35.3784 71.786 36.5037 72.239 37.5068C72.6921 38.5099 73.6502 39.1247 74.6767 39.1894C74.0457 40.0019 73.8713 41.1273 74.3243 42.1304C74.7773 43.1335 75.7355 43.7483 76.7619 43.813C76.131 44.6255 75.9566 45.7508 76.4096 46.7539C77.0603 48.1974 78.7591 48.841 80.2026 48.1902C81.6461 47.5395 82.2897 45.8407 81.6372 44.3972Z" fill="#1C1C1C"/>
<path d="M79.0287 48.8932C77.7632 48.8932 76.5516 48.1651 75.9997 46.9391C75.5916 46.0367 75.6132 45.0156 76.032 44.142C75.1009 43.8777 74.3225 43.2198 73.9144 42.3155C73.5063 41.4113 73.5279 40.3921 73.9468 39.5184C73.0156 39.2542 72.2372 38.5962 71.8291 37.692C71.4211 36.7878 71.4426 35.7685 71.8615 34.8949C70.9303 34.6306 70.1519 33.9727 69.7439 33.0684C69.3358 32.1642 69.3574 31.145 69.7762 30.2713C68.845 30.007 68.0666 29.3491 67.6586 28.4449C67.2505 27.5407 67.2721 26.5214 67.6909 25.6477C66.7598 25.3835 65.9814 24.7255 65.5733 23.8213C65.2084 23.0142 65.1796 22.1136 65.4942 21.2848C65.807 20.4561 66.4254 19.7982 67.2343 19.4333C68.0415 19.0701 68.9421 19.0414 69.7726 19.356C70.6013 19.6706 71.2575 20.2871 71.6224 21.0943C72.0305 21.9967 72.0089 23.0178 71.59 23.8914C72.5212 24.1557 73.2996 24.8136 73.7077 25.7178C74.1157 26.6221 74.0942 27.6413 73.6753 28.515C74.6065 28.7792 75.3849 29.4372 75.7929 30.3414C76.201 31.2456 76.1794 32.2667 75.7606 33.1385C76.6918 33.4028 77.4702 34.0607 77.8782 34.965C78.2863 35.8692 78.2647 36.8884 77.8459 37.7621C78.7771 38.0264 79.5554 38.6843 79.9635 39.5885C80.3716 40.4927 80.35 41.5138 79.9311 42.3857C80.8623 42.6499 81.6407 43.3079 82.0488 44.2121C82.4137 45.0192 82.4425 45.9198 82.1279 46.7486C81.8151 47.5773 81.1967 48.2352 80.3895 48.6001C79.9455 48.7979 79.4835 48.8932 79.0287 48.8932ZM68.5952 20.0373C68.2572 20.0373 67.921 20.1092 67.6029 20.2512C67.0132 20.5172 66.5638 20.9954 66.3355 21.6012C66.1072 22.2052 66.127 22.8614 66.393 23.4492C66.7634 24.2671 67.5507 24.8118 68.4496 24.8694L69.2962 24.9233L68.7749 25.5938C68.2213 26.3057 68.108 27.2566 68.4765 28.0746C68.8468 28.8925 69.6342 29.4372 70.533 29.4929L71.3797 29.5468L70.8584 30.2174C70.3047 30.9292 70.1915 31.8802 70.56 32.6981C70.9303 33.5161 71.7177 34.0607 72.6165 34.1165L73.4632 34.1704L72.9419 34.8409C72.3882 35.5528 72.275 36.5037 72.6435 37.3217C73.0138 38.1396 73.8012 38.6843 74.7 38.74L75.5467 38.794L75.0254 39.4645C74.4717 40.1763 74.3584 41.1273 74.7269 41.9452C75.0973 42.7632 75.8846 43.3079 76.7835 43.3636L77.6301 43.4175L77.1088 44.088C76.5552 44.7999 76.4419 45.7509 76.8104 46.5688C77.3587 47.784 78.7932 48.3287 80.0084 47.7804C80.5981 47.5144 81.0475 47.0362 81.2758 46.4304C81.5041 45.8264 81.4843 45.1702 81.2183 44.5824C80.8479 43.7645 80.0606 43.2198 79.1617 43.164L78.3151 43.1101L78.8364 42.4396C79.3901 41.7277 79.5033 40.7768 79.1348 39.9588C78.7645 39.1409 77.9771 38.5962 77.0783 38.5405L76.2298 38.4866L76.7511 37.816C77.3048 37.1042 77.418 36.1532 77.0495 35.3353C76.6792 34.5173 75.8918 33.9727 74.993 33.9169L74.1463 33.863L74.6676 33.1925C75.2213 32.4806 75.3346 31.5297 74.966 30.7117C74.5957 29.8938 73.8083 29.3491 72.9095 29.2934L72.0628 29.2394L72.5841 28.5689C73.1378 27.8571 73.2511 26.9061 72.8826 26.0882C72.5122 25.2702 71.7249 24.7255 70.826 24.6698L69.9794 24.6159L70.5007 23.9454C71.0543 23.2335 71.1676 22.2825 70.7991 21.4646C70.533 20.875 70.0549 20.4256 69.4508 20.1973C69.174 20.0912 68.8828 20.0373 68.5952 20.0373Z" fill="black"/>
<path d="M83.618 36.2916C82.9224 35.4377 81.8384 35.089 80.8299 35.2921C81.2326 34.3448 81.1103 33.2123 80.4146 32.3584C79.7189 31.5045 78.635 31.1557 77.6265 31.3589C78.0292 30.4115 77.9069 29.279 77.2112 28.4251C76.5155 27.5712 75.4315 27.2225 74.4231 27.4256C74.8257 26.4783 74.7035 25.3457 74.0078 24.4918C73.3121 23.638 72.2281 23.2892 71.2197 23.4924C71.6223 22.545 71.5001 21.4125 70.8044 20.5586C69.8049 19.3308 67.9965 19.1456 66.7687 20.1451C65.5409 21.1446 65.3557 22.9513 66.3552 24.1809C67.0509 25.0347 68.1349 25.3835 69.1434 25.1804C68.7407 26.1277 68.8629 27.2602 69.5586 28.1141C70.2543 28.968 71.3383 29.3167 72.3468 29.1136C71.9441 30.061 72.0663 31.1935 72.762 32.0474C73.4577 32.9013 74.5417 33.25 75.5502 33.0469C75.1475 33.9942 75.2698 35.1267 75.9655 35.9806C76.6611 36.8345 77.7451 37.1833 78.7536 36.9801C78.3509 37.9275 78.4732 39.06 79.1689 39.9139C80.1684 41.1417 81.9768 41.3268 83.2046 40.3274C84.4324 39.3279 84.6175 37.5212 83.618 36.2916Z" fill="#353535"/>
<path d="M81.3997 41.4203C81.2846 41.4203 81.1696 41.4149 81.0545 41.4023C80.1719 41.3124 79.3791 40.8846 78.8201 40.1961C78.1927 39.4267 77.9518 38.4344 78.1316 37.4853C77.1644 37.4709 76.244 37.0322 75.6166 36.2628C74.9893 35.4935 74.7484 34.5012 74.9281 33.552C73.961 33.5376 73.0406 33.1008 72.4132 32.3296C71.7859 31.5602 71.545 30.5679 71.7247 29.6187C70.7576 29.6044 69.8354 29.1675 69.2098 28.3963C68.5824 27.6269 68.3416 26.6346 68.5213 25.6855C67.5542 25.6711 66.6338 25.2343 66.0064 24.4631C64.8523 23.0429 65.0662 20.9487 66.4846 19.7946C67.9029 18.6387 69.9972 18.8544 71.1531 20.2728C71.7805 21.0421 72.0213 22.0344 71.8416 22.9836C72.8087 22.998 73.7309 23.4348 74.3565 24.206C74.9839 24.9754 75.2248 25.9677 75.045 26.9169C76.0121 26.9312 76.9325 27.3681 77.5599 28.1393C78.1873 28.9087 78.4282 29.901 78.2484 30.8501C79.2155 30.8645 80.1377 31.3013 80.7633 32.0725C81.3907 32.8419 81.6316 33.8342 81.4518 34.7834C82.419 34.7978 83.3411 35.2346 83.9667 36.0058C85.1208 37.4259 84.9051 39.5184 83.4886 40.6743C82.8917 41.1614 82.1601 41.4203 81.3997 41.4203ZM79.5014 36.3707L79.167 37.1563C78.8147 37.985 78.9495 38.9324 79.5175 39.6298C79.9256 40.1314 80.5045 40.4424 81.1462 40.5089C81.7916 40.5754 82.419 40.3867 82.9205 39.9786C83.9542 39.1373 84.1105 37.6111 83.2692 36.5756C82.7012 35.8782 81.8006 35.5564 80.9179 35.7325L80.082 35.9015L80.4164 35.1159C80.7687 34.2872 80.6339 33.3399 80.0658 32.6424C79.4978 31.9449 78.5971 31.6213 77.7145 31.7993L76.8786 31.9683L77.213 31.1827C77.5653 30.354 77.4305 29.4066 76.8624 28.7091C76.2944 28.0116 75.3937 27.6899 74.5111 27.866L73.6752 28.035L74.0095 27.2494C74.3619 26.4207 74.2271 25.4734 73.659 24.7759C73.0909 24.0784 72.1903 23.7548 71.3077 23.9328L70.4718 24.1017L70.8061 23.3162C71.1585 22.4875 71.0237 21.5401 70.4556 20.8426C69.6125 19.809 68.0863 19.6508 67.0526 20.4939C66.019 21.3352 65.8626 22.8632 66.7039 23.8968C67.272 24.5943 68.1726 24.9161 69.0552 24.7399L69.8911 24.5709L69.5568 25.3565C69.2044 26.1852 69.3393 27.1326 69.9073 27.8301C70.4754 28.5276 71.376 28.8511 72.2586 28.6732L73.0945 28.5042L72.7602 29.2898C72.4078 30.1185 72.5427 31.0658 73.1107 31.7633C73.6788 32.4608 74.5794 32.7844 75.462 32.6064L76.298 32.4375L75.9636 33.223C75.6113 34.0517 75.7461 34.9991 76.3141 35.6966C76.8822 36.3941 77.7828 36.7177 78.6655 36.5397L79.5014 36.3707Z" fill="black"/>
<path d="M21.0275 19.223C19.584 18.5722 17.8853 19.214 17.2345 20.6593C16.7815 21.6624 16.9559 22.7877 17.5868 23.6002C16.5604 23.6649 15.6004 24.2797 15.1492 25.2828C14.6962 26.2859 14.8706 27.4113 15.5016 28.2238C14.4751 28.2885 13.5152 28.9033 13.064 29.9064C12.6109 30.9095 12.7853 32.0348 13.4163 32.8473C12.3898 32.9121 11.4299 33.5269 10.9787 34.5299C10.5257 35.533 10.7 36.6584 11.331 37.4709C10.3046 37.5356 9.34462 38.1504 8.89341 39.1535C8.4404 40.1566 8.61477 41.2819 9.24575 42.0945C8.21929 42.1592 7.25934 42.774 6.80813 43.7771C6.15738 45.2206 6.79915 46.9193 8.24266 47.5701C9.68617 48.2208 11.385 47.5791 12.0357 46.1338C12.4887 45.1307 12.3143 44.0054 11.6834 43.1928C12.7098 43.1281 13.6698 42.5133 14.121 41.5102C14.574 40.5071 14.3996 39.3818 13.7686 38.5693C14.7951 38.5046 15.755 37.8898 16.2062 36.8867C16.6593 35.8836 16.4849 34.7582 15.8539 33.9457C16.8804 33.881 17.8403 33.2662 18.2915 32.2631C18.7445 31.26 18.5702 30.1347 17.9392 29.3222C18.9656 29.2574 19.9256 28.6426 20.3768 27.6396C20.8298 26.6365 20.6554 25.5111 20.0245 24.6986C21.0509 24.6339 22.0109 24.0191 22.4621 23.016C23.1128 21.5725 22.4711 19.8737 21.0275 19.223Z" fill="#1C1C1C"/>
<path d="M9.42003 48.2748C8.95623 48.2748 8.49424 48.1759 8.05741 47.9799C6.39099 47.2285 5.64676 45.2601 6.39818 43.5919C6.80445 42.6877 7.58463 42.0279 8.51581 41.7655C8.09696 40.8918 8.07539 39.8725 8.48345 38.9683C8.88972 38.0641 9.6699 37.4044 10.6011 37.1419C10.1822 36.2683 10.1607 35.249 10.5687 34.3448C10.975 33.4405 11.7552 32.7808 12.6864 32.5184C12.2675 31.6447 12.2459 30.6254 12.654 29.7212C13.0603 28.817 13.8404 28.1573 14.7716 27.8948C14.3528 27.0211 14.3312 26.0019 14.7393 25.0977C15.1455 24.1934 15.9257 23.5337 16.8569 23.2712C16.4381 22.3976 16.4165 21.3783 16.8245 20.4741C17.1877 19.667 17.8456 19.0486 18.6743 18.734C19.503 18.4212 20.4037 18.4481 21.2126 18.8131C22.879 19.5645 23.6233 21.5329 22.8718 23.2011C22.4656 24.1054 21.6854 24.7651 20.7542 25.0275C21.1731 25.9012 21.1946 26.9205 20.7866 27.8247C20.3803 28.7289 19.6001 29.3886 18.6689 29.6511C19.0878 30.5248 19.1094 31.544 18.7013 32.4482C18.295 33.3525 17.5148 34.0122 16.5837 34.2747C17.0025 35.1483 17.0241 36.1676 16.616 37.0718C16.2098 37.976 15.4296 38.6358 14.4984 38.8982C14.9172 39.7719 14.9388 40.7911 14.5307 41.6954C14.1245 42.5996 13.3443 43.2593 12.4131 43.5218C12.832 44.3954 12.8535 45.4147 12.4455 46.3189C12.0823 47.1261 11.4244 47.7444 10.5957 48.059C10.2128 48.2029 9.81551 48.2748 9.42003 48.2748ZM19.85 19.4171C19.5606 19.4171 19.2712 19.4692 18.9925 19.5753C18.3885 19.8036 17.9085 20.2548 17.6443 20.8444C17.274 21.6623 17.389 22.6133 17.9409 23.3252L18.4622 23.9957L17.6155 24.0496C16.7149 24.1071 15.9275 24.65 15.559 25.468C15.1887 26.2859 15.3037 27.2369 15.8556 27.9487L16.3769 28.6193L15.5302 28.6732C14.6296 28.7307 13.8422 29.2736 13.4737 30.0915C13.1034 30.9095 13.2185 31.8604 13.7703 32.5723L14.2917 33.2428L13.445 33.2967C12.5443 33.3543 11.757 33.8972 11.3885 34.7151C11.0181 35.533 11.1332 36.484 11.6869 37.1958L12.2082 37.8664L11.3615 37.9203C10.4609 37.9778 9.6735 38.5207 9.30498 39.3386C8.93466 40.1566 9.04971 41.1075 9.60159 41.8194L10.1229 42.4899L9.27622 42.5438C8.37559 42.6014 7.58822 43.1443 7.21971 43.9622C6.95365 44.5518 6.93388 45.208 7.16218 45.812C7.39048 46.416 7.83989 46.896 8.42952 47.1602C9.01915 47.4263 9.67529 47.446 10.2793 47.2177C10.8833 46.9894 11.3633 46.5382 11.6275 45.9486C11.9979 45.1307 11.8828 44.1797 11.3309 43.4678L10.8096 42.7973L11.6563 42.7434C12.5569 42.6859 13.3443 42.143 13.7128 41.325C14.0831 40.5071 13.9681 39.5562 13.4162 38.8443L12.8949 38.1738L13.7416 38.1198C14.6422 38.0623 15.4296 37.5194 15.7981 36.7015C16.1684 35.8836 16.0534 34.9326 15.5015 34.2207L14.9802 33.5502L15.8269 33.4963C16.7275 33.4388 17.5148 32.8959 17.8834 32.0779C18.2537 31.26 18.1386 30.309 17.5868 29.5972L17.0654 28.9267L17.9121 28.8727C18.8128 28.8152 19.6001 28.2723 19.9686 27.4544C20.339 26.6364 20.2239 25.6855 19.672 24.9736L19.1507 24.3031L19.9974 24.2492C20.898 24.1916 21.6854 23.6487 22.0539 22.8308C22.6022 21.6138 22.0593 20.1793 20.8441 19.631C20.5259 19.489 20.188 19.4171 19.85 19.4171Z" fill="black"/>
<path d="M21.6707 19.5267C20.4429 18.5272 18.6363 18.7124 17.635 19.9402C16.9393 20.7941 16.8189 21.9266 17.2198 22.8739C16.2113 22.6726 15.1255 23.0214 14.4316 23.8734C13.7359 24.7273 13.6155 25.8598 14.0163 26.8072C13.0079 26.6059 11.9221 26.9546 11.2282 27.8067C10.5343 28.6588 10.4121 29.7931 10.8129 30.7405C9.80445 30.5391 8.71867 30.8879 8.02478 31.74C7.33088 32.592 7.20864 33.7264 7.60952 34.6737C6.60104 34.4724 5.51526 34.8211 4.82136 35.6732C3.82187 36.901 4.00523 38.7076 5.23482 39.7089C6.46262 40.7084 8.26926 40.5233 9.27055 39.2955C9.96624 38.4416 10.0867 37.3091 9.6858 36.3617C10.6943 36.5631 11.7801 36.2143 12.474 35.3622C13.1697 34.5083 13.2901 33.3758 12.8892 32.4285C13.8977 32.6298 14.9835 32.2811 15.6774 31.429C16.3731 30.5751 16.4935 29.4426 16.0926 28.4952C17.1011 28.6965 18.1869 28.3478 18.8808 27.4957C19.5747 26.6436 19.6969 25.5093 19.296 24.5619C20.3045 24.7633 21.3903 24.4145 22.0842 23.5624C23.0837 22.3347 22.9003 20.528 21.6707 19.5267Z" fill="#353535"/>
<path d="M7.04158 40.8001C6.30454 40.8001 5.56391 40.5574 4.95091 40.0577C3.53257 38.9018 3.31685 36.8075 4.47274 35.3892C5.09832 34.6198 6.02231 34.183 6.98945 34.1686C6.80968 33.2176 7.05057 32.2253 7.67615 31.4559C8.30173 30.6865 9.22573 30.2497 10.1929 30.2353C10.0131 29.2844 10.254 28.2921 10.8796 27.5227C11.5051 26.7533 12.4291 26.3164 13.3963 26.3021C13.2147 25.3511 13.4574 24.3588 14.083 23.5894C14.7086 22.82 15.6308 22.3832 16.5997 22.3688C16.4181 21.4179 16.6608 20.4256 17.2864 19.6562C18.4423 18.2378 20.5365 18.0239 21.9549 19.178C23.3732 20.3339 23.5872 22.4281 22.4331 23.8465C21.8075 24.6159 20.8835 25.0527 19.9163 25.0671C20.0961 26.018 19.8552 27.0103 19.2296 27.7797C18.6041 28.5491 17.6801 28.986 16.7129 29.0003C16.8945 29.9513 16.6518 30.9436 16.0262 31.713C15.4007 32.4824 14.4785 32.9192 13.5095 32.9336C13.6911 33.8846 13.4484 34.8769 12.8228 35.6463C12.1972 36.4156 11.275 36.8525 10.3061 36.8669C10.4877 37.8178 10.245 38.8101 9.61941 39.5795C8.96327 40.3831 8.00692 40.8001 7.04158 40.8001ZM7.04338 35.0674C6.32432 35.0674 5.63582 35.3874 5.17023 35.9572C4.32893 36.9909 4.48532 38.5189 5.51897 39.3602C6.55262 40.2015 8.07882 40.0451 8.92192 39.0115C9.48818 38.3158 9.62301 37.3666 9.27246 36.5361L8.9417 35.7541L9.77401 35.9195C10.6585 36.0957 11.5591 35.7739 12.1253 35.0764C12.6934 34.3807 12.8264 33.4316 12.4759 32.601L12.1451 31.8191L12.9774 31.9844C13.8619 32.1606 14.7625 31.8388 15.3287 31.1413C15.8968 30.4457 16.0298 29.4965 15.6793 28.666L15.3485 27.884L16.1808 28.0494C17.0635 28.2256 17.9659 27.9038 18.5322 27.2063C19.0984 26.5106 19.2332 25.5614 18.8827 24.7309L18.5519 23.9489L19.3842 24.1143C20.2687 24.2905 21.1693 23.9669 21.7356 23.2712C22.5769 22.2376 22.4205 20.7096 21.3868 19.8683C20.3532 19.027 18.827 19.1834 17.9839 20.217C17.4176 20.9127 17.2828 21.8619 17.6333 22.6924L17.9641 23.4744L17.1318 23.309C16.2473 23.1328 15.3467 23.4546 14.7805 24.1521C14.2124 24.8478 14.0794 25.7969 14.4299 26.6274L14.7607 27.4094L13.9284 27.244C13.0439 27.0679 12.1433 27.3896 11.5771 28.0871C11.0108 28.7828 10.876 29.732 11.2265 30.5625L11.5573 31.3445L10.725 31.1791C9.84052 31.0029 8.9399 31.3247 8.37364 32.0222C7.80738 32.7179 7.67255 33.667 8.0231 34.4976L8.35386 35.2795L7.52155 35.1141C7.36156 35.0818 7.20157 35.0674 7.04338 35.0674Z" fill="black"/>
<path d="M57.2895 84.5316H63.4537C65.8859 84.5316 67.4247 81.9214 66.249 79.793L59.9159 68.3329H46.0093V73.2513C46.0093 79.4802 51.0589 84.5298 57.2877 84.5298L57.2895 84.5316Z" fill="#5A3F34"/>
<path d="M50.908 79.766H55.3931C58.832 79.766 61.9689 78.4753 64.3508 76.3541L66.2509 79.793C67.2432 81.5888 66.303 83.7262 64.5252 84.3518H59.9879C56.265 84.3518 52.9645 82.547 50.9098 79.766H50.908Z" fill="#735B4D"/>
<path d="M31.1518 84.5316H24.9877C22.5554 84.5316 21.0166 81.9214 22.1923 79.793L28.5254 68.3329H42.4321V73.2513C42.4321 79.4802 37.3825 84.5298 31.1536 84.5298L31.1518 84.5316Z" fill="#5A3F34"/>
<path d="M40.6666 12.9851H47.7745C59.4161 12.9851 68.8682 22.4372 68.8682 34.0787V62.6973C68.8682 70.1342 62.8299 76.1725 55.393 76.1725H33.0482C25.6113 76.1725 19.573 70.1342 19.573 62.6973V34.0787C19.573 22.4372 29.025 12.9851 40.6666 12.9851Z" fill="#5A3F34"/>
<path d="M42.2197 12.9851H46.2195C57.1995 12.9851 66.1123 21.8997 66.1123 32.8779V60.0889C66.1123 65.8216 61.4581 70.474 55.7272 70.474H32.7119C26.9792 70.474 22.3269 65.8198 22.3269 60.0889V32.8779C22.3269 21.8979 31.2415 12.9851 42.2197 12.9851Z" fill="#735B4D"/>
<path d="M55.393 76.7999H33.0482C25.2716 76.7999 18.9438 70.4722 18.9438 62.6955V34.0769C18.9438 22.0992 28.6889 12.3541 40.6666 12.3541H47.7746C59.7523 12.3541 69.4974 22.0992 69.4974 34.0769V62.6955C69.4974 70.4722 63.1696 76.7999 55.393 76.7999ZM40.6666 13.6143C29.3828 13.6143 20.2022 22.7949 20.2022 34.0787V62.6973C20.2022 69.7801 25.9655 75.5433 33.0482 75.5433H55.393C62.4757 75.5433 68.239 69.7801 68.239 62.6973V34.0787C68.239 22.7949 59.0584 13.6143 47.7746 13.6143H40.6666Z" fill="black"/>
<path d="M58.5659 56.7471C49.2541 59.8534 39.1873 59.8534 29.8754 56.7471C28.2378 56.2006 27.134 54.669 27.134 52.9432V41.0266C27.134 38.6843 29.4296 37.0286 31.6533 37.7711C39.8111 40.4909 48.6303 40.4909 56.7881 37.7711C59.01 37.0304 61.3074 38.6843 61.3074 41.0266V52.9432C61.3074 54.669 60.2036 56.2006 58.5659 56.7471Z" fill="#4C1615"/>
<mask id="mask0_2140_7289" style="mask-type:luminance" maskUnits="userSpaceOnUse" x="27" y="37" width="35" height="23">
<path d="M58.5659 56.7471C49.2541 59.8534 39.1873 59.8534 29.8754 56.7471C28.2378 56.2006 27.134 54.669 27.134 52.9432V41.0266C27.134 38.6843 29.4296 37.0286 31.6533 37.7711C39.8111 40.4909 48.6303 40.4909 56.7881 37.7711C59.01 37.0304 61.3074 38.6843 61.3074 41.0266V52.9432C61.3074 54.669 60.2036 56.2006 58.5659 56.7471Z" fill="white"/>
</mask>
<g mask="url(#mask0_2140_7289)">
<path d="M54.6688 51.7927C54.6688 54.971 49.9913 57.547 44.219 57.547C38.4468 57.547 33.7693 54.971 33.7693 51.7927C33.7693 49.8764 35.4699 48.1776 38.0872 47.1332C39.0418 46.7521 40.1132 46.7827 41.048 47.2105L43.4532 48.3143C43.9386 48.5372 44.4977 48.5372 44.983 48.3143L47.3883 47.2105C48.3231 46.7809 49.3945 46.7521 50.349 47.1332C52.9646 48.1794 54.667 49.8764 54.667 51.7927H54.6688Z" fill="#EB544D"/>
<path d="M44.2207 48.4797C44.4814 48.4797 44.7438 48.4239 44.9865 48.3125L47.3918 47.2087C48.3265 46.7791 49.3979 46.7503 50.3525 47.1314C52.9681 48.1777 54.6704 49.8746 54.6704 51.7909C54.6704 54.9692 49.993 57.5452 44.2207 57.5452" fill="#BA2020"/>
<path d="M20.2419 36.7949L28.7808 41.156L32.6583 45.3787L36.5143 41.3178L40.3684 45.3787L44.2226 41.3178L48.0768 45.3787L51.9309 41.3178L55.7851 45.3787L59.6392 41.156L68.1781 36.7949H20.2419Z" fill="white"/>
<path d="M55.7887 45.785L51.9309 41.7187L48.0768 45.7814L44.2226 41.7187L40.3685 45.7814L36.5143 41.7187L32.6565 45.785L28.6118 41.3807L19.0933 36.5199H69.3268L59.81 41.3807L55.7887 45.7868V45.785ZM36.5125 40.917L40.3667 44.9796L44.2208 40.917L48.075 44.9796L51.9291 40.917L55.7797 44.9742L59.4685 40.9331L67.0294 37.0718H21.3889L28.9498 40.9331L32.6619 44.9742L36.5125 40.9152V40.917Z" fill="black"/>
<path d="M44.2209 57.8239C38.3066 57.8239 33.4961 55.1184 33.4961 51.7927C33.4961 49.8387 35.1751 47.9997 37.9866 46.8762C39.0041 46.4699 40.1636 46.4987 41.1649 46.9589L43.5701 48.0626C43.9836 48.2514 44.4582 48.2514 44.8698 48.0626L47.2751 46.9589C48.2764 46.4987 49.4359 46.4699 50.4533 46.8762C53.2649 47.9997 54.9439 49.8387 54.9439 51.7927C54.9439 55.1184 50.1315 57.8239 44.2209 57.8239ZM39.4769 47.144C39.04 47.144 38.6032 47.2249 38.1916 47.3903C35.5975 48.4275 34.048 50.0742 34.048 51.7945C34.048 54.8146 38.6122 57.2738 44.2209 57.2738C49.8295 57.2738 54.3938 54.8164 54.3938 51.7945C54.3938 50.0742 52.8442 48.4275 50.2502 47.3903C49.3711 47.0398 48.3717 47.0649 47.507 47.4622L45.1017 48.566C44.5427 48.823 43.9009 48.823 43.34 48.566L40.9348 47.4622C40.4746 47.2501 39.9748 47.144 39.4769 47.144Z" fill="black"/>
<path d="M20.2419 59.2656L28.7808 54.9045L32.6583 50.6818L36.5143 54.7427L40.3684 50.6818L44.2226 54.7427L48.0768 50.6818L51.9309 54.7427L55.7851 50.6818L59.6392 54.9045L68.1781 59.2656H20.2419Z" fill="white"/>
<path d="M69.3268 59.5424H19.0933L28.6118 54.6816L32.6565 50.2773L36.5143 54.3436L40.3685 50.2809L44.2226 54.3436L48.0768 50.2809L51.9309 54.3436L55.7887 50.2773L59.81 54.6834L69.3268 59.5442V59.5424ZM21.3889 58.9906H67.0294L59.4685 55.1292L55.7797 51.0881L51.9291 55.1454L48.075 51.0827L44.2208 55.1454L40.3667 51.0827L36.5125 55.1454L32.6619 51.0863L28.9498 55.1274L21.3889 58.9906Z" fill="black"/>
</g>
<path d="M44.2207 59.5999C39.3023 59.5999 34.3857 58.8198 29.7047 57.2576C27.8441 56.6374 26.5947 54.9027 26.5947 52.9432V41.0266C26.5947 39.7341 27.1951 38.5602 28.245 37.8052C29.293 37.0502 30.5981 36.8507 31.8241 37.2605C39.8182 39.9265 48.6231 39.9265 56.6191 37.2605C57.8451 36.8525 59.1502 37.0502 60.1982 37.8052C61.2462 38.5602 61.8484 39.7359 61.8484 41.0266V52.9432C61.8484 54.9045 60.5991 56.6374 58.7385 57.2576C54.0574 58.818 49.1409 59.5999 44.2225 59.5999H44.2207ZM30.5585 38.1306C29.9635 38.1306 29.3793 38.3176 28.8759 38.6789C28.1119 39.229 27.6751 40.0846 27.6751 41.0266V52.9432C27.6751 54.4389 28.6279 55.762 30.0462 56.2347C39.1873 59.2836 49.2559 59.2836 58.397 56.2347C59.8153 55.762 60.7699 54.4389 60.7699 52.9432V41.0266C60.7699 40.0846 60.3312 39.229 59.569 38.6789C58.805 38.1288 57.8559 37.9832 56.9624 38.2816C48.7472 41.0212 39.6996 41.0212 31.4861 38.2816C31.1805 38.1809 30.8695 38.1306 30.5621 38.1306H30.5585Z" fill="black"/>
<path d="M37.5316 79.766H33.0465C29.6076 79.766 26.4707 78.4753 24.0888 76.3541L22.1887 79.793C21.1964 81.5888 22.1366 83.7262 23.9144 84.3518H28.4517C32.1746 84.3518 35.4751 82.547 37.5316 79.766Z" fill="#735B4D"/>
<path d="M31.15 85.1608H24.9858C23.6196 85.1608 22.3882 84.4579 21.6943 83.2804C21.0004 82.103 20.9789 80.6864 21.6404 79.4892L25.2609 72.9349L25.8325 73.3232C27.9645 74.7739 30.4597 75.5415 33.0483 75.5415H42.8671L42.6549 76.3325C41.2654 81.5295 36.5357 85.1608 31.1518 85.1608H31.15ZM25.7031 74.738L22.7424 80.0986C22.2983 80.9003 22.3127 81.8513 22.7783 82.6422C23.2439 83.4314 24.069 83.9042 24.9876 83.9042H31.1518C35.689 83.9042 39.7068 81.0226 41.1952 76.8017H33.0483C30.4381 76.8017 27.9124 76.0916 25.7031 74.738Z" fill="black"/>
<path d="M63.4536 85.1608H57.2895C51.9055 85.1608 47.1741 81.5313 45.7863 76.3325L45.5742 75.5415H55.393C57.9816 75.5415 60.4767 74.7739 62.6087 73.3232L63.1786 72.9349L66.7991 79.4892C67.4606 80.6864 67.4408 82.103 66.7451 83.2804C66.0513 84.4579 64.8199 85.1608 63.4536 85.1608ZM47.246 76.7999C48.7345 81.0208 52.7522 83.9024 57.2895 83.9024H63.4536C64.3704 83.9024 65.1956 83.4314 65.663 82.6404C66.1286 81.8513 66.1429 80.9003 65.6989 80.0968L62.7364 74.7362C60.5271 76.088 58.0032 76.7981 55.3912 76.7981L47.246 76.7999Z" fill="black"/>
<path d="M13.9789 34.4383C17.069 34.4383 19.5731 36.7375 19.5731 39.5724V57.1983L9.85146 40.8146C8.14728 37.9401 10.4123 34.4401 13.9789 34.4401V34.4383Z" fill="#735B4D"/>
<path d="M20.2294 59.591L9.28707 41.1471C8.41521 39.6766 8.39723 37.9131 9.24033 36.4319C10.1715 34.796 11.9871 33.7803 13.9789 33.7803C17.425 33.7803 20.2294 36.3779 20.2294 39.5706V59.591ZM13.9789 35.0944C12.4581 35.0944 11.0811 35.8566 10.3818 37.0826C9.76524 38.1648 9.77783 39.4034 10.416 40.4784L18.9153 54.8039V39.5724C18.9153 37.1042 16.7006 35.0962 13.9789 35.0944Z" fill="black"/>
<path d="M17.5758 47.0469L16.1593 39.8528C15.6757 37.3936 13.3567 35.6624 10.7322 35.6319C11.5573 34.9038 12.6808 34.4382 13.9787 34.4382C17.0689 34.4382 19.573 36.7374 19.573 39.5723V57.1983L17.5758 47.0487V47.0469Z" fill="#5A3F34"/>
<path d="M20.2294 59.591L9.28707 41.1471C8.41521 39.6766 8.39723 37.9131 9.24033 36.4319C10.1715 34.796 11.9871 33.7803 13.9789 33.7803C17.425 33.7803 20.2294 36.3779 20.2294 39.5706V59.591ZM13.9789 35.0944C12.4581 35.0944 11.0811 35.8566 10.3818 37.0826C9.76524 38.1648 9.77783 39.4034 10.416 40.4784L18.9153 54.8039V39.5724C18.9153 37.1042 16.7006 35.0962 13.9789 35.0944Z" fill="black"/>
<path d="M74.461 34.4383C71.3708 34.4383 68.8667 36.7375 68.8667 39.5724V46.8834V57.1965L78.5884 40.8128C80.2926 37.9383 78.0275 34.4383 74.461 34.4383Z" fill="#5A3F34"/>
<path d="M68.2104 59.591V39.5724C68.2104 38.0156 68.8684 36.5541 70.062 35.4575C71.2395 34.3772 72.8017 33.7803 74.4609 33.7803C76.4527 33.7803 78.2683 34.796 79.1995 36.4319C80.0426 37.9131 80.0264 39.6766 79.1527 41.1471L68.2104 59.5892V59.591ZM74.4609 35.0944C73.1306 35.0944 71.8848 35.5672 70.9501 36.4247C70.0315 37.2678 69.5245 38.3859 69.5245 39.5706V54.8021L78.0238 40.4766C78.662 39.4016 78.6746 38.163 78.058 37.0808C77.3605 35.8548 75.9817 35.0926 74.4609 35.0926V35.0944Z" fill="black"/>
<path d="M23.6179 19.5681C22.1276 19.0342 20.4846 19.809 19.9489 21.2992C19.5768 22.3347 19.8392 23.4438 20.5331 24.2042C19.5138 24.3498 18.6078 25.0383 18.2357 26.0756C17.8636 27.111 18.1261 28.2202 18.8199 28.9806C17.8007 29.1262 16.8947 29.8147 16.5226 30.8519C16.1504 31.8874 16.4129 32.9965 17.1068 33.7569C16.0875 33.9025 15.1815 34.591 14.8094 35.6283C14.4373 36.6655 14.6997 37.7729 15.3936 38.5333C14.3744 38.6789 13.4683 39.3674 13.0962 40.4046C12.7241 41.4401 12.9866 42.5492 13.6805 43.3096C12.6612 43.4552 11.7552 44.1437 11.3831 45.181C10.8474 46.6712 11.6222 48.3143 13.1142 48.85C14.6045 49.3839 16.2475 48.6091 16.7832 47.1189C17.1553 46.0834 16.8929 44.9743 16.199 44.2139C17.2182 44.0682 18.1243 43.3797 18.4964 42.3425C18.8685 41.3071 18.606 40.1979 17.9121 39.4375C18.9314 39.2919 19.8374 38.6034 20.2095 37.5661C20.5816 36.5307 20.3192 35.4215 19.6253 34.6611C20.6446 34.5155 21.5506 33.827 21.9227 32.7898C22.2948 31.7543 22.0323 30.6452 21.3385 29.8848C22.3577 29.7392 23.2637 29.0507 23.6359 28.0134C24.008 26.978 23.7455 25.8688 23.0516 25.1084C24.0709 24.9628 24.9769 24.2743 25.349 23.2371C25.8847 21.7468 25.1099 20.1038 23.6179 19.5681Z" fill="#353535"/>
<path d="M14.0778 49.4684C13.7074 49.4684 13.3299 49.4055 12.9614 49.2742C12.1273 48.974 11.4586 48.3682 11.0811 47.5665C10.7036 46.7647 10.6604 45.8641 10.9588 45.03C11.2932 44.097 12.0194 43.3762 12.9255 43.04C12.4383 42.2023 12.3358 41.1866 12.672 40.2536C13.0064 39.3207 13.7326 38.5998 14.6386 38.2636C14.1515 37.4277 14.049 36.4103 14.3852 35.4773C14.7195 34.5425 15.4458 33.8234 16.3518 33.4873C15.8646 32.6496 15.7622 31.6339 16.0983 30.7009C16.4327 29.7679 17.1589 29.0471 18.0649 28.7109C17.5778 27.8732 17.4753 26.8575 17.8115 25.9246C18.1458 24.9916 18.8721 24.2707 19.7781 23.9346C19.2909 23.0969 19.1885 22.0812 19.5246 21.1482C20.143 19.4279 22.0467 18.529 23.7689 19.1456C24.603 19.4458 25.2717 20.0516 25.6492 20.8534C26.0267 21.6551 26.0699 22.5558 25.7715 23.3899C25.4371 24.3229 24.7109 25.0437 23.8048 25.3799C24.292 26.2176 24.3945 27.2333 24.0583 28.1662C23.7239 29.0992 22.9977 29.8201 22.0917 30.1562C22.5788 30.9939 22.6813 32.0096 22.3452 32.9426C22.0108 33.8756 21.2845 34.5964 20.3785 34.9326C20.8657 35.7703 20.9682 36.786 20.632 37.7189C20.2976 38.6519 19.5714 39.3728 18.6654 39.7089C19.1525 40.5466 19.255 41.5623 18.9188 42.4953C18.5845 43.4283 17.8582 44.1491 16.9522 44.4853C17.4394 45.323 17.5418 46.3387 17.2057 47.2717C16.7203 48.6235 15.4404 49.4684 14.0778 49.4684ZM22.6525 19.8485C21.6602 19.8485 20.7255 20.4633 20.3713 21.4502C20.0675 22.2951 20.2563 23.2335 20.8639 23.9004L21.4373 24.5278L20.596 24.6482C19.7044 24.7759 18.962 25.3799 18.6582 26.2266C18.3544 27.0715 18.5431 28.0098 19.1507 28.6768L19.7242 29.3041L18.8829 29.4246C17.9912 29.5522 17.2488 30.1562 16.945 31.0029C16.6412 31.8478 16.83 32.7862 17.4376 33.4531L18.011 34.0805L17.1697 34.2009C16.2781 34.3286 15.5357 34.9326 15.2319 35.7793C14.928 36.6242 15.1168 37.5643 15.7244 38.2295L16.2979 38.8569L15.4566 38.9773C14.5649 39.1049 13.8225 39.7089 13.5187 40.5556C13.2149 41.4005 13.4036 42.3389 14.0112 43.0058L14.5847 43.6332L13.7434 43.7537C12.8518 43.8813 12.1093 44.4853 11.8055 45.332C11.5862 45.9396 11.6186 46.5957 11.8936 47.1818C12.1687 47.766 12.6558 48.2082 13.2652 48.4275C14.52 48.877 15.9078 48.2226 16.359 46.9679C16.6628 46.123 16.474 45.1846 15.8664 44.5177L15.293 43.8903L16.1343 43.7698C17.0259 43.6422 17.7683 43.0382 18.0721 42.1915C18.3759 41.3466 18.1872 40.4082 17.5796 39.7413L17.0061 39.1139L17.8474 38.9935C18.7391 38.8658 19.4815 38.2618 19.7853 37.4151C20.0891 36.5702 19.9003 35.6319 19.2927 34.9649L18.7193 34.3376L19.5606 34.2171C20.4522 34.0895 21.1947 33.4855 21.4985 32.6388C21.8023 31.7939 21.6135 30.8555 21.0059 30.1886L20.4325 29.5612L21.2738 29.4408C22.1654 29.3131 22.9078 28.7091 23.2116 27.8624C23.5154 27.0175 23.3267 26.0792 22.7191 25.4122L22.1456 24.7849L22.9869 24.6644C23.8785 24.5368 24.621 23.9328 24.9248 23.0861C25.1441 22.4785 25.1117 21.8223 24.8367 21.2363C24.5617 20.6521 24.0745 20.2098 23.4651 19.9905C23.1972 19.8952 22.9222 19.8485 22.6525 19.8485Z" fill="black"/>
<path d="M77.0586 45.7922C76.6864 44.7567 75.7804 44.0664 74.7612 43.9208C75.455 43.1604 75.7175 42.0531 75.3454 41.0158C74.9733 39.9804 74.0673 39.2901 73.048 39.1445C73.7419 38.3841 74.0043 37.2767 73.6322 36.2395C73.2601 35.204 72.3541 34.5137 71.3348 34.3681C72.0287 33.6077 72.2912 32.5004 71.9191 31.4631C71.547 30.4259 70.6409 29.7374 69.6217 29.5918C70.3156 28.8314 70.578 27.724 70.2059 26.6868C69.8338 25.6513 68.9278 24.961 67.9085 24.8154C68.6024 24.055 68.8649 22.9476 68.4928 21.9104C67.9571 20.4201 66.3158 19.6436 64.8237 20.1793C63.3335 20.7132 62.5587 22.3562 63.0926 23.8483C63.4647 24.8837 64.3707 25.574 65.39 25.7196C64.6961 26.48 64.4337 27.5874 64.8058 28.6246C65.1779 29.6601 66.0839 30.3504 67.1032 30.496C66.4093 31.2564 66.1468 32.3637 66.5189 33.401C66.891 34.4364 67.7971 35.1267 68.8163 35.2723C68.1224 36.0327 67.86 37.1401 68.2321 38.1773C68.6042 39.2128 69.5102 39.9031 70.5295 40.0487C69.8356 40.8091 69.5731 41.9164 69.9453 42.9537C70.3174 43.9891 71.2234 44.6794 72.2426 44.825C71.5488 45.5854 71.2863 46.6928 71.6584 47.73C72.1941 49.2203 73.8354 49.9969 75.3274 49.4612C76.8177 48.9273 77.5925 47.2842 77.0586 45.7922Z" fill="#515151"/>
<path d="M74.362 50.0796C73.0011 50.0796 71.7212 49.2347 71.2358 47.8829C70.9015 46.9499 71.004 45.9324 71.4893 45.0965C70.5833 44.7603 69.857 44.0413 69.5227 43.1065C69.1883 42.1735 69.2908 41.156 69.7761 40.3201C68.8701 39.984 68.1439 39.2649 67.8095 38.3301C67.4752 37.3972 67.5776 36.3797 68.063 35.5438C67.1552 35.2076 66.4307 34.4886 66.0964 33.5538C65.762 32.6208 65.8645 31.6033 66.3498 30.7674C65.442 30.4313 64.7176 29.7122 64.3832 28.7774C64.0488 27.8445 64.1513 26.827 64.6367 25.9911C63.7289 25.6549 63.0044 24.9359 62.67 24.0011C62.0534 22.2771 62.9523 20.3734 64.6726 19.7568C66.3948 19.1384 68.2967 20.0373 68.9169 21.7594C69.2512 22.6924 69.1488 23.7099 68.6634 24.5458C69.5694 24.8819 70.2957 25.601 70.63 26.5358C70.9644 27.4687 70.8619 28.4862 70.3766 29.3221C71.2844 29.6583 72.0088 30.3773 72.3432 31.3121C72.6776 32.2451 72.5751 33.2626 72.0879 34.0985C72.9957 34.4346 73.7202 35.1537 74.0546 36.0885C74.3889 37.0215 74.2865 38.0389 73.8011 38.8748C74.7071 39.211 75.4334 39.9301 75.7677 40.8648C76.1021 41.7978 75.9996 42.8153 75.5143 43.6512C76.4221 43.9873 77.1465 44.7064 77.4809 45.6412C78.0975 47.3651 77.1986 49.2688 75.4783 49.8854C75.1098 50.0167 74.7323 50.0796 74.362 50.0796ZM65.789 20.4597C65.5193 20.4597 65.2425 20.5046 64.9746 20.6017C63.7199 21.0511 63.0655 22.4389 63.5149 23.6955C63.8187 24.5404 64.5612 25.1462 65.4528 25.2738L66.2941 25.3943L65.7207 26.0216C65.113 26.6868 64.9243 27.6269 65.2281 28.4718C65.5319 29.3185 66.2743 29.9225 67.166 30.0502L68.0073 30.1706L67.4338 30.798C66.8262 31.4631 66.6375 32.4033 66.9413 33.2482C67.2451 34.0949 67.9875 34.6989 68.8791 34.8265L69.7204 34.947L69.147 35.5743C68.5394 36.2395 68.3506 37.1796 68.6544 38.0245C68.9582 38.8712 69.7007 39.4752 70.5923 39.6029L71.4336 39.7233L70.8601 40.3507C70.2525 41.0158 70.0638 41.956 70.3676 42.8009C70.6714 43.6476 71.4138 44.2516 72.3054 44.3792L73.1467 44.4997L72.5733 45.1271C71.9657 45.7922 71.7769 46.7324 72.0807 47.5773C72.5319 48.832 73.9197 49.4882 75.1745 49.0369C76.4293 48.5875 77.0836 47.1997 76.6342 45.9432C76.3304 45.0965 75.588 44.4925 74.6963 44.3649L73.855 44.2444L74.4285 43.617C75.0361 42.9519 75.2248 42.0117 74.921 41.1668C74.6172 40.3201 73.8748 39.7161 72.9832 39.5885L72.1419 39.4681L72.7153 38.8407C73.3229 38.1755 73.5117 37.2354 73.2079 36.3905C72.9041 35.5438 72.1616 34.9398 71.27 34.8121L70.4287 34.6917L71.0021 34.0643C71.6098 33.3992 71.7985 32.459 71.4947 31.6141C71.1909 30.7674 70.4485 30.1634 69.5568 30.0358L68.7155 29.9153L69.289 29.288C69.8966 28.6228 70.0854 27.6827 69.7815 26.8378C69.4777 25.9911 68.7353 25.3871 67.8437 25.2594L67.0024 25.139L67.5758 24.5116C68.1834 23.8465 68.3722 22.9063 68.0684 22.0614C67.7142 21.0763 66.7813 20.4597 65.789 20.4597Z" fill="black"/>
<path d="M29.6866 13.9954C28.4588 12.9959 26.6522 13.181 25.6509 14.4088C24.9552 15.2627 24.8347 16.3952 25.2356 17.3426C24.2271 17.1412 23.1414 17.49 22.4475 18.3421C21.7536 19.1942 21.6313 20.3285 22.0322 21.2758C21.0237 21.0745 19.9379 21.4232 19.2441 22.2753C18.5484 23.1292 18.4279 24.2617 18.8288 25.2091C17.8203 25.0078 16.7345 25.3565 16.0406 26.2086C15.345 27.0625 15.2245 28.195 15.6254 29.1424C14.6169 28.941 13.5311 29.2898 12.8372 30.1418C11.8377 31.3696 12.0211 33.1763 13.2507 34.1776C14.4803 35.1789 16.2851 34.9919 17.2864 33.7641C17.9821 32.9102 18.1025 31.7777 17.7017 30.8303C18.7102 31.0317 19.7959 30.6829 20.4898 29.8309C21.1855 28.977 21.306 27.8444 20.9051 26.8971C21.9136 27.0984 22.9993 26.7497 23.6932 25.8976C24.3871 25.0455 24.5094 23.9112 24.1085 22.9638C25.117 23.1652 26.2028 22.8164 26.8967 21.9643C27.5923 21.1105 27.7128 19.9779 27.3119 19.0306C28.3204 19.2319 29.4062 18.8832 30.1001 18.0311C31.0996 16.8033 30.9162 14.9966 29.6866 13.9954Z" fill="#515151"/>
<path d="M15.0574 35.2687C14.3204 35.2687 13.5798 35.0261 12.9668 34.5263C11.5484 33.3704 11.3345 31.278 12.4886 29.8578C13.1142 29.0884 14.0382 28.6516 15.0053 28.6372C14.8237 27.6863 15.0664 26.694 15.692 25.9246C16.3176 25.1552 17.2398 24.7183 18.2087 24.704C18.0271 23.753 18.2698 22.7607 18.8954 21.9913C19.521 21.2219 20.4432 20.7851 21.4121 20.7707C21.2324 19.8197 21.4732 18.8274 22.0988 18.058C22.7244 17.2886 23.6466 16.8518 24.6155 16.8374C24.434 15.8865 24.6767 14.8942 25.3022 14.1248C26.4581 12.7064 28.5524 12.4925 29.9707 13.6466C31.3891 14.8025 31.603 16.8968 30.4489 18.3151C29.8233 19.0845 28.8993 19.5213 27.9322 19.5357C28.1138 20.4867 27.8711 21.479 27.2455 22.2484C26.6199 23.0178 25.6977 23.4546 24.7288 23.469C24.9086 24.4199 24.6677 25.4122 24.0421 26.1816C23.4165 26.951 22.4943 27.3878 21.5254 27.4022C21.7069 28.3532 21.4643 29.3455 20.8387 30.1149C20.2131 30.8843 19.2909 31.3211 18.322 31.3355C18.5035 32.2864 18.2608 33.2787 17.6353 34.0481C16.9791 34.8517 16.0228 35.2687 15.0574 35.2687ZM15.0592 29.536C14.3402 29.536 13.6517 29.856 13.1861 30.4259C12.3448 31.4595 12.5012 32.9875 13.5348 33.8288C14.5685 34.6701 16.0947 34.5137 16.9378 33.4801C17.504 32.7844 17.6389 31.8352 17.2883 31.0047L16.9575 30.2227L17.7899 30.3881C18.6743 30.5643 19.5749 30.2425 20.1412 29.545C20.7092 28.8493 20.8423 27.9002 20.4917 27.0697L20.161 26.2877L20.9933 26.4531C21.8777 26.6292 22.7783 26.3075 23.3446 25.61C23.9109 24.9143 24.0457 23.9651 23.6951 23.1346L23.3644 22.3526L24.1967 22.518C25.0811 22.6942 25.9818 22.3724 26.548 21.6749C27.1161 20.9792 27.2491 20.0301 26.8986 19.1996L26.5678 18.4176L27.4001 18.583C28.2845 18.7591 29.1852 18.4373 29.7514 17.7399C30.5927 16.7062 30.4363 15.1782 29.4027 14.3369C28.369 13.4956 26.8428 13.652 25.9997 14.6857C25.4335 15.3813 25.2986 16.3305 25.6492 17.161L25.98 17.943L25.1476 17.7776C24.2632 17.6014 23.3626 17.9232 22.7963 18.6207C22.2301 19.3164 22.0952 20.2656 22.4458 21.0961L22.7765 21.878L21.9442 21.7127C21.0598 21.5365 20.1592 21.8583 19.5929 22.5558C19.0248 23.2515 18.8918 24.2006 19.2424 25.0311L19.5731 25.8131L18.7408 25.6477C17.8564 25.4716 16.9557 25.7933 16.3895 26.4908C15.8214 27.1865 15.6884 28.1357 16.0389 28.9662L16.3697 29.7482L15.5374 29.5828C15.3774 29.5504 15.2174 29.536 15.0592 29.536Z" fill="black"/>
<path d="M44.4132 21.3783C43.908 20.4004 42.9175 19.8377 41.8893 19.8288C42.4771 18.9839 42.5903 17.8513 42.0852 16.8734C41.5801 15.8955 40.5896 15.3328 39.5613 15.3238C40.1491 14.479 40.2624 13.3464 39.7572 12.3685C39.031 10.9627 37.2999 10.4109 35.8923 11.1389C34.4847 11.867 33.9347 13.5963 34.6609 15.0039C35.166 15.9818 36.1565 16.5445 37.1848 16.5534C36.597 17.3983 36.4837 18.5309 36.9889 19.5088C37.494 20.4867 38.4845 21.0494 39.5128 21.0583C38.9249 21.9032 38.8117 23.0358 39.3168 24.0137C40.0431 25.4194 41.7742 25.9713 43.1818 25.2433C44.5893 24.5152 45.1394 22.7859 44.4132 21.3783Z" fill="#515151"/>
<path d="M41.8676 26.0145C41.5297 26.0145 41.1899 25.9623 40.8573 25.8563C40.0125 25.5866 39.324 25.006 38.9177 24.2186C38.4629 23.3378 38.4305 22.3167 38.8008 21.4251C37.8571 21.2111 37.0445 20.5945 36.5897 19.7137C36.1349 18.8329 36.1026 17.8118 36.4729 16.9202C35.5291 16.7062 34.7166 16.0896 34.2618 15.2088C33.4241 13.5837 34.0622 11.5775 35.6855 10.738C36.4729 10.33 37.3717 10.2545 38.2166 10.5241C39.0615 10.7938 39.75 11.3744 40.1563 12.1618C40.6111 13.0426 40.6434 14.0619 40.2731 14.9553C41.2169 15.1692 42.0294 15.7858 42.4842 16.6667C42.939 17.5475 42.9714 18.5686 42.6011 19.4602C43.5448 19.6741 44.3574 20.2907 44.8122 21.1716C45.6499 22.7967 45.0117 24.801 43.3884 25.6423C42.9103 25.8904 42.3907 26.0145 41.8676 26.0145ZM37.2081 11.2665C36.827 11.2665 36.4477 11.3582 36.099 11.538C34.9143 12.151 34.4487 13.6125 35.0599 14.7971C35.4716 15.5953 36.2877 16.095 37.1883 16.104L38.0386 16.1112L37.5533 16.8105C37.0391 17.5493 36.9762 18.5057 37.3879 19.3038C37.7995 20.102 38.6157 20.6017 39.5163 20.6107L40.3666 20.6179L39.8812 21.3172C39.3671 22.056 39.3042 23.0124 39.7158 23.8087C40.0125 24.3822 40.514 24.8064 41.1306 25.0024C41.7472 25.1983 42.4015 25.1426 42.975 24.846C44.1596 24.233 44.6252 22.7715 44.014 21.5869C43.6024 20.7887 42.7862 20.2889 41.8856 20.28L41.0353 20.2728L41.5207 19.5735C42.0348 18.8346 42.0977 17.8783 41.6861 17.0819C41.2744 16.2838 40.4583 15.784 39.5576 15.775L38.7074 15.7679L39.1927 15.0686C39.7069 14.3297 39.7698 13.3734 39.3581 12.577C39.0615 12.0036 38.56 11.5793 37.9434 11.3834C37.7025 11.3043 37.4544 11.2665 37.2081 11.2665Z" fill="black"/>
<path d="M48.9883 22.0435C48.4831 21.0655 47.4926 20.5029 46.4644 20.4939C47.0522 19.649 47.1655 18.5165 46.6603 17.5386C45.9341 16.1328 44.2029 15.5809 42.7954 16.309C41.3878 17.037 40.8377 18.7663 41.564 20.1739C42.0691 21.1518 43.0596 21.7145 44.0879 21.7235C43.5 22.5684 43.3868 23.7009 43.8919 24.6788C44.6182 26.0846 46.3493 26.6365 47.7569 25.9084C49.1644 25.1804 49.7145 23.451 48.9883 22.0435Z" fill="#515151"/>
<path d="M46.4427 26.6796C46.1048 26.6796 45.765 26.6274 45.4325 26.5214C44.5876 26.2517 43.8991 25.6711 43.4928 24.8837C43.038 24.0029 43.0056 22.9818 43.376 22.0902C42.4322 21.8763 41.6197 21.2597 41.1649 20.3788C40.3271 18.7537 40.9653 16.7476 42.5886 15.9081C43.376 15.5018 44.2748 15.4245 45.1197 15.6941C45.9646 15.9638 46.6531 16.5444 47.0593 17.3318C47.5141 18.2126 47.5465 19.2337 47.1762 20.1253C48.12 20.3393 48.9325 20.9559 49.3873 21.8367C50.225 23.4618 49.5868 25.468 47.9636 26.3075C47.4854 26.5555 46.9659 26.6796 46.4427 26.6796ZM44.1094 16.4366C43.7283 16.4366 43.349 16.5282 43.0002 16.708C41.8156 17.321 41.35 18.7825 41.9612 19.9672C42.3729 20.7653 43.189 21.2651 44.0896 21.274L44.9399 21.2812L44.4545 21.9805C43.9404 22.7194 43.8775 23.6757 44.2892 24.4721C44.5858 25.0455 45.0873 25.4698 45.7039 25.6657C46.3205 25.8616 46.9749 25.8059 47.5483 25.5093C48.733 24.8963 49.1985 23.4348 48.5873 22.2502C48.1757 21.452 47.3595 20.9523 46.4589 20.9433L45.6086 20.9361L46.0958 20.2368C46.6099 19.498 46.6728 18.5434 46.2612 17.7453C45.9646 17.1718 45.463 16.7476 44.8464 16.5516C44.6055 16.4743 44.3575 16.4366 44.1094 16.4366Z" fill="black"/>
<path d="M32.6042 33.1907C35.5042 33.1907 37.8551 30.8398 37.8551 27.9398C37.8551 25.0398 35.5042 22.6888 32.6042 22.6888C29.7042 22.6888 27.3533 25.0398 27.3533 27.9398C27.3533 30.8398 29.7042 33.1907 32.6042 33.1907Z" fill="black"/>
<path d="M32.6042 33.295C29.6507 33.295 27.249 30.8915 27.249 27.9398C27.249 24.9881 29.6525 22.5846 32.6042 22.5846C35.556 22.5846 37.9594 24.9881 37.9594 27.9398C37.9594 30.8915 35.556 33.295 32.6042 33.295ZM32.6042 22.7931C29.7675 22.7931 27.4594 25.1013 27.4594 27.938C27.4594 30.7747 29.7675 33.0829 32.6042 33.0829C35.4409 33.0829 37.7491 30.7747 37.7491 27.938C37.7491 25.1013 35.4409 22.7931 32.6042 22.7931Z" fill="#080808"/>
<path d="M55.8371 33.1907C58.7371 33.1907 61.0881 30.8398 61.0881 27.9398C61.0881 25.0398 58.7371 22.6888 55.8371 22.6888C52.9371 22.6888 50.5862 25.0398 50.5862 27.9398C50.5862 30.8398 52.9371 33.1907 55.8371 33.1907Z" fill="black"/>
<path d="M55.8371 33.295C52.8836 33.295 50.4819 30.8915 50.4819 27.9398C50.4819 24.9881 52.8854 22.5846 55.8371 22.5846C58.7889 22.5846 61.1923 24.9881 61.1923 27.9398C61.1923 30.8915 58.7889 33.295 55.8371 33.295ZM55.8371 22.7931C53.0004 22.7931 50.6923 25.1013 50.6923 27.938C50.6923 30.7747 53.0004 33.0829 55.8371 33.0829C58.6738 33.0829 60.982 30.7747 60.982 27.938C60.982 25.1013 58.6738 22.7931 55.8371 22.7931Z" fill="#080808"/>
<path d="M57.1817 28.7128C58.2291 28.7128 59.0782 27.8637 59.0782 26.8163C59.0782 25.7688 58.2291 24.9197 57.1817 24.9197C56.1343 24.9197 55.2852 25.7688 55.2852 26.8163C55.2852 27.8637 56.1343 28.7128 57.1817 28.7128Z" fill="white"/>
<path d="M33.949 28.7128C34.9964 28.7128 35.8455 27.8637 35.8455 26.8163C35.8455 25.7688 34.9964 24.9197 33.949 24.9197C32.9016 24.9197 32.0525 25.7688 32.0525 26.8163C32.0525 27.8637 32.9016 28.7128 33.949 28.7128Z" fill="white"/>
<path d="M29.9472 30.9239C30.3871 30.9239 30.7436 30.5674 30.7436 30.1275C30.7436 29.6877 30.3871 29.3312 29.9472 29.3312C29.5074 29.3312 29.1509 29.6877 29.1509 30.1275C29.1509 30.5674 29.5074 30.9239 29.9472 30.9239Z" fill="white"/>
<path d="M53.1802 30.9239C53.62 30.9239 53.9765 30.5674 53.9765 30.1275C53.9765 29.6877 53.62 29.3312 53.1802 29.3312C52.7403 29.3312 52.3838 29.6877 52.3838 30.1275C52.3838 30.5674 52.7403 30.9239 53.1802 30.9239Z" fill="white"/>
<path d="M31.6173 21.5743C31.6173 21.5743 31.5004 21.5976 31.3009 21.63C31.202 21.6462 31.0816 21.6587 30.9468 21.6983C30.8784 21.7145 30.8065 21.7324 30.7328 21.7504C30.6951 21.7594 30.6573 21.7684 30.6178 21.7756C30.5782 21.7882 30.5387 21.8026 30.4991 21.8151C30.3391 21.8709 30.1666 21.9158 29.9904 21.9985C29.9023 22.038 29.8106 22.065 29.7208 22.1118C29.6309 22.1585 29.541 22.2052 29.4475 22.2502C29.0826 22.4497 28.7123 22.6906 28.3527 22.9836C27.9968 23.2802 27.6912 23.6002 27.427 23.9202C27.364 24.0029 27.3011 24.082 27.2382 24.1611C27.1789 24.242 27.1303 24.3247 27.0764 24.4038C26.9614 24.5584 26.8877 24.7219 26.7996 24.8676C26.6486 25.166 26.5263 25.4302 26.4652 25.619C26.3969 25.8005 26.352 25.9192 26.352 25.9192C26.352 25.9192 26.3412 25.8922 26.3286 25.8401C26.3142 25.788 26.2944 25.7107 26.2711 25.6064C26.2153 25.4015 26.1812 25.0977 26.1938 24.7094C26.2117 24.5188 26.2189 24.3013 26.2837 24.0802C26.3124 23.9687 26.3376 23.8501 26.3771 23.7332C26.4203 23.6182 26.4688 23.4995 26.5191 23.3773C26.7385 22.9009 27.0818 22.4102 27.5564 22.0165C28.0346 21.6264 28.581 21.3819 29.0898 21.2561C29.2192 21.2291 29.345 21.2057 29.4655 21.1842C29.5877 21.1644 29.71 21.1644 29.8232 21.1572C30.0533 21.1392 30.2672 21.168 30.4578 21.1896C30.5045 21.195 30.5513 21.2003 30.5962 21.2075C30.6394 21.2183 30.6843 21.2291 30.7274 21.2399C30.8083 21.2615 30.8874 21.2812 30.9629 21.3028C31.1085 21.337 31.2272 21.3927 31.3243 21.4358C31.5166 21.5221 31.6155 21.5761 31.6155 21.5761L31.6173 21.5743Z" fill="black"/>
<path d="M56.8221 21.5743C56.8221 21.5743 56.921 21.5204 57.1133 21.4341C57.2104 21.3909 57.329 21.3352 57.4747 21.301C57.5502 21.2813 57.6293 21.2597 57.7101 21.2381C57.7533 21.2273 57.7964 21.2166 57.8414 21.2058C57.8881 21.2004 57.9331 21.195 57.9798 21.1878C58.1703 21.1662 58.3861 21.1375 58.6144 21.1554C58.7294 21.1626 58.8517 21.1608 58.9721 21.1824C59.0943 21.204 59.2202 21.2273 59.3478 21.2543C59.8565 21.3801 60.403 21.6246 60.8812 22.0147C61.3558 22.4084 61.6973 22.901 61.9184 23.3755C61.9706 23.4978 62.0173 23.6164 62.0605 23.7315C62.1 23.8483 62.1252 23.967 62.1539 24.0784C62.2169 24.2995 62.2258 24.517 62.2438 24.7076C62.2564 25.0941 62.2222 25.3997 62.1665 25.6046C62.1432 25.7071 62.1234 25.7844 62.109 25.8383C62.0946 25.8904 62.0856 25.9174 62.0856 25.9174C62.0856 25.9174 62.0407 25.7988 61.9724 25.6172C61.9113 25.4266 61.789 25.1642 61.638 24.8658C61.5499 24.7202 61.478 24.5566 61.3612 24.402C61.3072 24.3229 61.2587 24.2402 61.1994 24.1593C61.1365 24.0802 61.0736 24.0011 61.0106 23.9184C60.7464 23.5984 60.4408 23.2785 60.0848 22.9818C59.7253 22.6906 59.355 22.4497 58.9901 22.2484C58.8966 22.2035 58.8067 22.1567 58.7168 22.11C58.6269 22.0632 58.5353 22.0363 58.4472 21.9967C58.2728 21.914 58.1002 21.8691 57.9385 21.8134C57.8989 21.799 57.8594 21.7864 57.8198 21.7738C57.7821 21.7648 57.7425 21.7558 57.7048 21.7487C57.631 21.7307 57.5591 21.7145 57.4908 21.6965C57.3542 21.657 57.2356 21.6426 57.1367 21.6282C56.9372 21.5959 56.8203 21.5725 56.8203 21.5725L56.8221 21.5743Z" fill="black"/>
<mask id="mask1_2140_7289" style="mask-type:luminance" maskUnits="userSpaceOnUse" x="17" y="0" width="55" height="23">
<path d="M44.2208 17.8855C53.6836 17.8855 62.0049 19.498 66.7938 21.9356C68.063 22.581 69.6359 22.0597 70.2148 20.7582C70.7918 19.4585 71.0992 18.0959 71.0992 16.6883C71.0992 7.88701 59.0658 0.752136 44.2208 0.752136C29.3758 0.752136 17.3423 7.88701 17.3423 16.6883C17.3423 18.0941 17.6497 19.4585 18.2267 20.7582C18.8056 22.0597 20.3785 22.581 21.6477 21.9356C26.4366 19.498 34.7561 17.8855 44.219 17.8855H44.2208Z" fill="white"/>
</mask>
<g mask="url(#mask1_2140_7289)">
<path d="M44.2208 17.8855C53.6836 17.8855 62.0049 19.498 66.7938 21.9356C68.063 22.581 69.6359 22.0597 70.2148 20.7582C70.7918 19.4585 71.0992 18.0959 71.0992 16.6883C71.0992 7.88701 59.0658 0.752136 44.2208 0.752136C29.3758 0.752136 17.3423 7.88701 17.3423 16.6883C17.3423 18.0941 17.6497 19.4585 18.2267 20.7582C18.8056 22.0597 20.3785 22.581 21.6477 21.9356C26.4366 19.498 34.7561 17.8855 44.219 17.8855H44.2208Z" fill="#74B244"/>
<path d="M67.9478 22.6601C67.4804 22.6601 67.013 22.5504 66.5888 22.3365C61.6668 19.8306 53.3042 18.3349 44.2188 18.3349H44.217C35.1335 18.3349 26.7726 19.8306 21.8489 22.3365C21.1208 22.7068 20.2633 22.7625 19.494 22.4893C18.7335 22.2197 18.1367 21.6696 17.8132 20.9397C17.2002 19.5591 16.8892 18.13 16.8892 16.6865C16.8892 12.2643 19.7636 8.12607 24.9822 5.03052C30.1271 1.97991 36.9581 0.300903 44.217 0.300903C51.4759 0.300903 58.307 1.98171 63.4519 5.03052C68.6705 8.12428 71.5449 12.2643 71.5449 16.6865C71.5449 18.1282 71.2339 19.5591 70.6227 20.9379C70.2991 21.6678 69.7005 22.2179 68.9419 22.4875C68.6237 22.6043 68.2858 22.6601 67.9478 22.6601ZM44.2188 17.4361C53.4408 17.4361 61.9544 18.9677 66.9969 21.5347C67.5056 21.7936 68.106 21.8332 68.6435 21.6426C69.1684 21.4557 69.5801 21.0781 69.803 20.5748C70.3639 19.3111 70.6479 18.0024 70.6479 16.6883C70.6479 8.14944 58.7924 1.20153 44.2188 1.20153C29.6453 1.20153 17.7898 8.14944 17.7898 16.6883C17.7898 18.0042 18.0738 19.3111 18.6365 20.5766C18.8594 21.0781 19.271 21.4574 19.796 21.6426C20.3335 21.8332 20.9339 21.7936 21.4426 21.5347C26.4868 18.9677 35.0005 17.4361 44.2188 17.4361Z" fill="black"/>
<path d="M44.2206 20.1973C54.4546 20.1973 63.4518 21.8098 68.6309 24.2474C70.0043 24.8928 71.7049 24.3715 72.3304 23.07C72.9542 21.7703 73.2868 20.4076 73.2868 19.0001C73.2868 10.1988 60.2736 3.0639 44.2188 3.0639C28.164 3.0639 15.1526 10.1988 15.1526 19.0001C15.1526 20.4058 15.4852 21.7703 16.1107 23.07C16.7363 24.3697 18.4369 24.8928 19.8103 24.2474C24.9893 21.8098 33.9866 20.1973 44.2206 20.1973Z" fill="#DF815B"/>
<path d="M69.8696 24.9898C69.386 24.9898 68.8934 24.8874 68.4314 24.6698C63.1014 22.1621 54.0502 20.6647 44.2207 20.6647C34.3893 20.6647 25.3382 22.1621 20.0099 24.6698C18.3975 25.4266 16.42 24.7867 15.6902 23.2713C15.0233 21.8871 14.6853 20.449 14.6853 18.9982C14.6853 14.5634 17.7952 10.4163 23.4399 7.31892C28.9964 4.2719 36.3757 2.5929 44.2189 2.5929C52.062 2.5929 59.4396 4.2737 64.9979 7.32072C70.6444 10.4163 73.7543 14.5634 73.7543 19C73.7543 20.449 73.4163 21.8871 72.7512 23.2713C72.2317 24.3535 71.0758 24.9898 69.8696 24.9898ZM44.2207 19.7299C54.1833 19.7299 63.3818 21.2615 68.8305 23.8249C69.9882 24.3696 71.3994 23.931 71.9099 22.8686C72.5139 21.6102 72.8195 20.3087 72.8195 19.0018C72.8195 10.472 59.9897 3.53307 44.2189 3.53307C28.4499 3.53307 15.6201 10.472 15.6201 19.0018C15.6201 20.3105 15.9275 21.612 16.5315 22.8686C17.0438 23.931 18.4532 24.3696 19.6109 23.8249C25.0595 21.2597 34.2581 19.7299 44.2207 19.7299Z" fill="black"/>
<path d="M44.2206 22.5702C54.4546 22.5702 63.4518 24.1827 68.6309 26.6203C70.0043 27.2657 71.7049 26.7444 72.3304 25.4429C72.9542 24.1432 73.2868 22.7806 73.2868 21.373C73.2868 12.5717 60.2736 5.43683 44.2188 5.43683C28.164 5.43683 15.1526 12.5735 15.1526 21.3748C15.1526 22.7806 15.4852 24.145 16.1107 25.4447C16.7363 26.7462 18.4369 27.2675 19.8103 26.6221C24.9893 24.1845 33.9866 22.572 44.2206 22.572V22.5702Z" fill="#E6D973"/>
<path d="M18.5718 27.3645C17.3656 27.3645 16.2097 26.7282 15.6902 25.6478C15.0233 24.2636 14.6853 22.8255 14.6853 21.3748C14.6853 16.94 17.7952 12.791 23.4399 9.69544C28.9982 6.64843 36.3775 4.96942 44.2189 4.96942C52.0602 4.96942 59.4396 6.64663 64.9979 9.69544C70.6444 12.791 73.7543 16.9382 73.7543 21.373C73.7543 22.8219 73.4163 24.26 72.7512 25.646C72.0231 27.1614 70.0439 27.8032 68.4314 27.0446C63.1859 24.5764 54.3379 23.0861 44.6881 23.0394H44.2207C34.3893 23.0394 25.3382 24.5368 20.0099 27.0446C19.5479 27.2621 19.0554 27.3645 18.5718 27.3645ZM44.2189 5.9042C28.4499 5.9042 15.6201 12.8449 15.6201 21.3748C15.6201 22.6835 15.9275 23.985 16.5315 25.2415C17.042 26.3039 18.4532 26.7426 19.6109 26.1979C24.9733 23.674 33.9705 22.1514 43.7533 22.1046V22.1028L44.2207 22.101C54.1833 22.101 63.3818 23.6326 68.8305 26.1961C69.9882 26.7408 71.3994 26.3021 71.9099 25.2397C72.5139 23.9814 72.8195 22.6799 72.8195 21.373C72.8195 12.8431 59.9897 5.9042 44.2189 5.9042Z" fill="black"/>
<path d="M44.2207 24.9701C54.4547 24.9701 63.4519 26.5107 68.631 28.8368C70.0044 29.4534 71.705 28.9555 72.3305 27.7115C72.9543 26.4711 73.2869 25.1696 73.2869 23.8268C73.2869 15.4227 60.2737 8.61145 44.2189 8.61145C28.1659 8.61145 15.1509 15.4245 15.1509 23.8268C15.1509 25.1696 15.4834 26.4711 16.109 27.7115C16.7346 28.9537 18.4352 29.4534 19.8086 28.835C24.9876 26.5071 33.9849 24.9683 44.2189 24.9683L44.2207 24.9701Z" fill="#BA2020"/>
<path d="M69.8678 29.5558C69.3878 29.5558 68.9025 29.4588 68.4441 29.2538C63.1086 26.8576 54.0539 25.4266 44.2207 25.4266L44.023 25.4248C34.2618 25.4428 25.2897 26.872 19.9956 29.252C18.3957 29.9729 16.4291 29.3617 15.701 27.9182C15.0323 26.5933 14.6943 25.2181 14.6943 23.8285C14.6943 19.5861 17.8043 15.6223 23.4525 12.6651C29.0072 9.75832 36.3812 8.15662 44.2189 8.15662C52.0567 8.15662 59.4307 9.75832 64.9854 12.6651C70.6336 15.6223 73.7435 19.5861 73.7435 23.8285C73.7435 25.2163 73.4056 26.5915 72.7387 27.9182C72.2191 28.9482 71.0668 29.5558 69.8678 29.5558ZM44.4167 24.5134C54.2966 24.5332 63.4071 25.9893 68.818 28.4197C69.9865 28.9446 71.4102 28.5258 71.9225 27.5065C72.5247 26.3093 72.8303 25.0707 72.8303 23.8267C72.8303 15.6888 59.9951 9.06802 44.2189 9.06802C28.4428 9.06802 15.6075 15.6888 15.6075 23.8267C15.6075 25.0725 15.9131 26.3093 16.5172 27.5065C17.0313 28.5276 18.4532 28.9464 19.6217 28.4197C25.065 25.9731 34.26 24.5134 44.2189 24.5134H44.4167Z" fill="black"/>
<path d="M44.2207 27.9776C54.4547 27.9776 63.4519 29.484 68.631 31.7598C70.0044 32.3638 71.705 31.8749 72.3305 30.6597C72.9543 29.4462 73.2869 28.1735 73.2869 26.8594C73.2869 18.6406 60.2737 11.9767 44.2189 11.9767C28.1641 11.9767 15.1509 18.6406 15.1509 26.8594C15.1509 28.1735 15.4834 29.4462 16.109 30.6597C16.7346 31.8749 18.4352 32.362 19.8086 31.7598C24.9876 29.484 33.9849 27.9776 44.2189 27.9776H44.2207Z" fill="white"/>
<path d="M69.8659 32.4663C69.3895 32.4663 68.9042 32.3728 68.4494 32.1715C63.1139 29.8273 54.0556 28.427 44.2206 28.427H44.2188C34.3821 28.427 25.3255 29.8273 19.9901 32.1715C18.3938 32.8708 16.4344 32.2721 15.7099 30.8664C15.0412 29.5685 14.7014 28.222 14.7014 26.8612C14.7014 22.7086 17.8114 18.8293 23.4596 15.9369C29.0125 13.0948 36.3847 11.5291 44.2188 11.5291C52.053 11.5291 59.4252 13.0948 64.9781 15.9369C70.6263 18.8293 73.7362 22.7086 73.7362 26.8612C73.7362 28.2202 73.3983 29.5685 72.7296 30.8664C72.2118 31.8731 71.0613 32.4663 69.8659 32.4663ZM44.2188 27.5281C54.1742 27.5281 63.3674 28.9555 68.8125 31.3481C69.9881 31.8659 71.4155 31.456 71.9314 30.4529C72.5336 29.2826 72.8374 28.0728 72.8374 26.8576C72.8374 18.8994 59.9986 12.4243 44.2188 12.4243C28.4391 12.4243 15.6002 18.8994 15.6002 26.8576C15.6002 28.0746 15.9058 29.2826 16.5081 30.4511C17.0222 31.4524 18.4513 31.8605 19.627 31.3463C25.0721 28.9555 34.2634 27.5281 44.2188 27.5281Z" fill="black"/>
<path d="M44.2207 28.6498C54.4547 28.6498 63.4519 29.9316 68.631 31.8676C70.0044 32.3817 71.705 31.9665 72.3305 30.931C72.9543 29.8992 73.2869 28.8152 73.2869 27.6971C73.2869 20.7042 60.2737 15.0344 44.2189 15.0344C28.1659 15.0344 15.1509 20.7042 15.1509 27.6971C15.1509 28.8152 15.4834 29.8974 16.109 30.931C16.7346 31.9647 18.4352 32.3799 19.8086 31.8676C24.9876 29.9316 33.9849 28.6498 44.2189 28.6498H44.2207Z" fill="#74B244"/>
<path d="M69.8876 32.5417C69.4149 32.5417 68.9313 32.4609 68.4747 32.2883C63.1321 30.2911 54.0665 29.0992 44.2226 29.0992H44.2208C34.3769 29.0992 25.3095 30.2911 19.9669 32.2883C18.3652 32.8851 16.4633 32.3818 15.7262 31.163C15.0467 30.0412 14.7034 28.8745 14.7034 27.6971C14.7034 24.1252 17.8223 20.7995 23.4867 18.3313C29.0324 15.9153 36.3956 14.585 44.2208 14.585C52.046 14.585 59.4091 15.9153 64.9549 18.3313C70.6193 20.7995 73.7382 24.1252 73.7382 27.6971C73.7382 28.8763 73.3948 30.043 72.7171 31.163C72.1886 32.0348 71.0687 32.5417 69.8876 32.5417ZM44.219 28.2004C54.1672 28.2004 63.3514 29.4138 68.7875 31.447C69.9631 31.8874 71.439 31.5369 71.9459 30.6992C72.5374 29.7212 72.8376 28.711 72.8376 27.6971C72.8376 24.5045 69.9092 21.4718 64.5936 19.1546C59.1593 16.7871 51.9219 15.4838 44.219 15.4838C36.5161 15.4838 29.2805 16.7871 23.8444 19.1546C18.5288 21.47 15.6004 24.5045 15.6004 27.6971C15.6004 28.7092 15.9006 29.7194 16.4938 30.6992C17.0008 31.5369 18.4766 31.8856 19.6523 31.447C25.0884 29.4138 34.2726 28.2004 44.219 28.2004Z" fill="black"/>
</g>
<path d="M67.9478 22.6601C67.4804 22.6601 67.013 22.5504 66.5888 22.3365C61.6668 19.8306 53.3042 18.3349 44.2188 18.3349H44.217C35.1335 18.3349 26.7726 19.8306 21.8489 22.3365C21.1208 22.7068 20.2633 22.7625 19.494 22.4893C18.7335 22.2197 18.1367 21.6696 17.8132 20.9397C17.2002 19.5591 16.8892 18.13 16.8892 16.6865C16.8892 12.2643 19.7636 8.12607 24.9822 5.03052C30.1271 1.97991 36.9581 0.300903 44.217 0.300903C51.4759 0.300903 58.307 1.98171 63.4519 5.03052C68.6705 8.12428 71.5449 12.2643 71.5449 16.6865C71.5449 18.1282 71.2339 19.5591 70.6227 20.9379C70.2991 21.6678 69.7005 22.2179 68.9419 22.4875C68.6237 22.6043 68.2858 22.6601 67.9478 22.6601ZM44.2188 17.4361C53.4408 17.4361 61.9544 18.9677 66.9969 21.5347C67.5056 21.7936 68.106 21.8332 68.6435 21.6426C69.1684 21.4557 69.5801 21.0781 69.803 20.5748C70.3639 19.3111 70.6479 18.0024 70.6479 16.6883C70.6479 8.14944 58.7924 1.20153 44.2188 1.20153C29.6453 1.20153 17.7898 8.14944 17.7898 16.6883C17.7898 18.0042 18.0738 19.3111 18.6365 20.5766C18.8594 21.0781 19.271 21.4574 19.796 21.6426C20.3335 21.8332 20.9339 21.7936 21.4426 21.5347C26.4868 18.9677 35.0005 17.4361 44.2188 17.4361Z" fill="black"/>
</svg>
