<svg width="72" height="83" viewBox="0 0 72 83" fill="none" xmlns="http://www.w3.org/2000/svg">
<path d="M48.7102 81.5316H54.8743C57.3066 81.5316 58.8453 78.9214 57.6697 76.793L51.3366 65.333H37.4299V70.2514C37.4299 76.4802 42.4795 81.5298 48.7084 81.5298L48.7102 81.5316Z" fill="#6823A5"/>
<path d="M42.3286 76.7661H46.8138C50.2527 76.7661 53.3896 75.4754 55.7714 73.3541L57.6716 76.793C58.6639 78.5889 57.7237 80.7263 55.9458 81.3519H51.4085C47.6856 81.3519 44.3851 79.547 42.3304 76.7661H42.3286Z" fill="#8F3CCC"/>
<path d="M22.5725 81.5316H16.4083C13.9761 81.5316 12.4373 78.9214 13.613 76.793L19.9461 65.333H33.8527V70.2514C33.8527 76.4802 28.8031 81.5298 22.5743 81.5298L22.5725 81.5316Z" fill="#6823A5"/>
<path d="M46.8136 73.1707H24.4688C17.0266 73.1707 10.9937 67.1378 10.9937 59.6956V31.077C10.9937 19.4282 20.4367 9.98334 32.0873 9.98334H39.1952C50.844 9.98334 60.2888 19.4264 60.2888 31.077V59.6956C60.2888 67.1378 54.2559 73.1707 46.8136 73.1707Z" fill="#6823A5"/>
<path d="M33.6404 9.98517H37.6401C48.6202 9.98517 57.5329 18.8997 57.5329 29.878V57.089C57.5329 62.8217 52.8788 67.474 47.1479 67.474H24.1326C18.3999 67.474 13.7476 62.8199 13.7476 57.089V29.878C13.7476 18.8979 22.6621 9.98517 33.6404 9.98517Z" fill="#8F3CCC"/>
<path d="M46.8137 73.7999H24.4689C16.6922 73.7999 10.3645 67.4722 10.3645 59.6956V31.077C10.3645 19.0992 20.1096 9.35419 32.0873 9.35419H39.1952C51.173 9.35419 60.918 19.0992 60.918 31.077V59.6956C60.918 67.4722 54.5903 73.7999 46.8137 73.7999ZM32.0873 10.6143C20.8035 10.6143 11.6229 19.7949 11.6229 31.0788V59.6974C11.6229 66.7801 17.3861 72.5434 24.4689 72.5434H46.8137C53.8964 72.5434 59.6597 66.7801 59.6597 59.6974V31.0788C59.6597 19.7949 50.4791 10.6143 39.1952 10.6143H32.0873Z" fill="black"/>
<path d="M49.9866 53.7472C40.6748 56.8535 30.6079 56.8535 21.2961 53.7472C19.6584 53.2007 18.5547 51.6691 18.5547 49.9434V38.0267C18.5547 35.6844 20.8503 34.0288 23.074 34.7712C31.2317 37.491 40.051 37.491 48.2087 34.7712C50.4306 34.0306 52.728 35.6844 52.728 38.0267V49.9434C52.728 51.6691 51.6243 53.2007 49.9866 53.7472Z" fill="#5E0066"/>
<path d="M24.0249 30.1907C26.9249 30.1907 29.2758 27.8398 29.2758 24.9398C29.2758 22.0398 26.9249 19.6888 24.0249 19.6888C21.1248 19.6888 18.7739 22.0398 18.7739 24.9398C18.7739 27.8398 21.1248 30.1907 24.0249 30.1907Z" fill="black"/>
<path d="M24.0249 30.295C21.0713 30.295 18.6697 27.8915 18.6697 24.9398C18.6697 21.9881 21.0731 19.5846 24.0249 19.5846C26.9766 19.5846 29.3801 21.9881 29.3801 24.9398C29.3801 27.8915 26.9766 30.295 24.0249 30.295ZM24.0249 19.7931C21.1882 19.7931 18.88 22.1013 18.88 24.938C18.88 27.7747 21.1882 30.0829 24.0249 30.0829C26.8616 30.0829 29.1698 27.7747 29.1698 24.938C29.1698 22.1013 26.8616 19.7931 24.0249 19.7931Z" fill="#080808"/>
<path d="M47.2578 30.1907C50.1578 30.1907 52.5087 27.8398 52.5087 24.9398C52.5087 22.0398 50.1578 19.6888 47.2578 19.6888C44.3578 19.6888 42.0068 22.0398 42.0068 24.9398C42.0068 27.8398 44.3578 30.1907 47.2578 30.1907Z" fill="black"/>
<path d="M47.2578 30.295C44.3043 30.295 41.9026 27.8915 41.9026 24.9398C41.9026 21.9881 44.306 19.5846 47.2578 19.5846C50.2095 19.5846 52.613 21.9881 52.613 24.9398C52.613 27.8915 50.2095 30.295 47.2578 30.295ZM47.2578 19.7931C44.4211 19.7931 42.1129 22.1013 42.1129 24.938C42.1129 27.7747 44.4211 30.0829 47.2578 30.0829C50.0945 30.0829 52.4027 27.7747 52.4027 24.938C52.4027 22.1013 50.0945 19.7931 47.2578 19.7931Z" fill="#080808"/>
<path d="M48.6043 25.7128C49.6517 25.7128 50.5008 24.8637 50.5008 23.8163C50.5008 22.7688 49.6517 21.9197 48.6043 21.9197C47.5569 21.9197 46.7078 22.7688 46.7078 23.8163C46.7078 24.8637 47.5569 25.7128 48.6043 25.7128Z" fill="white"/>
<path d="M25.3714 25.7128C26.4188 25.7128 27.2679 24.8637 27.2679 23.8163C27.2679 22.7688 26.4188 21.9197 25.3714 21.9197C24.324 21.9197 23.4749 22.7688 23.4749 23.8163C23.4749 24.8637 24.324 25.7128 25.3714 25.7128Z" fill="white"/>
<mask id="mask0_2140_6758" style="mask-type:luminance" maskUnits="userSpaceOnUse" x="18" y="34" width="35" height="23">
<path d="M49.9866 53.7472C40.6748 56.8535 30.6079 56.8535 21.2961 53.7472C19.6584 53.2007 18.5547 51.6691 18.5547 49.9434V38.0267C18.5547 35.6844 20.8503 34.0288 23.074 34.7712C31.2317 37.491 40.051 37.491 48.2087 34.7712C50.4306 34.0306 52.728 35.6844 52.728 38.0267V49.9434C52.728 51.6691 51.6243 53.2007 49.9866 53.7472Z" fill="white"/>
</mask>
<g mask="url(#mask0_2140_6758)">
<path d="M46.0911 48.7928C46.0911 51.9711 41.4136 54.5471 35.6414 54.5471C29.8691 54.5471 25.1917 51.9711 25.1917 48.7928C25.1917 46.8765 26.8922 45.1778 29.5096 44.1333C30.4642 43.7522 31.5356 43.7828 32.4703 44.2106L34.8756 45.3144C35.361 45.5373 35.92 45.5373 36.4054 45.3144L38.8106 44.2106C39.7454 43.781 40.8168 43.7522 41.7714 44.1333C44.387 45.1795 46.0893 46.8765 46.0893 48.7928H46.0911Z" fill="#EB544D"/>
<path d="M35.6414 45.4798C35.902 45.4798 36.1645 45.4241 36.4072 45.3126L38.8124 44.2088C39.7472 43.7792 40.8186 43.7504 41.7731 44.1315C44.3887 45.1778 46.0911 46.8748 46.0911 48.7911C46.0911 51.9693 41.4136 54.5453 35.6414 54.5453" fill="#BA2020"/>
<path d="M11.6626 33.795L20.2014 38.1561L24.0808 42.3788L27.9349 38.3179L31.7891 42.3788L35.6432 38.3179L39.4974 42.3788L43.3516 38.3179L47.2057 42.3788L51.0599 38.1561L59.6005 33.795H11.6626Z" fill="white"/>
<path d="M47.2111 42.7851L43.3533 38.7188L39.4991 42.7815L35.645 38.7188L31.7908 42.7815L27.9367 38.7188L24.0789 42.7851L20.0342 38.3809L10.5156 33.52H60.7492L51.2324 38.3809L47.2111 42.7869V42.7851ZM27.9349 37.9171L31.789 41.9798L35.6432 37.9171L39.4973 41.9798L43.3515 37.9171L47.2021 41.9744L50.8908 37.9333L58.4518 34.0719H12.8112L20.3721 37.9333L24.0843 41.9744L27.9349 37.9153V37.9171Z" fill="black"/>
<path d="M35.6415 54.824C29.7273 54.824 24.9167 52.1185 24.9167 48.7929C24.9167 46.8388 26.5958 44.9998 29.4073 43.8763C30.4247 43.47 31.5842 43.4988 32.5855 43.959L34.9908 45.0627C35.4042 45.2515 35.8788 45.2515 36.2905 45.0627L38.6957 43.959C39.697 43.4988 40.8565 43.47 41.874 43.8763C44.6855 44.9998 46.3645 46.8388 46.3645 48.7929C46.3645 52.1185 41.5522 54.824 35.6415 54.824ZM30.8975 44.1441C30.4607 44.1441 30.0239 44.225 29.6122 44.3904C27.0182 45.4277 25.4686 47.0743 25.4686 48.7947C25.4686 51.8147 30.0329 54.2739 35.6415 54.2739C41.2502 54.2739 45.8144 51.8165 45.8144 48.7947C45.8144 47.0743 44.2649 45.4277 41.6708 44.3904C40.7918 44.0399 39.7923 44.065 38.9276 44.4623L36.5224 45.5661C35.9633 45.8231 35.3215 45.8231 34.7607 45.5661L32.3554 44.4623C31.8952 44.2502 31.3955 44.1441 30.8975 44.1441Z" fill="black"/>
<path d="M11.6626 56.2657L20.2014 51.9046L24.0808 47.6819L27.9349 51.7428L31.7891 47.6819L35.6432 51.7428L39.4974 47.6819L43.3516 51.7428L47.2057 47.6819L51.0599 51.9046L59.6005 56.2657H11.6626Z" fill="white"/>
<path d="M60.7475 56.5426H10.5139L20.0325 51.6817L24.0772 47.2775L27.9349 51.3437L31.7891 47.2811L35.6433 51.3437L39.4974 47.2811L43.3516 51.3437L47.2094 47.2775L51.2307 51.6835L60.7475 56.5444V56.5426ZM12.8095 55.9907H58.4501L50.8891 52.1293L47.2004 48.0882L43.3498 52.1455L39.4956 48.0828L35.6415 52.1455L31.7873 48.0828L27.9331 52.1455L24.0826 48.0864L20.3704 52.1275L12.8095 55.9907Z" fill="black"/>
</g>
<path d="M35.6413 56.6C30.723 56.6 25.8064 55.8198 21.1253 54.2577C19.2647 53.6375 18.0154 51.9027 18.0154 49.9433V38.0267C18.0154 36.7342 18.6158 35.5603 19.6656 34.8053C20.7137 34.0503 22.0187 33.8507 23.2447 34.2606C31.2389 36.9265 40.0438 36.9265 48.0397 34.2606C49.2657 33.8525 50.5708 34.0503 51.6189 34.8053C52.6669 35.5603 53.2691 36.736 53.2691 38.0267V49.9433C53.2691 51.9045 52.0197 53.6375 50.1592 54.2577C45.4781 55.818 40.5615 56.6 35.6431 56.6H35.6413ZM21.9792 35.1307C21.3842 35.1307 20.7999 35.3176 20.2966 35.6789C19.5326 36.229 19.0958 37.0847 19.0958 38.0267V49.9433C19.0958 51.4389 20.0485 52.762 21.4669 53.2348C30.6079 56.2836 40.6766 56.2836 49.8176 53.2348C51.236 52.762 52.1905 51.4389 52.1905 49.9433V38.0267C52.1905 37.0847 51.7519 36.229 50.9897 35.6789C50.2257 35.1289 49.2765 34.9833 48.3831 35.2817C40.1678 38.0213 31.1202 38.0213 22.9068 35.2817C22.6012 35.181 22.2902 35.1307 21.9828 35.1307H21.9792Z" fill="black"/>
<path d="M28.954 76.7661H24.4689C21.03 76.7661 17.8931 75.4754 15.5112 73.3541L13.6111 76.793C12.6188 78.5889 13.5589 80.7263 15.3368 81.3519H19.8741C23.597 81.3519 26.8975 79.547 28.954 76.7661Z" fill="#8F3CCC"/>
<path d="M22.5723 82.1608H16.4082C15.042 82.1608 13.8106 81.4579 13.1167 80.2805C12.4228 79.103 12.4012 77.6865 13.0628 76.4892L16.6832 69.935L17.2549 70.3233C19.3869 71.774 21.882 72.5416 24.4707 72.5416H34.2894L34.0773 73.3326C32.6877 78.5296 27.9581 82.1608 22.5723 82.1608ZM17.1255 71.738L14.1647 77.0986C13.7207 77.9004 13.7351 78.8513 14.2007 79.6423C14.6663 80.4315 15.4914 80.9043 16.41 80.9043H22.5741C27.1114 80.9043 31.1292 78.0226 32.6176 73.8017H24.4707C21.8605 73.8017 19.3348 73.0917 17.1255 71.738Z" fill="black"/>
<path d="M54.8763 82.1608H48.7121C43.3282 82.1608 38.5967 78.5314 37.209 73.3326L36.9968 72.5416H46.8156C49.4042 72.5416 51.8993 71.774 54.0314 70.3233L54.6012 69.935L58.2217 76.4892C58.8832 77.6865 58.8634 79.103 58.1678 80.2805C57.4739 81.4579 56.2425 82.1608 54.8763 82.1608ZM38.6686 73.7999C40.1571 78.0208 44.1748 80.9025 48.7121 80.9025H54.8763C55.7931 80.9025 56.6182 80.4315 57.0856 79.6405C57.5512 78.8513 57.5655 77.9004 57.1215 77.0968L54.159 71.7362C51.9497 73.0881 49.4258 73.7981 46.8138 73.7981L38.6686 73.7999Z" fill="black"/>
<path d="M21.3681 27.9239C21.808 27.9239 22.1645 27.5674 22.1645 27.1275C22.1645 26.6877 21.808 26.3312 21.3681 26.3312C20.9283 26.3312 20.5718 26.6877 20.5718 27.1275C20.5718 27.5674 20.9283 27.9239 21.3681 27.9239Z" fill="white"/>
<path d="M44.6008 27.9239C45.0406 27.9239 45.3972 27.5674 45.3972 27.1275C45.3972 26.6877 45.0406 26.3312 44.6008 26.3312C44.161 26.3312 43.8044 26.6877 43.8044 27.1275C43.8044 27.5674 44.161 27.9239 44.6008 27.9239Z" fill="white"/>
<path d="M5.40122 31.4384C8.49138 31.4384 10.9955 33.7375 10.9955 36.5724V54.1984L1.27382 37.8146C-0.430352 34.9402 1.83469 31.4402 5.40122 31.4402V31.4384Z" fill="#8F3CCC"/>
<path d="M11.6517 56.5911L0.709432 38.1472C-0.162428 36.6767 -0.180405 34.9132 0.662693 33.4319C1.59388 31.7961 3.4095 30.7804 5.4013 30.7804C8.84739 30.7804 11.6517 33.378 11.6517 36.5706V56.5911ZM5.4013 32.0945C3.88049 32.0945 2.50349 32.8567 1.8042 34.0827C1.18761 35.1649 1.20019 36.4034 1.83836 37.4784L10.3376 51.8039V36.5724C10.3376 34.1043 8.12294 32.0963 5.4013 32.0945Z" fill="black"/>
<path d="M8.99649 44.047L7.57994 36.8528C7.09637 34.3936 4.7774 32.6625 2.15283 32.6319C2.97795 31.9039 4.10148 31.4383 5.39939 31.4383C8.48955 31.4383 10.9937 33.7375 10.9937 36.5724V54.1983L8.99649 44.0488V44.047Z" fill="#6823A5"/>
<path d="M11.6517 56.5911L0.709432 38.1472C-0.162428 36.6767 -0.180405 34.9132 0.662693 33.4319C1.59388 31.7961 3.4095 30.7804 5.4013 30.7804C8.84739 30.7804 11.6517 33.378 11.6517 36.5706V56.5911ZM5.4013 32.0945C3.88049 32.0945 2.50349 32.8567 1.8042 34.0827C1.18761 35.1649 1.20019 36.4034 1.83836 37.4784L10.3376 51.8039V36.5724C10.3376 34.1043 8.12294 32.0963 5.4013 32.0945Z" fill="black"/>
<path d="M65.8816 31.4384C62.7915 31.4384 60.2874 33.7375 60.2874 36.5724V43.8835V54.1966L70.009 37.8128C71.7132 34.9384 69.4482 31.4384 65.8816 31.4384Z" fill="#6823A5"/>
<path d="M59.6311 56.5911V36.5724C59.6311 35.0157 60.289 33.5542 61.4827 32.4576C62.6601 31.3772 64.2223 30.7804 65.8815 30.7804C67.8733 30.7804 69.689 31.7961 70.6201 33.4319C71.4632 34.9132 71.4471 36.6767 70.5734 38.1472L59.6311 56.5893V56.5911ZM65.8815 32.0945C64.5513 32.0945 63.3055 32.5673 62.3707 33.4247C61.4521 34.2678 60.9452 35.386 60.9452 36.5706V51.8021L69.4445 37.4766C70.0826 36.4016 70.0952 35.1631 69.4786 34.0809C68.7811 32.8549 67.4023 32.0927 65.8815 32.0927V32.0945Z" fill="black"/>
<path d="M61.5275 51.3905C62.545 49.8445 60.3267 47.1804 60.3267 47.1804C57.6914 54.815 44.7213 57.6283 40.8078 57.4665C39.5459 57.4144 38.5158 57.276 37.7231 57.125C36.3964 56.8715 35.032 56.8571 33.7053 57.1088C32.8676 57.267 31.7818 57.4126 30.4749 57.4665C26.5614 57.6283 13.5914 54.815 10.956 47.1804C10.956 47.1804 8.73775 49.8445 9.75522 51.3905C9.75522 51.3905 8.52922 53.7903 10.4329 54.5507C10.4329 54.5507 11.9196 58.3887 19.4086 62.9565C26.8976 67.5226 27.8378 68.5616 30.6295 68.7683C33.4213 68.9769 35.6396 70.983 35.6396 70.983C35.6396 70.983 44.3816 67.5244 51.8706 62.9565C59.3596 58.3905 60.8462 54.5507 60.8462 54.5507C62.7517 53.7903 61.5239 51.3905 61.5239 51.3905H61.5275Z" fill="#FF3486"/>
<path d="M35.6414 70.983C35.6414 70.983 44.3834 67.5243 51.8724 62.9565C52.1654 62.7785 52.444 62.6024 52.7191 62.4262C46.4668 65.3851 36.2598 68.7791 36.2598 68.7791C36.2598 68.7791 34.0109 67.8605 30.3383 67.0803C26.6657 66.3001 19.4104 62.9547 19.4104 62.9547C26.8994 67.5207 27.8396 68.5598 30.6313 68.7665C33.4231 68.975 35.6414 70.9812 35.6414 70.9812V70.983Z" fill="#35A6D2"/>
<path d="M21.2654 58.6817C21.2654 58.6817 13.6758 58.315 9.48364 52.0107L9.85036 51.2502C9.85036 51.2502 14.0047 56.823 21.2654 58.6817Z" fill="#35A6D2"/>
<path d="M10.9559 47.1804C10.9559 47.1804 10.9199 47.2307 10.8498 47.326C10.7833 47.423 10.6736 47.5579 10.5532 47.7448C10.4381 47.9354 10.2871 48.1601 10.1577 48.4423C10.0193 48.7191 9.89884 49.0517 9.82693 49.4202C9.75323 49.7887 9.75503 50.204 9.87367 50.6067C9.93299 50.8044 10.0247 51.0075 10.1451 51.1693L10.1667 51.1963L10.1901 51.2215L10.2548 51.2898C10.2979 51.3365 10.3411 51.3815 10.3842 51.4282C10.4705 51.5217 10.5568 51.6152 10.6467 51.7122C11.3424 52.4888 12.1801 53.2654 13.0933 54.0366C14.0047 54.8132 14.943 55.4675 15.8149 56.0356C16.2499 56.3232 16.6796 56.5695 17.0787 56.8086C17.4867 57.0315 17.8642 57.2454 18.2184 57.4216C19.6313 58.1442 20.5733 58.4642 20.5733 58.4642C20.5733 58.4642 20.327 58.4283 19.8902 58.3258C19.4516 58.2251 18.8242 58.0454 18.0656 57.7685C17.6845 57.6337 17.2782 57.4593 16.8414 57.2706C16.4117 57.0656 15.9515 56.8499 15.4859 56.5857C14.553 56.0625 13.5517 55.4244 12.6061 54.619C11.6605 53.8191 10.8228 52.9742 10.1631 52.1311C10.0786 52.0268 9.99771 51.9226 9.91502 51.8219C9.87367 51.7716 9.83412 51.7194 9.79457 51.6691L9.73525 51.5936C9.72627 51.5828 9.71548 51.5684 9.6993 51.5468L9.66694 51.4965C9.51055 51.2394 9.42606 50.9842 9.37392 50.7271C9.27505 50.213 9.33438 49.7294 9.46381 49.3267C9.59324 48.9241 9.76941 48.5897 9.95277 48.3201C10.1289 48.045 10.3159 47.8401 10.4633 47.6675C10.6143 47.5003 10.7473 47.3835 10.83 47.3008C10.9145 47.2199 10.9595 47.1768 10.9595 47.1768L10.9559 47.1804Z" fill="black"/>
<path d="M17.8464 58.759C17.8464 58.759 17.6774 58.7249 17.3754 58.6656C17.2226 58.635 17.0375 58.5955 16.8218 58.5505C16.606 58.5056 16.367 58.4301 16.0973 58.3582C15.9625 58.3204 15.8241 58.2809 15.6767 58.2377C15.5328 58.1874 15.3836 58.1335 15.2308 58.0795C15.0762 58.0238 14.9163 57.9699 14.7545 57.9034C14.5945 57.8315 14.4291 57.7595 14.2601 57.684C13.5914 57.3731 12.8687 56.9758 12.209 56.4131C11.8477 56.0949 11.5097 55.7624 11.2419 55.3938C11.1088 55.2105 10.9866 55.0235 10.8841 54.8312C10.8302 54.7377 10.7888 54.637 10.7439 54.54C10.7241 54.4896 10.7044 54.4393 10.6864 54.3907L10.6738 54.353C10.6702 54.3404 10.6648 54.3242 10.6648 54.326V54.3117L10.6504 54.3045L10.5552 54.2685C10.4922 54.2433 10.4311 54.22 10.37 54.1966C10.2567 54.1283 10.1399 54.0672 10.0374 53.9935C9.83969 53.8317 9.66891 53.6483 9.57723 53.438C9.3759 53.0227 9.39387 52.6165 9.44241 52.3127C9.49454 52.0035 9.57903 51.7734 9.64374 51.6188C9.70846 51.466 9.7534 51.3887 9.7534 51.3887C9.7534 51.3887 9.72104 51.4714 9.6761 51.6296C9.63116 51.7878 9.57364 52.0232 9.55566 52.3235C9.53768 52.6201 9.56285 52.9976 9.76599 53.3355C9.85767 53.5099 10.0159 53.6501 10.1902 53.7778C10.2819 53.8353 10.388 53.8802 10.4868 53.9359C10.5426 53.9539 10.5983 53.9719 10.6558 53.9899C10.7403 54.0186 10.8248 54.0474 10.9111 54.0762C10.9237 54.1175 10.9363 54.1624 10.9506 54.2056L10.9794 54.2811C10.9992 54.3242 11.0171 54.3674 11.0369 54.4105C11.0819 54.495 11.1232 54.5849 11.1771 54.6694C11.2778 54.842 11.3982 55.0091 11.5277 55.1781C11.7883 55.5125 12.1101 55.8217 12.4535 56.1255C13.0791 56.6594 13.764 57.0621 14.4003 57.3982C14.5603 57.4809 14.7185 57.56 14.8695 57.6373C15.0241 57.7092 15.1787 57.7721 15.3261 57.8386C15.4735 57.9034 15.6155 57.9663 15.754 58.0274C15.8942 58.0795 16.029 58.1299 16.1566 58.1784C16.4155 58.2719 16.6456 58.3707 16.8541 58.4355C17.0626 58.502 17.2424 58.5595 17.3898 58.608C17.6828 58.7051 17.8464 58.759 17.8464 58.759Z" fill="black"/>
<path d="M53.4363 58.759C53.4363 58.759 53.5981 58.6943 53.8857 58.5793C54.0295 58.5236 54.2075 58.457 54.4106 58.3779C54.6155 58.3024 54.8402 58.1928 55.0937 58.0885C55.2195 58.0346 55.3508 57.9789 55.4892 57.9213C55.624 57.8566 55.7624 57.7883 55.9062 57.7182C56.0501 57.6481 56.2011 57.5816 56.3521 57.5043C56.5013 57.4234 56.6541 57.3407 56.8105 57.2544C57.4307 56.9075 58.0958 56.5012 58.7052 55.9817C59.0378 55.6869 59.3541 55.3903 59.6112 55.0721C59.737 54.9121 59.8575 54.7539 59.9582 54.5903C60.0121 54.5112 60.0516 54.4285 60.0984 54.3494C60.1199 54.3045 60.1397 54.2613 60.1613 54.2182C60.1918 54.1319 60.2206 54.0474 60.2494 53.9629C60.359 53.927 60.4669 53.891 60.5747 53.8569C60.6287 53.8425 60.6826 53.8263 60.7347 53.8119C60.8282 53.7652 60.9271 53.7274 61.0152 53.6789C61.1788 53.5692 61.3298 53.4506 61.4214 53.2942C61.6246 52.9922 61.6731 52.6291 61.6713 52.3378C61.6713 52.0412 61.6264 51.8021 61.5904 51.6422C61.5545 51.4804 61.5275 51.3959 61.5275 51.3959C61.5275 51.3959 61.5778 51.4714 61.6515 51.6206C61.7252 51.7716 61.8259 51.9999 61.8942 52.3127C61.9589 52.6219 61.9985 53.0425 61.7972 53.4955C61.7055 53.7256 61.5275 53.9288 61.319 54.1085C61.2111 54.1912 61.0907 54.2595 60.9684 54.335C60.9055 54.362 60.8408 54.389 60.7761 54.4159C60.7563 54.4267 60.7509 54.4303 60.7419 54.4393V54.4699C60.7222 54.5184 60.706 54.5669 60.688 54.6155C60.6431 54.7161 60.5999 54.824 60.546 54.9229C60.4435 55.1242 60.3195 55.3183 60.1847 55.5107C59.9114 55.8936 59.5699 56.2369 59.1977 56.5641C58.5218 57.1394 57.7794 57.5331 57.0945 57.8333C56.9219 57.9052 56.7529 57.9735 56.5894 58.0418C56.424 58.1029 56.2586 58.1514 56.1022 58.2036C55.944 58.2539 55.793 58.3007 55.6456 58.3474C55.4964 58.3833 55.3544 58.4175 55.2178 58.4517C54.9445 58.5128 54.7 58.5775 54.4807 58.6116C54.2614 58.644 54.0726 58.6728 53.918 58.6961C53.6107 58.7375 53.4399 58.7608 53.4399 58.7608L53.4363 58.759Z" fill="black"/>
<path d="M25.1663 59.6309C25.1663 59.6309 32.6786 63.983 35.3859 66.0719C38.0932 68.1607 47.0113 60.5477 50.4394 59.6003C53.8675 58.653 60.7166 53.0047 61.166 51.3904C61.166 51.3904 56.2189 57.4629 49.6808 58.9208C43.1428 60.3787 40.1083 65.1407 35.2457 62.9547C30.383 60.7688 25.1663 59.6291 25.1663 59.6309Z" fill="#35A6D2"/>
<path d="M60.3267 47.1804C60.3267 47.1804 60.3878 47.2649 60.5064 47.4285C60.5639 47.5112 60.6412 47.61 60.7257 47.7359C60.8048 47.8635 60.8965 48.0109 61.0008 48.1763C61.1859 48.5214 61.4214 48.9529 61.567 49.5173C61.6389 49.7996 61.6875 50.1141 61.6749 50.4575C61.6641 50.6283 61.6443 50.808 61.5886 50.9878C61.5652 51.0795 61.5275 51.1694 61.4879 51.2593C61.4412 51.3527 61.4035 51.4318 61.3154 51.5361L61.3279 51.5217C60.7167 52.3307 59.9617 53.2313 59.0162 54.1337C58.0724 55.0343 56.9489 55.9475 55.6402 56.7708C54.9894 57.1879 54.2866 57.5744 53.5441 57.9357C53.1738 58.1173 52.7909 58.2863 52.3972 58.4481C52.0071 58.608 51.5829 58.7555 51.2054 58.8939C50.8171 59.0377 50.4306 59.1923 50.0477 59.3613C49.654 59.5392 49.2567 59.7172 48.8558 59.897C48.0505 60.2565 47.229 60.6214 46.3967 60.9917C44.9855 61.6137 43.6049 62.2141 42.2693 62.7876C41.6005 63.0716 40.9426 63.352 40.299 63.6271C40.1372 63.6954 39.9773 63.7637 39.8191 63.8302C39.7418 63.8626 39.6429 63.9003 39.5548 63.9363C39.4631 63.9668 39.3732 64.001 39.2798 64.0262C38.9112 64.1322 38.5337 64.1951 38.1598 64.2059C37.7859 64.2167 37.4174 64.1826 37.0633 64.1071C36.8871 64.0657 36.7127 64.0208 36.5437 63.9597C36.3766 63.9057 36.204 63.8248 36.0674 63.7673C35.4885 63.5174 34.9259 63.2747 34.383 63.0393C33.8401 62.8056 33.3152 62.5665 32.81 62.3597C32.3067 62.153 31.8123 61.9679 31.3413 61.7899C29.4502 61.0924 27.8988 60.5657 26.831 60.1972C25.7614 59.8322 25.1682 59.6291 25.1682 59.6291C25.1682 59.6291 25.7794 59.7621 26.8814 60.0264C27.9815 60.2942 29.5725 60.6825 31.5211 61.2488C32.0083 61.3944 32.517 61.5454 33.0473 61.7252C33.5758 61.9031 34.1097 62.1099 34.6724 62.3148C35.2315 62.5233 35.8103 62.7372 36.4053 62.9584C36.5617 63.0159 36.6822 63.0644 36.8224 63.104C36.959 63.1453 37.0992 63.1759 37.2412 63.2028C37.5253 63.2514 37.8201 63.264 38.1131 63.2442C38.4061 63.2244 38.7009 63.1633 38.985 63.0698C39.0569 63.0482 39.1252 63.0177 39.1971 62.9925L39.411 62.899C39.5674 62.8271 39.7256 62.7534 39.8856 62.6815C40.5219 62.3903 41.1709 62.0937 41.8324 61.7917C43.1573 61.1895 44.5307 60.5747 45.9419 59.9509C46.776 59.586 47.5993 59.2246 48.4082 58.8723C48.8145 58.6961 49.219 58.5236 49.6181 58.351C50.0297 58.1784 50.4414 58.0238 50.853 57.8836C51.2755 57.7434 51.6458 57.6247 52.0269 57.4827C52.4026 57.3389 52.7729 57.1915 53.1325 57.0315C53.8515 56.7115 54.54 56.37 55.1836 55.9997C56.4779 55.268 57.6086 54.4519 58.5775 53.6375C59.5483 52.8232 60.3482 52.0017 61.0098 51.2593L61.0223 51.2449C61.0331 51.2341 61.0619 51.1999 61.0817 51.1712C61.105 51.1424 61.1212 51.1083 61.1428 51.0759C61.1787 51.0094 61.2147 50.9411 61.2399 50.8674C61.2974 50.7254 61.3261 50.5743 61.3495 50.4251C61.3855 50.1267 61.3675 49.8355 61.3226 49.5677C61.2345 49.0284 61.0439 48.5861 60.8965 48.2302C60.8102 48.0558 60.7347 47.903 60.6682 47.77C60.5981 47.6388 60.5334 47.5327 60.4831 47.4446C60.3824 47.2685 60.3302 47.1786 60.3302 47.1786L60.3267 47.1804Z" fill="black"/>
<path d="M35.5514 71.4702L35.3572 71.2958C35.3357 71.2779 33.2073 69.3831 30.5971 69.189C28.332 69.0218 27.1761 68.2973 23.3471 65.8957C22.2452 65.2054 20.8754 64.3461 19.1892 63.3179C12.4462 59.2048 10.4921 55.6778 10.1128 54.8725C9.61309 54.6334 9.26795 54.2685 9.08638 53.7849C8.75022 52.8915 9.09897 51.856 9.28233 51.4156C8.39968 49.6288 10.5353 47.0294 10.6306 46.9143L11.1069 46.3427L11.3496 47.0473C13.9185 54.4878 26.7393 57.2058 30.455 57.0512C31.5696 57.0045 32.6356 56.8877 33.6243 56.7007C34.9851 56.4418 36.3891 56.4472 37.7985 56.7169C38.7296 56.8949 39.7471 57.0063 40.8221 57.0512C44.536 57.2058 57.3587 54.4878 59.9275 47.0473L60.1702 46.3427L60.6466 46.9143C60.7419 47.0276 62.8811 49.6323 61.993 51.4192C62.1764 51.8614 62.5233 52.8933 62.189 53.7831C62.0074 54.2667 61.6623 54.6334 61.1607 54.8725C60.7814 55.6778 58.8274 59.2084 52.0844 63.3179C44.6511 67.8515 35.8768 71.3408 35.7887 71.3767L35.5514 71.4702ZM10.8427 48.0396C10.2495 48.9295 9.56096 50.3316 10.1057 51.1586L10.2405 51.3617L10.129 51.5792C10.1236 51.59 9.57534 52.6902 9.87555 53.4865C9.9924 53.7939 10.2261 54.0132 10.5892 54.1588L10.7582 54.2271L10.8247 54.3979C10.8391 54.4339 12.3851 58.1784 19.6278 62.597C21.3176 63.6271 22.691 64.4881 23.7948 65.1802C27.5842 67.5567 28.6017 68.1949 30.6618 68.3477C33.103 68.5292 35.0912 69.9871 35.7186 70.4977C37.1549 69.9152 44.9567 66.6813 51.6529 62.597C58.8957 58.1802 60.4416 54.4339 60.456 54.3961L60.5225 54.2271L60.6915 54.1588C61.0564 54.0132 61.2901 53.7939 61.4052 53.4847C61.7054 52.6902 61.1553 51.59 61.1499 51.5774L60.8407 50.968H61.2758C61.6209 50.1285 60.9881 48.863 60.4381 48.0378C58.7231 51.91 54.5238 54.2955 51.2017 55.6347C47.2433 57.231 42.9685 57.9752 40.7879 57.8836C39.6734 57.8368 38.6146 57.72 37.6421 57.5348C36.337 57.2849 35.0391 57.2796 33.7807 57.5186C32.7524 57.7128 31.6451 57.835 30.4892 57.8836C28.3123 57.9752 24.0338 57.2292 20.0754 55.6347C16.757 54.2973 12.5576 51.9136 10.8427 48.0396Z" fill="black"/>
<path d="M24.424 31.9146C19.7969 31.9146 16.0452 28.1629 16.0452 23.5358V20.9634C16.0452 19.7787 17.0051 18.817 18.1916 18.817H30.6601C31.8447 18.817 32.8065 19.7769 32.8065 20.9634V23.5358C32.8065 28.1629 29.0548 31.9146 24.4276 31.9146H24.424Z" fill="black"/>
<path d="M24.4275 32.3335H24.4239C19.5721 32.3335 15.6262 28.3859 15.6262 23.5358V20.9634C15.6262 19.5486 16.7767 18.3981 18.1915 18.3981H30.66C32.0747 18.3981 33.2252 19.5486 33.2252 20.9634V23.5358C33.2252 28.3877 29.2794 32.3335 24.4275 32.3335ZM18.1915 19.2376C17.2387 19.2376 16.4657 20.0124 16.4657 20.9634V23.5358C16.4657 27.9239 20.0359 31.494 24.4239 31.494H24.4275C28.8156 31.494 32.3857 27.9239 32.3857 23.5358V20.9634C32.3857 20.0106 31.6109 19.2376 30.66 19.2376H18.1915Z" fill="#35A6D2"/>
<path d="M46.8586 31.9146C42.2314 31.9146 38.4797 28.1629 38.4797 23.5358V20.9634C38.4797 19.7787 39.4397 18.817 40.6261 18.817H53.0946C54.2793 18.817 55.241 19.7769 55.241 20.9634V23.5358C55.241 28.1629 51.4893 31.9146 46.8622 31.9146H46.8586Z" fill="black"/>
<path d="M46.8621 32.3335H46.8585C42.0066 32.3335 38.0608 28.3859 38.0608 23.5358V20.9634C38.0608 19.5486 39.2113 18.3981 40.626 18.3981H53.0945C54.5093 18.3981 55.6598 19.5486 55.6598 20.9634V23.5358C55.6598 28.3877 51.7139 32.3335 46.8621 32.3335ZM40.626 19.2376C39.6733 19.2376 38.9003 20.0124 38.9003 20.9634V23.5358C38.9003 27.9239 42.4704 31.494 46.8585 31.494H46.8621C51.2501 31.494 54.8203 27.9239 54.8203 23.5358V20.9634C54.8203 20.0106 54.0455 19.2376 53.0945 19.2376H40.626Z" fill="#35A6D2"/>
<path d="M46.5171 29.2344C46.5171 29.2344 46.6861 29.1984 46.9863 29.1337C47.1373 29.1103 47.3152 29.0528 47.5202 28.9917C47.6226 28.9575 47.7341 28.9377 47.8456 28.891C47.957 28.8479 48.0756 28.8011 48.1997 28.7526C48.6869 28.5459 49.2495 28.2708 49.7888 27.8538C50.3317 27.4457 50.8638 26.9262 51.3204 26.3024C52.2408 25.053 52.6345 23.6545 52.7208 22.5813C52.843 21.4865 52.9653 20.8088 52.9653 20.8088C52.9653 20.8088 53.0875 21.4865 53.2097 22.5813C53.2169 22.6496 53.2241 22.7197 53.2331 22.7916C53.2367 22.8671 53.2403 22.9426 53.2439 23.0199C53.2493 23.1763 53.2601 23.3399 53.2601 23.5106C53.2475 23.6814 53.2349 23.8558 53.2223 24.0374C53.2187 24.129 53.2043 24.2207 53.1846 24.3124C53.1666 24.4041 53.1486 24.4976 53.1306 24.5928C52.9742 25.346 52.6435 26.1568 52.1096 26.8812C51.5793 27.6075 50.9069 28.1666 50.2382 28.5477C49.5713 28.9378 48.8936 29.1247 48.3345 29.2254C48.1943 29.2451 48.0595 29.2631 47.9318 29.2811C47.806 29.3009 47.6838 29.2937 47.5705 29.2991C47.3458 29.3045 47.1553 29.3117 46.9989 29.2883C46.6861 29.2577 46.5189 29.2362 46.5189 29.2362L46.5171 29.2344Z" fill="white"/>
<path d="M23.6528 29.2344C23.6528 29.2344 23.8218 29.1984 24.122 29.1337C24.273 29.1103 24.451 29.0528 24.6559 28.9917C24.7584 28.9575 24.8698 28.9377 24.9813 28.891C25.0927 28.8479 25.2114 28.8011 25.3354 28.7526C25.8226 28.5459 26.3853 28.2708 26.9246 27.8538C27.4674 27.4457 27.9995 26.9262 28.4562 26.3024C29.3765 25.053 29.7702 23.6545 29.8565 22.5813C29.9788 21.4865 30.101 20.8088 30.101 20.8088C30.101 20.8088 30.2232 21.4865 30.3455 22.5813C30.3527 22.6496 30.3599 22.7197 30.3689 22.7916C30.3724 22.8671 30.376 22.9426 30.3796 23.0199C30.385 23.1763 30.3958 23.3399 30.3958 23.5106C30.3832 23.6814 30.3706 23.8558 30.3581 24.0374C30.3545 24.129 30.3401 24.2207 30.3203 24.3124C30.3023 24.4041 30.2844 24.4976 30.2664 24.5928C30.11 25.346 29.7792 26.1568 29.2453 26.8812C28.715 27.6075 28.0427 28.1666 27.374 28.5477C26.707 28.9378 26.0293 29.1247 25.4703 29.2254C25.33 29.2451 25.1952 29.2631 25.0676 29.2811C24.9417 29.3009 24.8195 29.2937 24.7063 29.2991C24.4815 29.3045 24.291 29.3117 24.1346 29.2883C23.8218 29.2577 23.6546 29.2362 23.6546 29.2362L23.6528 29.2344Z" fill="white"/>
<path d="M32.803 23.1835C32.803 23.1835 35.557 20.2605 38.48 23.1835V21.4577C35.557 18.5348 32.803 21.4577 32.803 21.4577V23.1835Z" fill="#35A6D2"/>
<path d="M32.384 24.2333V21.2906L32.4991 21.1701C32.553 21.1126 33.8419 19.7662 35.6558 19.7392C36.7685 19.7248 37.8183 20.2012 38.7783 21.1611L38.9005 21.2834V24.1956L38.1832 23.4783C37.3923 22.6874 36.5438 22.2865 35.6737 22.3027C34.2176 22.3206 33.1193 23.4585 33.1085 23.4711L32.384 24.2333ZM33.2217 21.6375V22.2955C33.7844 21.9108 34.6365 21.4793 35.654 21.465C36.4917 21.4488 37.3024 21.7238 38.0592 22.2721V21.6357C37.3042 20.9239 36.5042 20.5751 35.6719 20.5787C34.4891 20.5931 33.5417 21.3499 33.2217 21.6375Z" fill="#35A6D2"/>
<path d="M58.6797 23.5035L20.2568 15.4662C18.8887 15.1804 18.2272 13.469 18.9409 12.0668L20.4221 9.16005C23.5375 3.04983 29.725 -0.266829 35.686 0.98074L50.3476 4.04753C56.3086 5.2951 60.6482 10.8139 61.0544 17.6593L61.2468 20.9167C61.3402 22.4878 60.0477 23.7911 58.6797 23.5035Z" fill="#D6E447"/>
<path d="M61.2468 20.9148L61.0544 17.6575C60.65 10.812 56.3086 5.29326 50.3476 4.04569L35.686 0.9789C33.3922 0.498927 31.0642 0.698466 28.8909 1.46966C29.9119 1.42292 30.9438 1.50022 31.9684 1.71414L46.6301 4.78093C52.5911 6.0285 56.9306 11.5473 57.3369 18.3927L57.5292 21.6501C57.5634 22.2181 57.4142 22.7484 57.1481 23.1835L58.6797 23.5035C60.0477 23.7893 61.3403 22.4878 61.2468 20.9148Z" fill="#35A6D2"/>
<path d="M59.0591 23.9619C58.9045 23.9619 58.7481 23.9457 58.5936 23.9133L20.1706 15.876C19.4533 15.7268 18.8493 15.2379 18.5131 14.535C18.1177 13.7117 18.1392 12.7176 18.5671 11.8763L20.0483 8.96947C21.6159 5.89549 23.9474 3.46506 26.7895 1.94065C29.6442 0.410854 32.7505 -0.0637252 35.7724 0.569048L50.434 3.63584C53.4559 4.26861 56.1128 5.94762 58.1136 8.49309C60.1072 11.0278 61.2685 14.188 61.4734 17.6323L61.6657 20.8897C61.7215 21.8335 61.3422 22.7521 60.6501 23.3489C60.1881 23.7497 59.6254 23.9619 59.0591 23.9619ZM33.137 1.13531C28.1683 1.13531 23.4135 4.21828 20.7962 9.35057L19.3149 12.2574C19.0039 12.8686 18.9877 13.584 19.27 14.1737C19.4965 14.6446 19.8776 14.9592 20.3432 15.0563L58.7661 23.0936C59.2317 23.1925 59.7063 23.0577 60.1018 22.7161C60.5961 22.2901 60.8676 21.6267 60.8262 20.9436L60.6339 17.6863C60.2366 10.9918 56.0679 5.67617 50.2596 4.46096L35.598 1.39417C34.7783 1.2198 33.955 1.13531 33.137 1.13531Z" fill="black"/>
<path d="M25.6714 11.8421L60.4308 19.1729C62.9511 19.705 64.5654 22.1822 64.0333 24.7025L20.1418 15.4446C20.6722 12.9243 23.1493 11.31 25.6714 11.8421Z" fill="#D6E447"/>
<path d="M23.8595 13.0214L61.6083 20.9831C63.3035 21.3409 64.3893 23.0055 64.0316 24.7025L20.1401 15.4446C20.4979 13.7494 22.1643 12.6636 23.8595 13.0214Z" fill="#35A6D2"/>
<path d="M64.3568 25.1986L19.6438 15.7682L19.7301 15.3583C20.0105 14.0298 20.7925 12.8883 21.9304 12.1477C23.0683 11.4053 24.4273 11.1518 25.7576 11.4322L60.517 18.763C61.8454 19.0435 62.9869 19.8255 63.7276 20.9634C64.47 22.1013 64.7235 23.4603 64.443 24.7906L64.3568 25.1986ZM20.6577 15.1246L63.688 24.2009C63.7959 23.2266 63.5658 22.2541 63.0229 21.4218C62.4027 20.4708 61.4518 19.8183 60.3426 19.5846L25.5832 12.252C24.4741 12.0183 23.3398 12.2304 22.3888 12.8506C21.5565 13.3935 20.9525 14.1898 20.6577 15.1246Z" fill="black"/>
</svg>
