<svg width="72" height="83" viewBox="0 0 72 83" fill="none" xmlns="http://www.w3.org/2000/svg">
<path d="M5.89537 31.4383C8.98553 31.4383 11.4897 33.7375 11.4897 36.5724V54.1983L1.76796 37.8146C0.0637888 34.9401 2.32883 31.4401 5.89537 31.4401V31.4383Z" fill="#735B4D"/>
<path d="M12.1459 56.5911L1.20357 38.1472C0.331713 36.6767 0.313736 34.9132 1.15683 33.4319C2.08802 31.7961 3.90364 30.7804 5.89544 30.7804C9.34153 30.7804 12.1459 33.378 12.1459 36.5706V56.5911ZM5.89544 32.0945C4.37463 32.0945 2.99763 32.8567 2.29834 34.0827C1.68175 35.1649 1.69433 36.4034 2.3325 37.4784L10.8318 51.8039V36.5724C10.8318 34.1043 8.61708 32.0963 5.89544 32.0945Z" fill="black"/>
<path d="M9.49063 44.047L8.07408 36.8528C7.59051 34.3936 5.27154 32.6625 2.64697 32.6319C3.47209 31.9039 4.59562 31.4383 5.89353 31.4383C8.98369 31.4383 11.4878 33.7375 11.4878 36.5724V54.1983L9.49063 44.0488V44.047Z" fill="#5A3F34"/>
<path d="M66.3755 31.4383C63.2854 31.4383 60.7812 33.7375 60.7812 36.5724V43.8834V54.1965L70.5029 37.8128C72.2071 34.9383 69.9421 31.4383 66.3755 31.4383Z" fill="#5A3F34"/>
<path d="M12.1459 56.591L4.85107 44.2969L12.1459 36.5706V56.591Z" fill="#E1E1E1"/>
<path d="M60.1252 56.591L67.4201 44.2969L60.1252 36.5706V56.591Z" fill="#7C7C7C"/>
<path d="M12.1459 56.5911L1.20357 38.1472C0.331713 36.6767 0.313736 34.9132 1.15683 33.4319C2.08802 31.7961 3.90364 30.7804 5.89544 30.7804C9.34153 30.7804 12.1459 33.378 12.1459 36.5706V56.5911ZM5.89544 32.0945C4.37463 32.0945 2.99763 32.8567 2.29834 34.0827C1.68175 35.1649 1.69433 36.4034 2.3325 37.4784L10.8318 51.8039V36.5724C10.8318 34.1043 8.61708 32.0963 5.89544 32.0945Z" fill="black"/>
<path d="M60.1252 56.5911V36.5724C60.1252 35.0157 60.7832 33.5542 61.9768 32.4576C63.1543 31.3772 64.7164 30.7804 66.3757 30.7804C68.3675 30.7804 70.1831 31.7961 71.1143 33.4319C71.9574 34.9132 71.9412 36.6767 71.0675 38.1472L60.1252 56.5893V56.5911ZM66.3757 32.0945C65.0454 32.0945 63.7996 32.5673 62.8649 33.4247C61.9463 34.2678 61.4393 35.386 61.4393 36.5706V51.8021L69.9386 37.4766C70.5768 36.4016 70.5894 35.1631 69.9728 34.0809C69.2753 32.8549 67.8965 32.0927 66.3757 32.0927V32.0945Z" fill="black"/>
<path d="M49.2043 81.5316H55.3685C57.8007 81.5316 59.3395 78.9214 58.1638 76.793L51.8307 65.333H37.9241V70.2514C37.9241 76.4802 42.9737 81.5298 49.2025 81.5298L49.2043 81.5316Z" fill="#5A3F34"/>
<path d="M42.8228 76.7661H47.3079C50.7468 76.7661 53.8837 75.4754 56.2656 73.3541L58.1657 76.793C59.158 78.5889 58.2178 80.7263 56.44 81.3519H51.9027C48.1798 81.3519 44.8793 79.547 42.8246 76.7661H42.8228Z" fill="#735B4D"/>
<path d="M8.73218 40.1875L9.49079 44.047L11.488 54.1966V43.8834V37.2663L8.73218 40.1875Z" fill="#BBBBBB"/>
<path d="M23.0666 81.5316H16.9025C14.4702 81.5316 12.9314 78.9214 14.1071 76.793L20.4402 65.333H34.3468V70.2514C34.3468 76.4802 29.2972 81.5298 23.0684 81.5298L23.0666 81.5316Z" fill="#5A3F34"/>
<path d="M32.5814 9.98517H39.6893C51.3309 9.98517 60.7829 19.4372 60.7829 31.0788V59.6974C60.7829 67.1343 54.7446 73.1726 47.3078 73.1726H24.963C17.5261 73.1726 11.4878 67.1343 11.4878 59.6974V31.0788C11.4878 19.4372 20.9398 9.98517 32.5814 9.98517Z" fill="#5A3F34"/>
<path d="M34.1345 9.98517H38.1343C49.1143 9.98517 58.0271 18.8997 58.0271 29.878V57.089C58.0271 62.8217 53.3729 67.474 47.642 67.474H24.6267C18.894 67.474 14.2417 62.8199 14.2417 57.089V29.878C14.2417 18.8979 23.1562 9.98517 34.1345 9.98517Z" fill="#735B4D"/>
<path d="M47.3078 63.3988H24.963C17.5207 63.3988 11.4878 57.3659 11.4878 49.9236V60.3266C11.4878 67.7689 17.5207 73.8018 24.963 73.8018H47.3078C54.75 73.8018 60.7829 67.7689 60.7829 60.3266V49.9236C60.7829 57.3659 54.75 63.3988 47.3078 63.3988Z" fill="#7C7C7C"/>
<path d="M47.3079 63.3988H24.9631C20.5948 63.3988 16.7137 61.3189 14.2527 58.0957C14.4522 63.6558 19.0201 68.105 24.6287 68.105H47.644C53.2527 68.105 57.8223 63.6576 58.0201 58.0957C55.5573 61.3171 51.678 63.3988 47.3079 63.3988Z" fill="#E1E1E1"/>
<path d="M47.3078 73.7999H24.963C17.1864 73.7999 10.8586 67.4722 10.8586 59.6956V31.077C10.8586 19.0992 20.6037 9.35419 32.5814 9.35419H39.6894C51.6671 9.35419 61.4122 19.0992 61.4122 31.077V59.6956C61.4122 67.4722 55.0844 73.7999 47.3078 73.7999ZM32.5814 10.6143C21.2976 10.6143 12.117 19.7949 12.117 31.0788V59.6974C12.117 66.7801 17.8803 72.5434 24.963 72.5434H47.3078C54.3905 72.5434 60.1538 66.7801 60.1538 59.6974V31.0788C60.1538 19.7949 50.9732 10.6143 39.6894 10.6143H32.5814Z" fill="black"/>
<path d="M47.3097 74.1918H24.9649C17.3195 74.1918 11.0996 67.9719 11.0996 60.3265V49.9235C11.0996 49.7078 11.274 49.5334 11.4897 49.5334C11.7054 49.5334 11.8798 49.7078 11.8798 49.9235C11.8798 52.8195 12.8074 55.5628 14.5619 57.8584C14.7039 58.0435 14.8477 58.2233 14.9897 58.3905C15.0275 58.4354 15.0652 58.4786 15.103 58.5217C15.2144 58.6511 15.3277 58.7752 15.4427 58.8956L15.5722 59.0304C15.6746 59.1347 15.7825 59.2426 15.8903 59.3468L16.471 59.8717C16.5752 59.9598 16.6813 60.0479 16.791 60.136L16.8485 60.1809C16.8934 60.2169 16.9402 60.2528 16.9851 60.2888C17.0804 60.3625 17.1757 60.4326 17.2709 60.5027C17.359 60.5692 17.4453 60.6303 17.5334 60.6915C17.6035 60.74 17.6736 60.7867 17.7437 60.8353C17.8624 60.9144 17.9828 60.9917 18.1051 61.0672C18.168 61.1049 18.2327 61.1445 18.2974 61.1822C18.3981 61.2415 18.4987 61.2991 18.6012 61.3566C18.6767 61.3997 18.7504 61.4393 18.8241 61.4788C18.9428 61.5417 19.0614 61.6011 19.18 61.6604C19.2394 61.691 19.2951 61.7179 19.3526 61.7449C19.5018 61.8168 19.6474 61.8833 19.7912 61.9426L19.9602 62.0127C20.113 62.0757 20.2676 62.1386 20.4258 62.1961L20.4797 62.2159C20.5031 62.2231 20.5247 62.232 20.5481 62.241C20.6865 62.2896 20.8339 62.3399 20.9849 62.3884C21.0316 62.4046 21.0694 62.4172 21.1071 62.428C21.2797 62.4801 21.4505 62.5287 21.6231 62.5736C21.668 62.5862 21.7075 62.597 21.7489 62.606C21.9538 62.6581 22.1264 62.6976 22.29 62.7318L22.3924 62.7516C22.5632 62.7857 22.7394 62.8163 22.9156 62.845C22.9246 62.8468 22.9335 62.8486 22.9425 62.8504C22.9533 62.8522 22.9623 62.854 22.9731 62.8558C23.187 62.89 23.3883 62.9134 23.5573 62.9313C23.5735 62.9331 23.5969 62.9349 23.622 62.9385L23.6706 62.9439C23.8521 62.9619 24.0391 62.9763 24.2476 62.9871L24.289 62.9889C24.3033 62.9907 24.3177 62.9907 24.3321 62.9907C24.5299 62.9978 24.7456 63.0068 24.9595 63.0068H47.3043C47.5182 63.0068 47.7321 62.9996 47.9155 62.9907L48.0197 62.9853C48.2247 62.9745 48.4134 62.9601 48.5914 62.9421L48.6417 62.9367C48.6651 62.9331 48.6903 62.9313 48.7136 62.9295C48.8988 62.9098 49.0911 62.8846 49.2799 62.8558L49.3482 62.8432C49.5244 62.8145 49.7005 62.7839 49.8749 62.7498L49.972 62.73C50.1518 62.6922 50.3315 62.6491 50.5095 62.606C50.5275 62.6006 50.5562 62.5934 50.585 62.5862L50.6407 62.5718C50.8115 62.5269 50.9841 62.4783 51.153 62.4262C51.198 62.4136 51.2357 62.401 51.2753 62.3866C51.4317 62.3381 51.5791 62.2878 51.7265 62.2356C51.766 62.2231 51.7984 62.2123 51.8326 62.1997C51.9962 62.1404 52.1507 62.0774 52.3053 62.0127C52.3647 61.9894 52.4186 61.966 52.4725 61.9444C52.6181 61.8815 52.7655 61.815 52.9112 61.7449L52.9507 61.7251C52.992 61.7053 53.0352 61.6838 53.0765 61.6622C53.1988 61.6011 53.3174 61.5417 53.4343 61.4788C53.5152 61.4375 53.5871 61.3961 53.6608 61.3566C53.7632 61.2991 53.8657 61.2397 53.9664 61.1804L53.9933 61.1642C54.0491 61.1319 54.1048 61.0977 54.1587 61.0654C54.2792 60.9899 54.3996 60.9126 54.5218 60.8335L54.556 60.8119C54.6153 60.7724 54.6728 60.7328 54.7304 60.6933C54.8185 60.6303 54.9065 60.5674 54.9964 60.5027L55.027 60.4811C55.1115 60.4182 55.196 60.3553 55.2787 60.2906C55.347 60.2385 55.4117 60.1881 55.4764 60.1378C55.5879 60.0497 55.6939 59.9616 55.7982 59.8717L55.8647 59.816C55.906 59.7818 55.9456 59.7477 55.9869 59.7117C56.066 59.6434 56.1361 59.5787 56.208 59.5122L56.2206 59.4996C56.2728 59.4493 56.3267 59.4007 56.377 59.3504C56.4885 59.2444 56.5945 59.1383 56.6988 59.0304C56.7437 58.9855 56.7851 58.9405 56.8246 58.8992C56.9415 58.7752 57.0547 58.6511 57.1644 58.5235L57.283 58.3869C57.3999 58.2485 57.5581 58.0561 57.7073 57.8602C57.7163 57.8476 57.7271 57.835 57.7396 57.8242C59.478 55.534 60.3948 52.8034 60.3948 49.9253C60.3948 49.7096 60.5691 49.5352 60.7849 49.5352C61.0006 49.5352 61.1749 49.7096 61.1749 49.9253V60.3283C61.1767 67.9719 54.9551 74.1918 47.3097 74.1918ZM11.8816 54.5345V60.3265C11.8816 67.5405 17.7509 73.4116 24.9667 73.4116H47.3115C54.5254 73.4116 60.3966 67.5423 60.3966 60.3265V54.5327C59.9202 55.8863 59.2281 57.1645 58.3347 58.3329C58.3257 58.3455 58.3149 58.3581 58.3041 58.3689C58.1531 58.5648 57.9985 58.7518 57.8781 58.8956L57.7558 59.0376C57.6408 59.1706 57.5203 59.3019 57.3981 59.4331C57.3567 59.478 57.3118 59.523 57.2687 59.5697C57.1518 59.6902 57.0386 59.8052 56.9199 59.9167C56.8678 59.967 56.812 60.0191 56.7563 60.0713L56.7419 60.0857C56.661 60.1612 56.5837 60.2331 56.5029 60.3014C56.4633 60.3373 56.4184 60.3751 56.3734 60.4128L56.3087 60.4686C56.1955 60.5656 56.0822 60.6591 55.9672 60.7508C55.9006 60.8047 55.8305 60.8586 55.7586 60.9126C55.6741 60.9791 55.5861 61.0438 55.4962 61.1103L55.462 61.1355C55.3667 61.2038 55.2751 61.2703 55.1834 61.335C55.1205 61.3782 55.0593 61.4195 54.9982 61.4609L54.9623 61.4842C54.8328 61.5705 54.7052 61.6514 54.574 61.7341C54.5147 61.7701 54.4571 61.8042 54.3996 61.8384L54.3708 61.8545C54.2612 61.9193 54.1533 61.9822 54.0473 62.0415C53.9682 62.0864 53.8891 62.1278 53.8064 62.1709C53.6877 62.2356 53.5619 62.2986 53.4361 62.3615C53.3929 62.3848 53.3426 62.4082 53.2958 62.4316L53.2527 62.4532C53.0963 62.5269 52.9417 62.597 52.7853 62.6653C52.7242 62.6904 52.6667 62.7156 52.6073 62.739C52.4653 62.7983 52.2928 62.8684 52.1094 62.9349C52.0734 62.9493 52.0303 62.9637 51.9872 62.9781C51.838 63.0302 51.6816 63.0841 51.5216 63.1345C51.4802 63.1489 51.4317 63.165 51.3849 63.1776C51.2106 63.2315 51.0308 63.2819 50.8492 63.3286L50.7144 63.3628C50.5185 63.4113 50.3315 63.4562 50.141 63.4958L50.0403 63.5156C49.8516 63.5533 49.6646 63.5875 49.4776 63.6162L49.4561 63.6198C49.4381 63.6234 49.4201 63.627 49.4003 63.6288C49.2026 63.6576 48.9995 63.6846 48.7963 63.7061L48.6723 63.7187C48.4853 63.7367 48.2858 63.7529 48.0665 63.7654L47.9586 63.7708C47.7663 63.7798 47.5416 63.787 47.3115 63.787H24.9667C24.7384 63.787 24.5119 63.778 24.3231 63.7708C24.3069 63.7708 24.2764 63.769 24.244 63.7672L24.2153 63.7654C23.9924 63.7529 23.7946 63.7385 23.6041 63.7187L23.4908 63.7061C23.3039 63.6863 23.0935 63.6612 22.876 63.627C22.8419 63.6216 22.8167 63.618 22.7915 63.6126C22.6082 63.5839 22.4248 63.5515 22.245 63.5138L22.1408 63.4922C21.9682 63.4562 21.7812 63.4131 21.5745 63.361C21.5314 63.352 21.4792 63.3376 21.4289 63.3232C21.2509 63.2765 21.073 63.2261 20.895 63.1722C20.8501 63.1596 20.8033 63.1435 20.7566 63.1273C20.602 63.0787 20.4474 63.0248 20.2892 62.9691L20.2335 62.9493C20.2101 62.9421 20.1885 62.9331 20.1652 62.9241C19.9944 62.863 19.8254 62.7929 19.6708 62.73L19.5 62.6599C19.3436 62.5934 19.1854 62.5233 19.029 62.446C18.9661 62.4172 18.9032 62.3866 18.8403 62.3525C18.718 62.2914 18.5922 62.2285 18.47 62.1619C18.3909 62.1188 18.31 62.0757 18.2309 62.0307C18.1248 61.9714 18.017 61.9103 17.9127 61.8474C17.8444 61.8078 17.7779 61.7665 17.7114 61.7269C17.5819 61.6478 17.4507 61.5633 17.3231 61.4788C17.2476 61.4285 17.1757 61.3782 17.1038 61.3296C17.0085 61.2649 16.915 61.1966 16.8215 61.1283C16.7227 61.0564 16.6202 60.9791 16.5213 60.9036C16.4728 60.8658 16.4242 60.8281 16.3739 60.7867L16.3146 60.74C16.1977 60.6447 16.0863 60.553 15.9748 60.4596L15.3636 59.9077C15.2468 59.7944 15.1335 59.6812 15.0239 59.5697L14.8873 59.4277C14.7614 59.2947 14.641 59.1635 14.5241 59.0268C14.4846 58.9819 14.4432 58.9352 14.4037 58.8884C14.2527 58.7122 14.0999 58.5217 13.9489 58.3258C13.0483 57.1645 12.358 55.8863 11.8816 54.5345Z" fill="black"/>
<path d="M50.4807 53.7472C41.1689 56.8535 31.1021 56.8535 21.7902 53.7472C20.1526 53.2007 19.0488 51.6691 19.0488 49.9434V38.0267C19.0488 35.6844 21.3444 34.0288 23.5681 34.7712C31.7259 37.491 40.5451 37.491 48.7029 34.7712C50.9248 34.0306 53.2222 35.6844 53.2222 38.0267V49.9434C53.2222 51.6691 52.1184 53.2007 50.4807 53.7472Z" fill="#4C1615"/>
<path d="M24.519 30.1907C27.419 30.1907 29.7699 27.8398 29.7699 24.9398C29.7699 22.0398 27.419 19.6888 24.519 19.6888C21.619 19.6888 19.2681 22.0398 19.2681 24.9398C19.2681 27.8398 21.619 30.1907 24.519 30.1907Z" fill="black"/>
<path d="M24.519 30.295C21.5655 30.295 19.1638 27.8915 19.1638 24.9398C19.1638 21.9881 21.5673 19.5846 24.519 19.5846C27.4708 19.5846 29.8742 21.9881 29.8742 24.9398C29.8742 27.8915 27.4708 30.295 24.519 30.295ZM24.519 19.7931C21.6823 19.7931 19.3741 22.1013 19.3741 24.938C19.3741 27.7747 21.6823 30.0829 24.519 30.0829C27.3557 30.0829 29.6639 27.7747 29.6639 24.938C29.6639 22.1013 27.3557 19.7931 24.519 19.7931Z" fill="#080808"/>
<path d="M47.7519 30.1907C50.6519 30.1907 53.0028 27.8398 53.0028 24.9398C53.0028 22.0398 50.6519 19.6888 47.7519 19.6888C44.8519 19.6888 42.501 22.0398 42.501 24.9398C42.501 27.8398 44.8519 30.1907 47.7519 30.1907Z" fill="black"/>
<path d="M47.7519 30.295C44.7984 30.295 42.3967 27.8915 42.3967 24.9398C42.3967 21.9881 44.8002 19.5846 47.7519 19.5846C50.7037 19.5846 53.1071 21.9881 53.1071 24.9398C53.1071 27.8915 50.7037 30.295 47.7519 30.295ZM47.7519 19.7931C44.9152 19.7931 42.6071 22.1013 42.6071 24.938C42.6071 27.7747 44.9152 30.0829 47.7519 30.0829C50.5886 30.0829 52.8968 27.7747 52.8968 24.938C52.8968 22.1013 50.5886 19.7931 47.7519 19.7931Z" fill="#080808"/>
<path d="M49.0984 25.7128C50.1458 25.7128 50.9949 24.8637 50.9949 23.8163C50.9949 22.7688 50.1458 21.9197 49.0984 21.9197C48.051 21.9197 47.2019 22.7688 47.2019 23.8163C47.2019 24.8637 48.051 25.7128 49.0984 25.7128Z" fill="white"/>
<path d="M25.8655 25.7128C26.9129 25.7128 27.762 24.8637 27.762 23.8163C27.762 22.7688 26.9129 21.9197 25.8655 21.9197C24.8181 21.9197 23.969 22.7688 23.969 23.8163C23.969 24.8637 24.8181 25.7128 25.8655 25.7128Z" fill="white"/>
<mask id="mask0_2140_7038" style="mask-type:luminance" maskUnits="userSpaceOnUse" x="19" y="34" width="35" height="23">
<path d="M50.4807 53.7472C41.1689 56.8535 31.1021 56.8535 21.7902 53.7472C20.1526 53.2007 19.0488 51.6691 19.0488 49.9434V38.0267C19.0488 35.6844 21.3444 34.0288 23.5681 34.7712C31.7259 37.491 40.5451 37.491 48.7029 34.7712C50.9248 34.0306 53.2222 35.6844 53.2222 38.0267V49.9434C53.2222 51.6691 52.1184 53.2007 50.4807 53.7472Z" fill="white"/>
</mask>
<g mask="url(#mask0_2140_7038)">
<path d="M46.5853 48.7928C46.5853 51.9711 41.9078 54.5471 36.1355 54.5471C30.3633 54.5471 25.6858 51.9711 25.6858 48.7928C25.6858 46.8765 27.3864 45.1778 30.0037 44.1333C30.9583 43.7522 32.0297 43.7828 32.9645 44.2106L35.3697 45.3144C35.8551 45.5373 36.4142 45.5373 36.8995 45.3144L39.3048 44.2106C40.2396 43.781 41.311 43.7522 42.2655 44.1333C44.8811 45.1795 46.5835 46.8765 46.5835 48.7928H46.5853Z" fill="#EB544D"/>
<path d="M36.1355 45.4798C36.3962 45.4798 36.6586 45.4241 36.9013 45.3126L39.3065 44.2088C40.2413 43.7792 41.3127 43.7504 42.2673 44.1315C44.8829 45.1778 46.5852 46.8748 46.5852 48.7911C46.5852 51.9693 41.9078 54.5453 36.1355 54.5453" fill="#BA2020"/>
<path d="M12.1567 33.795L20.6956 38.1561L24.5749 42.3788L28.4291 38.3179L32.2832 42.3788L36.1374 38.3179L39.9916 42.3788L43.8457 38.3179L47.6999 42.3788L51.554 38.1561L60.0947 33.795H12.1567Z" fill="#D3A339"/>
<path d="M47.7052 42.7851L43.8474 38.7188L39.9933 42.7815L36.1391 38.7188L32.285 42.7815L28.4308 38.7188L24.573 42.7851L20.5283 38.3809L11.0098 33.52H61.2433L51.7265 38.3809L47.7052 42.7869V42.7851ZM28.429 37.9171L32.2832 41.9798L36.1373 37.9171L39.9915 41.9798L43.8456 37.9171L47.6962 41.9744L51.385 37.9333L58.9459 34.0719H13.3054L20.8663 37.9333L24.5784 41.9744L28.429 37.9153V37.9171Z" fill="black"/>
<path d="M36.1357 54.824C30.2214 54.824 25.4109 52.1185 25.4109 48.7929C25.4109 46.8388 27.0899 44.9998 29.9014 43.8763C30.9189 43.47 32.0784 43.4988 33.0797 43.959L35.4849 45.0627C35.8984 45.2515 36.373 45.2515 36.7846 45.0627L39.1899 43.959C40.1912 43.4988 41.3506 43.47 42.3681 43.8763C45.1796 44.9998 46.8587 46.8388 46.8587 48.7929C46.8587 52.1185 42.0463 54.824 36.1357 54.824ZM31.3917 44.1441C30.9548 44.1441 30.518 44.225 30.1063 44.3904C27.5123 45.4277 25.9628 47.0743 25.9628 48.7947C25.9628 51.8147 30.527 54.2739 36.1357 54.2739C41.7443 54.2739 46.3086 51.8165 46.3086 48.7947C46.3086 47.0743 44.759 45.4277 42.165 44.3904C41.2859 44.0399 40.2864 44.065 39.4218 44.4623L37.0165 45.5661C36.4574 45.8231 35.8157 45.8231 35.2548 45.5661L32.8496 44.4623C32.3894 44.2502 31.8896 44.1441 31.3917 44.1441Z" fill="black"/>
<path d="M12.1567 56.2657L20.6956 51.9046L24.5749 47.6819L28.4291 51.7428L32.2832 47.6819L36.1374 51.7428L39.9916 47.6819L43.8457 51.7428L47.6999 47.6819L51.554 51.9046L60.0947 56.2657H12.1567Z" fill="#D3A339"/>
<path d="M61.2416 56.5426H11.0081L20.5266 51.6817L24.5713 47.2775L28.4291 51.3437L32.2832 47.2811L36.1374 51.3437L39.9916 47.2811L43.8457 51.3437L47.7035 47.2775L51.7248 51.6835L61.2416 56.5444V56.5426ZM13.3037 55.9907H58.9442L51.3833 52.1293L47.6945 48.0882L43.8439 52.1455L39.9898 48.0828L36.1356 52.1455L32.2815 48.0828L28.4273 52.1455L24.5767 48.0864L20.8646 52.1275L13.3037 55.9907Z" fill="black"/>
</g>
<path d="M36.1355 56.6C31.2171 56.6 26.3005 55.8198 21.6195 54.2577C19.7589 53.6375 18.5095 51.9027 18.5095 49.9433V38.0267C18.5095 36.7342 19.1099 35.5603 20.1598 34.8053C21.2078 34.0503 22.5129 33.8507 23.7389 34.2606C31.733 36.9265 40.5379 36.9265 48.5339 34.2606C49.7599 33.8525 51.065 34.0503 52.113 34.8053C53.161 35.5603 53.7632 36.736 53.7632 38.0267V49.9433C53.7632 51.9045 52.5139 53.6375 50.6533 54.2577C45.9722 55.818 41.0556 56.6 36.1373 56.6H36.1355ZM22.4733 35.1307C21.8783 35.1307 21.2941 35.3176 20.7907 35.6789C20.0267 36.229 19.5899 37.0847 19.5899 38.0267V49.9433C19.5899 51.4389 20.5427 52.762 21.961 53.2348C31.1021 56.2836 41.1707 56.2836 50.3117 53.2348C51.7301 52.762 52.6846 51.4389 52.6846 49.9433V38.0267C52.6846 37.0847 52.246 36.229 51.4838 35.6789C50.7198 35.1289 49.7707 34.9833 48.8772 35.2817C40.662 38.0213 31.6144 38.0213 23.4009 35.2817C23.0953 35.181 22.7843 35.1307 22.4769 35.1307H22.4733Z" fill="black"/>
<path d="M53.0748 75.3405C55.1834 75.3405 57.2345 76.0254 58.9207 77.291L59.0825 77.4114C59.327 78.3731 59.1868 79.3942 58.6637 80.2805C57.9698 81.4579 56.7384 82.1608 55.3722 82.1608H49.208C44.5485 82.1608 40.3798 79.441 38.4419 75.3405H53.0748Z" fill="#7C7C7C"/>
<path d="M53.3317 75.3459C55.0395 75.3908 56.7005 75.8852 58.153 76.7714L58.1656 76.7948C59.1579 78.5906 58.2177 80.728 56.4399 81.3536H51.9026C48.1797 81.3536 44.8792 79.5488 42.8245 76.7678H47.3078C49.474 76.7678 51.5197 76.2555 53.3317 75.3459Z" fill="#E1E1E1"/>
<path d="M47.3078 75.443C47.3078 75.443 47.3204 75.585 47.3456 75.8493C47.3564 75.9787 47.3708 76.1387 47.3869 76.3256C47.3977 76.3993 47.3959 76.4748 47.4193 76.5449C47.4373 76.5791 47.4822 76.5989 47.5253 76.5917C47.5685 76.5791 47.608 76.5629 47.6476 76.5485C47.6728 76.5396 47.6997 76.5288 47.7267 76.5198C47.7465 76.5108 47.804 76.4946 47.8417 76.482C47.9262 76.4551 48.0143 76.4263 48.106 76.3957C48.2876 76.3382 48.4817 76.2771 48.6848 76.2124C49.0911 76.0847 49.5405 75.9463 50.0241 75.8043C50.2668 75.7342 50.5166 75.6605 50.7737 75.585C51.0434 75.5095 51.3184 75.4322 51.6024 75.3513C51.8685 75.2812 52.1363 75.2111 52.4078 75.141C52.5498 75.1032 52.6415 75.1176 52.717 75.132C52.7871 75.1518 52.8356 75.1751 52.877 75.2003C52.8967 75.2129 52.9111 75.2201 52.9363 75.2434C52.9614 75.2668 52.9938 75.3028 53.019 75.3459C53.0729 75.4322 53.0891 75.5329 53.0909 75.5634C53.0945 75.5832 53.0927 75.6084 53.0909 75.6371V75.6767L53.0783 75.727C53.0621 75.7935 53.0351 75.8816 52.9291 75.9841C52.7385 76.1584 52.5426 76.3382 52.3413 76.5216C52.3017 76.5575 52.2604 76.5953 52.2208 76.6312L52.3071 76.5521L52.3628 76.5018L52.3898 76.4766H52.388C52.388 76.4766 52.3826 76.4784 52.3772 76.482C52.37 76.491 52.3664 76.4928 52.3718 76.4982C52.3736 76.4982 52.3772 76.5018 52.3844 76.5018H52.3952C52.3952 76.5018 52.3952 76.5018 52.4006 76.5018L52.4419 76.491L52.5228 76.4676C52.7385 76.4065 52.9489 76.3472 53.1574 76.2897C53.2617 76.2609 53.3641 76.2322 53.4648 76.2052C53.632 76.1567 53.7991 76.1081 53.9627 76.0614C54.1335 76.0128 54.3025 75.9643 54.4697 75.9158C54.5506 75.8924 54.6315 75.869 54.7106 75.8475C54.7897 75.8241 54.8688 75.8025 54.9191 75.8025C55.1258 75.8025 55.1977 75.8493 55.2858 75.8618L55.3487 75.8744C55.3703 75.8798 55.4062 75.9068 55.4332 75.9481C55.4602 75.9895 55.4782 76.0398 55.4799 76.0847C55.4817 76.1315 55.4674 76.1602 55.4494 76.1782C55.3775 76.2609 55.2984 76.3472 55.1887 76.4569C55.1312 76.5126 55.0737 76.5683 54.982 76.633C54.8885 76.6977 54.7861 76.7607 54.6944 76.82C54.5182 76.9314 54.351 77.0375 54.1928 77.1382C54.1209 77.1831 54.0526 77.2245 53.9861 77.2676C53.934 77.2982 53.8818 77.3287 53.8333 77.3593C53.6356 77.4743 53.4666 77.575 53.33 77.6559C53.0531 77.8159 52.9003 77.9022 52.9003 77.9022C52.9003 77.9022 53.0334 77.7871 53.276 77.5804C53.3983 77.4779 53.5493 77.3503 53.7236 77.2029C53.7668 77.1669 53.8135 77.1292 53.8603 77.0896C53.8926 77.0609 53.9268 77.0303 53.9609 76.9997C54.0149 76.9494 54.0724 76.8973 54.1317 76.8416C54.2342 76.7427 54.3115 76.6636 54.3528 76.6097C54.3672 76.6007 54.3546 76.5611 54.3079 76.5467C54.2611 76.5288 54.2036 76.5629 54.1587 76.5809C54.0796 76.6151 53.9987 76.651 53.9142 76.6888C53.8459 76.7193 53.7902 76.7463 53.7488 76.7696L53.7183 76.7858C53.7057 76.793 53.7183 76.7894 53.6499 76.8128C53.5511 76.8487 53.4504 76.8829 53.3497 76.9189C53.1466 76.989 52.9399 77.0627 52.7277 77.1364C52.3502 77.2604 51.9655 77.3862 51.5755 77.5157C51.3382 77.575 51.2321 77.5157 51.1584 77.4851C51.1135 77.4635 51.0991 77.4528 51.0595 77.4222C51.0164 77.3862 50.9517 77.3018 50.9247 77.2263C50.8941 77.1418 50.8977 77.1184 50.8923 77.0824C50.8888 77.0663 50.8923 77.0393 50.8923 77.0195V76.9854L50.9013 76.9422L50.9103 76.8991L50.9301 76.847C50.9391 76.8146 50.9696 76.7714 50.9948 76.7319L51.0577 76.6636L51.162 76.5683L51.3723 76.376C51.5251 76.2375 51.6761 76.0991 51.8253 75.9643L51.8559 75.9373C51.8559 75.9373 51.8846 75.9122 51.8667 75.9283L51.8127 75.9787C51.7768 76.011 51.7426 76.0434 51.7085 76.0758C51.7103 76.0758 51.7372 76.0632 51.7354 76.0524C51.7354 76.047 51.7265 76.0416 51.6995 76.0398C51.4334 76.0955 51.1746 76.1513 50.9229 76.2034C50.6604 76.2573 50.4052 76.3094 50.1571 76.3598C49.6628 76.4587 49.2026 76.5449 48.7819 76.6222C48.3433 76.7013 47.946 76.7714 47.6026 76.8326C47.5218 76.8451 47.4534 76.8487 47.3923 76.8416C47.3276 76.8326 47.2647 76.784 47.2377 76.7229C47.1982 76.6061 47.218 76.4694 47.2233 76.3526C47.2395 76.1567 47.2539 75.9895 47.2647 75.8528C47.2899 75.5886 47.3024 75.4466 47.3024 75.4466L47.3078 75.443Z" fill="black"/>
<path d="M29.4481 76.7661H24.963C21.5241 76.7661 18.3872 75.4754 16.0053 73.3541L14.1052 76.793C13.1129 78.5889 14.0531 80.7263 15.8309 81.3519H20.3682C24.0912 81.3519 27.3916 79.547 29.4481 76.7661Z" fill="#735B4D"/>
<path d="M55.3704 82.1608H49.2063C43.8223 82.1608 39.0909 78.5314 37.7031 73.3326L37.491 72.5416H47.3097C49.8984 72.5416 52.3935 71.774 54.5255 70.3233L55.0954 69.935L58.7158 76.4892C59.3774 77.6865 59.3576 79.103 58.6619 80.2805C57.968 81.4579 56.7366 82.1608 55.3704 82.1608ZM39.1628 73.7999C40.6512 78.0208 44.669 80.9025 49.2063 80.9025H55.3704C56.2872 80.9025 57.1123 80.4315 57.5797 79.6405C58.0453 78.8513 58.0597 77.9004 57.6157 77.0968L54.6531 71.7362C52.4438 73.0881 49.9199 73.7981 47.3079 73.7981L39.1628 73.7999Z" fill="black"/>
<path d="M21.8623 27.9239C22.3021 27.9239 22.6586 27.5674 22.6586 27.1275C22.6586 26.6877 22.3021 26.3312 21.8623 26.3312C21.4225 26.3312 21.0659 26.6877 21.0659 27.1275C21.0659 27.5674 21.4225 27.9239 21.8623 27.9239Z" fill="white"/>
<path d="M19.1964 75.3405C17.0877 75.3405 15.0366 76.0254 13.3504 77.291L13.1886 77.4114C12.9441 78.3731 13.0843 79.3942 13.6075 80.2805C14.3014 81.4579 15.5327 82.1608 16.899 82.1608H23.0631C27.7226 82.1608 31.8914 79.441 33.8292 75.3405H19.1946H19.1964Z" fill="#7C7C7C"/>
<path d="M18.9393 75.3459C17.2316 75.3908 15.5705 75.8852 14.118 76.7714L14.1054 76.7948C13.1131 78.5906 14.0533 80.728 15.8312 81.3536H20.3685C24.0914 81.3536 27.3919 79.5488 29.4466 76.7678H24.9633C22.7971 76.7678 20.7514 76.2555 18.9393 75.3459Z" fill="#E1E1E1"/>
<path d="M24.9633 75.443C24.9633 75.443 24.9776 75.585 25.0028 75.8511C25.0136 75.9877 25.028 76.1549 25.0442 76.3508C25.0495 76.4676 25.0693 76.6043 25.0298 76.7211C25.0028 76.7804 24.9399 76.829 24.8752 76.838C24.8141 76.8434 24.7439 76.8416 24.6648 76.829C24.2891 76.7607 23.8541 76.6834 23.3687 76.5953C22.9032 76.509 22.3908 76.4119 21.8425 76.3005C21.5675 76.2429 21.2835 76.1854 20.9922 76.1243C20.8538 76.0955 20.7136 76.065 20.5698 76.0344C20.5554 76.0344 20.5446 76.0362 20.5392 76.0398C20.5338 76.0416 20.5321 76.0452 20.5321 76.0488C20.5321 76.0524 20.541 76.0632 20.5482 76.065C20.7298 76.225 20.0215 75.5778 20.8934 76.3706L21.1055 76.5629L21.2116 76.6582L21.2745 76.7265C21.2996 76.7661 21.3302 76.8092 21.3392 76.8416C21.3464 76.8595 21.3536 76.8775 21.359 76.8937L21.368 76.9368L21.3769 76.98V77.0141C21.3769 77.0357 21.3805 77.0609 21.3769 77.077C21.3716 77.113 21.3751 77.1364 21.3446 77.2209C21.3176 77.2982 21.2529 77.3808 21.208 77.4168C21.1684 77.4474 21.154 77.4581 21.1091 77.4797C21.0354 77.5121 20.9293 77.5714 20.692 77.5103C20.3127 77.3862 19.9388 77.2622 19.5721 77.1418C19.3708 77.0717 19.173 77.0033 18.9807 76.935C18.8836 76.9009 18.7883 76.8667 18.6931 76.8326L18.5654 76.7858L18.5403 76.7714C18.5025 76.7517 18.4558 76.7283 18.3964 76.6995C18.3227 76.6672 18.2508 76.6348 18.1825 76.6043C18.1376 76.5845 18.0926 76.5665 18.0495 76.5467C18.0028 76.5234 17.9452 76.536 17.9237 76.5611C17.8985 76.5899 17.9165 76.6025 17.9255 76.6151L17.9632 76.66C17.992 76.6924 18.0279 76.7301 18.0711 76.7714C18.1304 76.8272 18.1861 76.8811 18.24 76.9296C18.2742 76.9602 18.3066 76.989 18.3371 77.0177L18.3893 77.0627C18.4144 77.0824 18.4378 77.104 18.4612 77.122C18.6553 77.2856 18.8207 77.424 18.9573 77.539C19.2252 77.7691 19.3726 77.895 19.3726 77.895C19.3726 77.895 19.2054 77.7979 18.8998 77.6217C18.747 77.5319 18.56 77.4204 18.3425 77.2928C18.2796 77.2532 18.2131 77.2137 18.1448 77.1723C18.0657 77.122 17.9848 77.0717 17.9003 77.0177C17.7187 76.9009 17.5246 76.7768 17.3232 76.6474C17.1525 76.5288 17.0626 76.4263 16.9745 76.3364C16.9367 76.2951 16.899 76.2537 16.8595 76.2106C16.8433 76.1908 16.8235 76.1728 16.8091 76.1513C16.7947 76.1297 16.7893 76.0865 16.8001 76.0416C16.8145 75.9499 16.9008 75.8636 16.9368 75.8672C16.9799 75.86 17.0105 75.8528 17.059 75.8421L17.1291 75.8241L17.2172 75.8061C17.2891 75.7989 17.3664 75.7845 17.5246 75.8313C17.8338 75.9194 18.152 76.011 18.4755 76.1045C18.6122 76.1441 18.7506 76.1836 18.889 76.2232C18.9861 76.2501 19.0831 76.2771 19.182 76.3041C19.3798 76.3598 19.5811 76.4155 19.786 76.473L19.8633 76.4946C19.8813 76.5 19.8795 76.4982 19.8795 76.4982H19.8831H19.8939C19.8993 76.4982 19.9029 76.4964 19.9047 76.4946C19.9101 76.4892 19.9065 76.4874 19.8993 76.4784C19.8957 76.4748 19.8903 76.473 19.8885 76.473H19.8867L19.9137 76.4982L19.9694 76.5485L20.0377 76.6097L20.0539 76.6258C20.0539 76.6258 20.0431 76.6151 20.0377 76.6115L19.991 76.5683C19.8777 76.4658 19.7663 76.3634 19.6548 76.2609L19.3869 76.0164C19.2989 75.9373 19.2773 75.9014 19.2449 75.8475C19.2234 75.8025 19.2036 75.7558 19.1982 75.7216C19.1874 75.6821 19.1856 75.6515 19.1856 75.6245C19.1856 75.558 19.1802 75.5454 19.2108 75.4376C19.2395 75.3405 19.3294 75.2398 19.3672 75.2165C19.4049 75.1913 19.4499 75.1625 19.52 75.141C19.5847 75.1176 19.6818 75.0978 19.822 75.1266C20.1168 75.2039 20.408 75.2794 20.6938 75.3531C20.8484 75.3962 21.0012 75.4394 21.1522 75.4807C21.4381 75.5634 21.7167 75.6443 21.9863 75.7216C22.5238 75.8798 23.0236 76.0308 23.4748 76.1728C23.6995 76.2447 23.9134 76.3112 24.1148 76.376C24.2154 76.4083 24.3125 76.4389 24.406 76.4694C24.4509 76.4838 24.4941 76.4982 24.5372 76.5126C24.566 76.5234 24.5947 76.5342 24.6235 76.5449C24.663 76.5593 24.7044 76.5755 24.7457 76.5881C24.7889 76.5971 24.832 76.5755 24.8518 76.5431C24.8752 76.4748 24.8734 76.3993 24.8842 76.3256C24.9003 76.1387 24.9147 75.9805 24.9255 75.8511C24.9507 75.5868 24.9651 75.443 24.9633 75.443Z" fill="black"/>
<path d="M45.0949 27.9239C45.5348 27.9239 45.8913 27.5674 45.8913 27.1275C45.8913 26.6877 45.5348 26.3312 45.0949 26.3312C44.6551 26.3312 44.2986 26.6877 44.2986 27.1275C44.2986 27.5674 44.6551 27.9239 45.0949 27.9239Z" fill="white"/>
<path d="M23.0665 82.1608H16.9023C15.5361 82.1608 14.3047 81.4579 13.6108 80.2805C12.9169 79.103 12.8954 77.6865 13.5569 76.4892L17.1774 69.935L17.749 70.3233C19.881 71.774 22.3762 72.5416 24.9648 72.5416H34.7836L34.5714 73.3326C33.1819 78.5296 28.4522 82.1608 23.0665 82.1608ZM17.6196 71.738L14.6589 77.0986C14.2149 77.9004 14.2292 78.8513 14.6948 79.6423C15.1604 80.4315 15.9855 80.9043 16.9041 80.9043H23.0683C27.6055 80.9043 31.6233 78.0226 33.1117 73.8017H24.9648C22.3546 73.8017 19.8289 73.0917 17.6196 71.738Z" fill="black"/>
<path d="M23.534 18.5743C23.534 18.5743 23.4172 18.5977 23.2176 18.63C23.1188 18.6462 22.9983 18.6588 22.8635 18.6984C22.7952 18.7145 22.7233 18.7325 22.6496 18.7505C22.6118 18.7595 22.5741 18.7685 22.5345 18.7757C22.495 18.7882 22.4554 18.8026 22.4159 18.8152C22.2559 18.8709 22.0833 18.9159 21.9072 18.9986C21.8191 19.0381 21.7274 19.0651 21.6375 19.1118C21.5476 19.1586 21.4577 19.2053 21.3643 19.2502C20.9993 19.4498 20.629 19.6907 20.2695 19.9837C19.9136 20.2803 19.608 20.6003 19.3437 20.9203C19.2808 21.0029 19.2179 21.082 19.155 21.1611C19.0956 21.242 19.0471 21.3247 18.9932 21.4038C18.8781 21.5584 18.8044 21.722 18.7163 21.8676C18.5653 22.166 18.4431 22.4303 18.382 22.619C18.3136 22.8006 18.2687 22.9192 18.2687 22.9192C18.2687 22.9192 18.2579 22.8923 18.2453 22.8401C18.231 22.788 18.2112 22.7107 18.1878 22.6064C18.1321 22.4015 18.0979 22.0977 18.1105 21.7094C18.1285 21.5189 18.1357 21.3014 18.2004 21.0802C18.2292 20.9688 18.2543 20.8501 18.2939 20.7333C18.337 20.6182 18.3856 20.4996 18.4359 20.3774C18.6552 19.901 18.9986 19.4102 19.4731 19.0165C19.9513 18.6265 20.4978 18.382 21.0065 18.2561C21.136 18.2292 21.2618 18.2058 21.3822 18.1842C21.5045 18.1645 21.6267 18.1645 21.74 18.1573C21.9701 18.1393 22.184 18.168 22.3745 18.1896C22.4213 18.195 22.468 18.2004 22.513 18.2076C22.5561 18.2184 22.601 18.2292 22.6442 18.24C22.7251 18.2615 22.8042 18.2813 22.8797 18.3029C23.0253 18.337 23.1439 18.3928 23.241 18.4359C23.4334 18.5222 23.5322 18.5761 23.5322 18.5761L23.534 18.5743Z" fill="black"/>
<path d="M48.7372 18.5743C48.7372 18.5743 48.836 18.5204 49.0284 18.4341C49.1254 18.391 49.2441 18.3353 49.3897 18.3011C49.4652 18.2813 49.5443 18.2598 49.6252 18.2382C49.6683 18.2274 49.7115 18.2166 49.7564 18.2058C49.8032 18.2004 49.8481 18.195 49.8948 18.1879C50.0854 18.1663 50.3011 18.1375 50.5294 18.1555C50.6445 18.1627 50.7667 18.1609 50.8871 18.1825C51.0094 18.204 51.1352 18.2274 51.2628 18.2544C51.7716 18.3802 52.3181 18.6247 52.7962 19.0148C53.2708 19.4085 53.6124 19.901 53.8335 20.3756C53.8856 20.4978 53.9324 20.6165 53.9755 20.7315C54.015 20.8484 54.0402 20.967 54.069 21.0785C54.1319 21.2996 54.1409 21.5171 54.1589 21.7077C54.1714 22.0941 54.1373 22.3997 54.0816 22.6047C54.0582 22.7071 54.0384 22.7844 54.024 22.8384C54.0097 22.8905 54.0007 22.9175 54.0007 22.9175C54.0007 22.9175 53.9557 22.7988 53.8874 22.6173C53.8263 22.4267 53.7041 22.1643 53.5531 21.8658C53.465 21.7202 53.3931 21.5566 53.2762 21.4021C53.2223 21.323 53.1737 21.2403 53.1144 21.1594C53.0515 21.0803 52.9886 21.0012 52.9257 20.9185C52.6614 20.5985 52.3558 20.2785 51.9999 19.9819C51.6404 19.6907 51.27 19.4498 50.9051 19.2485C50.8116 19.2035 50.7218 19.1568 50.6319 19.11C50.542 19.0633 50.4503 19.0363 50.3622 18.9968C50.1879 18.9141 50.0153 18.8692 49.8535 18.8134C49.8139 18.7991 49.7744 18.7865 49.7348 18.7739C49.6971 18.7649 49.6575 18.7559 49.6198 18.7487C49.5461 18.7307 49.4742 18.7146 49.4059 18.6966C49.2693 18.657 49.1506 18.6427 49.0517 18.6283C48.8522 18.5959 48.7354 18.5725 48.7354 18.5725L48.7372 18.5743Z" fill="black"/>
<path d="M36.1356 67.8929C39.7147 67.8929 42.6161 65.8808 42.6161 63.3987C42.6161 60.9167 39.7147 58.9046 36.1356 58.9046C32.5565 58.9046 29.655 60.9167 29.655 63.3987C29.655 65.8808 32.5565 67.8929 36.1356 67.8929Z" fill="#735B4D"/>
<path d="M28.3157 67.4848C28.1935 67.4848 28.073 67.4272 27.9957 67.3194C27.158 66.1365 26.7158 64.7811 26.7158 63.3987C26.7158 63.183 26.8902 63.0086 27.1059 63.0086C27.3216 63.0086 27.496 63.183 27.496 63.3987C27.496 64.6175 27.8897 65.8165 28.6321 66.8664C28.7562 67.0425 28.7148 67.287 28.5386 67.411C28.4721 67.4614 28.3948 67.4848 28.3157 67.4848Z" fill="black"/>
<path d="M36.1355 71.1771C33.5002 71.1771 30.9655 70.2567 29.184 68.6514C29.024 68.5076 29.0114 68.2595 29.1552 68.0996C29.2991 67.9396 29.5471 67.927 29.7071 68.0708C31.3466 69.5485 33.6889 70.3951 36.1337 70.3951C40.8957 70.3951 44.7714 67.2565 44.7714 63.3987C44.7714 63.183 44.9458 63.0086 45.1615 63.0086C45.3772 63.0086 45.5516 63.183 45.5516 63.3987C45.5534 67.6879 41.3289 71.1771 36.1355 71.1771Z" fill="black"/>
<path d="M36.1355 34.5015C36.1355 34.5015 36.5436 34.4925 37.322 34.4763C38.1004 34.4547 39.2491 34.4583 40.7213 34.3738C42.1936 34.2893 43.9931 34.1204 46.055 33.7662C47.085 33.5883 48.1816 33.369 49.3321 33.0849C49.4759 33.049 49.6197 33.013 49.7653 32.9771C49.9199 32.9447 50.0745 32.9124 50.2291 32.8782C50.3873 32.8512 50.5473 32.8369 50.7091 32.8171C50.8709 32.8045 51.0345 32.8045 51.1999 32.7991C51.8596 32.8009 52.5373 32.9321 53.1845 33.1946C53.828 33.4606 54.4518 33.8543 54.9515 34.4044C55.072 34.5464 55.1996 34.683 55.3021 34.843C55.3542 34.9203 55.4117 34.9958 55.4621 35.0785L55.6005 35.3284C55.649 35.4111 55.6886 35.4974 55.7245 35.5873L55.836 35.8551C55.8953 36.0169 55.9636 36.2056 56.0104 36.398C56.0589 36.5885 56.0931 36.7845 56.1128 36.9822C56.1218 37.0811 56.129 37.1818 56.1308 37.2824L56.1344 37.5629C56.138 37.9314 56.1434 38.3017 56.147 38.6774C56.156 39.427 56.1632 40.191 56.1721 40.9676C56.2009 44.0758 56.2315 47.396 56.2638 50.8889C56.2638 51.0003 56.2674 51.1028 56.2638 51.2214C56.2584 51.3455 56.2566 51.4695 56.2459 51.5935C56.2297 51.7176 56.2171 51.8416 56.1937 51.9638C56.165 52.0861 56.1416 52.2083 56.1092 52.3288C55.9744 52.8105 55.7497 53.2689 55.4585 53.677C54.8742 54.4967 54.0258 55.1151 53.0802 55.4603C52.9615 55.5034 52.8411 55.5394 52.7207 55.5789C52.6002 55.6167 52.4978 55.6436 52.3845 55.676C52.1634 55.7389 51.9423 55.8018 51.7194 55.863C51.2754 55.9888 50.8277 56.1146 50.3783 56.2405C49.4795 56.4921 48.5735 56.7474 47.6585 57.0045C45.8267 57.5168 43.9643 58.0363 42.0732 58.5648C41.1276 58.8273 40.1749 59.0915 39.2149 59.3594C38.7349 59.4924 38.2532 59.6254 37.7714 59.7585C37.6564 59.789 37.5107 59.8304 37.3777 59.8591C37.2411 59.8897 37.1045 59.9149 36.9661 59.9346C36.691 59.9742 36.4106 59.9957 36.1319 59.9957C35.8533 59.9957 35.5729 59.976 35.2978 59.9346C35.1594 59.9149 35.0228 59.8897 34.8862 59.8591C34.7532 59.8322 34.6075 59.7908 34.4925 59.7585C34.0089 59.6254 33.529 59.4906 33.049 59.3594C32.089 59.0933 31.1363 58.8291 30.1907 58.5648C28.2996 58.0363 26.4354 57.515 24.6054 57.0045C23.6904 56.7474 22.7826 56.4921 21.8856 56.2405C21.4362 56.1146 20.9903 55.9888 20.5445 55.863C20.3216 55.8 20.1005 55.7371 19.8794 55.676C19.7661 55.6436 19.6637 55.6167 19.5432 55.5789C19.4228 55.5394 19.3024 55.5034 19.1837 55.4603C18.2363 55.1133 17.3879 54.4949 16.8054 53.6752C16.5142 53.2671 16.2913 52.8087 16.1547 52.327C16.1205 52.2065 16.0971 52.0825 16.0702 51.962C16.0486 51.8398 16.036 51.714 16.018 51.5917C16.0073 51.4677 16.0055 51.3437 16.0001 51.2196C15.9983 51.101 16.0001 50.9985 16.0001 50.8871C16.0324 47.3924 16.063 44.0722 16.0917 40.9658C16.1007 40.1892 16.1097 39.4252 16.1169 38.6756C16.1205 38.2999 16.1259 37.9296 16.1295 37.5611L16.1331 37.2806C16.1349 37.18 16.1421 37.0811 16.1511 36.9804C16.1708 36.7827 16.205 36.5867 16.2535 36.3962C16.3003 36.2056 16.3686 36.0169 16.4279 35.8533L16.5394 35.5855C16.5753 35.4956 16.6149 35.4075 16.6634 35.3266L16.8018 35.0767C16.8504 34.9958 16.9079 34.9203 16.9618 34.8412C17.0643 34.6812 17.1919 34.5446 17.3124 34.4026C17.8121 33.8507 18.4359 33.457 19.0794 33.1928C19.7266 32.9303 20.4043 32.7991 21.064 32.7973C21.2294 32.8045 21.393 32.8027 21.5548 32.8153C21.7166 32.8351 21.8766 32.8494 22.0348 32.8764C22.1912 32.9088 22.3458 32.9429 22.4986 32.9753C22.6442 33.0112 22.7898 33.0472 22.9318 33.0831C24.0823 33.3672 25.1789 33.5865 26.2089 33.7644C28.2708 34.1186 30.0703 34.2858 31.5426 34.372C33.0148 34.4565 34.1635 34.4511 34.9419 34.4745C35.7203 34.4907 36.1284 34.4997 36.1284 34.4997C36.1284 34.4997 35.7203 34.5087 34.9419 34.5248C34.1635 34.5338 33.0166 34.5842 31.5354 34.5518C30.0559 34.5195 28.2421 34.4134 26.1532 34.124C25.1088 33.9784 23.996 33.7914 22.8275 33.5379C22.6819 33.5056 22.5345 33.4732 22.3853 33.4427C22.2433 33.4175 22.0995 33.3905 21.9557 33.3636C21.8119 33.342 21.6645 33.3366 21.5171 33.3204C21.3696 33.3132 21.2204 33.3186 21.0712 33.3168C20.4744 33.3348 19.8668 33.4714 19.297 33.7213C18.7307 33.973 18.1896 34.3361 17.7725 34.8215C17.6737 34.9473 17.564 35.0659 17.4813 35.2044C17.4382 35.2727 17.3897 35.3374 17.3501 35.4075L17.2386 35.6232C17.1973 35.6933 17.1667 35.7688 17.1398 35.8443L17.0517 36.0708C16.9924 36.2452 16.942 36.3962 16.9079 36.5562C16.8719 36.7162 16.8468 36.878 16.8342 37.0434C16.8288 37.126 16.8252 37.2087 16.8252 37.2914L16.8288 37.5629C16.8324 37.9314 16.8378 38.3017 16.8414 38.6774C16.8504 39.427 16.8575 40.191 16.8665 40.9676C16.8953 44.0758 16.9259 47.396 16.9582 50.8889C16.9582 50.9967 16.9582 51.1118 16.9618 51.2124C16.969 51.3077 16.9708 51.403 16.9798 51.4965C16.996 51.5899 17.005 51.6852 17.0229 51.7787C17.0463 51.8704 17.0661 51.9656 17.093 52.0573C17.2027 52.4258 17.3789 52.7764 17.6108 53.0928C18.0746 53.7273 18.7577 54.2163 19.5307 54.4895C19.6277 54.5237 19.7266 54.5507 19.8255 54.5812C19.9243 54.6118 20.043 54.6405 20.1508 54.6711C20.372 54.7304 20.5949 54.7915 20.8178 54.8509C21.2636 54.9713 21.7112 55.0918 22.1624 55.214C23.063 55.4585 23.9726 55.7048 24.8894 55.9528C26.723 56.4526 28.5908 56.9613 30.4855 57.479C31.4329 57.7379 32.3856 58.0004 33.3456 58.2628C33.8256 58.394 34.3073 58.5271 34.7909 58.6601C34.9185 58.6943 35.0138 58.7212 35.1271 58.7446C35.2367 58.7698 35.3464 58.7877 35.456 58.8039C35.6771 58.8363 35.9018 58.8524 36.1266 58.8524C36.3513 58.8524 36.576 58.8363 36.7971 58.8039C36.9085 58.7877 37.0182 58.768 37.126 58.7446C37.2393 58.7212 37.3346 58.6943 37.4622 58.6601C37.9458 58.5271 38.4275 58.394 38.9075 58.2628C39.8675 58.0004 40.822 57.7379 41.7676 57.479C43.6623 56.9631 45.5283 56.4544 47.3637 55.9528C48.2805 55.7048 49.1901 55.4567 50.0907 55.214C50.5419 55.0918 50.9895 54.9713 51.4353 54.8509C51.6582 54.7915 51.8812 54.7304 52.1023 54.6711C52.2101 54.6405 52.3306 54.6118 52.4276 54.5812C52.5247 54.5507 52.6254 54.5219 52.7225 54.4895C53.4954 54.2181 54.1786 53.7273 54.6423 53.0928C54.8742 52.7764 55.0522 52.4258 55.1601 52.0573C55.187 51.9656 55.205 51.8722 55.2302 51.7787C55.2482 51.6852 55.2589 51.5899 55.2733 51.4965C55.2823 51.4012 55.2841 51.3059 55.2913 51.2124C55.2949 51.1118 55.2931 50.9967 55.2949 50.8889C55.3273 47.3942 55.3578 44.074 55.3866 40.9676C55.3956 40.191 55.4046 39.427 55.4117 38.6774C55.4153 38.3017 55.4207 37.9314 55.4243 37.5629L55.4279 37.2914C55.4279 37.2087 55.4243 37.126 55.4189 37.0434C55.4064 36.8798 55.3812 36.7162 55.3452 36.5562C55.3093 36.3962 55.2589 36.2452 55.2014 36.0708L55.1133 35.8443C55.0864 35.767 55.054 35.6933 55.0145 35.6232L54.903 35.4075C54.8635 35.3374 54.8149 35.2727 54.7718 35.2044C54.6891 35.0659 54.5812 34.9473 54.4806 34.8215C54.0635 34.3343 53.5224 33.973 52.9562 33.7195C52.3863 33.4696 51.7787 33.333 51.1819 33.315C51.0327 33.3168 50.8835 33.3114 50.7361 33.3186C50.5886 33.333 50.443 33.3402 50.2974 33.3618C50.1536 33.3887 50.0098 33.4139 49.8678 33.4409C49.7204 33.4732 49.573 33.5056 49.4256 33.5361C48.2553 33.7896 47.1426 33.9766 46.0999 34.1222C44.011 34.4116 42.199 34.5195 40.7178 34.55C39.2365 34.5806 38.0896 34.532 37.3112 34.523C36.5328 34.5069 36.1248 34.4979 36.1248 34.4979L36.1355 34.5015Z" fill="black"/>
<path d="M48.4044 17.0607L67.8065 21.1521C68.9282 21.3894 69.6455 22.4896 69.4082 23.6095C69.1709 24.7313 68.0707 25.4485 66.9508 25.2112L47.547 21.1216C46.4252 20.8843 45.708 19.7841 45.9453 18.6642C46.1826 17.5424 47.2827 16.8252 48.4044 17.0607Z" fill="#7C7C7C"/>
<path d="M67.3822 25.6517C67.2114 25.6517 67.0388 25.6337 66.8681 25.5977L47.466 21.5063C46.8207 21.3697 46.267 20.9903 45.9075 20.4385C45.5479 19.8866 45.4239 19.2269 45.5605 18.5815C45.8409 17.2494 47.1514 16.3956 48.4853 16.676L67.8855 20.7674C68.5309 20.9041 69.0846 21.2834 69.4441 21.8352C69.8036 22.3871 69.9277 23.0469 69.791 23.6922C69.6544 24.3376 69.2751 24.8912 68.7232 25.2508C68.3188 25.515 67.855 25.6517 67.3822 25.6517ZM47.9748 17.4094C47.1964 17.4094 46.4971 17.9523 46.3299 18.7433C46.2364 19.1819 46.3209 19.6313 46.5672 20.007C46.8135 20.3827 47.1892 20.6416 47.6278 20.7333L67.0299 24.8247C67.4685 24.9182 67.9179 24.8337 68.2936 24.5892C68.6693 24.3448 68.9282 23.9673 69.0198 23.5286C69.1115 23.09 69.0288 22.6406 68.7826 22.2649C68.5363 21.8892 68.1606 21.6303 67.7219 21.5386L48.3217 17.4472C48.2067 17.422 48.0898 17.4094 47.9748 17.4094Z" fill="black"/>
<path d="M59.1741 23.5035L20.7511 15.4662C19.3831 15.1804 18.7216 13.469 19.4353 12.0668L20.9165 9.16005C24.0318 3.04983 30.2194 -0.266829 36.1804 0.98074L50.842 4.04753C56.803 5.2951 61.1425 10.8139 61.5488 17.6593L61.7412 20.9167C61.8346 22.4878 60.5421 23.7911 59.1741 23.5035Z" fill="#E1E1E1"/>
<path d="M39.0981 11.977L43.7774 12.9639C47.6423 13.7782 50.1159 17.5784 49.3015 21.4416L30.6204 17.5011C31.4329 13.6362 35.2331 11.1608 39.0981 11.977Z" fill="#5A3F34"/>
<path d="M49.6036 21.9072L30.1531 17.8031L30.234 17.4184C31.0932 13.3468 35.1056 10.7312 39.1773 11.5905H39.1791L43.8584 12.5774C45.8304 12.9926 47.522 14.1539 48.6239 15.8437C49.7241 17.5335 50.1016 19.5505 49.6863 21.5207L49.6036 21.9072ZM31.0968 17.1991L48.9871 20.9724C49.2369 19.3329 48.8792 17.6773 47.9642 16.2751C46.9773 14.7615 45.4619 13.7225 43.6966 13.3504L39.0173 12.3635C35.4939 11.6192 32.028 13.7728 31.0968 17.1991Z" fill="black"/>
<path d="M34.7729 14.722L49.1073 17.7402C49.483 18.8961 49.5729 20.1617 49.3033 21.438L34.0322 18.2238L34.7747 14.7238L34.7729 14.722Z" fill="#7C7C7C"/>
<path d="M49.6072 21.9036L33.5649 18.5276L34.3469 14.8442L33.6153 14.0766L34.8539 14.3355L49.4112 17.4005L49.4813 17.618C49.8894 18.8763 49.9613 20.2246 49.6881 21.5189L49.6072 21.9036ZM34.4997 17.92L48.9888 20.9688C49.1344 20.0035 49.0697 19.0147 48.8 18.0764L35.0786 15.1875L34.4997 17.92Z" fill="black"/>
<path d="M42.4112 16.3309C43.3891 16.5358 44.0129 17.4976 43.8062 18.4773C43.6282 19.3186 42.8948 19.8974 42.0733 19.9154L30.6636 17.5137C30.9332 16.2374 31.5282 15.1157 32.3426 14.2097L42.4112 16.3309Z" fill="#E1E1E1"/>
<path d="M42.0373 20.3091L41.9924 20.3001L30.198 17.8175L30.2789 17.4328C30.5521 16.1367 31.1651 14.9323 32.0496 13.9472L32.2006 13.7782L43.1842 16.09L43.1051 16.1727C43.4143 16.3434 43.6804 16.5897 43.8799 16.8953C44.2017 17.3897 44.3131 17.9811 44.1909 18.5581C43.977 19.5666 43.1105 20.2857 42.0805 20.3091H42.0373ZM31.1418 17.2117L42.1074 19.5199C42.751 19.4875 43.2867 19.0291 43.4215 18.3964C43.5006 18.0242 43.4287 17.6431 43.222 17.3268C43.0152 17.0104 42.6989 16.7947 42.3321 16.7174L41.64 16.5717L41.6418 16.5699L32.4882 14.6429C31.859 15.3907 31.3988 16.2697 31.1418 17.2117Z" fill="black"/>
<path d="M41.2103 18.0387C41.3451 17.7521 41.2227 17.4109 40.937 17.2765C40.6513 17.1422 40.3104 17.2656 40.1756 17.5523C40.0409 17.8389 40.1633 18.1801 40.449 18.3145C40.7347 18.4488 41.0756 18.3254 41.2103 18.0387Z" fill="black"/>
<path d="M40.6874 18.5258C40.5831 18.5258 40.4789 18.5042 40.38 18.4575C40.2038 18.3748 40.0708 18.2274 40.0043 18.044C39.9378 17.8607 39.9486 17.6629 40.0313 17.485C40.114 17.3088 40.2614 17.174 40.4447 17.1075C40.6281 17.0409 40.8258 17.0499 41.002 17.1326C41.3651 17.3034 41.5215 17.7402 41.3507 18.1034C41.2267 18.3712 40.9625 18.5258 40.6874 18.5258ZM40.6928 17.3807C40.6461 17.3807 40.5975 17.3897 40.5508 17.4059C40.4465 17.4436 40.362 17.5191 40.3153 17.6198C40.2686 17.7205 40.2632 17.8337 40.2991 17.938C40.3369 18.0422 40.4124 18.1249 40.513 18.1735C40.7198 18.2705 40.9678 18.1807 41.0649 17.9739C41.162 17.7672 41.0739 17.5191 40.8672 17.4202C40.8114 17.3933 40.7521 17.3807 40.6928 17.3807Z" fill="black"/>
<path d="M38.9645 17.5674C39.0992 17.2807 38.9769 16.9395 38.6911 16.8051C38.4054 16.6708 38.0646 16.7943 37.9298 17.0809C37.795 17.3675 37.9174 17.7088 38.2031 17.8431C38.4889 17.9774 38.8297 17.854 38.9645 17.5674Z" fill="#E1E1E1"/>
<path d="M38.4422 18.0548C38.3361 18.0548 38.2319 18.0314 38.133 17.9847C37.7699 17.8139 37.6135 17.3771 37.7843 17.014C37.955 16.649 38.3919 16.4927 38.755 16.6634C38.9312 16.7461 39.0642 16.8935 39.1307 17.0769C39.1972 17.2602 39.1864 17.458 39.1037 17.636C39.021 17.8121 38.8736 17.947 38.6903 18.0135C38.6094 18.0404 38.5267 18.0548 38.4422 18.0548ZM38.0683 17.147C37.9712 17.3555 38.0593 17.6036 38.266 17.7007C38.3667 17.7474 38.4781 17.7528 38.5824 17.7151C38.6867 17.6773 38.7712 17.6018 38.8179 17.5011C38.8646 17.4005 38.87 17.2872 38.8341 17.183C38.7963 17.0787 38.7208 16.996 38.6202 16.9475C38.4152 16.8504 38.1672 16.9403 38.0683 17.147Z" fill="black"/>
<path d="M36.7169 17.0952C36.8517 16.8086 36.7293 16.4673 36.4436 16.333C36.1579 16.1986 35.817 16.3221 35.6822 16.6087C35.5475 16.8953 35.6699 17.2366 35.9556 17.3709C36.2413 17.5053 36.5822 17.3818 36.7169 17.0952Z" fill="black"/>
<path d="M36.1951 17.582C36.0908 17.582 35.9865 17.5605 35.8859 17.5137C35.7097 17.431 35.5767 17.2836 35.5102 17.1003C35.4436 16.9169 35.4544 16.7192 35.5371 16.543C35.6198 16.3668 35.7672 16.232 35.9506 16.1655C36.1339 16.099 36.3317 16.108 36.5079 16.1907C36.871 16.3614 37.0274 16.7983 36.8566 17.1614C36.7326 17.4275 36.4683 17.582 36.1951 17.582ZM36.1987 16.4351C36.1519 16.4351 36.1034 16.4441 36.0566 16.4603C35.9524 16.4981 35.8679 16.5736 35.8212 16.6742C35.7744 16.7749 35.769 16.8882 35.8068 16.9924C35.8445 17.0967 35.92 17.1794 36.0207 17.2279C36.2274 17.325 36.4755 17.2351 36.5726 17.0284C36.6696 16.8216 36.5816 16.5736 36.3748 16.4747C36.3191 16.4495 36.258 16.4351 36.1987 16.4351Z" fill="black"/>
<path d="M34.4703 16.6204C34.6051 16.3338 34.4827 15.9925 34.197 15.8582C33.9113 15.7239 33.5704 15.8473 33.4357 16.1339C33.3009 16.4205 33.4233 16.7618 33.709 16.8961C33.9947 17.0305 34.3356 16.907 34.4703 16.6204Z" fill="black"/>
<path d="M33.9497 17.1092C33.8436 17.1092 33.7394 17.0859 33.6405 17.0391C33.4643 16.9564 33.3313 16.809 33.2648 16.6257C33.1983 16.4423 33.2091 16.2446 33.2918 16.0684C33.3745 15.8922 33.5219 15.7574 33.7052 15.6909C33.8886 15.6244 34.0863 15.6334 34.2625 15.7161C34.4387 15.7987 34.5717 15.9462 34.6382 16.1295C34.7047 16.3129 34.6939 16.5106 34.6112 16.6868C34.5285 16.863 34.3811 16.9978 34.1978 17.0643C34.1169 17.0949 34.0324 17.1092 33.9497 17.1092ZM33.9533 15.9623C33.9066 15.9623 33.858 15.9713 33.8113 15.9875C33.707 16.0253 33.6225 16.1008 33.5758 16.2014C33.5291 16.3021 33.5237 16.4153 33.5614 16.5196C33.5992 16.6239 33.6747 16.7066 33.7753 16.7551C33.876 16.8018 33.9875 16.8072 34.0917 16.7695C34.196 16.7317 34.2805 16.6562 34.3272 16.5556C34.374 16.4549 34.3793 16.3416 34.3416 16.2374C34.3038 16.1331 34.2283 16.0504 34.1277 16.0019C34.0719 15.9749 34.0126 15.9623 33.9533 15.9623Z" fill="black"/>
<path d="M61.7412 20.9148L61.5488 17.6575C61.1443 10.812 56.803 5.29326 50.842 4.04569L36.1804 0.9789C33.8866 0.498927 31.5586 0.698466 29.3853 1.46966C30.4063 1.42292 31.4382 1.50022 32.4628 1.71414L47.1245 4.78093C53.0855 6.0285 57.425 11.5473 57.8313 18.3927L58.0236 21.6501C58.0578 22.2181 57.9086 22.7484 57.6425 23.1835L59.1741 23.5035C60.5421 23.7893 61.8346 22.4878 61.7412 20.9148Z" fill="#7C7C7C"/>
<path d="M59.5535 23.9619C59.3989 23.9619 59.2425 23.9457 59.0879 23.9133L20.665 15.876C19.9477 15.7268 19.3437 15.2379 19.0075 14.535C18.612 13.7117 18.6336 12.7176 19.0615 11.8763L20.5427 8.96947C22.1103 5.89549 24.4418 3.46506 27.2839 1.94065C30.1386 0.410854 33.2449 -0.0637252 36.2668 0.569048L50.9284 3.63584C53.9502 4.26861 56.6072 5.94762 58.608 8.49309C60.6016 11.0278 61.7628 14.188 61.9678 17.6323L62.1601 20.8897C62.2158 21.8335 61.8365 22.7521 61.1444 23.3489C60.6825 23.7497 60.1198 23.9619 59.5535 23.9619ZM33.6314 1.13531C28.6627 1.13531 23.9079 4.21828 21.2905 9.35057L19.8093 12.2574C19.4983 12.8686 19.4821 13.584 19.7643 14.1737C19.9908 14.6446 20.3719 14.9592 20.8375 15.0563L59.2605 23.0936C59.7261 23.1925 60.2007 23.0577 60.5962 22.7161C61.0905 22.2901 61.362 21.6267 61.3206 20.9436L61.1283 17.6863C60.731 10.9918 56.5622 5.67617 50.754 4.46096L36.0924 1.39417C35.2727 1.2198 34.4493 1.13531 33.6314 1.13531Z" fill="black"/>
<path d="M18.6838 18.817H31.1523C32.337 18.817 33.2987 19.7787 33.2987 20.9634V23.5358C33.2987 28.1611 29.5434 31.9146 24.9199 31.9146C20.2945 31.9146 16.541 28.1593 16.541 23.5358V20.9634C16.541 19.7787 17.5028 18.817 18.6874 18.817H18.6838Z" fill="black"/>
<path d="M24.9199 32.3011C20.086 32.3011 16.1545 28.3697 16.1545 23.5358V20.9634C16.1545 19.5684 17.2889 18.4323 18.6838 18.4305H31.1523C32.5491 18.4305 33.6852 19.5666 33.6852 20.9634V23.5358C33.6852 28.3697 29.7538 32.3011 24.9199 32.3011ZM18.6874 19.2035C17.7167 19.2035 16.9275 19.9926 16.9275 20.9634V23.5358C16.9275 27.9436 20.512 31.5282 24.9199 31.5282C29.3277 31.5282 32.9122 27.9436 32.9122 23.5358V20.9634C32.9122 19.9926 32.1231 19.2035 31.1523 19.2035H18.6874Z" fill="#D3A339"/>
<path d="M41.1184 18.817H53.5869C54.7715 18.817 55.7333 19.7787 55.7333 20.9634V23.5358C55.7333 28.1611 51.978 31.9146 47.3544 31.9146C42.7291 31.9146 38.9756 28.1593 38.9756 23.5358V20.9634C38.9756 19.7787 39.9373 18.817 41.122 18.817H41.1184Z" fill="black"/>
<path d="M47.3545 32.3011C42.5206 32.3011 38.5891 28.3697 38.5891 23.5358V20.9634C38.5891 19.5684 39.7234 18.4323 41.1184 18.4305H53.5869C54.9837 18.4305 56.1198 19.5666 56.1198 20.9634V23.5358C56.1198 28.3697 52.1883 32.3011 47.3545 32.3011ZM41.122 19.2035C40.1513 19.2035 39.3621 19.9926 39.3621 20.9634V23.5358C39.3621 27.9436 42.9466 31.5282 47.3545 31.5282C51.7605 31.5282 55.3468 27.9436 55.3468 23.5358V20.9634C55.3468 19.9926 54.5576 19.2035 53.5869 19.2035H41.122Z" fill="#D3A339"/>
<mask id="mask1_2140_7038" style="mask-type:luminance" maskUnits="userSpaceOnUse" x="16" y="18" width="18" height="14">
<path d="M18.6838 18.817H31.1523C32.337 18.817 33.2987 19.7787 33.2987 20.9634V23.5358C33.2987 28.1611 29.5434 31.9146 24.9199 31.9146C20.2945 31.9146 16.541 28.1593 16.541 23.5358V20.9634C16.541 19.7787 17.5028 18.817 18.6874 18.817H18.6838Z" fill="white"/>
</mask>
<g mask="url(#mask1_2140_7038)">
<path d="M33.2968 20.6128H16.5374V21.3858H33.2968V20.6128Z" fill="#D3A339"/>
<path d="M33.2968 22.7969H16.5374V23.5699H33.2968V22.7969Z" fill="#D3A339"/>
<path d="M33.2968 24.9793H16.5374V25.7523H33.2968V24.9793Z" fill="#D3A339"/>
<path d="M33.2968 27.1616H16.5374V27.9346H33.2968V27.1616Z" fill="#D3A339"/>
<path d="M33.2968 29.3458H16.5374V30.1188H33.2968V29.3458Z" fill="#D3A339"/>
</g>
<mask id="mask2_2140_7038" style="mask-type:luminance" maskUnits="userSpaceOnUse" x="38" y="18" width="18" height="14">
<path d="M41.1184 18.817H53.5869C54.7715 18.817 55.7333 19.7787 55.7333 20.9634V23.5358C55.7333 28.1611 51.978 31.9146 47.3544 31.9146C42.7291 31.9146 38.9756 28.1593 38.9756 23.5358V20.9634C38.9756 19.7787 39.9373 18.817 41.122 18.817H41.1184Z" fill="white"/>
</mask>
<g mask="url(#mask2_2140_7038)">
<path d="M55.7334 20.6128H38.9739V21.3858H55.7334V20.6128Z" fill="#D3A339"/>
<path d="M55.7334 22.7969H38.9739V23.5699H55.7334V22.7969Z" fill="#D3A339"/>
<path d="M55.7334 24.9793H38.9739V25.7523H55.7334V24.9793Z" fill="#D3A339"/>
<path d="M55.7334 27.1616H38.9739V27.9346H55.7334V27.1616Z" fill="#D3A339"/>
<path d="M55.7334 29.3458H38.9739V30.1188H55.7334V29.3458Z" fill="#D3A339"/>
</g>
<path d="M47.0112 29.2344C47.0112 29.2344 47.1802 29.1984 47.4804 29.1337C47.6314 29.1103 47.8094 29.0528 48.0143 28.9917C48.1168 28.9575 48.2282 28.9377 48.3397 28.891C48.4511 28.8479 48.5698 28.8011 48.6938 28.7526C49.181 28.5459 49.7437 28.2708 50.283 27.8538C50.8258 27.4457 51.3579 26.9262 51.8146 26.3024C52.7349 25.053 53.1286 23.6545 53.2149 22.5813C53.3372 21.4865 53.4594 20.8088 53.4594 20.8088C53.4594 20.8088 53.5816 21.4865 53.7039 22.5813C53.7111 22.6496 53.7183 22.7197 53.7272 22.7916C53.7308 22.8671 53.7344 22.9426 53.738 23.0199C53.7434 23.1763 53.7542 23.3399 53.7542 23.5106C53.7416 23.6814 53.729 23.8558 53.7165 24.0374C53.7129 24.129 53.6985 24.2207 53.6787 24.3124C53.6607 24.4041 53.6428 24.4976 53.6248 24.5928C53.4684 25.346 53.1376 26.1568 52.6037 26.8812C52.0734 27.6075 51.4011 28.1666 50.7324 28.5477C50.0654 28.9378 49.3877 29.1247 48.8287 29.2254C48.6884 29.2451 48.5536 29.2631 48.426 29.2811C48.3001 29.3009 48.1779 29.2937 48.0647 29.2991C47.8399 29.3045 47.6494 29.3117 47.493 29.2883C47.1802 29.2577 47.013 29.2362 47.013 29.2362L47.0112 29.2344Z" fill="white"/>
<path d="M24.147 29.2344C24.147 29.2344 24.316 29.1984 24.6162 29.1337C24.7672 29.1103 24.9451 29.0528 25.1501 28.9917C25.2525 28.9575 25.364 28.9377 25.4754 28.891C25.5869 28.8479 25.7055 28.8011 25.8296 28.7526C26.3167 28.5459 26.8794 28.2708 27.4187 27.8538C27.9616 27.4457 28.4937 26.9262 28.9503 26.3024C29.8707 25.053 30.2644 23.6545 30.3507 22.5813C30.4729 21.4865 30.5951 20.8088 30.5951 20.8088C30.5951 20.8088 30.7174 21.4865 30.8396 22.5813C30.8468 22.6496 30.854 22.7197 30.863 22.7916C30.8666 22.8671 30.8702 22.9426 30.8738 23.0199C30.8792 23.1763 30.89 23.3399 30.89 23.5106C30.8774 23.6814 30.8648 23.8558 30.8522 24.0374C30.8486 24.129 30.8342 24.2207 30.8145 24.3124C30.7965 24.4041 30.7785 24.4976 30.7605 24.5928C30.6041 25.346 30.2734 26.1568 29.7395 26.8812C29.2092 27.6075 28.5368 28.1666 27.8681 28.5477C27.2012 28.9378 26.5235 29.1247 25.9644 29.2254C25.8242 29.2451 25.6894 29.2631 25.5617 29.2811C25.4359 29.3009 25.3136 29.2937 25.2004 29.2991C24.9757 29.3045 24.7851 29.3117 24.6287 29.2883C24.316 29.2577 24.1488 29.2362 24.1488 29.2362L24.147 29.2344Z" fill="white"/>
<path d="M33.2969 23.1835C33.2969 23.1835 36.0509 20.2605 38.9739 23.1835V21.4577C36.0509 18.5348 33.2969 21.4577 33.2969 21.4577V23.1835Z" fill="#A5832D"/>
<path d="M32.9104 24.1506V21.3049L33.0147 21.1935C33.0686 21.1359 34.3485 19.8003 36.148 19.7733C37.2535 19.7553 38.2926 20.2317 39.2471 21.1845L39.3604 21.2977V24.1164L38.7006 23.4567C37.9025 22.6585 37.0504 22.2631 36.1659 22.2703C34.6955 22.2882 33.5881 23.4369 33.5773 23.4477L32.9104 24.1506ZM33.6834 21.6213V22.3583C34.2389 21.9682 35.1071 21.5134 36.148 21.4973C37.0037 21.4847 37.8198 21.7669 38.5874 22.3368V21.6195C37.8216 20.895 37.009 20.5337 36.1659 20.5445C34.9579 20.5607 33.9944 21.3391 33.6834 21.6213Z" fill="#D3A339"/>
<path d="M33.2969 21.8352C33.2969 21.8352 33.5072 21.535 33.9728 21.1665C34.2065 20.9867 34.5031 20.7872 34.8716 20.6308C35.2365 20.4708 35.6716 20.3576 36.1408 20.3468C36.6099 20.3414 37.054 20.4402 37.4207 20.5984C37.791 20.7548 38.084 20.9634 38.3123 21.1521C38.368 21.2007 38.422 21.2456 38.4723 21.2887C38.519 21.3355 38.564 21.3786 38.6053 21.42C38.6898 21.5009 38.7581 21.5746 38.8103 21.6375C38.9145 21.7615 38.9739 21.8316 38.9739 21.8316C38.9739 21.8316 38.9002 21.7777 38.7707 21.6806C38.7078 21.6303 38.6269 21.5746 38.5298 21.5116C38.4831 21.4793 38.4328 21.4451 38.3788 21.4092C38.3231 21.3768 38.2638 21.3409 38.2027 21.3049C37.9564 21.1629 37.658 21.0065 37.3074 20.8951C36.9587 20.7836 36.5632 20.7189 36.1462 20.7225C35.3084 20.7387 34.575 21.0497 34.0771 21.3211C33.5773 21.5979 33.2969 21.8298 33.2969 21.8298V21.8352Z" fill="white"/>
<path d="M58.6043 53.0946C58.482 53.0101 58.4047 52.8878 58.3742 52.762C58.34 52.6326 58.3544 52.496 58.4245 52.3827C58.7858 51.8362 59.0663 51.2484 59.3287 50.6552C59.5588 50.0512 59.7727 49.4364 59.8842 48.8C59.9094 48.6706 59.9939 48.5645 60.1071 48.4926C60.2132 48.4207 60.3534 48.3847 60.5008 48.4063C60.6482 48.4279 60.774 48.5034 60.8585 48.6148C60.9376 48.7245 60.97 48.8647 60.9412 49.0103C60.8154 49.7186 60.5817 50.3999 60.3246 51.0686L60.1035 51.5576L59.9939 51.8021L59.868 52.0376L59.6145 52.5085C59.5265 52.6631 59.4276 52.8105 59.3341 52.9615C59.2568 53.0856 59.1364 53.1647 59.0051 53.1899C58.8703 53.2132 58.7247 53.1827 58.6025 53.0982L58.6043 53.0946Z" fill="#D3A339"/>
<path d="M57.1194 53.6734C57.4772 53.2456 57.8133 52.8033 58.1118 52.3377C58.1531 52.2712 58.2214 52.2263 58.3059 52.2137C58.3904 52.1993 58.4785 52.2173 58.554 52.264L59.3953 52.78C59.5535 52.8752 59.602 53.082 59.5031 53.2402C59.1634 53.7687 58.7841 54.2684 58.385 54.7466L59.1418 55.3866C59.5678 54.8778 59.9705 54.3457 60.3354 53.7795C60.5458 53.4469 60.6105 53.0676 60.5134 52.7242C60.4235 52.3845 60.1988 52.1023 59.8716 51.9369L58.9926 51.4875C58.6762 51.3275 58.3221 51.2825 58.0039 51.3436C57.6929 51.4102 57.4286 51.5612 57.2776 51.8039C57.0044 52.2299 56.6934 52.6398 56.3608 53.037L57.1177 53.677L57.1194 53.6734Z" fill="#D3A339"/>
<path d="M52.7152 58.3096C52.566 58.0507 52.6361 57.729 52.8698 57.5888C54.0077 56.8967 55.0827 56.1057 56.0534 55.2087C56.2458 55.0199 56.573 55.0379 56.7833 55.2482C56.9936 55.4585 56.9972 55.7947 56.7887 55.9978C55.7568 56.9524 54.6225 57.7847 53.4307 58.5091C53.1844 58.6566 52.8644 58.5685 52.7152 58.3096Z" fill="#D3A339"/>
<path d="M57.7865 56.8139C58.0184 56.582 58.2575 56.3627 58.4822 56.12C58.7015 55.8738 58.9334 55.6401 59.1419 55.383L58.3851 54.743C58.1891 54.9857 57.9698 55.205 57.7631 55.4369C57.5528 55.6652 57.3245 55.8738 57.1052 56.0931C56.9757 56.2243 56.76 56.2063 56.6378 56.0697L55.9726 55.3417C55.9115 55.2751 55.8792 55.1925 55.8792 55.108C55.8792 55.0253 55.9097 54.9462 55.9673 54.8904C56.165 54.6909 56.3735 54.5022 56.5623 54.2954C56.7474 54.0869 56.947 53.8874 57.1213 53.6716L56.3645 53.0317C56.2027 53.233 56.0158 53.4182 55.8432 53.6141C55.667 53.8065 55.4693 53.9844 55.2859 54.1714C55.072 54.3781 54.9462 54.6603 54.9498 54.9965C54.9534 55.3327 55.0612 55.6616 55.2877 55.9367L55.9151 56.6989C56.147 56.9793 56.476 57.1519 56.8139 57.1699C57.1501 57.1878 57.515 57.08 57.7901 56.8139H57.7865Z" fill="#D3A339"/>
<path d="M51.1081 58.2395C51.367 58.1173 51.6132 57.9716 51.8649 57.8386C52.1184 57.7056 52.3629 57.56 52.6055 57.4108C52.6757 57.3694 52.7583 57.3604 52.841 57.3838C52.9237 57.409 52.9956 57.4629 53.0424 57.5384L53.5619 58.3779C53.659 58.5343 53.614 58.7374 53.4576 58.8309C53.197 58.9891 52.9345 59.1473 52.6649 59.2875C52.3952 59.4313 52.1328 59.5859 51.8577 59.7154L52.3071 60.5998C52.5912 60.465 52.8662 60.3032 53.1448 60.1558C53.4253 60.0084 53.6985 59.8448 53.97 59.6794C54.1282 59.5841 54.2612 59.4619 54.3619 59.3217C54.4607 59.1761 54.529 59.0143 54.5632 58.8489C54.6333 58.5145 54.5668 58.1604 54.3619 57.8584L53.8082 57.0423C53.6086 56.7492 53.3174 56.5425 52.9956 56.4544C52.8356 56.4095 52.6757 56.3987 52.5265 56.4185C52.3719 56.4347 52.2262 56.4814 52.095 56.5605C51.8631 56.7025 51.6294 56.8427 51.3849 56.9686C51.1423 57.0962 50.9086 57.2364 50.6587 57.3533L51.1081 58.2395Z" fill="#D3A339"/>
<path d="M45.3753 61.2451C45.3016 60.9539 45.4598 60.6753 45.724 60.5962C47.0183 60.2456 48.2911 59.8142 49.5243 59.2929C49.7777 59.1868 50.0761 59.3127 50.1984 59.5859C50.3188 59.8556 50.2074 60.1755 49.9431 60.287C48.6632 60.8281 47.3455 61.2739 46.0081 61.637C45.7348 61.7179 45.449 61.5328 45.3753 61.2451Z" fill="#D3A339"/>
<path d="M50.5939 61.4015L51.455 61.0168C51.7408 60.8856 52.0212 60.74 52.3053 60.6016L51.8559 59.7171C51.5826 59.8501 51.3112 59.9904 51.0361 60.118L50.2038 60.4901C50.0402 60.562 49.8461 60.4739 49.776 60.3049L49.3985 59.3935C49.3643 59.3108 49.3625 59.221 49.3913 59.1401C49.42 59.0592 49.4794 59.0017 49.5531 58.9657L50.3369 58.6152C50.5975 58.4947 50.851 58.3635 51.108 58.2377L50.6586 57.3532C50.4106 57.4737 50.1679 57.5995 49.918 57.7163L49.163 58.0543C48.8754 58.1747 48.6543 58.4084 48.5392 58.7284C48.4242 59.0466 48.4223 59.4007 48.5464 59.7333L48.8951 60.6573C49.1504 61.3494 49.9126 61.6837 50.5939 61.4015Z" fill="#D3A339"/>
<path d="M43.8365 60.7543C44.4028 60.6429 44.9583 60.4937 45.5173 60.3535C45.5964 60.3319 45.6791 60.3427 45.7528 60.3894C45.8265 60.4344 45.8787 60.5063 45.9038 60.5926L46.1681 61.5435C46.2184 61.7215 46.1195 61.9066 45.947 61.9552C45.3609 62.1026 44.7749 62.2572 44.1835 62.3758L44.3902 63.3448C44.9996 63.2225 45.6018 63.0643 46.204 62.9115C46.9087 62.7138 47.3006 61.9803 47.0777 61.2775L46.7865 60.3355C46.6804 59.9957 46.4629 59.7225 46.1753 59.5409C45.8858 59.363 45.5659 59.3108 45.2621 59.3971C44.721 59.5319 44.1799 59.6776 43.6316 59.7854L43.8365 60.7543Z" fill="#D3A339"/>
<path d="M37.5395 62.3579C37.5287 62.0595 37.7444 61.8078 38.0194 61.7952C39.3623 61.7269 40.7033 61.6011 42.03 61.3872C42.3032 61.3476 42.5621 61.54 42.6142 61.8348C42.6645 62.126 42.4812 62.4118 42.199 62.4514C40.8327 62.6725 39.4521 62.8019 38.0716 62.8702C37.7875 62.8846 37.5484 62.6527 37.5395 62.3561V62.3579Z" fill="#D3A339"/>
<path d="M42.5622 63.6935C43.1734 63.5839 43.7846 63.4832 44.3904 63.3448L44.1837 62.3758C43.594 62.5107 42.9972 62.6077 42.404 62.7138C42.2278 62.7408 42.0624 62.6113 42.0337 62.4298L41.8845 61.4536C41.8701 61.3656 41.8899 61.2775 41.9384 61.2056C41.9869 61.1337 42.0571 61.0905 42.1379 61.0761C42.706 60.9737 43.2759 60.8802 43.8367 60.7526L43.63 59.7836C43.0853 59.9077 42.5298 59.9976 41.9798 60.0982C41.667 60.145 41.3919 60.3229 41.2032 60.6034C41.0126 60.8838 40.9299 61.2343 40.9749 61.5831L41.1007 62.5628C41.1888 63.2908 41.8467 63.796 42.5658 63.6917L42.5622 63.6935Z" fill="#D3A339"/>
<path d="M29.6423 61.8312C29.6945 61.5364 29.9551 61.344 30.2266 61.3836C31.5532 61.5975 32.8943 61.7251 34.2371 61.7934C34.5122 61.806 34.7279 62.0595 34.7171 62.3561C34.7063 62.6545 34.469 62.8846 34.1832 62.8702C32.8026 62.8001 31.4238 62.6689 30.0576 62.4496C29.7754 62.4082 29.5902 62.1242 29.6423 61.8312Z" fill="#D3A339"/>
<path d="M28.4379 60.7544C29.0005 60.882 29.5704 60.9755 30.1366 61.0779C30.2175 61.0905 30.2894 61.1355 30.338 61.2074C30.3865 61.2793 30.4045 61.3656 30.3919 61.4555L30.2427 62.4316C30.2157 62.6131 30.0486 62.7426 29.8724 62.7156C29.2774 62.6077 28.6823 62.5107 28.0927 62.3776L27.886 63.3466C28.4918 63.485 29.1048 63.5839 29.7142 63.6953C30.4333 63.8014 31.0912 63.2945 31.1793 62.5664L31.3051 61.5867C31.3501 61.2361 31.2656 60.8874 31.0768 60.607C30.8863 60.3265 30.613 60.1468 30.3002 60.1018C29.7484 60.0012 29.1947 59.9113 28.65 59.7872L28.4433 60.7562L28.4379 60.7544Z" fill="#D3A339"/>
<path d="M22.0599 59.5788C22.1821 59.3055 22.4823 59.1797 22.734 59.2858C23.9654 59.8089 25.2399 60.2385 26.5342 60.5908C26.7967 60.6699 26.9567 60.9504 26.883 61.2398C26.8093 61.5256 26.5234 61.7126 26.2502 61.6299C24.9127 61.265 23.5951 60.8209 22.3151 60.2781C22.0509 60.1666 21.9394 59.8466 22.0599 59.5788Z" fill="#D3A339"/>
<path d="M26.0704 62.9116C26.6744 63.0644 27.2748 63.2226 27.8842 63.3448L28.091 62.3759C27.4977 62.2572 26.9135 62.1026 26.3275 61.9552C26.1549 61.9067 26.056 61.7215 26.1064 61.5436L26.3706 60.5926C26.394 60.5063 26.4479 60.4344 26.5216 60.3895C26.5935 60.3445 26.678 60.332 26.7571 60.3535C27.3162 60.4937 27.8717 60.6411 28.4379 60.7544L28.6446 59.7855C28.0946 59.6758 27.5553 59.532 27.0142 59.3972C26.7122 59.3109 26.3904 59.363 26.101 59.541C25.8115 59.7225 25.594 59.9958 25.4898 60.3356L25.1985 61.2775C24.9756 61.9804 25.3675 62.7138 26.0704 62.9116Z" fill="#D3A339"/>
<path d="M21.1665 58.2395C21.4235 58.3653 21.677 58.4966 21.9377 58.617L22.7214 58.9675C22.7951 59.0017 22.8545 59.061 22.8832 59.1419C22.912 59.2228 22.9102 59.3127 22.876 59.3954L22.4985 60.3068C22.4284 60.4758 22.2343 60.5638 22.0707 60.4919L21.2384 60.1198C20.9615 59.9922 20.6919 59.852 20.4187 59.719L19.9692 60.6034C20.2533 60.7418 20.5337 60.8874 20.8195 61.0187L21.6806 61.4034C22.3619 61.6838 23.1241 61.3494 23.3812 60.6573L23.7299 59.7333C23.854 59.4026 23.8522 59.0484 23.7371 58.7284C23.6203 58.4103 23.401 58.1766 23.1133 58.0561L22.3583 57.7182C22.1084 57.6031 21.864 57.4755 21.6177 57.355L21.1665 58.2395Z" fill="#D3A339"/>
<path d="M15.4769 55.2356C15.6872 55.0252 16.0144 55.0073 16.2068 55.196C17.1757 56.0949 18.2525 56.8858 19.3886 57.5797C19.6223 57.7199 19.6906 58.0435 19.5432 58.3006C19.394 58.5594 19.074 58.6475 18.8277 58.5001C17.6377 57.7739 16.5034 56.9415 15.4715 55.9852C15.263 55.7821 15.2666 55.4459 15.4769 55.2356Z" fill="#D3A339"/>
<path d="M18.3045 59.6812C18.576 59.8465 18.8492 60.0101 19.1296 60.1575C19.4083 60.3067 19.6833 60.4667 19.9674 60.6016L20.4168 59.7171C20.1417 59.5877 19.8775 59.4313 19.6096 59.2893C19.34 59.1473 19.0775 58.9909 18.8169 58.8327C18.6623 58.7392 18.6155 58.5361 18.7126 58.3797L19.2321 57.5402C19.2788 57.4647 19.3508 57.4089 19.4334 57.3856C19.5161 57.3604 19.5988 57.3712 19.6689 57.4125C19.9116 57.5599 20.1561 57.7073 20.4096 57.8404C20.6612 57.9734 20.9075 58.1208 21.1664 58.2412L21.6158 57.3568C21.3659 57.2399 21.1322 57.0997 20.8895 56.9721C20.6469 56.8445 20.4132 56.7042 20.1795 56.564C20.0482 56.4849 19.9008 56.4382 19.748 56.422C19.5988 56.4022 19.4388 56.413 19.2789 56.458C18.9571 56.5461 18.6659 56.7528 18.4663 57.0458L17.9126 57.8619C17.7059 58.1639 17.6412 58.5181 17.7113 58.8524C17.7455 59.0196 17.8138 59.1796 17.9126 59.3252C18.0133 59.4654 18.1463 59.5877 18.3045 59.6812Z" fill="#D3A339"/>
<path d="M15.1551 53.6734C15.3295 53.8891 15.529 54.0887 15.7142 54.2972C15.9029 54.5039 16.1114 54.6927 16.3092 54.8922C16.3667 54.9479 16.3955 55.027 16.3973 55.1097C16.3973 55.1942 16.3649 55.2769 16.3038 55.3434L15.6386 56.0715C15.5146 56.2063 15.2989 56.2243 15.1713 56.0948C14.9519 55.8755 14.7236 55.667 14.5133 55.4387C14.3066 55.2068 14.0873 54.9857 13.8913 54.7448L13.1345 55.3848C13.3448 55.6418 13.5749 55.8755 13.7943 56.1218C14.0172 56.3645 14.2581 56.5838 14.49 56.8157C14.765 57.08 15.1281 57.1896 15.4661 57.1716C15.804 57.1537 16.133 56.9829 16.3649 56.7007L16.9923 55.9385C17.2188 55.6634 17.3266 55.3344 17.3302 54.9983C17.3338 54.6621 17.208 54.3799 16.9941 54.1732C16.8089 53.9862 16.613 53.8082 16.4368 53.6159C16.2642 53.4199 16.0773 53.2348 15.9155 53.0334L15.1587 53.6734H15.1551Z" fill="#D3A339"/>
<path d="M11.7701 48.3865C11.9175 48.365 12.0577 48.4027 12.1638 48.4746C12.2734 48.5465 12.3597 48.6526 12.3849 48.782C12.4928 49.4184 12.7085 50.0332 12.9368 50.639C13.1992 51.2322 13.4797 51.8218 13.8392 52.3683C13.9111 52.4816 13.9237 52.6182 13.8895 52.7476C13.8572 52.8753 13.7817 52.9975 13.6576 53.082C13.5354 53.1665 13.3898 53.197 13.255 53.1719C13.1237 53.1467 13.0033 53.0676 12.9242 52.9436C12.5341 52.3486 12.2231 51.7032 11.9373 51.0489C11.6838 50.3801 11.4483 49.6988 11.3243 48.9905C11.2955 48.8449 11.3243 48.7047 11.4088 48.5951C11.4933 48.4854 11.6209 48.4081 11.7701 48.3865Z" fill="#D3A339"/>
<path d="M11.939 53.7759C12.3039 54.3422 12.7066 54.8761 13.1326 55.383L13.8894 54.7431C13.4886 54.2649 13.1111 53.7651 12.7713 53.2366C12.6724 53.0784 12.721 52.8735 12.8792 52.7764L13.7205 52.2605C13.796 52.2138 13.8858 52.1958 13.9685 52.2102C14.0512 52.2245 14.1213 52.2677 14.1627 52.3342C14.4611 52.7998 14.7972 53.242 15.155 53.6699L15.9118 53.0299C15.5792 52.6326 15.2682 52.2227 14.995 51.7967C14.844 51.554 14.5779 51.403 14.2687 51.3365C13.9523 51.2754 13.5964 51.3203 13.28 51.4803L12.401 51.9297C12.0756 52.0951 11.8491 52.3791 11.7592 52.7171C11.6621 53.0605 11.7269 53.4398 11.9372 53.7723L11.939 53.7759Z" fill="#D3A339"/>
<path d="M32.968 66.4223V60.269H35.8784C36.5525 60.269 37.1476 60.3948 37.6635 60.6465C38.1794 60.8982 38.5821 61.2523 38.8715 61.7107C39.1609 62.1673 39.3065 62.7102 39.3065 63.3376C39.3065 63.9649 39.1609 64.5168 38.8715 64.977C38.5821 65.4372 38.1776 65.7932 37.6635 66.0448C37.1476 66.2965 36.5525 66.4223 35.8784 66.4223H32.968ZM34.7081 65.0328H35.7903C36.1481 65.0328 36.4573 64.9662 36.7179 64.8296C36.9786 64.6948 37.1817 64.5006 37.3291 64.2454C37.4747 63.9901 37.5484 63.6899 37.5484 63.3448C37.5484 62.9996 37.4747 62.6832 37.3291 62.4351C37.1817 62.1853 36.9786 61.9947 36.7179 61.8599C36.4573 61.7251 36.1481 61.6586 35.7903 61.6586H34.7081V65.0328Z" fill="#D3A339"/>
</svg>
