<svg width="72" height="74" viewBox="0 0 72 74" fill="none" xmlns="http://www.w3.org/2000/svg">
<path d="M66.3873 22.4382C63.2971 22.4382 60.793 24.7374 60.793 27.5723V34.8834V45.1965L70.5147 28.8127C72.2188 25.9383 69.9538 22.4382 66.3873 22.4382Z" fill="#5A3F34"/>
<path d="M49.216 72.5316H55.3802C57.8124 72.5316 59.3512 69.9214 58.1755 67.793L51.8424 56.3329H37.9358V61.2513C37.9358 67.4802 42.9854 72.5298 49.2143 72.5298L49.216 72.5316Z" fill="#5A3F34"/>
<path d="M42.8345 67.766H47.3196C50.7585 67.766 53.8954 66.4753 56.2773 64.3541L58.1774 67.793C59.1697 69.5888 58.2295 71.7262 56.4517 72.3518H51.9144C48.1915 72.3518 44.891 70.547 42.8363 67.766H42.8345Z" fill="#735B4D"/>
<path d="M23.0783 72.5316H16.9142C14.4819 72.5316 12.9432 69.9214 14.1188 67.793L20.4519 56.3329H34.3586V61.2513C34.3586 67.4802 29.309 72.5298 23.0801 72.5298L23.0783 72.5316Z" fill="#5A3F34"/>
<path d="M32.5931 0.985107H39.701C51.3426 0.985107 60.7947 10.4372 60.7947 22.0787V50.6973C60.7947 58.1342 54.7564 64.1725 47.3195 64.1725H24.9747C17.5378 64.1725 11.4995 58.1342 11.4995 50.6973V22.0787C11.4995 10.4372 20.9516 0.985107 32.5931 0.985107Z" fill="#5A3F34"/>
<path d="M34.1462 0.985107H38.146C49.126 0.985107 58.0388 9.89965 58.0388 20.8779V48.0889C58.0388 53.8216 53.3847 58.474 47.6538 58.474H24.6384C18.9057 58.474 14.2534 53.8198 14.2534 48.0889V20.8779C14.2534 9.89786 23.168 0.985107 34.1462 0.985107Z" fill="#735B4D"/>
<path d="M47.3195 53.507H24.9747C17.5324 53.507 11.4995 47.4741 11.4995 40.0319V50.4349C11.4995 57.8771 17.5324 63.91 24.9747 63.91H47.3195C54.7618 63.91 60.7947 57.8771 60.7947 50.4349V40.0319C60.7947 47.4741 54.7618 53.507 47.3195 53.507Z" fill="#045FAA"/>
<path d="M47.3196 53.507H24.9748C20.6065 53.507 16.7254 51.4272 14.2644 48.204C14.4639 53.7641 19.0318 58.2133 24.6404 58.2133H47.6558C53.2644 58.2133 57.8341 53.7659 58.0318 48.204C55.569 51.4254 51.6897 53.507 47.3196 53.507Z" fill="#177ADD"/>
<path d="M45.1444 64.1707H27.1517L24.6458 53.4855H47.6485L45.1444 64.1707Z" fill="#D6D6D6"/>
<path d="M24.6458 53.4855L25.2516 56.0723L31.5883 59.6964L36.1471 53.4855H24.6458Z" fill="white"/>
<path d="M47.6486 53.4855L47.0428 56.0723L40.7061 59.6964L36.1472 53.4855H47.6486Z" fill="white"/>
<path d="M36.1473 53.4855L34.5078 55.7164L35.3833 56.5918H36.1473H36.9113L37.7867 55.7164L36.1473 53.4855Z" fill="#BA2020"/>
<path d="M36.9113 56.5918H36.1473H35.3833L34.4089 63.91H36.1473H37.8856L36.9113 56.5918Z" fill="#BA2020"/>
<path d="M47.3196 64.1797H24.9748C17.3959 64.1797 11.23 58.0138 11.23 50.4349V40.0319H11.7693C11.7693 47.3141 17.6925 53.2374 24.9748 53.2374H47.3196C54.6019 53.2374 60.5251 47.3141 60.5251 40.0319H61.0644V50.4349C61.0644 58.0138 54.8985 64.1797 47.3196 64.1797ZM11.7693 43.8501V50.4349C11.7693 57.7171 17.6925 63.6404 24.9748 63.6404H47.3196C54.6019 63.6404 60.5251 57.7171 60.5251 50.4349V43.8501C58.8659 49.5774 53.5736 53.7767 47.3196 53.7767H24.9748C18.7208 53.7767 13.4285 49.5774 11.7693 43.8501Z" fill="black"/>
<path d="M45.3584 64.4403H26.9379L24.3062 53.2158H47.9902L45.3584 64.4403ZM27.3658 63.9011H44.9306L47.3089 53.7551H24.9857L27.3658 63.9011Z" fill="black"/>
<path d="M31.6639 60.0505L25.0162 56.2485L24.3062 53.2158H36.6794L31.6639 60.0505ZM25.4872 55.8961L31.5129 59.3422L35.6134 53.7551H24.9839L25.4872 55.8961Z" fill="black"/>
<path d="M40.6304 60.0505L35.615 53.2158H47.9882L47.2781 56.2485L40.6304 60.0505ZM36.6792 53.7551L40.7814 59.3422L46.8072 55.8961L47.3087 53.7551H36.6792Z" fill="black"/>
<path d="M47.3195 64.7999H24.9747C17.1981 64.7999 10.8704 58.4722 10.8704 50.6955V22.0769C10.8704 10.0992 20.6154 0.354126 32.5932 0.354126H39.7011C51.6788 0.354126 61.4239 10.0992 61.4239 22.0769V50.6955C61.4239 58.4722 55.0961 64.7999 47.3195 64.7999ZM32.5932 1.61428C21.3093 1.61428 12.1287 10.7949 12.1287 22.0787V50.6973C12.1287 57.7801 17.892 63.5433 24.9747 63.5433H47.3195C54.4023 63.5433 60.1655 57.7801 60.1655 50.6973V22.0787C60.1655 10.7949 50.9849 1.61428 39.7011 1.61428H32.5932Z" fill="black"/>
<path d="M50.4925 44.7471C41.1806 47.8535 31.1138 47.8535 21.802 44.7471C20.1643 44.2006 19.0605 42.669 19.0605 40.9433V29.0267C19.0605 26.6843 21.3561 25.0287 23.5798 25.7711C31.7376 28.491 40.5568 28.491 48.7146 25.7711C50.9365 25.0305 53.2339 26.6843 53.2339 29.0267V40.9433C53.2339 42.669 52.1301 44.2006 50.4925 44.7471Z" fill="#4C1615"/>
<path d="M24.5307 21.1907C27.4307 21.1907 29.7817 18.8397 29.7817 15.9397C29.7817 13.0397 27.4307 10.6888 24.5307 10.6888C21.6307 10.6888 19.2798 13.0397 19.2798 15.9397C19.2798 18.8397 21.6307 21.1907 24.5307 21.1907Z" fill="black"/>
<path d="M24.5307 21.2949C21.5772 21.2949 19.1755 18.8915 19.1755 15.9397C19.1755 12.988 21.579 10.5845 24.5307 10.5845C27.4825 10.5845 29.8859 12.988 29.8859 15.9397C29.8859 18.8915 27.4825 21.2949 24.5307 21.2949ZM24.5307 10.7931C21.694 10.7931 19.3859 13.1012 19.3859 15.9379C19.3859 18.7746 21.694 21.0828 24.5307 21.0828C27.3674 21.0828 29.6756 18.7746 29.6756 15.9379C29.6756 13.1012 27.3674 10.7931 24.5307 10.7931Z" fill="#080808"/>
<path d="M47.7636 21.1907C50.6636 21.1907 53.0146 18.8397 53.0146 15.9397C53.0146 13.0397 50.6636 10.6888 47.7636 10.6888C44.8636 10.6888 42.5127 13.0397 42.5127 15.9397C42.5127 18.8397 44.8636 21.1907 47.7636 21.1907Z" fill="black"/>
<path d="M47.7636 21.2949C44.8101 21.2949 42.4084 18.8915 42.4084 15.9397C42.4084 12.988 44.8119 10.5845 47.7636 10.5845C50.7154 10.5845 53.1188 12.988 53.1188 15.9397C53.1188 18.8915 50.7154 21.2949 47.7636 21.2949ZM47.7636 10.7931C44.927 10.7931 42.6188 13.1012 42.6188 15.9379C42.6188 18.7746 44.927 21.0828 47.7636 21.0828C50.6003 21.0828 52.9085 18.7746 52.9085 15.9379C52.9085 13.1012 50.6003 10.7931 47.7636 10.7931Z" fill="#080808"/>
<path d="M49.1101 16.7127C50.1576 16.7127 51.0067 15.8636 51.0067 14.8162C51.0067 13.7688 50.1576 12.9197 49.1101 12.9197C48.0627 12.9197 47.2136 13.7688 47.2136 14.8162C47.2136 15.8636 48.0627 16.7127 49.1101 16.7127Z" fill="white"/>
<path d="M25.8772 16.7127C26.9247 16.7127 27.7738 15.8636 27.7738 14.8162C27.7738 13.7688 26.9247 12.9197 25.8772 12.9197C24.8298 12.9197 23.9807 13.7688 23.9807 14.8162C23.9807 15.8636 24.8298 16.7127 25.8772 16.7127Z" fill="white"/>
<mask id="mask0_2140_6537" style="mask-type:luminance" maskUnits="userSpaceOnUse" x="19" y="25" width="35" height="23">
<path d="M50.4925 44.7471C41.1806 47.8535 31.1138 47.8535 21.802 44.7471C20.1643 44.2006 19.0605 42.669 19.0605 40.9433V29.0267C19.0605 26.6843 21.3561 25.0287 23.5798 25.7711C31.7376 28.491 40.5568 28.491 48.7146 25.7711C50.9365 25.0305 53.2339 26.6843 53.2339 29.0267V40.9433C53.2339 42.669 52.1301 44.2006 50.4925 44.7471Z" fill="white"/>
</mask>
<g mask="url(#mask0_2140_6537)">
<path d="M46.597 39.7928C46.597 42.971 41.9195 45.547 36.1473 45.547C30.375 45.547 25.6975 42.971 25.6975 39.7928C25.6975 37.8765 27.3981 36.1777 30.0155 35.1333C30.97 34.7522 32.0414 34.7827 32.9762 35.2106L35.3814 36.3143C35.8668 36.5372 36.4259 36.5372 36.9113 36.3143L39.3165 35.2106C40.2513 34.7809 41.3227 34.7522 42.2772 35.1333C44.8928 36.1795 46.5952 37.8765 46.5952 39.7928H46.597Z" fill="#EB544D"/>
<path d="M36.1472 36.4797C36.4079 36.4797 36.6703 36.424 36.913 36.3125L39.3183 35.2088C40.253 34.7791 41.3244 34.7504 42.279 35.1315C44.8946 36.1777 46.597 37.8747 46.597 39.791C46.597 42.9692 41.9195 45.5453 36.1472 45.5453" fill="#BA2020"/>
<path d="M12.1685 24.795L20.7073 29.1561L24.5866 33.3788L28.4408 29.3179L32.2949 33.3788L36.1491 29.3179L40.0033 33.3788L43.8574 29.3179L47.7116 33.3788L51.5658 29.1561L60.1064 24.795H12.1685Z" fill="white"/>
<path d="M47.7169 33.785L43.8592 29.7188L40.005 33.7815L36.1508 29.7188L32.2967 33.7815L28.4425 29.7188L24.5848 33.785L20.54 29.3808L11.0215 24.52H61.255L51.7383 29.3808L47.7169 33.7868V33.785ZM28.4407 28.917L32.2949 32.9797L36.149 28.917L40.0032 32.9797L43.8574 28.917L47.7079 32.9743L51.3967 28.9332L58.9576 25.0718H13.3171L20.878 28.9332L24.5901 32.9743L28.4407 28.9152V28.917Z" fill="black"/>
<path d="M36.1474 45.8239C30.2331 45.8239 25.4226 43.1185 25.4226 39.7928C25.4226 37.8388 27.1016 35.9998 29.9131 34.8762C30.9306 34.47 32.0901 34.4987 33.0914 34.9589L35.4966 36.0627C35.9101 36.2514 36.3847 36.2514 36.7963 36.0627L39.2016 34.9589C40.2029 34.4987 41.3624 34.47 42.3798 34.8762C45.1914 35.9998 46.8704 37.8388 46.8704 39.7928C46.8704 43.1185 42.0581 45.8239 36.1474 45.8239ZM31.4034 35.1441C30.9666 35.1441 30.5297 35.225 30.1181 35.3904C27.5241 36.4276 25.9745 38.0742 25.9745 39.7946C25.9745 42.8147 30.5387 45.2738 36.1474 45.2738C41.7561 45.2738 46.3203 42.8165 46.3203 39.7946C46.3203 38.0742 44.7707 36.4276 42.1767 35.3904C41.2977 35.0398 40.2982 35.065 39.4335 35.4623L37.0282 36.566C36.4692 36.8231 35.8274 36.8231 35.2665 36.566L32.8613 35.4623C32.4011 35.2501 31.9013 35.1441 31.4034 35.1441Z" fill="black"/>
<path d="M12.1685 47.2656L20.7073 42.9045L24.5866 38.6818L28.4408 42.7427L32.2949 38.6818L36.1491 42.7427L40.0033 38.6818L43.8574 42.7427L47.7116 38.6818L51.5658 42.9045L60.1064 47.2656H12.1685Z" fill="white"/>
<path d="M61.2533 47.5424H11.0198L20.5383 42.6816L24.583 38.2773L28.4408 42.3436L32.295 38.2809L36.1491 42.3436L40.0033 38.2809L43.8575 42.3436L47.7152 38.2773L51.7366 42.6834L61.2533 47.5442V47.5424ZM13.3154 46.9906H58.9559L51.395 43.1292L47.7062 39.0881L43.8557 43.1454L40.0015 39.0827L36.1473 43.1454L32.2932 39.0827L28.439 43.1454L24.5884 39.0863L20.8763 43.1274L13.3154 46.9906Z" fill="black"/>
</g>
<path d="M36.1472 47.5999C31.2288 47.5999 26.3123 46.8198 21.6312 45.2576C19.7706 44.6374 18.5212 42.9027 18.5212 40.9432V29.0266C18.5212 27.7341 19.1217 26.5602 20.1715 25.8052C21.2195 25.0502 22.5246 24.8507 23.7506 25.2605C31.7448 27.9265 40.5496 27.9265 48.5456 25.2605C49.7716 24.8525 51.0767 25.0502 52.1247 25.8052C53.1727 26.5602 53.775 27.7359 53.775 29.0266V40.9432C53.775 42.9045 52.5256 44.6374 50.665 45.2576C45.9839 46.818 41.0674 47.5999 36.149 47.5999H36.1472ZM22.4851 26.1306C21.89 26.1306 21.3058 26.3176 20.8025 26.6789C20.0385 27.229 19.6016 28.0846 19.6016 29.0266V40.9432C19.6016 42.4389 20.5544 43.762 21.9727 44.2347C31.1138 47.2836 41.1824 47.2836 50.3235 44.2347C51.7418 43.762 52.6964 42.4389 52.6964 40.9432V29.0266C52.6964 28.0846 52.2577 27.229 51.4955 26.6789C50.7315 26.1288 49.7824 25.9832 48.8889 26.2816C40.6737 29.0212 31.6261 29.0212 23.4126 26.2816C23.107 26.1809 22.7961 26.1306 22.4887 26.1306H22.4851Z" fill="black"/>
<path d="M29.4599 67.766H24.9747C21.5358 67.766 18.3989 66.4753 16.017 64.3541L14.1169 67.793C13.1246 69.5888 14.0648 71.7262 15.8427 72.3518H20.3799C24.1029 72.3518 27.4034 70.547 29.4599 67.766Z" fill="#735B4D"/>
<path d="M23.0782 73.1608H16.9141C15.5478 73.1608 14.3165 72.4579 13.6226 71.2804C12.9287 70.103 12.9071 68.6864 13.5686 67.4892L17.1891 60.9349L17.7607 61.3232C19.8928 62.7739 22.3879 63.5415 24.9765 63.5415H34.7953L34.5832 64.3325C33.1936 69.5295 28.464 73.1608 23.0782 73.1608ZM17.6313 62.738L14.6706 68.0986C14.2266 68.9003 14.241 69.8513 14.7065 70.6422C15.1721 71.4314 15.9973 71.9042 16.9159 71.9042H23.08C27.6173 71.9042 31.635 69.0226 33.1235 64.8017H24.9765C22.3663 64.8017 19.8406 64.0916 17.6313 62.738Z" fill="black"/>
<path d="M55.3821 73.1608H49.218C43.834 73.1608 39.1026 69.5313 37.7148 64.3325L37.5027 63.5415H47.3215C49.9101 63.5415 52.4052 62.7739 54.5372 61.3232L55.1071 60.9349L58.7275 67.4892C59.3891 68.6864 59.3693 70.103 58.6736 71.2804C57.9797 72.4579 56.7483 73.1608 55.3821 73.1608ZM39.1745 64.7999C40.663 69.0208 44.6807 71.9024 49.218 71.9024H55.3821C56.2989 71.9024 57.124 71.4314 57.5914 70.6404C58.057 69.8513 58.0714 68.9003 57.6274 68.0968L54.6649 62.7362C52.4555 64.088 49.9316 64.7981 47.3197 64.7981L39.1745 64.7999Z" fill="black"/>
<path d="M21.874 18.9238C22.3138 18.9238 22.6704 18.5673 22.6704 18.1275C22.6704 17.6877 22.3138 17.3311 21.874 17.3311C21.4342 17.3311 21.0776 17.6877 21.0776 18.1275C21.0776 18.5673 21.4342 18.9238 21.874 18.9238Z" fill="white"/>
<path d="M45.1067 18.9238C45.5465 18.9238 45.903 18.5673 45.903 18.1275C45.903 17.6877 45.5465 17.3311 45.1067 17.3311C44.6668 17.3311 44.3103 17.6877 44.3103 18.1275C44.3103 18.5673 44.6668 18.9238 45.1067 18.9238Z" fill="white"/>
<path d="M5.90708 22.4383C8.99724 22.4383 11.5014 24.7375 11.5014 27.5724V45.1983L1.77968 28.8146C0.0755075 25.9401 2.34055 22.4401 5.90708 22.4401V22.4383Z" fill="#735B4D"/>
<path d="M12.1576 47.591L1.21529 29.1471C0.343432 27.6766 0.325455 25.9131 1.16855 24.4319C2.09974 22.796 3.91536 21.7803 5.90716 21.7803C9.35325 21.7803 12.1576 24.3779 12.1576 27.5706V47.591ZM5.90716 23.0944C4.38635 23.0944 3.00935 23.8566 2.31006 25.0826C1.69347 26.1648 1.70605 27.4034 2.34422 28.4784L10.8435 42.8039V27.5724C10.8435 25.1042 8.6288 23.0962 5.90716 23.0944Z" fill="black"/>
<path d="M9.50235 35.0469L8.0858 27.8528C7.60223 25.3936 5.28326 23.6624 2.65869 23.6319C3.48381 22.9038 4.60734 22.4382 5.90525 22.4382C8.99541 22.4382 11.4995 24.7374 11.4995 27.5723V45.1983L9.50235 35.0487V35.0469Z" fill="#5A3F34"/>
<path d="M60.7949 44.934L65.9362 36.2694L65.9434 36.0716L60.7949 27.3099V34.6209V44.934Z" fill="#045FAA"/>
<path d="M11.4995 44.934L6.35826 36.2694L6.35107 36.0716L11.4995 27.3099V34.6209V44.934Z" fill="#177ADD"/>
<path d="M9.50252 34.7845L11.4997 44.934V34.6209V27.3099L8.9021 31.7303L9.50252 34.7845Z" fill="#045FAA"/>
<path d="M12.1576 47.591L1.21529 29.1471C0.343432 27.6766 0.325455 25.9131 1.16855 24.4319C2.09974 22.796 3.91536 21.7803 5.90716 21.7803C9.35325 21.7803 12.1576 24.3779 12.1576 27.5706V47.591ZM5.90716 23.0944C4.38635 23.0944 3.00935 23.8566 2.31006 25.0826C1.69347 26.1648 1.70605 27.4034 2.34422 28.4784L10.8435 42.8039V27.5724C10.8435 25.1042 8.6288 23.0962 5.90716 23.0944Z" fill="black"/>
<path d="M60.137 47.591V27.5724C60.137 26.0156 60.7949 24.5541 61.9885 23.4575C63.166 22.3772 64.7282 21.7803 66.3874 21.7803C68.3792 21.7803 70.1948 22.796 71.126 24.4319C71.9691 25.9131 71.9529 27.6766 71.0793 29.1471L60.137 47.5892V47.591ZM66.3874 23.0944C65.0571 23.0944 63.8114 23.5672 62.8766 24.4247C61.958 25.2678 61.451 26.3859 61.451 27.5706V42.8021L69.9503 28.4766C70.5885 27.4016 70.6011 26.163 69.9845 25.0808C69.287 23.8548 67.9082 23.0926 66.3874 23.0926V23.0944Z" fill="black"/>
<path d="M23.5457 9.57426C23.5457 9.57426 23.4289 9.59763 23.2294 9.62998C23.1305 9.64616 23.01 9.65875 22.8752 9.6983C22.8069 9.71447 22.735 9.73245 22.6613 9.75043C22.6236 9.75941 22.5858 9.7684 22.5463 9.77559C22.5067 9.78818 22.4672 9.80256 22.4276 9.81514C22.2676 9.87087 22.095 9.91581 21.9189 9.9985C21.8308 10.038 21.7391 10.065 21.6492 10.1118C21.5593 10.1585 21.4695 10.2052 21.376 10.2502C21.0111 10.4497 20.6407 10.6906 20.2812 10.9836C19.9253 11.2802 19.6197 11.6002 19.3554 11.9202C19.2925 12.0029 19.2296 12.082 19.1667 12.1611C19.1073 12.242 19.0588 12.3247 19.0049 12.4038C18.8898 12.5584 18.8161 12.7219 18.728 12.8676C18.577 13.166 18.4548 13.4302 18.3937 13.619C18.3254 13.8005 18.2804 13.9192 18.2804 13.9192C18.2804 13.9192 18.2696 13.8922 18.2571 13.8401C18.2427 13.788 18.2229 13.7107 18.1995 13.6064C18.1438 13.4015 18.1097 13.0977 18.1222 12.7094C18.1402 12.5188 18.1474 12.3013 18.2121 12.0802C18.2409 11.9687 18.266 11.8501 18.3056 11.7332C18.3487 11.6182 18.3973 11.4995 18.4476 11.3773C18.6669 10.9009 19.0103 10.4102 19.4849 10.0165C19.963 9.62639 20.5095 9.38191 21.0182 9.25607C21.1477 9.22911 21.2735 9.20574 21.394 9.18417C21.5162 9.16439 21.6384 9.16439 21.7517 9.1572C21.9818 9.13923 22.1957 9.16799 22.3863 9.18956C22.433 9.19495 22.4797 9.20035 22.5247 9.20754C22.5678 9.21832 22.6128 9.22911 22.6559 9.23989C22.7368 9.26147 22.8159 9.28124 22.8914 9.30281C23.037 9.33697 23.1557 9.39269 23.2527 9.43584C23.4451 9.52212 23.5439 9.57606 23.5439 9.57606L23.5457 9.57426Z" fill="black"/>
<path d="M48.7489 9.57429C48.7489 9.57429 48.8477 9.52036 49.0401 9.43407C49.1372 9.39093 49.2558 9.3352 49.4014 9.30104C49.4769 9.28127 49.556 9.2597 49.6369 9.23812C49.68 9.22734 49.7232 9.21655 49.7681 9.20577C49.8149 9.20037 49.8598 9.19498 49.9066 9.18779C50.0971 9.16622 50.3128 9.13746 50.5411 9.15543C50.6562 9.16262 50.7784 9.16083 50.8989 9.1824C51.0211 9.20397 51.1469 9.22734 51.2746 9.2543C51.7833 9.38014 52.3298 9.62462 52.808 10.0147C53.2825 10.4084 53.6241 10.901 53.8452 11.3755C53.8973 11.4978 53.9441 11.6164 53.9872 11.7315C54.0268 11.8483 54.0519 11.967 54.0807 12.0784C54.1436 12.2995 54.1526 12.517 54.1706 12.7076C54.1832 13.0941 54.149 13.3997 54.0933 13.6046C54.0699 13.7071 54.0501 13.7844 54.0358 13.8383C54.0214 13.8904 54.0124 13.9174 54.0124 13.9174C54.0124 13.9174 53.9674 13.7988 53.8991 13.6172C53.838 13.4266 53.7158 13.1642 53.5648 12.8658C53.4767 12.7202 53.4048 12.5566 53.2879 12.402C53.234 12.3229 53.1855 12.2402 53.1261 12.1593C53.0632 12.0802 53.0003 12.0011 52.9374 11.9184C52.6731 11.5984 52.3675 11.2785 52.0116 10.9818C51.6521 10.6906 51.2818 10.4497 50.9168 10.2484C50.8234 10.2035 50.7335 10.1567 50.6436 10.11C50.5537 10.0632 50.462 10.0363 50.3739 9.99673C50.1996 9.91404 50.027 9.8691 49.8652 9.81337C49.8257 9.79899 49.7861 9.78641 49.7466 9.77382C49.7088 9.76484 49.6693 9.75585 49.6315 9.74866C49.5578 9.73068 49.4859 9.7145 49.4176 9.69653C49.281 9.65698 49.1623 9.6426 49.0635 9.62821C48.8639 9.59586 48.7471 9.57249 48.7471 9.57249L48.7489 9.57429Z" fill="black"/>
<path d="M30.3337 24.1622H16.8064C14.358 24.1622 12.3662 22.1704 12.3662 19.722V11.0807C12.3662 8.6323 14.358 6.6405 16.8064 6.6405H30.3337C32.7821 6.6405 34.7739 8.6323 34.7739 11.0807V19.722C34.7739 22.1704 32.7821 24.1622 30.3337 24.1622ZM16.8064 8.04986C15.1364 8.04986 13.7774 9.40888 13.7774 11.0789V19.7202C13.7774 21.3902 15.1364 22.7492 16.8064 22.7492H30.3337C32.0037 22.7492 33.3628 21.3902 33.3628 19.7202V11.0789C33.3628 9.40888 32.0037 8.04986 30.3337 8.04986H16.8064Z" fill="black"/>
<path d="M55.4884 24.1622H41.961C39.5126 24.1622 37.519 22.1704 37.519 19.722V11.0807C37.519 8.6323 39.5108 6.6405 41.961 6.6405H55.4884C57.9368 6.6405 59.9303 8.6323 59.9303 11.0807V19.722C59.9303 22.1704 57.9368 24.1622 55.4884 24.1622ZM41.961 8.04986C40.291 8.04986 38.9302 9.40888 38.9302 11.0789V19.7202C38.9302 21.3902 40.2892 22.7492 41.961 22.7492H55.4884C57.1584 22.7492 58.5192 21.3902 58.5192 19.7202V11.0789C58.5192 9.40888 57.1602 8.04986 55.4884 8.04986H41.961Z" fill="black"/>
<g opacity="0.3">
<path d="M16.8063 7.34515H30.3336C32.3973 7.34515 34.0692 9.01697 34.0692 11.0807V19.722C34.0692 21.7857 32.3973 23.4575 30.3336 23.4575H16.8063C14.7426 23.4575 13.0708 21.7857 13.0708 19.722V11.0807C13.0708 9.01697 14.7426 7.34515 16.8063 7.34515Z" fill="white"/>
<path d="M30.3337 24.1622H16.8064C14.358 24.1622 12.3662 22.1704 12.3662 19.722V11.0807C12.3662 8.6323 14.358 6.6405 16.8064 6.6405H30.3337C32.7821 6.6405 34.7739 8.6323 34.7739 11.0807V19.722C34.7739 22.1704 32.7821 24.1622 30.3337 24.1622ZM16.8064 8.04986C15.1364 8.04986 13.7774 9.40888 13.7774 11.0789V19.7202C13.7774 21.3902 15.1364 22.7492 16.8064 22.7492H30.3337C32.0037 22.7492 33.3628 21.3902 33.3628 19.7202V11.0789C33.3628 9.40888 32.0037 8.04986 30.3337 8.04986H16.8064Z" fill="black"/>
<path d="M41.9611 7.34515H55.4884C57.5521 7.34515 59.2239 9.01697 59.2239 11.0807V19.722C59.2239 21.7857 57.5521 23.4575 55.4884 23.4575H41.9611C39.8974 23.4575 38.2256 21.7857 38.2256 19.722V11.0807C38.2256 9.01697 39.8974 7.34515 41.9611 7.34515Z" fill="white"/>
<path d="M55.4884 24.1622H41.961C39.5126 24.1622 37.519 22.1704 37.519 19.722V11.0807C37.519 8.6323 39.5108 6.6405 41.961 6.6405H55.4884C57.9368 6.6405 59.9303 8.6323 59.9303 11.0807V19.722C59.9303 22.1704 57.9368 24.1622 55.4884 24.1622ZM41.961 8.04986C40.291 8.04986 38.9302 9.40888 38.9302 11.0789V19.7202C38.9302 21.3902 40.2892 22.7492 41.961 22.7492H55.4884C57.1584 22.7492 58.5192 21.3902 58.5192 19.7202V11.0789C58.5192 9.40888 57.1602 8.04986 55.4884 8.04986H41.961Z" fill="black"/>
</g>
<path d="M41.3174 6.6405H30.9773V8.05166H41.3174V6.6405Z" fill="black"/>
</svg>
