<svg width="72" height="80" viewBox="0 0 72 80" fill="none" xmlns="http://www.w3.org/2000/svg">
    <path d="M48.6994 79.1608H54.8636C57.2958 79.1608 58.8346 76.5506 57.6589 74.4222L51.3258 62.9622H37.4192V67.8805C37.4192 74.1094 42.4688 79.159 48.6976 79.159L48.6994 79.1608Z" fill="#F07C53"/>
    <path d="M42.3179 74.3952H46.803C50.2419 74.3952 53.3788 73.1045 55.7607 70.9833L57.6608 74.4222C58.6531 76.218 57.7129 78.3554 55.9351 78.981H51.3978C47.6749 78.981 44.3744 77.1762 42.3197 74.3952H42.3179Z" fill="#FDCA9B"/>
    <path d="M22.5617 79.1608H16.3976C13.9653 79.1608 12.4266 76.5506 13.6022 74.4222L19.9353 62.9622H33.842V67.8805C33.842 74.1094 28.7924 79.159 22.5635 79.159L22.5617 79.1608Z" fill="#F07C53"/>
    <path d="M32.0768 7.61432H39.1847C50.8263 7.61432 60.2783 17.0664 60.2783 28.7079V57.3265C60.2783 64.7634 54.24 70.8017 46.8031 70.8017H24.4583C17.0215 70.8017 10.9832 64.7634 10.9832 57.3265V28.7079C10.9832 17.0664 20.4352 7.61432 32.0768 7.61432Z" fill="#F99F6D"/>
    <path d="M33.6299 7.61432H37.6296C48.6097 7.61432 57.5224 16.5289 57.5224 27.5071V54.7181C57.5224 60.4509 52.8683 65.1032 47.1374 65.1032H24.1221C18.3894 65.1032 13.7371 60.4491 13.7371 54.7181V27.5071C13.7371 16.5271 22.6516 7.61432 33.6299 7.61432Z" fill="#FDCA9B"/>
    <path d="M49.9759 51.3763C40.664 54.4827 30.5972 54.4827 21.2854 51.3763C19.6477 50.8299 18.5439 49.2983 18.5439 47.5725V35.6559C18.5439 33.3135 20.8395 31.6579 23.0632 32.4003C31.221 35.1202 40.0402 35.1202 48.198 32.4003C50.4199 31.6597 52.7173 33.3135 52.7173 35.6559V47.5725C52.7173 49.2983 51.6135 50.8299 49.9759 51.3763Z" fill="#4C1615"/>
    <path d="M24.0141 27.8199C26.9141 27.8199 29.2651 25.469 29.2651 22.569C29.2651 19.669 26.9141 17.3181 24.0141 17.3181C21.1141 17.3181 18.7632 19.669 18.7632 22.569C18.7632 25.469 21.1141 27.8199 24.0141 27.8199Z" fill="black"/>
    <path d="M24.0141 27.926C21.0606 27.926 18.6589 25.5225 18.6589 22.5708C18.6589 19.619 21.0624 17.2156 24.0141 17.2156C26.9659 17.2156 29.3711 19.6154 29.3711 22.569C29.3711 25.5225 26.9677 27.926 24.0141 27.926ZM24.0141 17.4241C21.1774 17.4241 18.8693 19.7323 18.8693 22.569C18.8693 25.4057 21.1774 27.7139 24.0141 27.7139C26.8508 27.7139 29.159 25.4057 29.159 22.569C29.159 19.7323 26.8508 17.4241 24.0141 17.4241Z" fill="#080808"/>
    <path d="M47.247 27.8199C50.147 27.8199 52.498 25.469 52.498 22.569C52.498 19.669 50.147 17.3181 47.247 17.3181C44.347 17.3181 41.9961 19.669 41.9961 22.569C41.9961 25.469 44.347 27.8199 47.247 27.8199Z" fill="black"/>
    <path d="M47.247 27.926C44.2935 27.926 41.8918 25.5225 41.8918 22.5708C41.8918 19.619 44.2953 17.2156 47.247 17.2156C50.1988 17.2156 52.6022 19.619 52.6022 22.5708C52.6022 25.5225 50.2006 27.926 47.247 27.926ZM47.247 17.4241C44.4104 17.4241 42.1022 19.7323 42.1022 22.569C42.1022 25.4057 44.4104 27.7139 47.247 27.7139C50.0837 27.7139 52.3919 25.4057 52.3919 22.569C52.3919 19.7323 50.0837 17.4241 47.247 17.4241Z" fill="#080808"/>
    <path d="M48.5935 23.3419C49.641 23.3419 50.4901 22.4928 50.4901 21.4454C50.4901 20.398 49.641 19.5489 48.5935 19.5489C47.5461 19.5489 46.697 20.398 46.697 21.4454C46.697 22.4928 47.5461 23.3419 48.5935 23.3419Z" fill="white"/>
    <path d="M25.3606 23.3419C26.4081 23.3419 27.2572 22.4928 27.2572 21.4454C27.2572 20.398 26.4081 19.5489 25.3606 19.5489C24.3132 19.5489 23.4641 20.398 23.4641 21.4454C23.4641 22.4928 24.3132 23.3419 25.3606 23.3419Z" fill="white"/>
    <mask id="mask0_0_1" style="mask-type:luminance" maskUnits="userSpaceOnUse" x="18" y="32" width="35" height="22">
        <path d="M49.9759 51.3763C40.664 54.4827 30.5972 54.4827 21.2854 51.3763C19.6477 50.8299 18.5439 49.2983 18.5439 47.5725V35.6559C18.5439 33.3135 20.8395 31.6579 23.0632 32.4003C31.221 35.1202 40.0402 35.1202 48.198 32.4003C50.4199 31.6597 52.7173 33.3135 52.7173 35.6559V47.5725C52.7173 49.2983 51.6135 50.8299 49.9759 51.3763Z" fill="white"/>
    </mask>
    <g mask="url(#mask0_0_1)">
        <path d="M11.6516 31.4242L20.1904 35.7853L24.0698 40.008L27.9239 35.9471L31.7781 40.008L35.6323 35.9471L39.4864 40.008L43.3406 35.9471L47.1948 40.008L51.0489 35.7853L59.5896 31.4242H11.6516Z" fill="white"/>
        <path d="M47.1984 40.4035L43.3406 36.339L39.4865 40.3999L35.6323 36.339L31.7782 40.3999L27.924 36.339L24.0662 40.4035L20.0251 36.0046L10.5317 31.1564H60.7113L51.2162 36.0046L47.1984 40.4035ZM35.6323 35.5552L39.4865 39.6161L43.3406 35.5552L47.1912 39.6125L50.8836 35.5678L58.4697 31.6939H12.7734L20.3577 35.5678L24.0752 39.6143L27.9258 35.557L31.78 39.6179L35.6323 35.5552Z" fill="black"/>
        <path d="M46.0801 46.422C46.0801 49.6003 41.4027 52.1763 35.6304 52.1763C29.8582 52.1763 25.1807 49.6003 25.1807 46.422C25.1807 44.5057 26.8812 42.807 29.4986 41.7625C30.4532 41.3814 31.5246 41.412 32.4593 41.8398L34.8646 42.9436C35.35 43.1665 35.909 43.1665 36.3944 42.9436L38.7997 41.8398C39.7344 41.4102 40.8058 41.3814 41.7604 41.7625C44.376 42.8088 46.0783 44.5057 46.0783 46.422H46.0801Z" fill="#EB544D"/>
        <path d="M35.6306 43.1089C35.8913 43.1089 36.1537 43.0532 36.3964 42.9418L38.8017 41.838C39.7364 41.4084 40.8078 41.3796 41.7624 41.7607C44.378 42.8069 46.0804 44.5039 46.0804 46.4202C46.0804 49.5985 41.4029 52.1745 35.6306 52.1745" fill="#BA2020"/>
        <path d="M35.6305 52.4459C29.7198 52.4459 24.9111 49.7441 24.9111 46.422C24.9111 44.4698 26.5883 42.6326 29.3981 41.5126C30.4137 41.1064 31.5696 41.1369 32.5709 41.5953L34.9762 42.6991C35.3914 42.8896 35.866 42.8896 36.2813 42.6991L38.6865 41.5953C39.6842 41.1369 40.8419 41.1064 41.8594 41.5126C44.5397 42.584 46.1899 44.3044 46.3355 46.1524H46.3463L46.3481 46.422C46.3499 49.7441 41.5412 52.4459 35.6305 52.4459ZM30.8847 41.7679C30.4461 41.7679 30.0093 41.8488 29.5976 42.0142C27 43.0514 25.4486 44.6981 25.4486 46.4238C25.4486 49.4475 30.0147 51.9084 35.6287 51.9084C41.1781 51.9084 45.7045 49.5032 45.807 46.5263V46.4238C45.807 44.7017 44.2556 43.0532 41.658 42.0142C40.7754 41.6618 39.7741 41.6888 38.9094 42.0861L36.5042 43.1898C35.9469 43.4451 35.3069 43.4451 34.7497 43.1898L32.3444 42.0861C31.8842 41.874 31.3845 41.7679 30.8847 41.7679Z" fill="black"/>
        <path d="M11.6516 53.8949L20.1904 49.5338L24.0698 45.3111L27.9239 49.372L31.7781 45.3111L35.6323 49.372L39.4864 45.3111L43.3406 49.372L47.1948 45.3111L51.0489 49.5338L59.5896 53.8949H11.6516Z" fill="white"/>
        <path d="M60.7113 54.1645H10.5317L20.0251 49.3162L24.0662 44.9156L27.924 48.9801L31.7782 44.9192L35.6323 48.9801L39.4865 44.9192L43.3406 48.9801L47.1984 44.9156L51.2144 49.3162L60.7113 54.1645ZM12.7734 53.6252H58.4697L50.8836 49.7513L47.1912 45.7066L43.3406 49.7639L39.4865 45.703L35.6323 49.7639L31.7782 45.703L27.924 49.7639L24.0734 45.7066L20.3559 49.7531L20.3128 49.7746L12.7734 53.6252Z" fill="black"/>
    </g>
    <path d="M35.6306 54.2292C30.7122 54.2292 25.7957 53.449 21.1146 51.8868C19.254 51.2667 18.0046 49.5319 18.0046 47.5707V35.6559C18.0046 34.3633 18.6069 33.1895 19.6549 32.4327C20.7029 31.6777 22.008 31.4781 23.234 31.888C31.2282 34.5539 40.033 34.5539 48.0272 31.888C49.2532 31.4799 50.5583 31.6777 51.6063 32.4345C52.6543 33.1895 53.2566 34.3633 53.2566 35.6559V47.5725C53.2566 49.5337 52.0072 51.2666 50.1466 51.8886C45.4655 53.449 40.549 54.2292 35.6306 54.2292ZM21.9667 32.7598C21.3716 32.7598 20.7874 32.9468 20.2859 33.3081C19.5219 33.8582 19.0832 34.7139 19.0832 35.6559V47.5725C19.0832 49.0681 20.036 50.3912 21.4561 50.864C30.5972 53.9128 40.664 53.9128 49.8051 50.864C51.2234 50.3912 52.178 49.0681 52.178 47.5725V35.6559C52.178 34.7157 51.7393 33.86 50.9771 33.3099C50.2131 32.7598 49.2622 32.6142 48.3687 32.9108C40.1553 35.6487 31.1077 35.6487 22.8924 32.9108C22.5868 32.8102 22.2759 32.7598 21.9667 32.7598Z" fill="black"/>
    <path d="M28.9433 74.3952H24.4581C21.0192 74.3952 17.8823 73.1045 15.5004 70.9833L13.6003 74.4222C12.608 76.218 13.5482 78.3554 15.3261 78.981H19.8633C23.5863 78.981 26.8868 77.1762 28.9433 74.3952Z" fill="#FDCA9B"/>
    <path d="M22.5599 79.7918H16.3957C15.0295 79.7918 13.7981 79.0889 13.1042 77.9115C12.4104 76.734 12.3888 75.3156 13.0503 74.1202L16.6726 67.566L17.2424 67.9543C19.3762 69.405 21.8714 70.1708 24.4582 70.1708H25.9772L25.9754 70.1726H34.2752L34.0631 70.9635C32.6753 76.1623 27.9456 79.7918 22.5599 79.7918ZM17.113 69.3672L14.1505 74.7278C13.7065 75.5314 13.7208 76.4823 14.1864 77.2715C14.652 78.0607 15.4771 78.5334 16.3957 78.5334H22.5599C27.0972 78.5334 31.1149 75.6518 32.6034 71.4309H22.9374L23.0129 71.3554C20.9204 71.1433 18.9125 70.4674 17.113 69.3672Z" fill="black"/>
    <path d="M54.8654 79.7918H48.7013C43.3155 79.7918 38.5859 76.1623 37.1981 70.9635L36.9878 70.1726L46.8048 70.1708C49.3916 70.1708 51.8885 69.4032 54.0205 67.9543L54.5904 67.566L58.2127 74.1202C58.8742 75.3174 58.8544 76.734 58.1587 77.9115C57.463 79.0889 56.2316 79.7918 54.8654 79.7918ZM38.6578 71.4309C40.1445 75.6518 44.1622 78.5334 48.7013 78.5334H54.8654C55.7822 78.5334 56.6073 78.0625 57.0747 77.2715C57.5403 76.4823 57.5547 75.5296 57.1107 74.7278L54.1482 69.3672C52.3757 70.4512 50.4001 71.1235 48.34 71.3464L48.4334 71.4309H38.6578Z" fill="black"/>
    <path d="M21.3574 25.553C21.7972 25.553 22.1538 25.1965 22.1538 24.7567C22.1538 24.3169 21.7972 23.9603 21.3574 23.9603C20.9176 23.9603 20.561 24.3169 20.561 24.7567C20.561 25.1965 20.9176 25.553 21.3574 25.553Z" fill="white"/>
    <path d="M44.5901 25.553C45.0299 25.553 45.3864 25.1965 45.3864 24.7567C45.3864 24.3169 45.0299 23.9603 44.5901 23.9603C44.1502 23.9603 43.7937 24.3169 43.7937 24.7567C43.7937 25.1965 44.1502 25.553 44.5901 25.553Z" fill="white"/>
    <path d="M5.39048 29.0675C8.48064 29.0675 10.9848 31.3667 10.9848 34.2016V51.8276L1.26308 35.4438C-0.441094 32.5693 1.82394 29.0693 5.39048 29.0693V29.0675Z" fill="#FDCA9B"/>
    <path d="M8.98574 41.6762L7.5692 34.482C7.08563 32.0228 4.76666 30.2917 2.14209 30.2611C2.96721 29.5331 4.09074 29.0675 5.38865 29.0675C8.47881 29.0675 10.9829 31.3667 10.9829 34.2016V51.8276L8.98574 41.678V41.6762Z" fill="#F07C53"/>
    <path d="M65.8707 29.0675C62.7805 29.0675 60.2764 31.3667 60.2764 34.2016V41.5126V51.8258L69.9981 35.442C71.7022 32.5675 69.4372 29.0675 65.8707 29.0675Z" fill="#F07C53"/>
    <path d="M46.8031 60.3987H24.4583C17.0161 60.3987 10.9832 54.3658 10.9832 46.9235V57.3265C10.9832 64.7688 17.0161 70.8017 24.4583 70.8017H46.8031C54.2454 70.8017 60.2783 64.7688 60.2783 57.3265V46.9235C60.2783 54.3658 54.2454 60.3987 46.8031 60.3987Z" fill="#045FAA"/>
    <path d="M46.803 60.3987H24.4582C20.0899 60.3987 16.2088 58.3188 13.7478 55.0956C13.9473 60.6558 18.5152 65.105 24.1238 65.105H47.1392C52.7478 65.105 57.3175 60.6576 57.5152 55.0956C55.0524 58.317 51.1731 60.3987 46.803 60.3987Z" fill="#177ADD"/>
    <path d="M60.2764 51.8257L65.4194 43.1611L65.4266 42.9633L60.2764 34.1998V41.5126V51.8257Z" fill="#045FAA"/>
    <path d="M10.9829 51.8257L5.84166 43.1611L5.83447 42.9633L10.9829 34.1998V41.5126V51.8257Z" fill="#177ADD"/>
    <path d="M8.98591 41.6762L10.9831 51.8257V41.5126V34.1998L8.3855 38.622L8.98591 41.6762Z" fill="#045FAA"/>
    <path d="M44.626 71.0624H26.6351L24.1292 60.3754H47.1319L44.626 71.0624Z" fill="#D6D6D6"/>
    <path d="M59.6184 54.2202V34.2015C59.6184 31.0089 62.4227 28.4113 65.8706 28.4113C67.8624 28.4113 69.6781 29.427 70.6092 31.0611C71.4541 32.5423 71.4362 34.3058 70.5643 35.7781L59.6184 54.2202ZM65.8706 29.7236C63.149 29.7236 60.9343 31.7316 60.9343 34.2015V49.4312L69.4336 35.1076C70.0717 34.0308 70.0843 32.794 69.4677 31.7118C68.7684 30.4858 67.3914 29.7236 65.8706 29.7236Z" fill="black"/>
    <path d="M11.6428 54.222L0.698697 35.7799C-0.173164 34.3076 -0.19114 32.5441 0.653755 31.0628C1.48067 29.6103 3.00688 28.6468 4.73442 28.4509V28.4131L5.39056 28.4113C8.83846 28.4113 11.641 31.0089 11.641 34.2015V54.222H11.6428ZM5.39056 29.7254C3.86975 29.7254 2.49275 30.4858 1.79526 31.7118C1.17867 32.794 1.19125 34.0326 1.82942 35.1076L10.3287 49.4312V34.1997C10.3287 31.7729 8.1895 29.7919 5.53078 29.7236H5.39056V29.7254Z" fill="black"/>
    <path d="M24.1292 60.3754L24.735 62.9622L31.0717 66.588L35.6305 60.3754H24.1292Z" fill="white"/>
    <path d="M47.132 60.3754L46.5262 62.9622L40.1895 66.588L35.6306 60.3754H47.132Z" fill="white"/>
    <path d="M35.6307 60.3754L33.9912 62.608L34.8667 63.4817H35.6307H36.3947L37.2701 62.608L35.6307 60.3754Z" fill="#BA2020"/>
    <path d="M36.3947 63.4817H35.6307H34.8667L33.8923 70.7999H35.6307H37.369L36.3947 63.4817Z" fill="#BA2020"/>
    <path d="M10.0268 25.5531H10.9256V35.8949H10.0268C7.17215 35.8949 4.85498 33.5778 4.85498 30.7231C4.85498 27.8684 7.17215 25.5513 10.0268 25.5513V25.5531Z" fill="#FDCA9B"/>
    <path d="M11.5817 36.5511H10.0267C6.81251 36.5511 4.19873 33.9355 4.19873 30.7231C4.19873 27.5107 6.81431 24.8951 10.0267 24.8951L11.5817 24.8969V36.5511ZM9.89908 26.2092C7.46865 26.2775 5.51101 28.2747 5.51101 30.7231C5.51101 33.2129 7.53697 35.2388 10.0267 35.2388H10.2694V26.211H9.89908V26.2092Z" fill="black"/>
    <path d="M61.1771 35.895H60.2783V25.5531H61.1771C64.0318 25.5531 66.349 27.8703 66.349 30.7249C66.349 33.5796 64.0318 35.8968 61.1771 35.8968V35.895Z" fill="#F99F6D"/>
    <path d="M61.1771 36.5529L59.6204 36.5511V24.8951H61.1771C64.3913 24.8951 67.0069 27.5107 67.0069 30.7231C67.0069 33.9355 64.3913 36.5529 61.1771 36.5529ZM60.9344 35.2388H61.303C63.7334 35.1705 65.691 33.1733 65.691 30.7249C65.691 28.2352 63.6651 26.2092 61.1753 26.2092H60.9344V35.2388Z" fill="black"/>
    <path d="M60.6936 33.1086H60.2783V28.3376H60.6936C62.0095 28.3376 63.0791 29.4072 63.0791 30.7231C63.0791 32.039 62.0095 33.1086 60.6936 33.1086Z" fill="#FDCA9B"/>
    <path d="M46.8029 71.4309H24.4581C16.6815 71.4309 10.3538 65.1032 10.3538 57.3266V28.708C10.3538 16.7302 20.0988 6.98517 32.0766 6.98517H39.1845C51.1622 6.98517 60.9073 16.7302 60.9073 28.708V57.3266C60.9073 65.1032 54.5795 71.4309 46.8029 71.4309ZM32.0766 8.24352C20.7927 8.24352 11.6121 17.4241 11.6121 28.708V57.3266C11.6121 64.4093 17.3754 70.1726 24.4581 70.1726H46.8029C53.8857 70.1726 59.6489 64.4093 59.6489 57.3266V28.708C59.6489 17.4241 50.4683 8.24352 39.1845 8.24352H32.0766Z" fill="black"/>
    <path d="M40.4447 13.6652H23.9099C20.5699 13.6652 17.8608 10.9579 17.8608 7.61609C17.8608 3.41858 22.0332 0.495602 25.979 1.93192L30.2592 3.49049C30.475 3.56958 30.6907 3.64508 30.9064 3.71879C36.7937 5.73755 43.1735 5.82384 49.1615 4.12685L57.7471 1.69463L52.8737 7.66463C49.9201 11.2833 45.559 13.5286 40.8887 13.6562C40.7413 13.6598 40.5921 13.6616 40.4447 13.6616V13.6652Z" fill="#FADB34"/>
    <path d="M40.4447 14.2944H23.91C20.2284 14.2944 17.2317 11.2977 17.2317 7.61612C17.2317 5.40681 18.2689 3.41321 20.0792 2.14587C21.8894 0.878525 24.1185 0.585508 26.193 1.34052L30.4732 2.89908C30.6853 2.97638 30.8974 3.05188 31.1077 3.12379C36.8171 5.08143 42.9992 5.21985 48.9872 3.52287L59.4944 0.545959L53.3609 8.06193C50.2761 11.8406 45.8071 14.1002 41.0739 14.2782V14.289L40.4447 14.2944ZM23.892 2.18901C22.8044 2.18901 21.7348 2.52337 20.8018 3.17592C19.3331 4.20418 18.49 5.82206 18.49 7.61612C18.49 10.6038 20.9223 13.036 23.91 13.036H39.8156V13.0324H40.4447C40.5868 13.0324 40.7306 13.0306 40.8744 13.027C45.3002 12.9066 49.4977 10.8069 52.3865 7.26737L55.9962 2.84515L49.3323 4.73269C43.0963 6.49978 36.6535 6.35597 30.7015 4.31383C30.4822 4.23833 30.2629 4.16103 30.0417 4.08194L25.7633 2.52337C25.1485 2.29867 24.5176 2.18901 23.892 2.18901Z" fill="black"/>
    <path d="M48.5934 6.30921C48.5934 6.30921 38.7153 9.51262 30.7625 5.81126C24.7674 3.02131 20.5699 3.24242 20.8287 6.72447C21.2422 12.245 43.2418 11.5116 48.5916 6.30921H48.5934Z" fill="#FDEC9B"/>
    <path d="M10.9254 25.553H10.0266C7.17011 25.553 4.85474 27.8684 4.85474 30.7249C4.85474 32.7149 5.97827 34.4406 7.62491 35.3053L10.9254 25.553Z" fill="white"/>
    <path d="M7.77954 35.69L7.5009 35.5426C5.70325 34.5988 4.58691 32.7527 4.58691 30.7231C4.58691 27.7228 7.02812 25.2816 10.0284 25.2816H11.1969V25.598L7.77954 35.69ZM10.0266 25.8227C7.32294 25.8227 5.12441 28.0212 5.12441 30.7249C5.12441 32.4471 6.01784 34.0218 7.47394 34.9098L10.5497 25.8227H10.0266Z" fill="black"/>
    <path d="M65.1534 20.9277C64.0766 21.4778 62.7625 20.9565 62.3562 19.8186C60.5604 14.8013 56.6703 10.8357 51.7267 8.93561C51.1479 9.51265 50.5295 10.043 49.877 10.5247C55.8685 14.0553 59.9618 20.4603 60.2602 27.8433C62.7337 27.286 64.8046 25.5926 65.8347 23.2683L67.3717 19.797L65.157 20.9277H65.1534Z" fill="#E2981F"/>
    <path d="M59.6616 28.6235L59.6311 27.8684C59.3488 20.899 55.5828 14.618 49.557 11.0658L48.7373 10.5822L49.5031 10.0178C50.1323 9.55398 50.7309 9.03985 51.2828 8.48977L51.5722 8.20215L51.9533 8.34776C57.0874 10.3216 61.0944 14.4238 62.9495 19.6064C63.0826 19.9786 63.3684 20.2752 63.7351 20.4208C64.1018 20.5664 64.5153 20.5466 64.8676 20.3668L68.666 18.429L66.4118 23.5217C65.308 26.0115 63.061 27.8559 60.4005 28.4563L59.6616 28.6235ZM50.9772 10.4636C56.6955 14.1596 60.325 20.2482 60.8427 27.0271C62.7985 26.371 64.4182 24.9113 65.2595 23.013L66.0792 21.1632L65.2955 21.5569C64.6537 21.8355 63.9256 21.8499 63.2731 21.591C62.5702 21.3124 62.0201 20.7426 61.7667 20.0307C60.0805 15.3208 56.4888 11.5656 51.876 9.67083C51.5848 9.94587 51.2846 10.2101 50.9772 10.4636Z" fill="black"/>
    <path d="M18.1665 9.5126C13.8647 11.5763 10.5085 15.2633 8.87806 19.8167C8.46999 20.9546 7.15591 21.476 6.08092 20.9259L3.86621 19.7952L5.4032 23.2664C6.43325 25.5926 8.50235 27.2842 10.9777 27.8414C11.2438 21.2477 14.5371 15.4377 19.504 11.7543C18.9071 11.1197 18.4469 10.3575 18.1683 9.5108L18.1665 9.5126Z" fill="#FADB34"/>
    <path d="M11.5764 28.6216L10.8393 28.4563C8.17701 27.8576 5.92994 26.0133 4.82798 23.5217L2.57373 18.429L6.36677 20.3668C6.71731 20.5466 7.12898 20.5664 7.4957 20.4208C7.86421 20.2752 8.15184 19.9785 8.28486 19.6046C9.96027 14.9254 13.3381 11.1593 17.8034 8.98951L18.4542 8.36932L18.7652 9.31489C19.0132 10.0663 19.4159 10.7422 19.9606 11.3247L20.4442 11.8406L19.8761 12.2612C14.8697 15.9734 11.855 21.6629 11.6033 27.8684L11.5764 28.6216ZM5.15875 21.1614L5.97848 23.0112C6.81978 24.9095 8.43946 26.3692 10.3953 27.0253C10.8573 20.9673 13.809 15.4341 18.5962 11.6554C18.2942 11.2599 18.0389 10.8339 17.834 10.3827C13.9241 12.4428 10.9688 15.844 9.46952 20.0271C9.21425 20.7408 8.66237 21.3088 7.95949 21.5874C7.25661 21.8661 6.46744 21.8283 5.79512 21.4832L5.15875 21.1614Z" fill="black"/>
    <path d="M46.803 71.0714H24.4582C16.8793 71.0714 10.7134 64.9054 10.7134 57.3265V46.9235H11.2527C11.2527 54.2058 17.1759 60.1291 24.4582 60.1291H46.803C54.0853 60.1291 60.0085 54.2058 60.0085 46.9235H60.5478V57.3265C60.5478 64.9054 54.3819 71.0714 46.803 71.0714ZM11.2527 50.7417V57.3265C11.2527 64.6088 17.1759 70.5321 24.4582 70.5321H46.803C54.0853 70.5321 60.0085 64.6088 60.0085 57.3265V50.7417C58.3493 56.469 53.057 60.6684 46.803 60.6684H24.4582C18.2042 60.6684 12.9119 56.469 11.2527 50.7417Z" fill="black"/>
    <path d="M44.84 71.332H26.4213L23.7896 60.1057H47.4736L44.84 71.332ZM26.8492 70.7927H44.4122L46.7923 60.645H24.4691L26.8492 70.7927Z" fill="black"/>
    <path d="M31.1473 66.9422L24.4996 63.1383L23.7896 60.1057H36.1628L31.1473 66.9422ZM24.9706 62.786L30.9963 66.2339L35.0986 60.645H24.4691L24.9706 62.786Z" fill="black"/>
    <path d="M40.1141 66.9422L35.0986 60.1057H47.4719L46.7618 63.1383L40.1141 66.9422ZM36.1628 60.645L40.2651 66.2339L46.2908 62.786L46.7923 60.645H36.1628Z" fill="black"/>
    <path d="M17.5121 20.6419C17.5121 20.6419 17.4977 20.6059 17.4798 20.5358C17.4654 20.4837 17.4456 20.4028 17.4204 20.2967C17.3539 20.0487 17.3252 19.7125 17.336 19.3314L17.3467 19.2092C17.3611 19.0366 17.3773 18.8406 17.4366 18.6357L17.4546 18.562C17.4762 18.4703 17.4995 18.375 17.5337 18.278C17.5822 18.1503 17.6308 18.0281 17.6829 17.9041C17.8699 17.4996 18.2114 16.9261 18.7956 16.439C19.3889 15.9536 20.0162 15.7289 20.4351 15.6246C20.5771 15.5941 20.7065 15.5707 20.8306 15.5491C20.9348 15.5312 21.0337 15.5276 21.1218 15.524C21.1542 15.524 21.1865 15.5222 21.2171 15.5204C21.271 15.5168 21.3285 15.5132 21.3861 15.5132C21.5514 15.5132 21.706 15.5312 21.8409 15.5455L22.0566 15.5725L22.2004 15.6085L22.4413 15.6714C22.5959 15.7073 22.7289 15.7685 22.8278 15.8116L22.844 15.8188C23.0435 15.9087 23.1478 15.9644 23.1531 15.9662L23.8147 16.3221L23.0776 16.4677C23.0776 16.4677 22.9572 16.4911 22.7523 16.5253L22.6965 16.5343C22.6121 16.5468 22.5258 16.5594 22.4305 16.5864L22.1788 16.6475L22.1015 16.6655L21.9973 16.7014C21.9505 16.7176 21.9038 16.732 21.8552 16.7482C21.7384 16.7859 21.6287 16.8201 21.5191 16.8722C21.4741 16.892 21.4346 16.9082 21.3932 16.9243C21.3483 16.9423 21.3034 16.9585 21.2584 16.9819C21.1685 17.0304 21.0733 17.0771 20.978 17.1239C20.6131 17.3252 20.2589 17.5625 19.9354 17.8232C19.628 18.0802 19.3277 18.384 19.0473 18.722C18.9916 18.7975 18.9269 18.8802 18.8604 18.9611C18.8388 18.9916 18.8118 19.0348 18.7849 19.0761C18.7597 19.1139 18.7363 19.1516 18.7112 19.1894C18.641 19.2847 18.5889 19.3781 18.535 19.477C18.5062 19.5291 18.4793 19.5795 18.4487 19.6298C18.2923 19.9372 18.1862 20.1745 18.1341 20.3345L17.7638 21.3088L17.5103 20.6437L17.5121 20.6419Z" fill="#FED932"/>
    <path d="M21.3879 15.781C21.5605 15.781 21.7241 15.8026 21.8715 15.8188C21.9182 15.8242 21.965 15.8296 22.0099 15.8368C22.053 15.8475 22.098 15.8583 22.1411 15.8691C22.222 15.8907 22.3011 15.9105 22.3766 15.932C22.5222 15.9662 22.6409 16.0219 22.7379 16.0651C22.9303 16.1513 23.0292 16.2053 23.0292 16.2053C23.0292 16.2053 22.9123 16.2286 22.7128 16.261C22.6139 16.2772 22.4935 16.2898 22.3586 16.3293C22.2903 16.3455 22.2184 16.3635 22.1447 16.3814C22.107 16.3904 22.0692 16.3994 22.0297 16.4066C21.9901 16.4192 21.9506 16.4336 21.911 16.4462C21.751 16.5019 21.5785 16.5468 21.4023 16.6295C21.3142 16.6691 21.2225 16.696 21.1326 16.7428C21.0428 16.7895 20.9529 16.8362 20.8594 16.8812C20.4945 17.0807 20.1242 17.3216 19.7646 17.6146C19.4087 17.9112 19.1031 18.2312 18.8388 18.5512C18.7759 18.6339 18.713 18.713 18.6501 18.7921C18.5908 18.873 18.5422 18.9557 18.4883 19.0348C18.3732 19.1894 18.2995 19.353 18.2115 19.4986C18.0605 19.797 17.9382 20.0612 17.8771 20.25C17.8088 20.4315 17.7638 20.5502 17.7638 20.5502C17.7638 20.5502 17.7531 20.5232 17.7405 20.4711C17.7261 20.419 17.7063 20.3417 17.6829 20.2374C17.6272 20.0325 17.5931 19.7287 17.6057 19.3404C17.6236 19.1498 17.6308 18.9323 17.6955 18.7112C17.7243 18.5997 17.7495 18.4811 17.789 18.3643C17.8322 18.2492 17.8807 18.1306 17.931 18.0083C18.1503 17.5319 18.4937 17.0412 18.9683 16.6475C19.4464 16.2574 19.9929 16.0129 20.5017 15.8871C20.6311 15.8601 20.7569 15.8368 20.8774 15.8152C20.9996 15.7954 21.1219 15.7954 21.2351 15.7882C21.2854 15.7846 21.3358 15.7828 21.3861 15.7828M21.3861 15.2435C21.3214 15.2435 21.2585 15.2453 21.1974 15.2507C21.1686 15.2507 21.1416 15.2543 21.1129 15.2543C21.0176 15.2579 20.9079 15.2633 20.7893 15.2831C20.6563 15.3064 20.5232 15.3316 20.3938 15.3586H20.383L20.3722 15.364C19.7305 15.524 19.1283 15.8224 18.6285 16.2304C18.0011 16.7518 17.638 17.363 17.4439 17.7836L17.4403 17.7926L17.4367 17.8016C17.3845 17.9238 17.3342 18.0497 17.2875 18.1737L17.2839 18.1845L17.2803 18.1953C17.2425 18.3049 17.2174 18.4092 17.1958 18.5009L17.1778 18.5764C17.1131 18.8047 17.0969 19.0186 17.0825 19.1912C17.0789 19.2253 17.0771 19.2595 17.0735 19.2936V19.3098L17.0717 19.326C17.0592 19.7287 17.0915 20.09 17.1634 20.3686C17.1886 20.4747 17.2102 20.5574 17.2245 20.6131C17.2407 20.6796 17.2569 20.7228 17.2623 20.7389L17.762 22.0872L18.2726 20.7443L18.3858 20.4441L18.3912 20.4315L18.3948 20.419C18.4272 20.3183 18.5045 20.1242 18.6896 19.761C18.7184 19.7107 18.7472 19.6604 18.7759 19.6082C18.8245 19.5183 18.8712 19.4321 18.9251 19.3602L18.9305 19.353L18.9359 19.3458C18.9629 19.3062 18.9898 19.2667 19.015 19.2253C19.0366 19.1912 19.0582 19.157 19.0833 19.1229C19.1444 19.0474 19.2056 18.9683 19.2667 18.8892C19.5345 18.5674 19.8204 18.2798 20.1152 18.0317C20.4154 17.789 20.7533 17.5625 21.1111 17.3648C21.2045 17.3198 21.298 17.2731 21.3879 17.2245C21.4131 17.212 21.4508 17.1976 21.494 17.1796C21.5389 17.1616 21.5839 17.1454 21.627 17.1257H21.6324L21.6378 17.1203C21.7313 17.0753 21.8337 17.043 21.9416 17.0088C21.9919 16.9926 22.0423 16.9765 22.0908 16.9603L22.1537 16.9387L22.1807 16.9297H22.1915L22.267 16.91L22.4503 16.8668L22.4881 16.8578L22.5007 16.8542L22.5132 16.8506C22.5905 16.8291 22.6642 16.8165 22.7433 16.8057L22.8027 16.7967C23.0094 16.7643 23.1352 16.7392 23.1388 16.7374L24.6129 16.4444L23.2898 15.7325C23.2772 15.7253 23.1676 15.6678 22.9644 15.5761L22.9483 15.5689C22.8422 15.5222 22.6984 15.4557 22.515 15.4125L22.409 15.3837L22.2849 15.3514H22.2795L22.2741 15.3496L22.2094 15.3334L22.1429 15.3172L22.1124 15.31L22.0818 15.3064L21.9434 15.2885L21.8787 15.2813C21.7367 15.2651 21.5731 15.2471 21.3933 15.2471L21.3861 15.2435Z" fill="black"/>
    <path d="M53.1289 20.3434C53.0732 20.1709 52.9671 19.9336 52.8107 19.6262C52.782 19.5776 52.7532 19.5255 52.7245 19.4734C52.6705 19.3745 52.6202 19.281 52.5537 19.1929C52.5231 19.148 52.498 19.1102 52.4746 19.0725C52.4476 19.0312 52.4207 18.988 52.3901 18.9485C52.3326 18.8784 52.2679 18.7957 52.2031 18.7112C51.9317 18.3822 51.6315 18.0802 51.3187 17.8195C50.9987 17.5607 50.6446 17.3234 50.2671 17.1167C50.1844 17.0771 50.0909 17.0304 49.9992 16.9818C49.9561 16.9585 49.9093 16.9423 49.8662 16.9243C49.8248 16.9081 49.7853 16.8919 49.7458 16.8758C49.6307 16.8218 49.521 16.7859 49.4042 16.7481C49.3557 16.732 49.3071 16.7176 49.2604 16.7014L49.1561 16.6654L49.0555 16.6421L48.8379 16.5899C48.7301 16.5594 48.6438 16.5468 48.5611 16.5342L48.5054 16.5252C48.2986 16.4929 48.1782 16.4677 48.1782 16.4677L47.4412 16.3203L48.1027 15.9644C48.1027 15.9644 48.2124 15.905 48.4119 15.817C48.5251 15.7666 48.6582 15.7055 48.8218 15.6677L49.0501 15.6066L49.2011 15.5707L49.4168 15.5437C49.5534 15.5275 49.7062 15.5114 49.8716 15.5114C49.9291 15.5114 49.9866 15.5132 50.0442 15.5185C50.0711 15.5185 50.1017 15.5221 50.134 15.5221C50.2221 15.5257 50.321 15.5293 50.4253 15.5473C50.5511 15.5689 50.6787 15.5922 50.8118 15.621C51.2432 15.7271 51.8688 15.9536 52.4602 16.4371C53.0462 16.9243 53.3878 17.4978 53.5712 17.895C53.6269 18.0281 53.6754 18.1503 53.7204 18.2672C53.7563 18.375 53.7797 18.4685 53.8012 18.5602L53.8228 18.6447C53.8803 18.8442 53.8965 19.0383 53.9109 19.2127L53.9199 19.317C53.9325 19.7143 53.9037 20.0522 53.8354 20.3075C53.8138 20.4046 53.7923 20.4854 53.7779 20.5412C53.7599 20.6095 53.7455 20.6454 53.7455 20.6454L53.4903 21.2998L53.1271 20.347L53.1289 20.3434Z" fill="#FED932"/>
    <path d="M49.8735 15.781C49.9238 15.781 49.9742 15.781 50.0245 15.7864C50.1395 15.7936 50.2618 15.7918 50.3822 15.8134C50.5045 15.8349 50.6303 15.8583 50.7579 15.8853C51.2667 16.0111 51.8132 16.2556 52.2913 16.6457C52.7659 17.0394 53.1075 17.5319 53.3286 18.0065C53.3807 18.1287 53.4274 18.2474 53.4706 18.3624C53.5101 18.4793 53.5353 18.5979 53.5641 18.7094C53.627 18.9305 53.636 19.148 53.6539 19.3386C53.6665 19.7251 53.6324 20.0307 53.5766 20.2356C53.5533 20.3381 53.5335 20.4154 53.5191 20.4693C53.5047 20.5214 53.4958 20.5484 53.4958 20.5484C53.4958 20.5484 53.4508 20.4297 53.3825 20.2482C53.3214 20.0576 53.1991 19.7952 53.0481 19.4968C52.9601 19.3511 52.8881 19.1876 52.7713 19.033C52.7174 18.9539 52.6688 18.8712 52.6095 18.7903C52.5466 18.7112 52.4837 18.6321 52.4208 18.5494C52.1565 18.2294 51.8509 17.9094 51.495 17.6128C51.1354 17.3216 50.7651 17.0807 50.4002 16.8794C50.3067 16.8344 50.2168 16.7877 50.127 16.741C50.0371 16.6942 49.9454 16.6673 49.8573 16.6277C49.6829 16.545 49.5104 16.5001 49.3486 16.4443C49.309 16.43 49.2695 16.4174 49.2299 16.4048C49.1922 16.3958 49.1526 16.3868 49.1149 16.3796C49.0412 16.3617 48.9693 16.3455 48.901 16.3275C48.7643 16.288 48.6457 16.2736 48.5468 16.2592C48.3473 16.2268 48.2304 16.2035 48.2304 16.2035C48.2304 16.2035 48.3293 16.1495 48.5217 16.0632C48.6187 16.0201 48.7374 15.9644 48.883 15.9302C48.9585 15.9104 49.0376 15.8889 49.1185 15.8673C49.1616 15.8565 49.2048 15.8457 49.2497 15.8349C49.2964 15.8296 49.3414 15.8242 49.3881 15.817C49.5355 15.8008 49.6991 15.7792 49.8717 15.7792M49.8717 15.2399C49.6901 15.2399 49.5283 15.2579 49.3863 15.2741L49.3288 15.2813L49.1832 15.2992L49.1526 15.3028L49.1221 15.31L49.0502 15.328L48.9908 15.3424H48.9854L48.9801 15.3442L48.8309 15.3837L48.75 15.4053C48.5666 15.4502 48.421 15.515 48.3167 15.5617L48.3005 15.5689C48.0974 15.6606 47.986 15.7199 47.9752 15.7253L46.6521 16.4372L48.1262 16.7302C48.1262 16.7302 48.2556 16.7553 48.4623 16.7895L48.5217 16.7985C48.6008 16.8093 48.6745 16.8219 48.7518 16.8434L48.7643 16.847L48.7769 16.8506L48.9908 16.9027L49.0663 16.9207L49.0843 16.9243L49.176 16.9549C49.2227 16.9711 49.2731 16.9872 49.3234 17.0034C49.4313 17.0376 49.5337 17.0699 49.6272 17.1149H49.6326L49.638 17.1203C49.6811 17.14 49.7261 17.158 49.771 17.1742C49.8142 17.1904 49.8519 17.2048 49.8789 17.2191C49.967 17.2659 50.0586 17.3126 50.1539 17.3576C50.5134 17.5553 50.8496 17.7818 51.157 18.0299C51.4464 18.2726 51.7323 18.5602 52.0001 18.882C52.0612 18.9611 52.1223 19.0402 52.1835 19.1157C52.2068 19.1498 52.2302 19.184 52.2518 19.2181C52.2787 19.2595 52.3039 19.299 52.3309 19.3386L52.3363 19.3458L52.3417 19.3529C52.3956 19.4249 52.4423 19.5111 52.4909 19.601C52.5196 19.6532 52.5466 19.7053 52.5772 19.7538C52.7623 20.1169 52.8396 20.3129 52.872 20.4118L52.8756 20.4243L52.881 20.4369L52.9942 20.7371L53.5047 22.08L54.0045 20.7317C54.0099 20.7156 54.0261 20.6706 54.044 20.6005C54.0584 20.5502 54.0782 20.4693 54.1034 20.3614C54.1771 20.081 54.2094 19.7215 54.195 19.3188V19.3026L54.1932 19.2864C54.1896 19.2541 54.1878 19.2199 54.1843 19.184C54.1699 19.0114 54.1519 18.7957 54.089 18.5692L54.071 18.4937C54.0494 18.402 54.0225 18.2977 53.9865 18.1881L53.9829 18.1773L53.9793 18.1665C53.9326 18.0425 53.8822 17.9166 53.8301 17.7944L53.8265 17.7854L53.8229 17.7764C53.6288 17.3558 53.2657 16.7446 52.6419 16.2268C52.1385 15.817 51.5363 15.5168 50.8946 15.3568H50.8838L50.873 15.3514C50.7435 15.3244 50.6105 15.2992 50.4793 15.2759C50.3571 15.2561 50.2492 15.2507 50.1521 15.2471C50.1234 15.2471 50.0946 15.2453 50.0676 15.2435C50.0065 15.2381 49.9436 15.2363 49.8789 15.2363L49.8717 15.2399Z" fill="black"/>
</svg>
