<svg width="16" height="16" viewBox="0 0 16 16" fill="none" xmlns="http://www.w3.org/2000/svg">
<path d="M10.3362 13.8852H11.3503C11.7504 13.8852 12.0036 13.4558 11.8102 13.1057L10.7683 11.2203H8.48047V12.0295C8.48047 13.0542 9.3112 13.8849 10.3359 13.8849L10.3362 13.8852Z" fill="#5A3F34"/>
<path d="M9.28613 13.1012H10.024C10.5897 13.1012 11.1058 12.8889 11.4977 12.5399L11.8103 13.1057C11.9735 13.4011 11.8188 13.7527 11.5263 13.8557H10.7799C10.1674 13.8557 9.62446 13.5587 9.28643 13.1012H9.28613Z" fill="#735B4D"/>
<path d="M6.03631 13.8852H5.02223C4.62209 13.8852 4.36894 13.4558 4.56235 13.1057L5.60424 11.2203H7.89206V12.0295C7.89206 13.0542 7.06134 13.8849 6.03661 13.8849L6.03631 13.8852Z" fill="#5A3F34"/>
<path d="M7.60104 2.11487H8.77039C10.6856 2.11487 12.2406 3.66986 12.2406 5.58505V10.2932C12.2406 11.5167 11.2472 12.51 10.0237 12.51H6.34771C5.12424 12.51 4.13086 11.5167 4.13086 10.2932V5.58505C4.13086 3.66986 5.68585 2.11487 7.60104 2.11487Z" fill="#5A3F34"/>
<path d="M7.85662 2.11487H8.51463C10.321 2.11487 11.7873 3.58143 11.7873 5.3875V9.86408C11.7873 10.8072 11.0216 11.5726 10.0788 11.5726H6.29246C5.34935 11.5726 4.58398 10.8069 4.58398 9.86408V5.3875C4.58398 3.58114 6.05055 2.11487 7.85662 2.11487Z" fill="#735B4D"/>
<path d="M10.0237 12.6133H6.3477C5.06834 12.6133 4.02734 11.5723 4.02734 10.2929V5.5848C4.02734 3.6143 5.63054 2.01111 7.60104 2.01111H8.77038C10.7409 2.01111 12.3441 3.6143 12.3441 5.5848V10.2929C12.3441 11.5723 11.3031 12.6133 10.0237 12.6133ZM7.60104 2.21842C5.74469 2.21842 4.23436 3.72875 4.23436 5.5851V10.2932C4.23436 11.4584 5.18249 12.4066 6.3477 12.4066H10.0237C11.1889 12.4066 12.1371 11.4584 12.1371 10.2932V5.5851C12.1371 3.72875 10.6267 2.21842 8.77038 2.21842H7.60104Z" fill="black"/>
<path d="M10.546 9.31427C9.01405 9.82531 7.35792 9.82531 5.826 9.31427C5.55658 9.22437 5.375 8.9724 5.375 8.68849V6.72805C5.375 6.3427 5.75266 6.07033 6.11848 6.19247C7.46054 6.63992 8.91143 6.63992 10.2535 6.19247C10.619 6.07062 10.997 6.3427 10.997 6.72805V8.68849C10.997 8.9724 10.8154 9.22437 10.546 9.31427Z" fill="#4C1615"/>
<path d="M6.27596 5.43888C6.75305 5.43888 7.13981 5.05212 7.13981 4.57503C7.13981 4.09794 6.75305 3.71118 6.27596 3.71118C5.79887 3.71118 5.41211 4.09794 5.41211 4.57503C5.41211 5.05212 5.79887 5.43888 6.27596 5.43888Z" fill="black"/>
<path d="M6.27553 5.4561C5.78964 5.4561 5.39453 5.0607 5.39453 4.57509C5.39453 4.08949 5.78993 3.69409 6.27553 3.69409C6.76113 3.69409 7.15654 4.08949 7.15654 4.57509C7.15654 5.0607 6.76113 5.4561 6.27553 5.4561ZM6.27553 3.7284C5.80886 3.7284 5.42913 4.10812 5.42913 4.5748C5.42913 5.04147 5.80886 5.4212 6.27553 5.4212C6.74221 5.4212 7.12194 5.04147 7.12194 4.5748C7.12194 4.10812 6.74221 3.7284 6.27553 3.7284Z" fill="#080808"/>
<path d="M10.0982 5.43888C10.5753 5.43888 10.9621 5.05212 10.9621 4.57503C10.9621 4.09794 10.5753 3.71118 10.0982 3.71118C9.62113 3.71118 9.23438 4.09794 9.23438 4.57503C9.23438 5.05212 9.62113 5.43888 10.0982 5.43888Z" fill="black"/>
<path d="M10.0978 5.4561C9.6119 5.4561 9.2168 5.0607 9.2168 4.57509C9.2168 4.08949 9.6122 3.69409 10.0978 3.69409C10.5834 3.69409 10.9788 4.08949 10.9788 4.57509C10.9788 5.0607 10.5834 5.4561 10.0978 5.4561ZM10.0978 3.7284C9.63113 3.7284 9.2514 4.10812 9.2514 4.5748C9.2514 5.04147 9.63113 5.4212 10.0978 5.4212C10.5645 5.4212 10.9442 5.04147 10.9442 4.5748C10.9442 4.10812 10.5645 3.7284 10.0978 3.7284Z" fill="#080808"/>
<path d="M10.3188 4.70225C10.4912 4.70225 10.6308 4.56256 10.6308 4.39025C10.6308 4.21794 10.4912 4.07825 10.3188 4.07825C10.1465 4.07825 10.0068 4.21794 10.0068 4.39025C10.0068 4.56256 10.1465 4.70225 10.3188 4.70225Z" fill="white"/>
<path d="M6.49657 4.70225C6.66889 4.70225 6.80858 4.56256 6.80858 4.39025C6.80858 4.21794 6.66889 4.07825 6.49657 4.07825C6.32426 4.07825 6.18457 4.21794 6.18457 4.39025C6.18457 4.56256 6.32426 4.70225 6.49657 4.70225Z" fill="white"/>
<mask id="mask0_306_106" style="mask-type:luminance" maskUnits="userSpaceOnUse" x="5" y="6" width="6" height="4">
<path d="M10.5469 9.31415C9.01503 9.82519 7.3589 9.82519 5.82698 9.31415C5.55756 9.22425 5.37598 8.97228 5.37598 8.68837V6.72792C5.37598 6.34258 5.75363 6.0702 6.11946 6.19234C7.46152 6.6398 8.91241 6.6398 10.2545 6.19234C10.62 6.0705 10.9979 6.34258 10.9979 6.72792V8.68837C10.9979 8.97228 10.8164 9.22425 10.5469 9.31415Z" fill="white"/>
</mask>
<g mask="url(#mask0_306_106)">
<path d="M9.90504 8.49915C9.90504 9.02201 9.13553 9.4458 8.18592 9.4458C7.23631 9.4458 6.4668 9.02201 6.4668 8.49915C6.4668 8.18389 6.74656 7.90442 7.17716 7.73259C7.3342 7.6699 7.51045 7.67492 7.66424 7.74531L8.05994 7.92689C8.13978 7.96356 8.23176 7.96356 8.31161 7.92689L8.70731 7.74531C8.86109 7.67463 9.03735 7.6699 9.19439 7.73259C9.62468 7.90471 9.90475 8.18389 9.90475 8.49915H9.90504Z" fill="#EB544D"/>
<path d="M8.18652 7.95403C8.22941 7.95403 8.27258 7.94486 8.31251 7.92653L8.7082 7.74494C8.86199 7.67426 9.03825 7.66953 9.19528 7.73223C9.62558 7.90435 9.90565 8.18352 9.90565 8.49878C9.90565 9.02164 9.13614 9.44544 8.18652 9.44544" fill="#BA2020"/>
<path d="M4.24121 6.03186L5.64596 6.74932L6.28417 7.44401L6.91823 6.77594L7.55229 7.44401L8.18635 6.77594L8.82041 7.44401L9.45447 6.77594L10.0885 7.44401L10.7226 6.74932L12.1276 6.03186H4.24121Z" fill="white"/>
<path d="M10.0896 7.5108L9.45497 6.84185L8.82091 7.51021L8.18685 6.84185L7.55279 7.51021L6.91873 6.84185L6.28407 7.5108L5.61867 6.78625L4.05273 5.98657H12.3168L10.7512 6.78625L10.0896 7.5111V7.5108ZM6.91843 6.70995L7.55249 7.37831L8.18655 6.70995L8.82062 7.37831L9.45468 6.70995L10.0881 7.37743L10.695 6.71261L11.9389 6.07736H4.43039L5.67426 6.71261L6.28496 7.37743L6.91843 6.70965V6.70995Z" fill="black"/>
<path d="M8.18625 9.49135C7.21327 9.49135 6.42188 9.04626 6.42188 8.49915C6.42188 8.17768 6.69809 7.87514 7.16063 7.69031C7.32802 7.62347 7.51877 7.6282 7.68349 7.70391L8.07919 7.88549C8.14721 7.91655 8.22528 7.91655 8.29301 7.88549L8.6887 7.70391C8.85343 7.6282 9.04418 7.62347 9.21157 7.69031C9.6741 7.87514 9.95032 8.17768 9.95032 8.49915C9.95032 9.04626 9.15863 9.49135 8.18595 9.49135H8.18625ZM7.40579 7.73437C7.33393 7.73437 7.26207 7.74768 7.19434 7.77489C6.76759 7.94553 6.51267 8.21642 6.51267 8.49944C6.51267 8.99628 7.26354 9.40085 8.18625 9.40085C9.10895 9.40085 9.85983 8.99658 9.85983 8.49944C9.85983 8.21642 9.6049 7.94553 9.17815 7.77489C9.03353 7.71722 8.8691 7.72136 8.72685 7.78672L8.33116 7.9683C8.23918 8.01059 8.1336 8.01059 8.04133 7.9683L7.64564 7.78672C7.56993 7.75182 7.48771 7.73437 7.4055 7.73437H7.40579Z" fill="black"/>
<path d="M4.24121 9.72855L5.64596 9.01109L6.28417 8.31641L6.91823 8.98448L7.55229 8.31641L8.18635 8.98448L8.82041 8.31641L9.45447 8.98448L10.0885 8.31641L10.7226 9.01109L12.1276 9.72855H4.24121Z" fill="white"/>
<path d="M12.3159 9.77411H4.05176L5.61769 8.97444L6.2831 8.24988L6.91775 8.91884L7.55181 8.25047L8.18587 8.91884L8.81994 8.25047L9.454 8.91884L10.0887 8.24988L10.7502 8.97473L12.3159 9.77441V9.77411ZM4.42941 9.68332H11.9379L10.694 9.04807L10.0872 8.38326L9.4537 9.05074L8.81964 8.38237L8.18558 9.05074L7.55152 8.38237L6.91746 9.05074L6.28399 8.38296L5.67329 9.04778L4.42941 9.68302V9.68332Z" fill="black"/>
</g>
<path d="M8.18682 9.78359C7.37768 9.78359 6.56884 9.65524 5.79874 9.39824C5.49265 9.29621 5.28711 9.01082 5.28711 8.68847V6.72802C5.28711 6.51539 5.38589 6.32227 5.5586 6.19806C5.73101 6.07385 5.94572 6.04103 6.14741 6.10845C7.46256 6.54703 8.91108 6.54703 10.2265 6.10845C10.4282 6.04132 10.6429 6.07385 10.8153 6.19806C10.9877 6.32227 11.0868 6.51568 11.0868 6.72802V8.68847C11.0868 9.01112 10.8813 9.29621 10.5752 9.39824C9.80509 9.65494 8.99625 9.78359 8.18711 9.78359H8.18682ZM5.93921 6.25159C5.84132 6.25159 5.74521 6.28235 5.6624 6.34179C5.53671 6.43229 5.46485 6.57306 5.46485 6.72802V8.68847C5.46485 8.93452 5.62159 9.15219 5.85493 9.22997C7.35875 9.73154 9.01518 9.73154 10.519 9.22997C10.7523 9.15219 10.9094 8.93452 10.9094 8.68847V6.72802C10.9094 6.57306 10.8372 6.43229 10.7118 6.34179C10.5861 6.2513 10.43 6.22734 10.283 6.27643C8.93148 6.72714 7.44304 6.72714 6.09181 6.27643C6.04154 6.25987 5.99037 6.25159 5.9398 6.25159H5.93921Z" fill="black"/>
<path d="M7.08652 13.1012H6.34866C5.78291 13.1012 5.26685 12.8889 4.875 12.5399L4.5624 13.1057C4.39915 13.4011 4.55383 13.7527 4.84631 13.8557H5.59275C6.20522 13.8557 6.7482 13.5587 7.08623 13.1012H7.08652Z" fill="#735B4D"/>
<path d="M6.03628 13.9887H5.02219C4.79743 13.9887 4.59485 13.8731 4.4807 13.6794C4.36654 13.4857 4.363 13.2526 4.47183 13.0557L5.06744 11.9774L5.16149 12.0413C5.51223 12.28 5.92272 12.4062 6.34858 12.4062H7.9639L7.929 12.5364C7.70039 13.3913 6.92231 13.9887 6.03657 13.9887H6.03628ZM5.14019 12.274L4.65311 13.1559C4.58007 13.2878 4.58243 13.4443 4.65903 13.5744C4.73562 13.7042 4.87137 13.782 5.02249 13.782H6.03657C6.78302 13.782 7.44399 13.3079 7.68886 12.6135H6.34858C5.91917 12.6135 5.50366 12.4967 5.14019 12.2743V12.274Z" fill="black"/>
<path d="M11.3506 13.9887H10.3365C9.45077 13.9887 8.67239 13.3916 8.44408 12.5364L8.40918 12.4062H10.0245C10.4504 12.4062 10.8608 12.28 11.2116 12.0413L11.3053 11.9774L11.901 13.0557C12.0098 13.2526 12.0065 13.4857 11.8921 13.6794C11.7779 13.8731 11.5753 13.9887 11.3506 13.9887ZM8.68422 12.6133C8.92909 13.3076 9.59006 13.7817 10.3365 13.7817H11.3506C11.5014 13.7817 11.6372 13.7042 11.714 13.5741C11.7906 13.4443 11.793 13.2878 11.72 13.1556L11.2326 12.2737C10.8691 12.4961 10.4539 12.613 10.0242 12.613H8.68392L8.68422 12.6133Z" fill="black"/>
<path d="M5.83804 5.06598C5.9104 5.06598 5.96905 5.00732 5.96905 4.93497C5.96905 4.86261 5.9104 4.80396 5.83804 4.80396C5.76569 4.80396 5.70703 4.86261 5.70703 4.93497C5.70703 5.00732 5.76569 5.06598 5.83804 5.06598Z" fill="white"/>
<path d="M9.66031 5.06598C9.73266 5.06598 9.79132 5.00732 9.79132 4.93497C9.79132 4.86261 9.73266 4.80396 9.66031 4.80396C9.58795 4.80396 9.5293 4.86261 9.5293 4.93497C9.5293 5.00732 9.58795 5.06598 9.66031 5.06598Z" fill="white"/>
<path d="M3.21169 5.64417C3.72006 5.64417 4.13202 6.02241 4.13202 6.48879V9.3885L2.53267 6.69315C2.25231 6.22026 2.62494 5.64446 3.21169 5.64446V5.64417Z" fill="#735B4D"/>
<path d="M4.23992 9.78209L2.43976 6.74782C2.29633 6.50591 2.29337 6.21579 2.43207 5.9721C2.58526 5.70298 2.88396 5.53589 3.21164 5.53589C3.77856 5.53589 4.23992 5.96323 4.23992 6.48846V9.78179V9.78209ZM3.21164 5.75207C2.96144 5.75207 2.73491 5.87747 2.61986 6.07916C2.51843 6.25719 2.5205 6.46096 2.62548 6.63781L4.02373 8.99454V6.48876C4.02373 6.08271 3.65938 5.75237 3.21164 5.75237V5.75207Z" fill="black"/>
<path d="M3.80361 7.71847L3.57057 6.53493C3.49101 6.13036 3.10951 5.84556 2.67773 5.84053C2.81348 5.72076 2.99831 5.64417 3.21184 5.64417C3.72021 5.64417 4.13217 6.02241 4.13217 6.48879V9.3885L3.80361 7.71876V7.71847Z" fill="#5A3F34"/>
<path d="M4.23992 9.78209L2.43976 6.74782C2.29633 6.50591 2.29337 6.21579 2.43207 5.9721C2.58526 5.70298 2.88396 5.53589 3.21164 5.53589C3.77856 5.53589 4.23992 5.96323 4.23992 6.48846V9.78179V9.78209ZM3.21164 5.75207C2.96144 5.75207 2.73491 5.87747 2.61986 6.07916C2.51843 6.25719 2.5205 6.46096 2.62548 6.63781L4.02373 8.99454V6.48876C4.02373 6.08271 3.65938 5.75237 3.21164 5.75237V5.75207Z" fill="black"/>
<path d="M13.1625 5.64417C12.6541 5.64417 12.2422 6.02241 12.2422 6.48879V7.69156V9.3882L13.8415 6.69285C14.1219 6.21997 13.7493 5.64417 13.1625 5.64417Z" fill="#5A3F34"/>
<path d="M12.1338 9.78209V6.48876C12.1338 6.23265 12.242 5.99221 12.4384 5.81181C12.6321 5.63407 12.8891 5.53589 13.1621 5.53589C13.4897 5.53589 13.7884 5.70298 13.9416 5.9721C14.0803 6.21579 14.0777 6.50591 13.9339 6.74782L12.1338 9.78179V9.78209ZM13.1621 5.75207C12.9432 5.75207 12.7383 5.82985 12.5845 5.97092C12.4334 6.10962 12.35 6.29357 12.35 6.48846V8.99425L13.7482 6.63751C13.8532 6.46066 13.8553 6.2569 13.7538 6.07886C13.6391 5.87717 13.4123 5.75178 13.1621 5.75178V5.75207Z" fill="black"/>
<path d="M6.11337 3.52792C6.11337 3.52792 6.09415 3.53176 6.06132 3.53708C6.04506 3.53974 6.02524 3.54181 6.00306 3.54832C5.99182 3.55098 5.97999 3.55394 5.96787 3.5569C5.96166 3.55838 5.95545 3.55985 5.94894 3.56104C5.94244 3.56311 5.93593 3.56547 5.92942 3.56754C5.9031 3.57671 5.87471 3.58411 5.84573 3.59771C5.83124 3.60422 5.81616 3.60865 5.80137 3.61634C5.78658 3.62403 5.7718 3.63172 5.75642 3.63911C5.69638 3.67194 5.63546 3.71157 5.57631 3.75977C5.51776 3.80857 5.46748 3.86121 5.42401 3.91385C5.41366 3.92746 5.40331 3.94047 5.39296 3.95348C5.3832 3.96679 5.37521 3.98039 5.36634 3.99341C5.34741 4.01884 5.33529 4.04575 5.3208 4.06971C5.29595 4.1188 5.27584 4.16227 5.26579 4.19332C5.25455 4.22319 5.24716 4.24271 5.24716 4.24271C5.24716 4.24271 5.24538 4.23828 5.24331 4.2297C5.24095 4.22112 5.23769 4.20841 5.23385 4.19125C5.22468 4.15754 5.21906 4.10756 5.22113 4.04368C5.22409 4.01233 5.22527 3.97655 5.23592 3.94017C5.24065 3.92184 5.24479 3.90232 5.2513 3.8831C5.25839 3.86417 5.26638 3.84465 5.27466 3.82454C5.31074 3.74617 5.36723 3.66543 5.4453 3.60067C5.52397 3.53649 5.61387 3.49627 5.69757 3.47557C5.71886 3.47113 5.73956 3.46729 5.75937 3.46374C5.77948 3.46049 5.79959 3.46049 5.81823 3.4593C5.85608 3.45635 5.89127 3.46108 5.92262 3.46463C5.93031 3.46551 5.938 3.4664 5.94539 3.46758C5.95249 3.46936 5.95988 3.47113 5.96698 3.47291C5.98029 3.47646 5.9933 3.47971 6.00572 3.48326C6.02968 3.48888 6.0492 3.49805 6.06517 3.50514C6.09681 3.51934 6.11308 3.52821 6.11308 3.52821L6.11337 3.52792Z" fill="black"/>
<path d="M10.2601 3.52784C10.2601 3.52784 10.2763 3.51897 10.308 3.50478C10.3239 3.49768 10.3435 3.48851 10.3674 3.48289C10.3798 3.47964 10.3928 3.47609 10.4062 3.47254C10.4133 3.47077 10.4204 3.46899 10.4277 3.46722C10.4354 3.46633 10.4428 3.46544 10.4505 3.46426C10.4819 3.46071 10.5174 3.45598 10.5549 3.45894C10.5738 3.46012 10.5939 3.45982 10.6138 3.46337C10.6339 3.46692 10.6546 3.47077 10.6756 3.4752C10.7593 3.4959 10.8492 3.53613 10.9278 3.6003C11.0059 3.66507 11.0621 3.7461 11.0985 3.82417C11.1071 3.84428 11.1147 3.8638 11.1218 3.88273C11.1283 3.90195 11.1325 3.92147 11.1372 3.93981C11.1476 3.97618 11.149 4.01197 11.152 4.04332C11.1541 4.1069 11.1485 4.15717 11.1393 4.19089C11.1354 4.20775 11.1322 4.22046 11.1298 4.22933C11.1275 4.23791 11.126 4.24235 11.126 4.24235C11.126 4.24235 11.1186 4.22283 11.1073 4.19296C11.0973 4.16161 11.0772 4.11843 11.0523 4.06934C11.0379 4.04539 11.026 4.01847 11.0068 3.99304C10.9979 3.98003 10.9899 3.96642 10.9802 3.95312C10.9698 3.9401 10.9595 3.92709 10.9491 3.91349C10.9057 3.86085 10.8554 3.8082 10.7968 3.75941C10.7377 3.7115 10.6768 3.67187 10.6167 3.63875C10.6013 3.63135 10.5866 3.62366 10.5718 3.61597C10.557 3.60829 10.5419 3.60385 10.5274 3.59734C10.4987 3.58374 10.4703 3.57635 10.4437 3.56718C10.4372 3.56481 10.4307 3.56274 10.4242 3.56067C10.418 3.55919 10.4115 3.55771 10.4053 3.55653C10.3931 3.55357 10.3813 3.55091 10.3701 3.54795C10.3476 3.54145 10.3281 3.53908 10.3118 3.53672C10.279 3.53139 10.2598 3.52755 10.2598 3.52755L10.2601 3.52784Z" fill="black"/>
</svg>
